<?xml version="1.0" encoding="iso-8859-1"?>
<!-- Generator: Adobe Illustrator 19.0.0, SVG Export Plug-In . SVG Version: 6.00 Build 0)  -->
<!-- License: CC0. Made by SVG Repo: https://www.svgrepo.com/svg/278554/paste -->
<svg width="99" height="94" viewBox="0 0 99 94" fill="none" xmlns="http://www.w3.org/2000/svg">
<path d="M45.5874 62.3715C45.5616 62.3867 45.532 62.404 45.5025 62.4213C45.4286 62.4646 45.3584 62.5057 45.2845 62.549C45.2772 62.5534 45.2735 62.5555 45.2639 62.5562C45.3732 62.4971 45.4825 62.438 45.5874 62.3715Z" fill="#FFC814" fill-opacity="0.48"/>
<path d="M43.8275 59.3695L43.8171 59.3518L43.6554 59.4466C43.6403 59.4548 43.6223 59.4647 43.5996 59.477L43.5998 59.4792L43.5147 59.5291L43.6004 59.4822L45.4965 66.0488C45.7548 66.0316 46.117 65.979 46.5236 65.8237C46.7043 65.7547 46.8454 65.684 46.9319 65.6377C46.9737 65.6153 47.0065 65.596 47.0247 65.5855L47.114 65.5332C47.156 65.5097 47.2011 65.482 47.2496 65.4537L47.3566 65.391L47.3557 65.3893C47.3895 65.3688 47.4255 65.35 47.4601 65.3281L45.2018 61.6236M43.8275 59.3695C43.7887 59.3872 43.7524 59.4052 43.7189 59.4218L45.2123 61.7805L45.2018 61.6236M43.8275 59.3695L45.2018 61.6236M43.8275 59.3695C43.8889 59.3414 43.9556 59.3118 44.0258 59.2849C44.4266 59.1319 44.7825 59.08 45.0314 59.0635L45.2018 61.6236" stroke="#FFC814" stroke-opacity="0.48" stroke-width="7"/>
<path d="M45.2639 62.5562C45.2639 62.5562 45.2772 62.5534 45.2845 62.549C45.3584 62.5057 45.4286 62.4646 45.5025 62.4213C45.532 62.404 45.5616 62.3867 45.5874 62.3715C45.4803 62.4343 45.3732 62.4971 45.2639 62.5562Z" fill="#FFC814" fill-opacity="0.48"/>
<path d="M43.8171 59.3518L43.827 59.3686C44.0708 59.2572 44.2545 59.2048 44.2869 59.1953C44.3482 59.1774 44.4005 59.1643 44.4387 59.155C44.4585 59.1502 44.477 59.1459 44.4934 59.1422C44.5018 59.1403 44.5108 59.1383 44.5184 59.1366C44.5221 59.1358 44.5257 59.1344 44.5292 59.1337C44.5309 59.1333 44.5327 59.1333 44.5344 59.1329L44.5374 59.1323L44.5396 59.1321C44.5407 59.1362 44.5609 59.2309 45.0205 61.405L47.3566 65.391L47.0542 65.5683C47.018 65.5895 46.9804 65.6064 46.9451 65.6254C46.9395 65.6284 46.9338 65.6323 46.9282 65.6353L46.9286 65.634C46.5873 65.8155 46.303 65.899 46.2556 65.9129C46.19 65.9321 46.1339 65.9462 46.093 65.9561C46.0718 65.9613 46.0525 65.9657 46.0352 65.9696C46.0266 65.9716 46.0181 65.9735 46.0102 65.9752C46.0063 65.9761 46.0024 65.9778 45.9986 65.9786C45.9969 65.979 45.9951 65.979 45.9934 65.9794L45.9904 65.98L45.9891 65.9797C45.987 65.9713 45.9508 65.806 45.2639 62.5562L45.9874 65.9807L43.6014 59.4839L43.5147 59.5291L43.6006 59.4787L43.5996 59.477C43.6469 59.4515 43.702 59.4193 43.8171 59.3518Z" stroke="#FFC814" stroke-opacity="0.48" stroke-width="7"/>
<path d="M47.1889 34.8935C46.0648 33.746 44.8641 32.832 43.6872 32.1025C43.7199 32.0734 43.8337 31.9968 43.9556 31.9253C44.0864 31.8437 44.2268 31.7614 44.2776 31.7465C44.3845 31.7087 44.4898 31.6768 44.5951 31.6448C47.3954 30.8175 50.3736 32.1735 52.5004 33.4231C53.469 33.9918 54.3742 34.6473 55.2103 35.388C55.2707 35.4319 55.326 35.4839 55.3791 35.5322C55.3952 35.5426 55.4097 35.5589 55.422 35.5715C55.4344 35.5842 55.4504 35.5946 55.4628 35.6072C56.5104 36.5564 57.4451 37.6263 58.2386 38.7939C58.3493 38.9573 58.4562 39.1229 58.5632 39.2885C58.6702 39.4541 58.7698 39.624 58.8693 39.7939C58.9992 40.0155 59.1276 40.243 59.2464 40.4711C59.3343 40.6379 59.42 40.8011 59.5004 40.9723L59.5134 40.9944C59.5134 40.9944 59.5243 41.0129 59.5271 41.0262C59.5954 41.1598 59.6623 41.2992 59.7233 41.4372C59.7298 41.4482 59.7341 41.4556 59.7406 41.4667C59.8592 41.7198 59.9682 41.9735 60.0756 42.2331C60.2382 42.6291 60.3876 43.0278 60.5259 43.4331C60.8703 44.4272 61.1365 45.4572 61.2998 46.4979C61.3329 46.7068 61.3623 46.9178 61.3896 47.1252C61.4202 47.3553 61.4435 47.5898 61.4631 47.8264C61.4704 47.9065 61.4776 47.9866 61.4827 48.0631C61.49 48.1432 61.4914 48.2217 61.4949 48.304C61.5034 48.4032 61.5061 48.5009 61.5088 48.5986C61.5151 48.6941 61.5141 48.794 61.5168 48.8917C61.5216 48.993 61.5227 49.0966 61.518 49.1986C61.5199 49.3712 61.516 49.5422 61.5083 49.7154C61.4976 50.0443 61.4708 50.3627 61.436 50.6759C61.4166 50.846 61.3936 51.0183 61.3662 51.1833C61.3431 51.3556 61.3105 51.5285 61.2757 51.6978C61.2372 51.8692 61.1972 52.0465 61.155 52.2201C60.7732 53.7192 60.0405 55.2801 58.69 56.5828C58.6106 56.6591 58.5254 56.7338 58.4439 56.8064C58.3587 56.8812 58.2735 56.9559 58.1824 57.0291C58.1372 57.0705 58.0861 57.1104 58.0365 57.1444C57.9713 57.2025 57.9003 57.259 57.8249 57.3082C57.8027 57.3212 57.7849 57.3415 57.7627 57.3545C57.7264 57.3857 57.6842 57.4154 57.6421 57.4451C57.6088 57.4645 57.5719 57.4862 57.5387 57.5057C57.5297 57.5159 57.515 57.5245 57.5039 57.531L57.5002 57.5332C57.4433 57.5715 57.3863 57.6098 57.3257 57.6503C57.1416 57.7681 56.957 57.8764 56.7732 57.9692C56.7008 58.0066 56.6285 58.0441 56.554 58.0778L56.5466 58.0822C56.5466 58.0822 56.5223 58.0914 56.5112 58.0979C56.4949 58.1125 56.4742 58.1196 56.4536 58.1267C56.3659 58.1633 56.2803 58.2035 56.1962 58.2379C56.0016 58.3122 55.8159 58.3764 55.6296 58.431C55.5375 58.4602 55.4432 58.4857 55.3505 58.5053C55.2599 58.5286 55.1709 58.546 55.0819 58.5635C54.987 58.5794 54.8921 58.5953 54.7988 58.6053C54.7113 58.6169 54.6275 58.6263 54.5415 58.6321C54.4555 58.6378 54.3695 58.6435 54.2814 58.6455C54.2145 58.65 54.1492 58.6486 54.0839 58.6472C54.0398 58.6482 53.9936 58.6455 53.9532 58.6444C53.8725 58.6421 53.7917 58.6398 53.7125 58.6316C53.6317 58.6293 53.5525 58.6211 53.477 58.6108C53.334 58.5954 53.1983 58.5756 53.0621 58.5463C53.0019 58.5369 52.9418 58.5275 52.8832 58.5122C52.7081 58.4759 52.5441 58.4331 52.389 58.3801C52.3048 58.355 52.2184 58.3262 52.1416 58.2968C52.0889 58.283 52.0414 58.2612 51.9961 58.2431C51.2515 57.955 50.668 57.5774 50.3044 57.3042L50.2979 57.2931L50.2921 57.2916C50.276 57.2811 50.26 57.2707 50.2498 57.2618C50.2498 57.2618 50.2535 57.2596 50.2513 57.2559C50.9378 55.9802 51.539 54.4914 51.9223 52.783L51.926 52.7808C51.926 52.7808 51.9254 52.7713 51.9269 52.7654C52.4601 50.3985 52.5894 47.6132 51.9963 44.3829C51.8884 43.801 51.7606 43.2357 51.6134 42.6967C50.703 39.3398 49.0688 36.8139 47.2093 34.9113L47.205 34.904C47.205 34.904 47.1948 34.895 47.1905 34.8877L47.1889 34.8935Z" fill="#FFC814" fill-opacity="0.48"/>
<path d="M47.1629 27.9191C50.1266 28.1285 52.7256 29.4968 54.2717 30.4051C55.4 31.0677 56.4614 31.8317 57.446 32.6943C57.5096 32.7456 57.563 32.7898 57.6026 32.8244C57.6395 32.8567 57.6706 32.8856 57.6915 32.9047C57.702 32.9142 57.7121 32.9237 57.7186 32.9296C57.726 32.9363 57.7305 32.9391 57.7338 32.9421L57.733 32.9426C57.7549 32.9615 57.7823 32.9855 57.813 33.0135L58.275 33.4445C59.1872 34.3209 60.0234 35.2785 60.7688 36.3069L61.1334 36.8267L61.1364 36.8317C61.2717 37.0316 61.3991 37.2288 61.5026 37.389C61.6577 37.6291 61.7953 37.8653 61.8885 38.0243C62.0342 38.2729 62.1898 38.5492 62.3415 38.8397L62.3429 38.8401C62.4114 38.9703 62.5038 39.1489 62.6008 39.3477C62.619 39.3818 62.6423 39.4238 62.666 39.4725C62.6693 39.4793 62.6731 39.4915 62.6805 39.507C62.7303 39.6059 62.7789 39.708 62.8273 39.8115L62.8416 39.8359L62.9105 39.9823C63.0599 40.3014 63.1907 40.6084 63.3091 40.8942L63.3132 40.9031C63.5013 41.3612 63.6731 41.8218 63.832 42.2867C64.2373 43.4563 64.5567 44.687 64.7552 45.9497L64.7566 45.95C64.7963 46.2007 64.8306 46.4451 64.86 46.6693L64.8587 46.6689C64.8978 46.9629 64.9255 47.2472 64.9475 47.5099L64.9489 47.5103C64.9539 47.566 64.9596 47.6531 64.9669 47.7476L64.969 47.7475C64.9798 47.8668 64.9844 47.9689 64.9872 48.0334C65.0002 48.3393 64.9808 47.9022 64.9917 48.153L64.9895 48.1532C64.9992 48.3086 65.0058 48.4395 65.0075 48.5026L65.0053 48.5027C65.0085 48.5778 65.0126 48.6409 65.0133 48.6825C65.015 48.7784 65.0149 48.7673 65.0157 48.7966L65.0143 48.7963C65.0187 48.9098 65.0203 49.0331 65.0183 49.1641C65.0209 49.4141 65.015 49.6501 65.0053 49.8701L65.004 49.8698C64.9887 50.2987 64.9552 50.6979 64.9148 51.0619L64.9137 51.0716C64.8893 51.2856 64.8579 51.5193 64.8184 51.7568L64.8171 51.7564C64.7808 52.0032 64.7402 52.227 64.7042 52.4021L64.6909 52.4643C64.6527 52.6343 64.6065 52.839 64.5562 53.0457L64.5519 53.0653L64.547 53.084C64.0443 55.0578 63.0419 57.2479 61.1195 59.1021L61.115 59.1059C60.9745 59.2409 60.8235 59.3742 60.7717 59.4202L60.7618 59.4283L60.7523 59.4373C60.6753 59.5049 60.5345 59.6288 60.3757 59.7565L60.3739 59.7553C60.3148 59.8044 60.2573 59.8523 60.1994 59.896C60.105 59.9738 59.9998 60.0569 59.8825 60.1395C59.8693 60.1494 59.8546 60.1593 59.8395 60.1704C59.7377 60.2481 59.6631 60.3024 59.656 60.3073L59.5377 60.3914L59.4147 60.4635C59.3696 60.4939 59.3213 60.5265 59.2702 60.5606L59.2409 60.5801L59.2119 60.5982C58.9638 60.7569 58.6845 60.9224 58.3811 61.0772C58.3757 61.08 58.3697 61.0832 58.3629 61.0867C58.3589 61.0888 58.3551 61.0916 58.3511 61.0937L58.3506 61.0928C58.3203 61.1085 58.2785 61.1279 58.2302 61.152L58.0668 61.2478L57.9553 61.2894C57.9515 61.2912 57.9481 61.2941 57.9443 61.2958C57.8911 61.3203 57.8412 61.3389 57.7987 61.3563L57.7997 61.358C57.7994 61.3581 57.7957 61.3594 57.7869 61.3632C57.7746 61.3686 57.7617 61.3736 57.7371 61.3845C57.6981 61.4017 57.6136 61.4393 57.5209 61.4772L57.4459 61.5076C57.2063 61.5991 56.9532 61.6858 56.6853 61.7666L56.6858 61.7674C56.6842 61.7679 56.6823 61.7677 56.6806 61.7682C56.6584 61.7749 56.6367 61.7835 56.6143 61.7901L56.6133 61.7884C56.4905 61.8258 56.3597 61.8615 56.2224 61.8941L56.2229 61.895C56.2073 61.899 56.1913 61.9017 56.1759 61.9055C56.1424 61.9132 56.1089 61.9225 56.0747 61.9298L56.0737 61.9281C55.9305 61.9612 55.8111 61.9873 55.7549 61.9983L55.7083 62.0076L55.6606 62.0151C55.5945 62.0262 55.4366 62.0511 55.2565 62.0731L55.258 62.0756C55.1284 62.0928 54.9627 62.1115 54.7736 62.1241C54.721 62.1276 54.6258 62.1316 54.5127 62.1366L54.5137 62.1383C54.4875 62.1401 54.4614 62.1396 54.436 62.1409C54.4118 62.1417 54.3872 62.1439 54.3622 62.1445L54.3613 62.1428C54.1843 62.1488 54.0436 62.1473 54.0092 62.1465L54.0082 62.1448C53.9656 62.1443 53.9311 62.1452 53.9084 62.1445C53.8846 62.1437 53.8619 62.1435 53.8544 62.1433C53.8428 62.1428 53.8463 62.1427 53.8531 62.1429C53.8028 62.1415 53.6393 62.1361 53.448 62.12C53.3177 62.1122 53.2005 62.1022 53.1011 62.0901C53.0818 62.088 53.0623 62.0849 53.0424 62.0826C53.0289 62.0809 53.0154 62.0804 53.0028 62.0787L53.0031 62.0774C52.855 62.0598 52.6935 62.0348 52.5202 62.0027L52.5198 62.0041C52.4965 62.0004 52.3542 61.9761 52.1735 61.9365L52.1728 61.9392C52.1271 61.9297 52.0814 61.9165 52.0344 61.906C52.0231 61.9031 52.0113 61.902 51.9998 61.8991L52.0002 61.8977C51.8392 61.8609 51.6701 61.8214 51.497 61.7693L51.2573 61.6924C51.1808 61.6681 51.1011 61.6404 51.0195 61.6111C50.9228 61.5794 50.8447 61.5516 50.7927 61.5312L50.6996 61.4941L50.7 61.4928C49.599 61.0622 48.746 60.5112 48.2018 60.1022L47.6397 59.68L47.5775 59.5739L44.2901 56.6978L47.5802 54.7695C47.9567 53.9458 48.2797 53.0297 48.5069 52.0168L48.5361 51.8831C48.943 50.0083 49.0534 47.7362 48.5537 45.0145C48.4622 44.5218 48.3559 44.054 48.2371 43.6187L48.2358 43.6127C47.508 40.9293 46.2311 38.9437 44.7864 37.4414L44.6888 37.3424C43.787 36.4219 42.814 35.6793 41.8435 35.0777L37.8575 32.6066L41.3594 29.489C41.6245 29.253 41.9396 29.0565 42.104 28.9575L42.103 28.9558C42.1254 28.9419 42.1507 28.9286 42.1763 28.9129C42.1799 28.9108 42.1828 28.908 42.1859 28.9061L42.1864 28.907C42.2588 28.8627 42.3408 28.8113 42.4259 28.7632C42.4844 28.7302 42.5702 28.6832 42.6694 28.6341C42.7081 28.6149 42.877 28.5315 43.1101 28.4493L43.11 28.4472C43.1549 28.4313 43.1999 28.4188 43.2424 28.4046C43.2591 28.3995 43.2754 28.3927 43.2925 28.3877L43.2921 28.3891L43.5792 28.2956L43.5908 28.2922L43.6032 28.2883C44.2025 28.1112 44.7987 28.0013 45.3862 27.9428L45.9383 25.8296L47.1629 27.9191ZM57.8329 61.3374C57.8369 61.3358 57.8414 61.3337 57.8465 61.3317L57.8196 61.3418C57.8237 61.3402 57.8283 61.3392 57.8329 61.3374ZM57.797 61.3516L57.8004 61.3496C57.8017 61.3491 57.803 61.349 57.8043 61.3485C57.8063 61.3477 57.8081 61.3458 57.8102 61.345L57.7966 61.3507L57.797 61.3516Z" stroke="#FFC814" stroke-opacity="0.48" stroke-width="7"/>
<mask id="path-7-outside-1_56_2" maskUnits="userSpaceOnUse" x="-10.4414" y="-9.01539" width="116.373" height="113.516" fill="black">
<rect fill="white" x="-10.4414" y="-9.01539" width="116.373" height="113.516"/>
<path d="M90.6294 48.9646C90.6294 48.9646 90.6452 49 90.656 49.0185C90.661 49.0354 90.6718 49.0539 90.6789 49.0745L90.6854 49.0856C90.7083 49.1416 90.7334 49.2013 90.7548 49.2632C90.7592 49.2706 90.7657 49.2817 90.7663 49.2913L90.7728 49.3023C90.8084 49.4055 90.8463 49.5124 90.8767 49.6236C90.9071 49.7348 90.936 49.8518 90.9612 49.971C90.9864 50.0902 91.0079 50.2116 91.0242 50.341C91.042 50.4645 91.0583 50.5939 91.0672 50.7277C91.0764 50.8364 91.0803 50.9532 91.0843 51.07C91.0892 51.2309 91.0905 51.3939 91.0822 51.5576C91.0763 51.7 91.0689 51.8482 91.0557 51.9949C91.0424 52.1416 91.0255 52.2905 91.0048 52.4416L91.0002 52.4592C91.0002 52.4592 90.9963 52.4863 90.9954 52.5017C90.9765 52.6219 90.9577 52.7421 90.933 52.8608C90.9336 52.8704 90.9321 52.8763 90.929 52.888C90.9281 52.9034 90.9257 52.9247 90.9211 52.9422C90.9031 53.047 90.883 53.1482 90.8555 53.2536C90.8115 53.458 90.7565 53.6689 90.6977 53.882C90.6026 54.2107 90.4926 54.5481 90.3636 54.8867C90.2345 55.2254 90.0849 55.5711 89.9198 55.916C89.8335 56.0906 89.7473 56.2652 89.6515 56.4405C89.2794 57.135 88.8294 57.8404 88.2928 58.542C88.0263 58.8917 87.7386 59.239 87.4274 59.5801C87.1184 59.925 86.7844 60.2696 86.4307 60.6059C86.2609 60.765 86.0874 60.9262 85.9081 61.0859C85.8881 61.1026 85.8681 61.1193 85.8444 61.1381L85.837 61.1425C85.6829 61.2775 85.5229 61.4109 85.3592 61.5465C85.3408 61.5574 85.326 61.566 85.3119 61.5842C85.3066 61.5923 85.3014 61.6003 85.2919 61.6009C85.2445 61.6386 85.1971 61.6763 85.1497 61.714C84.7943 61.9967 84.4214 62.2748 84.0309 62.5484C83.3483 63.0179 82.6145 63.4678 81.8216 63.8929C72.5988 68.8417 66.5094 66.411 66.5094 66.411C65.8165 67.9635 61.9171 75.6281 57.8503 79.019C57.0341 79.7009 55.9195 80.4831 54.5861 81.2646C54.2241 81.4768 53.8504 81.6859 53.4576 81.8963C53.2612 82.0014 53.0626 82.1029 52.8604 82.2066C52.4522 82.4161 52.0359 82.6203 51.6 82.8163C51.386 82.9169 51.1661 83.016 50.9441 83.1113C50.8342 83.1609 50.7221 83.2067 50.6101 83.2525C50.405 83.3429 50.1956 83.426 49.9862 83.509C49.9656 83.5161 49.9471 83.5269 49.9265 83.5341C49.734 83.6121 49.5431 83.6843 49.3463 83.755C49.176 83.8201 49.0021 83.8873 48.8274 83.945C48.627 84.0178 48.4206 84.0891 48.2121 84.1567C48.0338 84.2166 47.8497 84.2749 47.6655 84.3332C47.4946 84.3887 47.3252 84.4384 47.1521 84.4902C47.1108 84.5044 47.0674 84.515 47.0261 84.5293C46.8376 84.5802 46.6476 84.637 46.4532 84.6864C46.359 84.7119 46.2684 84.7352 46.172 84.7569C46.01 84.8022 45.8495 84.8417 45.6869 84.8775C45.536 84.9163 45.3829 84.9515 45.2239 84.9851C44.9177 85.0553 44.6072 85.1182 44.2961 85.1716C44.1408 85.203 43.9871 85.2286 43.8275 85.2527C43.7459 85.2658 43.6642 85.2789 43.5826 85.292C43.4554 85.312 43.3281 85.332 43.2024 85.3461C43.0693 85.3646 42.9399 85.3808 42.8068 85.3993C42.6774 85.4156 42.5422 85.4304 42.4106 85.4429C42.1459 85.474 41.8806 85.4955 41.6153 85.517C41.3516 85.5326 41.0819 85.5468 40.816 85.5587C40.6801 85.5639 40.5479 85.567 40.4136 85.5663C40.2814 85.5694 40.1491 85.5724 40.0126 85.5681C39.8804 85.5711 39.7461 85.5705 39.6132 85.564C39.4788 85.5633 39.346 85.5568 39.2132 85.5503C39.0803 85.5438 38.9438 85.5394 38.8088 85.5292C38.541 85.5125 38.2725 85.4863 38.0077 85.4578C37.8764 85.4455 37.7392 85.4316 37.6036 85.4118C37.4701 85.3958 37.3366 85.3797 37.2025 85.3541C37.0691 85.338 36.9371 85.3161 36.803 85.2905C36.6711 85.2686 36.537 85.243 36.4065 85.2152C36.1383 85.164 35.8753 85.1047 35.608 85.0381C35.4637 85.0036 35.3231 84.9669 35.184 84.9243C35.061 84.8922 34.9417 84.858 34.8202 84.82C34.6518 84.7698 34.4871 84.7174 34.3203 84.6614C34.2339 84.6326 34.1476 84.6038 34.0591 84.5713C33.8703 84.5033 33.6772 84.4279 33.4842 84.3525C33.4783 84.3509 33.4725 84.3494 33.4703 84.3457C33.3701 84.3102 33.2714 84.2688 33.1764 84.2252C33.0718 84.1823 32.9731 84.1409 32.8701 84.0921C32.615 83.9786 32.3592 83.8555 32.105 83.7266C31.9363 83.6419 31.7691 83.5513 31.5997 83.4571C31.3923 83.3404 31.1844 83.2142 30.9764 83.0879C19.1252 75.737 16.796 66.1747 17.8014 54.0379C17.8218 53.7679 17.8502 53.5031 17.8786 53.2383C17.9043 53.0198 17.9301 52.8012 17.9617 52.5842C17.982 52.3986 18.0118 52.2124 18.0416 52.0263C18.1046 51.6172 18.1734 51.2096 18.2561 50.8088C18.2792 50.696 18.3003 50.5794 18.3272 50.4644C18.3311 50.4373 18.3372 50.4139 18.3412 50.3868C18.3836 50.1882 18.4297 49.9875 18.478 49.7905C18.5416 49.5348 18.6052 49.2792 18.6752 49.0347C18.6982 48.9468 18.7211 48.859 18.744 48.7711C18.7875 48.6166 18.8309 48.4621 18.8787 48.315C18.9274 48.1525 18.9782 47.9937 19.029 47.8349C19.0799 47.6761 19.1307 47.5172 19.1837 47.3621C19.2594 47.1441 19.3409 46.9276 19.4187 46.7132C19.5137 46.469 19.6051 46.2269 19.7045 45.99C19.8973 45.5147 20.1084 45.0535 20.3275 44.5976L20.3312 44.5954C20.4407 44.3674 20.5546 44.1469 20.6685 43.9263C20.8168 43.6458 20.9709 43.3669 21.1257 43.0976C21.2341 42.91 21.341 42.7283 21.4515 42.5444C21.4552 42.5422 21.453 42.5385 21.4567 42.5363C21.5553 42.3743 21.6576 42.2102 21.7642 42.0534C21.7867 42.0155 21.8112 41.9812 21.8337 41.9432C21.9329 41.7908 22.0358 41.6362 22.1394 41.4911C22.1566 41.4612 22.1759 41.435 22.1953 41.4087C22.3056 41.2498 22.4159 41.0909 22.5321 40.9335C22.6461 40.7724 22.7681 40.6165 22.8901 40.4606C22.9676 40.3557 23.0509 40.2522 23.1342 40.1488C23.2331 40.0214 23.3343 39.8976 23.4354 39.7738C23.6131 39.5605 23.7966 39.3487 23.9787 39.1427C24.1109 38.9958 24.2453 38.8525 24.3759 38.7114C24.5318 38.5456 24.6899 38.3835 24.848 38.2214C25.1285 37.9379 25.4191 37.6633 25.7104 37.3983C25.7756 37.3402 25.8409 37.2822 25.9061 37.2241C26.0439 37.1036 26.1817 36.9831 26.318 36.8685C26.4469 36.7582 26.5743 36.6538 26.7038 36.5531C26.7327 36.5262 26.7601 36.5052 26.7912 36.482C26.8201 36.4552 26.8475 36.4341 26.8748 36.4131C27.0281 36.2936 27.1813 36.174 27.3367 36.0581C27.5084 35.9277 27.6822 35.801 27.8546 35.6801C27.97 35.5976 28.0875 35.5188 28.2014 35.4421C28.2931 35.3784 28.3885 35.3126 28.4824 35.2526C28.6406 35.15 28.7988 35.0473 28.9591 34.9484C29.1195 34.8495 29.2798 34.7505 29.4387 34.6574C30.99 33.7482 32.5837 33.0722 34.1398 32.6366C35.3003 32.3137 36.3956 32.1928 37.4414 32.2498C39.0237 32.3249 40.4719 32.806 41.782 33.5766C43.6191 34.6536 45.1831 36.2976 46.4727 38.2016C47.1977 39.1761 47.8484 40.3033 48.3703 41.6003C48.7712 42.462 49.1234 43.3424 49.4272 44.2164C49.5627 44.6084 49.6745 45.0193 49.7567 45.4475C50.3914 48.4947 49.7582 52.2998 48.1996 55.4066C48.1944 55.4147 48.1913 55.4264 48.184 55.4307C47.9271 55.9832 47.6459 56.4855 47.3562 56.948C47.3532 56.9597 47.3516 56.9656 47.3443 56.9699C46.9597 57.5923 46.5301 58.1716 46.063 58.6786C45.9397 58.8154 45.8047 58.9491 45.666 59.085C45.459 59.2907 45.2323 59.4881 44.9858 59.6772C44.9147 59.7337 44.8415 59.7866 44.7682 59.8394C44.7335 59.8648 44.6987 59.8901 44.6581 59.9139C44.6218 59.9451 44.587 59.9704 44.5501 59.9921C44.4362 60.0688 44.3202 60.1417 44.202 60.211L44.1983 60.2132C43.8474 60.4188 43.4681 60.6014 43.0606 60.736C42.1278 61.0495 41.0519 61.1442 39.8435 60.8351C33.7245 59.2852 32.9829 50.6535 32.9772 50.5675L31.6941 50.6644L30.9284 50.7212L30.4148 50.7592C30.4454 51.1333 31.0916 58.9078 36.5346 62.2086C33.6493 64.8128 33.0331 67.7494 33.006 67.8894L35.523 68.3992C35.5477 68.2805 36.1703 65.4989 39.248 63.3328C41.0372 63.7779 42.7994 63.6433 44.4403 62.9545C44.528 62.918 44.6195 62.8793 44.7088 62.8369C44.871 62.7666 45.0268 62.6852 45.1841 62.598C45.2121 62.5865 45.238 62.5714 45.2638 62.5562C45.2734 62.5556 45.2771 62.5534 45.2845 62.5491C45.3583 62.5058 45.4285 62.4646 45.5024 62.4213C45.5319 62.404 45.5615 62.3867 45.5873 62.3716C45.6686 62.3239 45.7499 62.2763 45.8268 62.2213C45.8822 62.1888 45.9391 62.1505 45.9902 62.1106C46.0678 62.0652 46.141 62.0123 46.2143 61.9595C46.2364 61.9465 46.2564 61.9298 46.2764 61.9131C46.3275 61.8733 46.3844 61.8349 46.4392 61.7929C46.4961 61.7546 46.5472 61.7147 46.5961 61.6712C46.6746 61.6103 46.7493 61.5516 46.8256 61.487C46.8878 61.4407 46.9478 61.3906 47.0019 61.339C47.0508 61.2955 47.0997 61.2519 47.1523 61.2062C47.2286 61.1416 47.2991 61.0755 47.371 61.0036C47.4704 60.9106 47.5676 60.814 47.6648 60.7173C47.7619 60.6207 47.857 60.5203 47.9535 60.4141C48.1629 60.1871 48.3621 59.9513 48.5548 59.7044C48.6225 59.625 48.6879 59.542 48.7513 59.4553C48.7513 59.4553 48.7654 59.437 48.7915 59.3969C48.8119 59.4148 48.8381 59.4341 48.8622 59.4498C50.7875 60.8721 54.3618 62.246 58.1391 60.1562C58.2136 60.1224 58.2838 60.0813 58.3577 60.038C58.4759 59.9687 58.5978 59.8973 58.7154 59.8185C59.5063 59.3053 60.2121 58.7229 60.8363 58.0692C62.8272 55.9794 63.9318 53.1733 64.0734 49.825C64.3244 43.7081 61.1786 36.7236 56.5984 33.2099C56.2909 32.9732 55.9805 32.7483 55.6749 32.5403C52.0531 30.0777 48.5253 29.4011 46.4571 29.2337C46.0216 28.025 45.7051 26.816 45.4912 25.6214C45.4407 25.3235 45.3901 25.0256 45.3513 24.7307C45.3103 24.4322 45.2715 24.1373 45.2444 23.8456C45.2151 23.5501 45.1917 23.2561 45.1763 22.9674C45.1588 22.675 45.1434 22.3862 45.1397 22.1006C45.1358 21.8399 45.134 21.5828 45.136 21.3237C45.1364 21.0703 45.1442 20.8127 45.1541 20.5587C45.1583 20.5066 45.1604 20.4509 45.1609 20.4009C45.1725 20.2006 45.1841 20.0003 45.2001 19.8073C45.2162 19.5894 45.2346 19.3752 45.2551 19.1646C45.26 19.1221 45.2633 19.0854 45.2666 19.0487C45.2712 19.0312 45.2699 19.0121 45.2708 18.9966C45.295 18.784 45.3236 18.5787 45.3521 18.3734C45.3536 18.3675 45.3552 18.3616 45.353 18.3579C45.3849 18.116 45.4226 17.8755 45.4625 17.6387C45.5024 17.402 45.5496 17.1609 45.5954 16.9257L45.6649 16.5871C45.6903 16.478 45.712 16.371 45.7373 16.2619L45.7404 16.2501L45.7441 16.248C45.785 16.0553 45.8302 15.87 45.8776 15.6884C45.9271 15.5104 45.9745 15.3288 46.0263 15.1546C46.0584 15.0316 46.0963 14.9101 46.1365 14.7923C46.2225 14.4987 46.3171 14.2199 46.4102 13.947C46.4874 13.7231 46.569 13.5066 46.6527 13.2938C46.7364 13.081 46.8207 12.8777 46.9087 12.6723L46.9124 12.6701C46.9967 12.4668 47.0854 12.271 47.1799 12.0766C47.1799 12.0766 47.1836 12.0745 47.1815 12.0708C47.252 11.9202 47.3248 11.7734 47.3997 11.6302C47.4813 11.4732 47.5614 11.322 47.6416 11.1709C47.7291 11.0154 47.8151 10.8657 47.9032 10.7198C48.1071 10.3819 48.313 10.0727 48.5186 9.78844C48.5693 9.71406 48.6221 9.64338 48.6771 9.5764C48.7635 9.46127 48.8542 9.35353 48.9375 9.25012C48.9821 9.19918 49.0267 9.14824 49.0712 9.0973C49.1121 9.04852 49.1589 9.00127 49.2019 8.95619C49.2607 8.88704 49.3215 8.82158 49.3846 8.75982C49.4529 8.69003 49.5211 8.62024 49.5937 8.55784C49.61 8.54332 49.6226 8.53097 49.6353 8.51861C49.6931 8.46487 49.7494 8.41699 49.8057 8.36911C49.8546 8.32555 49.9057 8.2857 49.953 8.248C49.993 8.21464 50.0315 8.18713 50.07 8.15962C50.121 8.11976 50.1706 8.08576 50.2238 8.04959C50.294 8.00846 50.3599 7.95994 50.43 7.91881C50.6923 7.76511 50.9519 7.65764 51.2014 7.60073C59.2485 5.80232 62.6472 19.5265 63.9576 23.9045C65.2644 28.2847 71.6506 49.6717 71.6506 49.6717C77.7466 51.3094 85.772 43.7673 90.0956 48.1807C90.3056 48.3951 90.4842 48.6576 90.6294 48.9646Z"/>
</mask>
<path d="M90.6294 48.9646C90.6294 48.9646 90.6452 49 90.656 49.0185C90.661 49.0354 90.6718 49.0539 90.6789 49.0745L90.6854 49.0856C90.7083 49.1416 90.7334 49.2013 90.7548 49.2632C90.7592 49.2706 90.7657 49.2817 90.7663 49.2913L90.7728 49.3023C90.8084 49.4055 90.8463 49.5124 90.8767 49.6236C90.9071 49.7348 90.936 49.8518 90.9612 49.971C90.9864 50.0902 91.0079 50.2116 91.0242 50.341C91.042 50.4645 91.0583 50.5939 91.0672 50.7277C91.0764 50.8364 91.0803 50.9532 91.0843 51.07C91.0892 51.2309 91.0905 51.3939 91.0822 51.5576C91.0763 51.7 91.0689 51.8482 91.0557 51.9949C91.0424 52.1416 91.0255 52.2905 91.0048 52.4416L91.0002 52.4592C91.0002 52.4592 90.9963 52.4863 90.9954 52.5017C90.9765 52.6219 90.9577 52.7421 90.933 52.8608C90.9336 52.8704 90.9321 52.8763 90.929 52.888C90.9281 52.9034 90.9257 52.9247 90.9211 52.9422C90.9031 53.047 90.883 53.1482 90.8555 53.2536C90.8115 53.458 90.7565 53.6689 90.6977 53.882C90.6026 54.2107 90.4926 54.5481 90.3636 54.8867C90.2345 55.2254 90.0849 55.5711 89.9198 55.916C89.8335 56.0906 89.7473 56.2652 89.6515 56.4405C89.2794 57.135 88.8294 57.8404 88.2928 58.542C88.0263 58.8917 87.7386 59.239 87.4274 59.5801C87.1184 59.925 86.7844 60.2696 86.4307 60.6059C86.2609 60.765 86.0874 60.9262 85.9081 61.0859C85.8881 61.1026 85.8681 61.1193 85.8444 61.1381L85.837 61.1425C85.6829 61.2775 85.5229 61.4109 85.3592 61.5465C85.3408 61.5574 85.326 61.566 85.3119 61.5842C85.3066 61.5923 85.3014 61.6003 85.2919 61.6009C85.2445 61.6386 85.1971 61.6763 85.1497 61.714C84.7943 61.9967 84.4214 62.2748 84.0309 62.5484C83.3483 63.0179 82.6145 63.4678 81.8216 63.8929C72.5988 68.8417 66.5094 66.411 66.5094 66.411C65.8165 67.9635 61.9171 75.6281 57.8503 79.019C57.0341 79.7009 55.9195 80.4831 54.5861 81.2646C54.2241 81.4768 53.8504 81.6859 53.4576 81.8963C53.2612 82.0014 53.0626 82.1029 52.8604 82.2066C52.4522 82.4161 52.0359 82.6203 51.6 82.8163C51.386 82.9169 51.1661 83.016 50.9441 83.1113C50.8342 83.1609 50.7221 83.2067 50.6101 83.2525C50.405 83.3429 50.1956 83.426 49.9862 83.509C49.9656 83.5161 49.9471 83.5269 49.9265 83.5341C49.734 83.6121 49.5431 83.6843 49.3463 83.755C49.176 83.8201 49.0021 83.8873 48.8274 83.945C48.627 84.0178 48.4206 84.0891 48.2121 84.1567C48.0338 84.2166 47.8497 84.2749 47.6655 84.3332C47.4946 84.3887 47.3252 84.4384 47.1521 84.4902C47.1108 84.5044 47.0674 84.515 47.0261 84.5293C46.8376 84.5802 46.6476 84.637 46.4532 84.6864C46.359 84.7119 46.2684 84.7352 46.172 84.7569C46.01 84.8022 45.8495 84.8417 45.6869 84.8775C45.536 84.9163 45.3829 84.9515 45.2239 84.9851C44.9177 85.0553 44.6072 85.1182 44.2961 85.1716C44.1408 85.203 43.9871 85.2286 43.8275 85.2527C43.7459 85.2658 43.6642 85.2789 43.5826 85.292C43.4554 85.312 43.3281 85.332 43.2024 85.3461C43.0693 85.3646 42.9399 85.3808 42.8068 85.3993C42.6774 85.4156 42.5422 85.4304 42.4106 85.4429C42.1459 85.474 41.8806 85.4955 41.6153 85.517C41.3516 85.5326 41.0819 85.5468 40.816 85.5587C40.6801 85.5639 40.5479 85.567 40.4136 85.5663C40.2814 85.5694 40.1491 85.5724 40.0126 85.5681C39.8804 85.5711 39.7461 85.5705 39.6132 85.564C39.4788 85.5633 39.346 85.5568 39.2132 85.5503C39.0803 85.5438 38.9438 85.5394 38.8088 85.5292C38.541 85.5125 38.2725 85.4863 38.0077 85.4578C37.8764 85.4455 37.7392 85.4316 37.6036 85.4118C37.4701 85.3958 37.3366 85.3797 37.2025 85.3541C37.0691 85.338 36.9371 85.3161 36.803 85.2905C36.6711 85.2686 36.537 85.243 36.4065 85.2152C36.1383 85.164 35.8753 85.1047 35.608 85.0381C35.4637 85.0036 35.3231 84.9669 35.184 84.9243C35.061 84.8922 34.9417 84.858 34.8202 84.82C34.6518 84.7698 34.4871 84.7174 34.3203 84.6614C34.2339 84.6326 34.1476 84.6038 34.0591 84.5713C33.8703 84.5033 33.6772 84.4279 33.4842 84.3525C33.4783 84.3509 33.4725 84.3494 33.4703 84.3457C33.3701 84.3102 33.2714 84.2688 33.1764 84.2252C33.0718 84.1823 32.9731 84.1409 32.8701 84.0921C32.615 83.9786 32.3592 83.8555 32.105 83.7266C31.9363 83.6419 31.7691 83.5513 31.5997 83.4571C31.3923 83.3404 31.1844 83.2142 30.9764 83.0879C19.1252 75.737 16.796 66.1747 17.8014 54.0379C17.8218 53.7679 17.8502 53.5031 17.8786 53.2383C17.9043 53.0198 17.9301 52.8012 17.9617 52.5842C17.982 52.3986 18.0118 52.2124 18.0416 52.0263C18.1046 51.6172 18.1734 51.2096 18.2561 50.8088C18.2792 50.696 18.3003 50.5794 18.3272 50.4644C18.3311 50.4373 18.3372 50.4139 18.3412 50.3868C18.3836 50.1882 18.4297 49.9875 18.478 49.7905C18.5416 49.5348 18.6052 49.2792 18.6752 49.0347C18.6982 48.9468 18.7211 48.859 18.744 48.7711C18.7875 48.6166 18.8309 48.4621 18.8787 48.315C18.9274 48.1525 18.9782 47.9937 19.029 47.8349C19.0799 47.6761 19.1307 47.5172 19.1837 47.3621C19.2594 47.1441 19.3409 46.9276 19.4187 46.7132C19.5137 46.469 19.6051 46.2269 19.7045 45.99C19.8973 45.5147 20.1084 45.0535 20.3275 44.5976L20.3312 44.5954C20.4407 44.3674 20.5546 44.1469 20.6685 43.9263C20.8168 43.6458 20.9709 43.3669 21.1257 43.0976C21.2341 42.91 21.341 42.7283 21.4515 42.5444C21.4552 42.5422 21.453 42.5385 21.4567 42.5363C21.5553 42.3743 21.6576 42.2102 21.7642 42.0534C21.7867 42.0155 21.8112 41.9812 21.8337 41.9432C21.9329 41.7908 22.0358 41.6362 22.1394 41.4911C22.1566 41.4612 22.1759 41.435 22.1953 41.4087C22.3056 41.2498 22.4159 41.0909 22.5321 40.9335C22.6461 40.7724 22.7681 40.6165 22.8901 40.4606C22.9676 40.3557 23.0509 40.2522 23.1342 40.1488C23.2331 40.0214 23.3343 39.8976 23.4354 39.7738C23.6131 39.5605 23.7966 39.3487 23.9787 39.1427C24.1109 38.9958 24.2453 38.8525 24.3759 38.7114C24.5318 38.5456 24.6899 38.3835 24.848 38.2214C25.1285 37.9379 25.4191 37.6633 25.7104 37.3983C25.7756 37.3402 25.8409 37.2822 25.9061 37.2241C26.0439 37.1036 26.1817 36.9831 26.318 36.8685C26.4469 36.7582 26.5743 36.6538 26.7038 36.5531C26.7327 36.5262 26.7601 36.5052 26.7912 36.482C26.8201 36.4552 26.8475 36.4341 26.8748 36.4131C27.0281 36.2936 27.1813 36.174 27.3367 36.0581C27.5084 35.9277 27.6822 35.801 27.8546 35.6801C27.97 35.5976 28.0875 35.5188 28.2014 35.4421C28.2931 35.3784 28.3885 35.3126 28.4824 35.2526C28.6406 35.15 28.7988 35.0473 28.9591 34.9484C29.1195 34.8495 29.2798 34.7505 29.4387 34.6574C30.99 33.7482 32.5837 33.0722 34.1398 32.6366C35.3003 32.3137 36.3956 32.1928 37.4414 32.2498C39.0237 32.3249 40.4719 32.806 41.782 33.5766C43.6191 34.6536 45.1831 36.2976 46.4727 38.2016C47.1977 39.1761 47.8484 40.3033 48.3703 41.6003C48.7712 42.462 49.1234 43.3424 49.4272 44.2164C49.5627 44.6084 49.6745 45.0193 49.7567 45.4475C50.3914 48.4947 49.7582 52.2998 48.1996 55.4066C48.1944 55.4147 48.1913 55.4264 48.184 55.4307C47.9271 55.9832 47.6459 56.4855 47.3562 56.948C47.3532 56.9597 47.3516 56.9656 47.3443 56.9699C46.9597 57.5923 46.5301 58.1716 46.063 58.6786C45.9397 58.8154 45.8047 58.9491 45.666 59.085C45.459 59.2907 45.2323 59.4881 44.9858 59.6772C44.9147 59.7337 44.8415 59.7866 44.7682 59.8394C44.7335 59.8648 44.6987 59.8901 44.6581 59.9139C44.6218 59.9451 44.587 59.9704 44.5501 59.9921C44.4362 60.0688 44.3202 60.1417 44.202 60.211L44.1983 60.2132C43.8474 60.4188 43.4681 60.6014 43.0606 60.736C42.1278 61.0495 41.0519 61.1442 39.8435 60.8351C33.7245 59.2852 32.9829 50.6535 32.9772 50.5675L31.6941 50.6644L30.9284 50.7212L30.4148 50.7592C30.4454 51.1333 31.0916 58.9078 36.5346 62.2086C33.6493 64.8128 33.0331 67.7494 33.006 67.8894L35.523 68.3992C35.5477 68.2805 36.1703 65.4989 39.248 63.3328C41.0372 63.7779 42.7994 63.6433 44.4403 62.9545C44.528 62.918 44.6195 62.8793 44.7088 62.8369C44.871 62.7666 45.0268 62.6852 45.1841 62.598C45.2121 62.5865 45.238 62.5714 45.2638 62.5562C45.2734 62.5556 45.2771 62.5534 45.2845 62.5491C45.3583 62.5058 45.4285 62.4646 45.5024 62.4213C45.5319 62.404 45.5615 62.3867 45.5873 62.3716C45.6686 62.3239 45.7499 62.2763 45.8268 62.2213C45.8822 62.1888 45.9391 62.1505 45.9902 62.1106C46.0678 62.0652 46.141 62.0123 46.2143 61.9595C46.2364 61.9465 46.2564 61.9298 46.2764 61.9131C46.3275 61.8733 46.3844 61.8349 46.4392 61.7929C46.4961 61.7546 46.5472 61.7147 46.5961 61.6712C46.6746 61.6103 46.7493 61.5516 46.8256 61.487C46.8878 61.4407 46.9478 61.3906 47.0019 61.339C47.0508 61.2955 47.0997 61.2519 47.1523 61.2062C47.2286 61.1416 47.2991 61.0755 47.371 61.0036C47.4704 60.9106 47.5676 60.814 47.6648 60.7173C47.7619 60.6207 47.857 60.5203 47.9535 60.4141C48.1629 60.1871 48.3621 59.9513 48.5548 59.7044C48.6225 59.625 48.6879 59.542 48.7513 59.4553C48.7513 59.4553 48.7654 59.437 48.7915 59.3969C48.8119 59.4148 48.8381 59.4341 48.8622 59.4498C50.7875 60.8721 54.3618 62.246 58.1391 60.1562C58.2136 60.1224 58.2838 60.0813 58.3577 60.038C58.4759 59.9687 58.5978 59.8973 58.7154 59.8185C59.5063 59.3053 60.2121 58.7229 60.8363 58.0692C62.8272 55.9794 63.9318 53.1733 64.0734 49.825C64.3244 43.7081 61.1786 36.7236 56.5984 33.2099C56.2909 32.9732 55.9805 32.7483 55.6749 32.5403C52.0531 30.0777 48.5253 29.4011 46.4571 29.2337C46.0216 28.025 45.7051 26.816 45.4912 25.6214C45.4407 25.3235 45.3901 25.0256 45.3513 24.7307C45.3103 24.4322 45.2715 24.1373 45.2444 23.8456C45.2151 23.5501 45.1917 23.2561 45.1763 22.9674C45.1588 22.675 45.1434 22.3862 45.1397 22.1006C45.1358 21.8399 45.134 21.5828 45.136 21.3237C45.1364 21.0703 45.1442 20.8127 45.1541 20.5587C45.1583 20.5066 45.1604 20.4509 45.1609 20.4009C45.1725 20.2006 45.1841 20.0003 45.2001 19.8073C45.2162 19.5894 45.2346 19.3752 45.2551 19.1646C45.26 19.1221 45.2633 19.0854 45.2666 19.0487C45.2712 19.0312 45.2699 19.0121 45.2708 18.9966C45.295 18.784 45.3236 18.5787 45.3521 18.3734C45.3536 18.3675 45.3552 18.3616 45.353 18.3579C45.3849 18.116 45.4226 17.8755 45.4625 17.6387C45.5024 17.402 45.5496 17.1609 45.5954 16.9257L45.6649 16.5871C45.6903 16.478 45.712 16.371 45.7373 16.2619L45.7404 16.2501L45.7441 16.248C45.785 16.0553 45.8302 15.87 45.8776 15.6884C45.9271 15.5104 45.9745 15.3288 46.0263 15.1546C46.0584 15.0316 46.0963 14.9101 46.1365 14.7923C46.2225 14.4987 46.3171 14.2199 46.4102 13.947C46.4874 13.7231 46.569 13.5066 46.6527 13.2938C46.7364 13.081 46.8207 12.8777 46.9087 12.6723L46.9124 12.6701C46.9967 12.4668 47.0854 12.271 47.1799 12.0766C47.1799 12.0766 47.1836 12.0745 47.1815 12.0708C47.252 11.9202 47.3248 11.7734 47.3997 11.6302C47.4813 11.4732 47.5614 11.322 47.6416 11.1709C47.7291 11.0154 47.8151 10.8657 47.9032 10.7198C48.1071 10.3819 48.313 10.0727 48.5186 9.78844C48.5693 9.71406 48.6221 9.64338 48.6771 9.5764C48.7635 9.46127 48.8542 9.35353 48.9375 9.25012C48.9821 9.19918 49.0267 9.14824 49.0712 9.0973C49.1121 9.04852 49.1589 9.00127 49.2019 8.95619C49.2607 8.88704 49.3215 8.82158 49.3846 8.75982C49.4529 8.69003 49.5211 8.62024 49.5937 8.55784C49.61 8.54332 49.6226 8.53097 49.6353 8.51861C49.6931 8.46487 49.7494 8.41699 49.8057 8.36911C49.8546 8.32555 49.9057 8.2857 49.953 8.248C49.993 8.21464 50.0315 8.18713 50.07 8.15962C50.121 8.11976 50.1706 8.08576 50.2238 8.04959C50.294 8.00846 50.3599 7.95994 50.43 7.91881C50.6923 7.76511 50.9519 7.65764 51.2014 7.60073C59.2485 5.80232 62.6472 19.5265 63.9576 23.9045C65.2644 28.2847 71.6506 49.6717 71.6506 49.6717C77.7466 51.3094 85.772 43.7673 90.0956 48.1807C90.3056 48.3951 90.4842 48.6576 90.6294 48.9646Z" fill="#FFC814" fill-opacity="0.48"/>
<path d="M90.6294 48.9646C90.6294 48.9646 90.6452 49 90.656 49.0185C90.661 49.0354 90.6718 49.0539 90.6789 49.0745L90.6854 49.0856C90.7083 49.1416 90.7334 49.2013 90.7548 49.2632C90.7592 49.2706 90.7657 49.2817 90.7663 49.2913L90.7728 49.3023C90.8084 49.4055 90.8463 49.5124 90.8767 49.6236C90.9071 49.7348 90.936 49.8518 90.9612 49.971C90.9864 50.0902 91.0079 50.2116 91.0242 50.341C91.042 50.4645 91.0583 50.5939 91.0672 50.7277C91.0764 50.8364 91.0803 50.9532 91.0843 51.07C91.0892 51.2309 91.0905 51.3939 91.0822 51.5576C91.0763 51.7 91.0689 51.8482 91.0557 51.9949C91.0424 52.1416 91.0255 52.2905 91.0048 52.4416L91.0002 52.4592C91.0002 52.4592 90.9963 52.4863 90.9954 52.5017C90.9765 52.6219 90.9577 52.7421 90.933 52.8608C90.9336 52.8704 90.9321 52.8763 90.929 52.888C90.9281 52.9034 90.9257 52.9247 90.9211 52.9422C90.9031 53.047 90.883 53.1482 90.8555 53.2536C90.8115 53.458 90.7565 53.6689 90.6977 53.882C90.6026 54.2107 90.4926 54.5481 90.3636 54.8867C90.2345 55.2254 90.0849 55.5711 89.9198 55.916C89.8335 56.0906 89.7473 56.2652 89.6515 56.4405C89.2794 57.135 88.8294 57.8404 88.2928 58.542C88.0263 58.8917 87.7386 59.239 87.4274 59.5801C87.1184 59.925 86.7844 60.2696 86.4307 60.6059C86.2609 60.765 86.0874 60.9262 85.9081 61.0859C85.8881 61.1026 85.8681 61.1193 85.8444 61.1381L85.837 61.1425C85.6829 61.2775 85.5229 61.4109 85.3592 61.5465C85.3408 61.5574 85.326 61.566 85.3119 61.5842C85.3066 61.5923 85.3014 61.6003 85.2919 61.6009C85.2445 61.6386 85.1971 61.6763 85.1497 61.714C84.7943 61.9967 84.4214 62.2748 84.0309 62.5484C83.3483 63.0179 82.6145 63.4678 81.8216 63.8929C72.5988 68.8417 66.5094 66.411 66.5094 66.411C65.8165 67.9635 61.9171 75.6281 57.8503 79.019C57.0341 79.7009 55.9195 80.4831 54.5861 81.2646C54.2241 81.4768 53.8504 81.6859 53.4576 81.8963C53.2612 82.0014 53.0626 82.1029 52.8604 82.2066C52.4522 82.4161 52.0359 82.6203 51.6 82.8163C51.386 82.9169 51.1661 83.016 50.9441 83.1113C50.8342 83.1609 50.7221 83.2067 50.6101 83.2525C50.405 83.3429 50.1956 83.426 49.9862 83.509C49.9656 83.5161 49.9471 83.5269 49.9265 83.5341C49.734 83.6121 49.5431 83.6843 49.3463 83.755C49.176 83.8201 49.0021 83.8873 48.8274 83.945C48.627 84.0178 48.4206 84.0891 48.2121 84.1567C48.0338 84.2166 47.8497 84.2749 47.6655 84.3332C47.4946 84.3887 47.3252 84.4384 47.1521 84.4902C47.1108 84.5044 47.0674 84.515 47.0261 84.5293C46.8376 84.5802 46.6476 84.637 46.4532 84.6864C46.359 84.7119 46.2684 84.7352 46.172 84.7569C46.01 84.8022 45.8495 84.8417 45.6869 84.8775C45.536 84.9163 45.3829 84.9515 45.2239 84.9851C44.9177 85.0553 44.6072 85.1182 44.2961 85.1716C44.1408 85.203 43.9871 85.2286 43.8275 85.2527C43.7459 85.2658 43.6642 85.2789 43.5826 85.292C43.4554 85.312 43.3281 85.332 43.2024 85.3461C43.0693 85.3646 42.9399 85.3808 42.8068 85.3993C42.6774 85.4156 42.5422 85.4304 42.4106 85.4429C42.1459 85.474 41.8806 85.4955 41.6153 85.517C41.3516 85.5326 41.0819 85.5468 40.816 85.5587C40.6801 85.5639 40.5479 85.567 40.4136 85.5663C40.2814 85.5694 40.1491 85.5724 40.0126 85.5681C39.8804 85.5711 39.7461 85.5705 39.6132 85.564C39.4788 85.5633 39.346 85.5568 39.2132 85.5503C39.0803 85.5438 38.9438 85.5394 38.8088 85.5292C38.541 85.5125 38.2725 85.4863 38.0077 85.4578C37.8764 85.4455 37.7392 85.4316 37.6036 85.4118C37.4701 85.3958 37.3366 85.3797 37.2025 85.3541C37.0691 85.338 36.9371 85.3161 36.803 85.2905C36.6711 85.2686 36.537 85.243 36.4065 85.2152C36.1383 85.164 35.8753 85.1047 35.608 85.0381C35.4637 85.0036 35.3231 84.9669 35.184 84.9243C35.061 84.8922 34.9417 84.858 34.8202 84.82C34.6518 84.7698 34.4871 84.7174 34.3203 84.6614C34.2339 84.6326 34.1476 84.6038 34.0591 84.5713C33.8703 84.5033 33.6772 84.4279 33.4842 84.3525C33.4783 84.3509 33.4725 84.3494 33.4703 84.3457C33.3701 84.3102 33.2714 84.2688 33.1764 84.2252C33.0718 84.1823 32.9731 84.1409 32.8701 84.0921C32.615 83.9786 32.3592 83.8555 32.105 83.7266C31.9363 83.6419 31.7691 83.5513 31.5997 83.4571C31.3923 83.3404 31.1844 83.2142 30.9764 83.0879C19.1252 75.737 16.796 66.1747 17.8014 54.0379C17.8218 53.7679 17.8502 53.5031 17.8786 53.2383C17.9043 53.0198 17.9301 52.8012 17.9617 52.5842C17.982 52.3986 18.0118 52.2124 18.0416 52.0263C18.1046 51.6172 18.1734 51.2096 18.2561 50.8088C18.2792 50.696 18.3003 50.5794 18.3272 50.4644C18.3311 50.4373 18.3372 50.4139 18.3412 50.3868C18.3836 50.1882 18.4297 49.9875 18.478 49.7905C18.5416 49.5348 18.6052 49.2792 18.6752 49.0347C18.6982 48.9468 18.7211 48.859 18.744 48.7711C18.7875 48.6166 18.8309 48.4621 18.8787 48.315C18.9274 48.1525 18.9782 47.9937 19.029 47.8349C19.0799 47.6761 19.1307 47.5172 19.1837 47.3621C19.2594 47.1441 19.3409 46.9276 19.4187 46.7132C19.5137 46.469 19.6051 46.2269 19.7045 45.99C19.8973 45.5147 20.1084 45.0535 20.3275 44.5976L20.3312 44.5954C20.4407 44.3674 20.5546 44.1469 20.6685 43.9263C20.8168 43.6458 20.9709 43.3669 21.1257 43.0976C21.2341 42.91 21.341 42.7283 21.4515 42.5444C21.4552 42.5422 21.453 42.5385 21.4567 42.5363C21.5553 42.3743 21.6576 42.2102 21.7642 42.0534C21.7867 42.0155 21.8112 41.9812 21.8337 41.9432C21.9329 41.7908 22.0358 41.6362 22.1394 41.4911C22.1566 41.4612 22.1759 41.435 22.1953 41.4087C22.3056 41.2498 22.4159 41.0909 22.5321 40.9335C22.6461 40.7724 22.7681 40.6165 22.8901 40.4606C22.9676 40.3557 23.0509 40.2522 23.1342 40.1488C23.2331 40.0214 23.3343 39.8976 23.4354 39.7738C23.6131 39.5605 23.7966 39.3487 23.9787 39.1427C24.1109 38.9958 24.2453 38.8525 24.3759 38.7114C24.5318 38.5456 24.6899 38.3835 24.848 38.2214C25.1285 37.9379 25.4191 37.6633 25.7104 37.3983C25.7756 37.3402 25.8409 37.2822 25.9061 37.2241C26.0439 37.1036 26.1817 36.9831 26.318 36.8685C26.4469 36.7582 26.5743 36.6538 26.7038 36.5531C26.7327 36.5262 26.7601 36.5052 26.7912 36.482C26.8201 36.4552 26.8475 36.4341 26.8748 36.4131C27.0281 36.2936 27.1813 36.174 27.3367 36.0581C27.5084 35.9277 27.6822 35.801 27.8546 35.6801C27.97 35.5976 28.0875 35.5188 28.2014 35.4421C28.2931 35.3784 28.3885 35.3126 28.4824 35.2526C28.6406 35.15 28.7988 35.0473 28.9591 34.9484C29.1195 34.8495 29.2798 34.7505 29.4387 34.6574C30.99 33.7482 32.5837 33.0722 34.1398 32.6366C35.3003 32.3137 36.3956 32.1928 37.4414 32.2498C39.0237 32.3249 40.4719 32.806 41.782 33.5766C43.6191 34.6536 45.1831 36.2976 46.4727 38.2016C47.1977 39.1761 47.8484 40.3033 48.3703 41.6003C48.7712 42.462 49.1234 43.3424 49.4272 44.2164C49.5627 44.6084 49.6745 45.0193 49.7567 45.4475C50.3914 48.4947 49.7582 52.2998 48.1996 55.4066C48.1944 55.4147 48.1913 55.4264 48.184 55.4307C47.9271 55.9832 47.6459 56.4855 47.3562 56.948C47.3532 56.9597 47.3516 56.9656 47.3443 56.9699C46.9597 57.5923 46.5301 58.1716 46.063 58.6786C45.9397 58.8154 45.8047 58.9491 45.666 59.085C45.459 59.2907 45.2323 59.4881 44.9858 59.6772C44.9147 59.7337 44.8415 59.7866 44.7682 59.8394C44.7335 59.8648 44.6987 59.8901 44.6581 59.9139C44.6218 59.9451 44.587 59.9704 44.5501 59.9921C44.4362 60.0688 44.3202 60.1417 44.202 60.211L44.1983 60.2132C43.8474 60.4188 43.4681 60.6014 43.0606 60.736C42.1278 61.0495 41.0519 61.1442 39.8435 60.8351C33.7245 59.2852 32.9829 50.6535 32.9772 50.5675L31.6941 50.6644L30.9284 50.7212L30.4148 50.7592C30.4454 51.1333 31.0916 58.9078 36.5346 62.2086C33.6493 64.8128 33.0331 67.7494 33.006 67.8894L35.523 68.3992C35.5477 68.2805 36.1703 65.4989 39.248 63.3328C41.0372 63.7779 42.7994 63.6433 44.4403 62.9545C44.528 62.918 44.6195 62.8793 44.7088 62.8369C44.871 62.7666 45.0268 62.6852 45.1841 62.598C45.2121 62.5865 45.238 62.5714 45.2638 62.5562C45.2734 62.5556 45.2771 62.5534 45.2845 62.5491C45.3583 62.5058 45.4285 62.4646 45.5024 62.4213C45.5319 62.404 45.5615 62.3867 45.5873 62.3716C45.6686 62.3239 45.7499 62.2763 45.8268 62.2213C45.8822 62.1888 45.9391 62.1505 45.9902 62.1106C46.0678 62.0652 46.141 62.0123 46.2143 61.9595C46.2364 61.9465 46.2564 61.9298 46.2764 61.9131C46.3275 61.8733 46.3844 61.8349 46.4392 61.7929C46.4961 61.7546 46.5472 61.7147 46.5961 61.6712C46.6746 61.6103 46.7493 61.5516 46.8256 61.487C46.8878 61.4407 46.9478 61.3906 47.0019 61.339C47.0508 61.2955 47.0997 61.2519 47.1523 61.2062C47.2286 61.1416 47.2991 61.0755 47.371 61.0036C47.4704 60.9106 47.5676 60.814 47.6648 60.7173C47.7619 60.6207 47.857 60.5203 47.9535 60.4141C48.1629 60.1871 48.3621 59.9513 48.5548 59.7044C48.6225 59.625 48.6879 59.542 48.7513 59.4553C48.7513 59.4553 48.7654 59.437 48.7915 59.3969C48.8119 59.4148 48.8381 59.4341 48.8622 59.4498C50.7875 60.8721 54.3618 62.246 58.1391 60.1562C58.2136 60.1224 58.2838 60.0813 58.3577 60.038C58.4759 59.9687 58.5978 59.8973 58.7154 59.8185C59.5063 59.3053 60.2121 58.7229 60.8363 58.0692C62.8272 55.9794 63.9318 53.1733 64.0734 49.825C64.3244 43.7081 61.1786 36.7236 56.5984 33.2099C56.2909 32.9732 55.9805 32.7483 55.6749 32.5403C52.0531 30.0777 48.5253 29.4011 46.4571 29.2337C46.0216 28.025 45.7051 26.816 45.4912 25.6214C45.4407 25.3235 45.3901 25.0256 45.3513 24.7307C45.3103 24.4322 45.2715 24.1373 45.2444 23.8456C45.2151 23.5501 45.1917 23.2561 45.1763 22.9674C45.1588 22.675 45.1434 22.3862 45.1397 22.1006C45.1358 21.8399 45.134 21.5828 45.136 21.3237C45.1364 21.0703 45.1442 20.8127 45.1541 20.5587C45.1583 20.5066 45.1604 20.4509 45.1609 20.4009C45.1725 20.2006 45.1841 20.0003 45.2001 19.8073C45.2162 19.5894 45.2346 19.3752 45.2551 19.1646C45.26 19.1221 45.2633 19.0854 45.2666 19.0487C45.2712 19.0312 45.2699 19.0121 45.2708 18.9966C45.295 18.784 45.3236 18.5787 45.3521 18.3734C45.3536 18.3675 45.3552 18.3616 45.353 18.3579C45.3849 18.116 45.4226 17.8755 45.4625 17.6387C45.5024 17.402 45.5496 17.1609 45.5954 16.9257L45.6649 16.5871C45.6903 16.478 45.712 16.371 45.7373 16.2619L45.7404 16.2501L45.7441 16.248C45.785 16.0553 45.8302 15.87 45.8776 15.6884C45.9271 15.5104 45.9745 15.3288 46.0263 15.1546C46.0584 15.0316 46.0963 14.9101 46.1365 14.7923C46.2225 14.4987 46.3171 14.2199 46.4102 13.947C46.4874 13.7231 46.569 13.5066 46.6527 13.2938C46.7364 13.081 46.8207 12.8777 46.9087 12.6723L46.9124 12.6701C46.9967 12.4668 47.0854 12.271 47.1799 12.0766C47.1799 12.0766 47.1836 12.0745 47.1815 12.0708C47.252 11.9202 47.3248 11.7734 47.3997 11.6302C47.4813 11.4732 47.5614 11.322 47.6416 11.1709C47.7291 11.0154 47.8151 10.8657 47.9032 10.7198C48.1071 10.3819 48.313 10.0727 48.5186 9.78844C48.5693 9.71406 48.6221 9.64338 48.6771 9.5764C48.7635 9.46127 48.8542 9.35353 48.9375 9.25012C48.9821 9.19918 49.0267 9.14824 49.0712 9.0973C49.1121 9.04852 49.1589 9.00127 49.2019 8.95619C49.2607 8.88704 49.3215 8.82158 49.3846 8.75982C49.4529 8.69003 49.5211 8.62024 49.5937 8.55784C49.61 8.54332 49.6226 8.53097 49.6353 8.51861C49.6931 8.46487 49.7494 8.41699 49.8057 8.36911C49.8546 8.32555 49.9057 8.2857 49.953 8.248C49.993 8.21464 50.0315 8.18713 50.07 8.15962C50.121 8.11976 50.1706 8.08576 50.2238 8.04959C50.294 8.00846 50.3599 7.95994 50.43 7.91881C50.6923 7.76511 50.9519 7.65764 51.2014 7.60073C59.2485 5.80232 62.6472 19.5265 63.9576 23.9045C65.2644 28.2847 71.6506 49.6717 71.6506 49.6717C77.7466 51.3094 85.772 43.7673 90.0956 48.1807C90.3056 48.3951 90.4842 48.6576 90.6294 48.9646Z" stroke="#FFC814" stroke-opacity="0.48" stroke-width="14" mask="url(#path-7-outside-1_56_2)"/>
<path d="M45.5874 62.3715C45.5616 62.3867 45.532 62.404 45.5025 62.4213C45.4286 62.4646 45.3584 62.5057 45.2845 62.549C45.2772 62.5534 45.2735 62.5555 45.2639 62.5562C45.3732 62.4971 45.4825 62.438 45.5874 62.3715Z" fill="white"/>
<path d="M44.8156 61.0554L44.7934 61.0175L44.6897 61.0782C44.6476 61.1026 44.5952 61.1338 44.5172 61.1759L44.5179 61.1789L44.4909 61.1947L44.5184 61.1798L45.3677 64.1219C45.4863 64.114 45.6513 64.0902 45.8354 64.0198C45.917 63.9887 45.9806 63.9565 46.0202 63.9353C46.0394 63.925 46.055 63.9159 46.0636 63.911C46.068 63.9085 46.072 63.9072 46.0742 63.9059L46.3809 63.7262L46.3804 63.7253C46.3958 63.7159 46.4122 63.7074 46.4276 63.6977L45.2071 61.6964M44.8156 61.0554C44.7987 61.0605 44.782 61.0668 44.7647 61.0728L45.2123 61.7805L45.2071 61.6964M44.8156 61.0554C44.9523 61.0136 45.072 60.9963 45.1601 60.9904L45.2071 61.6964M44.8156 61.0554L45.2071 61.6964" stroke="#FFC814" stroke-opacity="0.48" stroke-width="3.13893"/>
<path d="M45.2639 62.5562C45.2639 62.5562 45.2772 62.5534 45.2845 62.549C45.3584 62.5057 45.4286 62.4646 45.5025 62.4213C45.532 62.404 45.5616 62.3867 45.5874 62.3715C45.4803 62.4343 45.3732 62.4971 45.2639 62.5562Z" fill="white"/>
<path d="M44.7934 61.0175L44.8146 61.0537C44.8224 61.0513 44.8278 61.0486 44.8304 61.0478C44.8565 61.0402 44.8786 61.0344 44.8949 61.0304C44.9035 61.0283 44.9118 61.0269 44.9191 61.0253C44.9227 61.0245 44.9265 61.0231 44.9298 61.0224C44.9312 61.0221 44.9328 61.0224 44.9342 61.0221L44.9372 61.0214L44.9389 61.0205L45.0205 61.405L46.3809 63.7262L46.0784 63.9034C45.9001 64.0079 45.7394 64.0522 45.7129 64.06C45.6823 64.0689 45.6559 64.0761 45.6368 64.0808C45.627 64.0832 45.618 64.0856 45.6101 64.0874C45.6062 64.0883 45.6024 64.0887 45.5989 64.0894C45.5972 64.0898 45.5953 64.0899 45.5937 64.0902L45.5906 64.0909L45.5889 64.0918L44.5188 61.1806L44.4909 61.1947L44.5179 61.1789L44.5172 61.1759C44.5987 61.1319 44.6825 61.0824 44.7934 61.0175Z" stroke="#FFC814" stroke-opacity="0.48" stroke-width="3.13893"/>
<path d="M47.1889 34.8935C46.0648 33.746 44.8641 32.832 43.6872 32.1025C43.7199 32.0734 43.8337 31.9968 43.9556 31.9253C44.0864 31.8437 44.2268 31.7614 44.2776 31.7465C44.3845 31.7087 44.4898 31.6768 44.5951 31.6448C47.3954 30.8175 50.3736 32.1735 52.5004 33.4231C53.469 33.9918 54.3742 34.6473 55.2103 35.388C55.2707 35.4319 55.326 35.4839 55.3791 35.5322C55.3952 35.5426 55.4097 35.5589 55.422 35.5715C55.4344 35.5842 55.4504 35.5946 55.4628 35.6072C56.5104 36.5564 57.4451 37.6263 58.2386 38.7939C58.3493 38.9573 58.4562 39.1229 58.5632 39.2885C58.6702 39.4541 58.7698 39.624 58.8693 39.7939C58.9992 40.0155 59.1276 40.243 59.2464 40.4711C59.3343 40.6379 59.42 40.8011 59.5004 40.9723L59.5134 40.9944C59.5134 40.9944 59.5243 41.0129 59.5271 41.0262C59.5954 41.1598 59.6623 41.2992 59.7233 41.4372C59.7298 41.4482 59.7341 41.4556 59.7406 41.4667C59.8592 41.7198 59.9682 41.9735 60.0756 42.2331C60.2382 42.6291 60.3876 43.0278 60.5259 43.4331C60.8703 44.4272 61.1365 45.4572 61.2998 46.4979C61.3329 46.7068 61.3623 46.9178 61.3896 47.1252C61.4202 47.3553 61.4435 47.5898 61.4631 47.8264C61.4704 47.9065 61.4776 47.9866 61.4827 48.0631C61.49 48.1432 61.4914 48.2217 61.4949 48.304C61.5034 48.4032 61.5061 48.5009 61.5088 48.5986C61.5151 48.6941 61.5141 48.794 61.5168 48.8917C61.5216 48.993 61.5227 49.0966 61.518 49.1986C61.5199 49.3712 61.516 49.5422 61.5083 49.7154C61.4976 50.0443 61.4708 50.3627 61.436 50.6759C61.4166 50.846 61.3936 51.0183 61.3662 51.1833C61.3431 51.3556 61.3105 51.5285 61.2757 51.6978C61.2372 51.8692 61.1972 52.0465 61.155 52.2201C60.7732 53.7192 60.0405 55.2801 58.69 56.5828C58.6106 56.6591 58.5254 56.7338 58.4439 56.8064C58.3587 56.8812 58.2735 56.9559 58.1824 57.0291C58.1372 57.0705 58.0861 57.1104 58.0365 57.1444C57.9713 57.2025 57.9003 57.259 57.8249 57.3082C57.8027 57.3212 57.7849 57.3415 57.7627 57.3545C57.7264 57.3857 57.6842 57.4154 57.6421 57.4451C57.6088 57.4645 57.5719 57.4862 57.5387 57.5057C57.5297 57.5159 57.515 57.5245 57.5039 57.531L57.5002 57.5332C57.4433 57.5715 57.3863 57.6098 57.3257 57.6503C57.1416 57.7681 56.957 57.8764 56.7732 57.9692C56.7008 58.0066 56.6285 58.0441 56.554 58.0778L56.5466 58.0822C56.5466 58.0822 56.5223 58.0914 56.5112 58.0979C56.4949 58.1125 56.4742 58.1196 56.4536 58.1267C56.3659 58.1633 56.2803 58.2035 56.1962 58.2379C56.0016 58.3122 55.8159 58.3764 55.6296 58.431C55.5375 58.4602 55.4432 58.4857 55.3505 58.5053C55.2599 58.5286 55.1709 58.546 55.0819 58.5635C54.987 58.5794 54.8921 58.5953 54.7988 58.6053C54.7113 58.6169 54.6275 58.6263 54.5415 58.6321C54.4555 58.6378 54.3695 58.6435 54.2814 58.6455C54.2145 58.65 54.1492 58.6486 54.0839 58.6472C54.0398 58.6482 53.9936 58.6455 53.9532 58.6444C53.8725 58.6421 53.7917 58.6398 53.7125 58.6316C53.6317 58.6293 53.5525 58.6211 53.477 58.6108C53.334 58.5954 53.1983 58.5756 53.0621 58.5463C53.0019 58.5369 52.9418 58.5275 52.8832 58.5122C52.7081 58.4759 52.5441 58.4331 52.389 58.3801C52.3048 58.355 52.2184 58.3262 52.1416 58.2968C52.0889 58.283 52.0414 58.2612 51.9961 58.2431C51.2515 57.955 50.668 57.5774 50.3044 57.3042L50.2979 57.2931L50.2921 57.2916C50.276 57.2811 50.26 57.2707 50.2498 57.2618C50.2498 57.2618 50.2535 57.2596 50.2513 57.2559C50.9378 55.9802 51.539 54.4914 51.9223 52.783L51.926 52.7808C51.926 52.7808 51.9254 52.7713 51.9269 52.7654C52.4601 50.3985 52.5894 47.6132 51.9963 44.3829C51.8884 43.801 51.7606 43.2357 51.6134 42.6967C50.703 39.3398 49.0688 36.8139 47.2093 34.9113L47.205 34.904C47.205 34.904 47.1948 34.895 47.1905 34.8877L47.1889 34.8935Z" fill="white"/>
<path d="M43.3752 30.4447C43.3939 30.4341 43.5586 30.339 43.7548 30.2697L43.7542 30.2667C43.7797 30.2576 43.806 30.2516 43.831 30.2432C43.8328 30.2426 43.8342 30.2408 43.836 30.2402L43.8357 30.2416L44.139 30.143L44.1506 30.1396C47.6492 29.106 51.1615 30.8155 53.2957 32.0694L53.2948 32.0699C54.348 32.6884 55.3347 33.4021 56.2469 34.2098C56.3079 34.2596 56.3613 34.3046 56.3953 34.3356C56.4407 34.3734 56.4747 34.4044 56.4944 34.4235C56.5008 34.4297 56.5064 34.4362 56.5118 34.4416C56.513 34.4427 56.5139 34.4442 56.5151 34.4454L56.5168 34.4444C57.5124 35.3465 58.4154 36.3503 59.205 37.4396L59.5371 37.9116L59.5386 37.9142C59.6602 38.0938 59.7758 38.2737 59.8811 38.4367C60.0096 38.6357 60.127 38.835 60.2237 39C60.3618 39.2357 60.5037 39.4876 60.6384 39.7462C60.709 39.8803 60.7869 40.0354 60.8674 40.2006L60.8787 40.22C60.8828 40.2272 60.8872 40.2358 60.8922 40.2449C60.902 40.2629 60.9158 40.2879 60.9303 40.3177C60.9338 40.3249 60.9399 40.342 60.9506 40.3658C61.0069 40.4775 61.0626 40.5928 61.1157 40.7093L61.131 40.7355L61.1617 40.8013C61.2941 41.0839 61.4133 41.3614 61.5256 41.6327L61.5272 41.6374C61.7012 42.0611 61.8603 42.4872 62.0078 42.919C62.3795 43.9917 62.6695 45.1119 62.8486 46.2521L62.8499 46.2525C62.886 46.48 62.9179 46.7057 62.9461 46.9206C62.9811 47.184 63.0067 47.4452 63.0275 47.6969C63.0334 47.7614 63.0388 47.8406 63.0446 47.9211C63.0452 47.9277 63.0459 47.9349 63.0464 47.9416C63.0468 47.9473 63.0481 47.9529 63.0485 47.9585L63.0471 47.9582C63.0565 48.0786 63.0618 48.2091 63.063 48.2364L63.0617 48.236C63.0706 48.3629 63.076 48.4784 63.0781 48.5558L63.076 48.5559C63.0818 48.6831 63.0856 48.8387 63.0858 48.8489L63.0845 48.8486C63.0889 48.9527 63.0899 49.0645 63.087 49.1811C63.0892 49.389 63.085 49.5902 63.0764 49.7849L63.075 49.7846C63.0623 50.1586 63.0336 50.5138 62.9963 50.8495L62.9952 50.8535C62.9736 51.0433 62.9476 51.2431 62.9148 51.4406L62.9135 51.4402C62.8841 51.6473 62.8479 51.8441 62.8129 52.0142L62.8103 52.027L62.8073 52.0412C62.7689 52.2121 62.726 52.4026 62.6802 52.5911L62.676 52.6072C62.24 54.3191 61.3863 56.1619 59.7795 57.7119L59.7775 57.7142C59.6707 57.8169 59.5555 57.9176 59.4874 57.9782L59.4788 57.9866C59.3972 58.0582 59.2873 58.155 59.166 58.2526L59.1642 58.2514C59.1117 58.296 59.0593 58.3378 59.0075 58.3761C58.9353 58.4371 58.8542 58.5009 58.7643 58.5638C58.7556 58.5708 58.7454 58.5796 58.7336 58.5886C58.7208 58.5985 58.7034 58.6074 58.6854 58.6203C58.6182 58.6722 58.5644 58.7149 58.5451 58.7285L58.4924 58.7662L58.3947 58.8235C58.3819 58.8321 58.37 58.8397 58.3595 58.8464C58.308 58.881 58.2539 58.9172 58.1969 58.9553L58.1847 58.9635L58.1717 58.9723C57.9593 59.1082 57.7318 59.2419 57.4939 59.3627C57.4903 59.3646 57.4868 59.3671 57.483 59.3691L57.4813 59.3701L57.4808 59.3693C57.4361 59.3924 57.3751 59.4222 57.3071 59.4553L57.2279 59.5017L57.1749 59.5214C57.1619 59.5277 57.1507 59.5359 57.139 59.5413C57.1085 59.5553 57.08 59.5655 57.0568 59.5748L57.0573 59.5756C57.0318 59.5862 57.0041 59.5978 56.9568 59.6186C56.9158 59.6368 56.855 59.6637 56.7905 59.6901L56.7735 59.6978L56.7568 59.7042C56.5427 59.786 56.3263 59.8602 56.1028 59.9267C56.0958 59.929 56.0889 59.9312 56.0818 59.9334C56.0783 59.9344 56.0751 59.9361 56.0716 59.9371L56.0711 59.9363C55.9664 59.9687 55.8556 59.9982 55.7412 60.0244L55.7417 60.0252C55.7331 60.0274 55.7239 60.0283 55.7154 60.0305C55.7019 60.0334 55.6885 60.0377 55.6749 60.0406L55.6744 60.0397C55.5581 60.0676 55.4532 60.0901 55.3837 60.1038L55.3625 60.1082L55.3417 60.1114C55.2625 60.1246 55.1372 60.1445 55.0035 60.1601L55.0045 60.1618C54.8982 60.1759 54.7775 60.1892 54.6454 60.198C54.5646 60.2034 54.4452 60.2116 54.3178 60.2145L54.3172 60.2115C54.2405 60.2147 54.1709 60.2154 54.1187 60.2147L54.1196 60.2164C54.0563 60.2178 54.0015 60.2165 53.9686 60.2155C53.8884 60.213 53.9561 60.2147 53.9085 60.2133C53.8569 60.2119 53.7686 60.2066 53.6673 60.1996C53.5126 60.1952 53.3744 60.181 53.265 60.166L53.2645 60.1652C53.1234 60.1491 52.975 60.1273 52.8192 60.0968L52.6904 60.076C52.6525 60.0691 52.6098 60.0585 52.5642 60.0481L52.5647 60.0489C52.3599 60.0065 52.1508 59.9521 51.94 59.8831L51.9405 59.8839C51.9298 59.8807 51.9192 59.8767 51.9083 59.8734C51.8996 59.8704 51.8907 59.868 51.8819 59.8651L51.8814 59.8642C51.8135 59.8431 51.7436 59.8179 51.6731 59.7927C51.5979 59.7702 51.5356 59.7493 51.4945 59.7333C51.4681 59.723 51.4448 59.7136 51.4325 59.7085C51.4248 59.7053 51.4217 59.7042 51.4177 59.7025C51.4158 59.7018 51.4149 59.7011 51.4145 59.701L51.4148 59.6996C50.5106 59.3476 49.8063 58.8927 49.3618 58.5587L49.1093 58.3693L49.0856 58.3289L47.5774 57.009L49.0628 56.1384C49.6068 55.0615 50.0792 53.8307 50.3913 52.4394L50.4066 52.367C50.8824 50.2221 51.004 47.6684 50.4529 44.6666C50.3524 44.1244 50.2343 43.6026 50.0998 43.11L50.0983 43.1074C49.2764 40.0774 47.8198 37.8068 46.1635 36.0887L46.0682 35.9918C45.0438 34.9461 43.9448 34.1091 42.8605 33.4369L41.0731 32.3282L42.6433 30.9302C42.79 30.7996 43.0003 30.6691 43.1256 30.5943L43.1251 30.5935C43.1276 30.592 43.1302 30.5906 43.1327 30.5891C43.1432 30.5828 43.1526 30.5763 43.1617 30.5709L43.1622 30.5718C43.2289 30.5306 43.3032 30.4853 43.3752 30.4447ZM57.108 59.5482L57.1105 59.5467C57.1117 59.5463 57.1132 59.546 57.1144 59.5456C57.1166 59.5447 57.1192 59.5434 57.1216 59.5425C57.1245 59.5413 57.1279 59.5392 57.1322 59.5374L57.1066 59.5478L57.108 59.5482Z" stroke="#FFC814" stroke-opacity="0.48" stroke-width="3.13893"/>
<mask id="path-14-outside-2_56_2" maskUnits="userSpaceOnUse" x="-5.47355" y="-4.40459" width="105.931" height="103.432" fill="black">
<rect fill="white" x="-5.47355" y="-4.40459" width="105.931" height="103.432"/>
<path d="M90.6294 48.9646C90.6294 48.9646 90.6452 49 90.656 49.0185C90.661 49.0354 90.6718 49.0539 90.6789 49.0745L90.6854 49.0856C90.7083 49.1416 90.7334 49.2013 90.7548 49.2632C90.7592 49.2706 90.7657 49.2817 90.7663 49.2913L90.7728 49.3023C90.8084 49.4055 90.8463 49.5124 90.8767 49.6236C90.9071 49.7348 90.936 49.8518 90.9612 49.971C90.9864 50.0902 91.0079 50.2116 91.0242 50.341C91.042 50.4645 91.0583 50.5939 91.0672 50.7277C91.0764 50.8364 91.0803 50.9532 91.0843 51.07C91.0892 51.2309 91.0905 51.3939 91.0822 51.5576C91.0763 51.7 91.0689 51.8482 91.0557 51.9949C91.0424 52.1416 91.0255 52.2905 91.0048 52.4416L91.0002 52.4592C91.0002 52.4592 90.9963 52.4863 90.9954 52.5017C90.9765 52.6219 90.9577 52.7421 90.933 52.8608C90.9336 52.8704 90.9321 52.8763 90.929 52.888C90.9281 52.9034 90.9257 52.9247 90.9211 52.9422C90.9031 53.047 90.883 53.1482 90.8555 53.2536C90.8115 53.458 90.7565 53.6689 90.6977 53.882C90.6026 54.2107 90.4926 54.5481 90.3636 54.8867C90.2345 55.2254 90.0849 55.5711 89.9198 55.916C89.8335 56.0906 89.7473 56.2652 89.6515 56.4405C89.2794 57.135 88.8294 57.8404 88.2928 58.542C88.0263 58.8917 87.7386 59.239 87.4274 59.5801C87.1184 59.925 86.7844 60.2696 86.4307 60.6059C86.2609 60.765 86.0874 60.9262 85.9081 61.0859C85.8881 61.1026 85.8681 61.1193 85.8444 61.1381L85.837 61.1425C85.6829 61.2775 85.5229 61.4109 85.3592 61.5465C85.3408 61.5574 85.326 61.566 85.3119 61.5842C85.3066 61.5923 85.3014 61.6003 85.2919 61.6009C85.2445 61.6386 85.1971 61.6763 85.1497 61.714C84.7943 61.9967 84.4214 62.2748 84.0309 62.5484C83.3483 63.0179 82.6145 63.4678 81.8216 63.8929C72.5988 68.8417 66.5094 66.411 66.5094 66.411C65.8165 67.9635 61.9171 75.6281 57.8503 79.019C57.0341 79.7009 55.9195 80.4831 54.5861 81.2646C54.2241 81.4768 53.8504 81.6859 53.4576 81.8963C53.2612 82.0014 53.0626 82.1029 52.8604 82.2066C52.4522 82.4161 52.0359 82.6203 51.6 82.8163C51.386 82.9169 51.1661 83.016 50.9441 83.1113C50.8342 83.1609 50.7221 83.2067 50.6101 83.2525C50.405 83.3429 50.1956 83.426 49.9862 83.509C49.9656 83.5161 49.9471 83.5269 49.9265 83.5341C49.734 83.6121 49.5431 83.6843 49.3463 83.755C49.176 83.8201 49.0021 83.8873 48.8274 83.945C48.627 84.0178 48.4206 84.0891 48.2121 84.1567C48.0338 84.2166 47.8497 84.2749 47.6655 84.3332C47.4946 84.3887 47.3252 84.4384 47.1521 84.4902C47.1108 84.5044 47.0674 84.515 47.0261 84.5293C46.8376 84.5802 46.6476 84.637 46.4532 84.6864C46.359 84.7119 46.2684 84.7352 46.172 84.7569C46.01 84.8022 45.8495 84.8417 45.6869 84.8775C45.536 84.9163 45.3829 84.9515 45.2239 84.9851C44.9177 85.0553 44.6072 85.1182 44.2961 85.1716C44.1408 85.203 43.9871 85.2286 43.8275 85.2527C43.7459 85.2658 43.6642 85.2789 43.5826 85.292C43.4554 85.312 43.3281 85.332 43.2024 85.3461C43.0693 85.3646 42.9399 85.3808 42.8068 85.3993C42.6774 85.4156 42.5422 85.4304 42.4106 85.4429C42.1459 85.474 41.8806 85.4955 41.6153 85.517C41.3516 85.5326 41.0819 85.5468 40.816 85.5587C40.6801 85.5639 40.5479 85.567 40.4136 85.5663C40.2814 85.5694 40.1491 85.5724 40.0126 85.5681C39.8804 85.5711 39.7461 85.5705 39.6132 85.564C39.4788 85.5633 39.346 85.5568 39.2132 85.5503C39.0803 85.5438 38.9438 85.5394 38.8088 85.5292C38.541 85.5125 38.2725 85.4863 38.0077 85.4578C37.8764 85.4455 37.7392 85.4316 37.6036 85.4118C37.4701 85.3958 37.3366 85.3797 37.2025 85.3541C37.0691 85.338 36.9371 85.3161 36.803 85.2905C36.6711 85.2686 36.537 85.243 36.4065 85.2152C36.1383 85.164 35.8753 85.1047 35.608 85.0381C35.4637 85.0036 35.3231 84.9669 35.184 84.9243C35.061 84.8922 34.9417 84.858 34.8202 84.82C34.6518 84.7698 34.4871 84.7174 34.3203 84.6614C34.2339 84.6326 34.1476 84.6038 34.0591 84.5713C33.8703 84.5033 33.6772 84.4279 33.4842 84.3525C33.4783 84.3509 33.4725 84.3494 33.4703 84.3457C33.3701 84.3102 33.2714 84.2688 33.1764 84.2252C33.0718 84.1823 32.9731 84.1409 32.8701 84.0921C32.615 83.9786 32.3592 83.8555 32.105 83.7266C31.9363 83.6419 31.7691 83.5513 31.5997 83.4571C31.3923 83.3404 31.1844 83.2142 30.9764 83.0879C19.1252 75.737 16.796 66.1747 17.8014 54.0379C17.8218 53.7679 17.8502 53.5031 17.8786 53.2383C17.9043 53.0198 17.9301 52.8012 17.9617 52.5842C17.982 52.3986 18.0118 52.2124 18.0416 52.0263C18.1046 51.6172 18.1734 51.2096 18.2561 50.8088C18.2792 50.696 18.3003 50.5794 18.3272 50.4644C18.3311 50.4373 18.3372 50.4139 18.3412 50.3868C18.3836 50.1882 18.4297 49.9875 18.478 49.7905C18.5416 49.5348 18.6052 49.2792 18.6752 49.0347C18.6982 48.9468 18.7211 48.859 18.744 48.7711C18.7875 48.6166 18.8309 48.4621 18.8787 48.315C18.9274 48.1525 18.9782 47.9937 19.029 47.8349C19.0799 47.6761 19.1307 47.5172 19.1837 47.3621C19.2594 47.1441 19.3409 46.9276 19.4187 46.7132C19.5137 46.469 19.6051 46.2269 19.7045 45.99C19.8973 45.5147 20.1084 45.0535 20.3275 44.5976L20.3312 44.5954C20.4407 44.3674 20.5546 44.1469 20.6685 43.9263C20.8168 43.6458 20.9709 43.3669 21.1257 43.0976C21.2341 42.91 21.341 42.7283 21.4515 42.5444C21.4552 42.5422 21.453 42.5385 21.4567 42.5363C21.5553 42.3743 21.6576 42.2102 21.7642 42.0534C21.7867 42.0155 21.8112 41.9812 21.8337 41.9432C21.9329 41.7908 22.0358 41.6362 22.1394 41.4911C22.1566 41.4612 22.1759 41.435 22.1953 41.4087C22.3056 41.2498 22.4159 41.0909 22.5321 40.9335C22.6461 40.7724 22.7681 40.6165 22.8901 40.4606C22.9676 40.3557 23.0509 40.2522 23.1342 40.1488C23.2331 40.0214 23.3343 39.8976 23.4354 39.7738C23.6131 39.5605 23.7966 39.3487 23.9787 39.1427C24.1109 38.9958 24.2453 38.8525 24.3759 38.7114C24.5318 38.5456 24.6899 38.3835 24.848 38.2214C25.1285 37.9379 25.4191 37.6633 25.7104 37.3983C25.7756 37.3402 25.8409 37.2822 25.9061 37.2241C26.0439 37.1036 26.1817 36.9831 26.318 36.8685C26.4469 36.7582 26.5743 36.6538 26.7038 36.5531C26.7327 36.5262 26.7601 36.5052 26.7912 36.482C26.8201 36.4552 26.8475 36.4341 26.8748 36.4131C27.0281 36.2936 27.1813 36.174 27.3367 36.0581C27.5084 35.9277 27.6822 35.801 27.8546 35.6801C27.97 35.5976 28.0875 35.5188 28.2014 35.4421C28.2931 35.3784 28.3885 35.3126 28.4824 35.2526C28.6406 35.15 28.7988 35.0473 28.9591 34.9484C29.1195 34.8495 29.2798 34.7505 29.4387 34.6574C30.99 33.7482 32.5837 33.0722 34.1398 32.6366C35.3003 32.3137 36.3956 32.1928 37.4414 32.2498C39.0237 32.3249 40.4719 32.806 41.782 33.5766C43.6191 34.6536 45.1831 36.2976 46.4727 38.2016C47.1977 39.1761 47.8484 40.3033 48.3703 41.6003C48.7712 42.462 49.1234 43.3424 49.4272 44.2164C49.5627 44.6084 49.6745 45.0193 49.7567 45.4475C50.3914 48.4947 49.7582 52.2998 48.1996 55.4066C48.1944 55.4147 48.1913 55.4264 48.184 55.4307C47.9271 55.9832 47.6459 56.4855 47.3562 56.948C47.3532 56.9597 47.3516 56.9656 47.3443 56.9699C46.9597 57.5923 46.5301 58.1716 46.063 58.6786C45.9397 58.8154 45.8047 58.9491 45.666 59.085C45.459 59.2907 45.2323 59.4881 44.9858 59.6772C44.9147 59.7337 44.8415 59.7866 44.7682 59.8394C44.7335 59.8648 44.6987 59.8901 44.6581 59.9139C44.6218 59.9451 44.587 59.9704 44.5501 59.9921C44.4362 60.0688 44.3202 60.1417 44.202 60.211L44.1983 60.2132C43.8474 60.4188 43.4681 60.6014 43.0606 60.736C42.1278 61.0495 41.0519 61.1442 39.8435 60.8351C33.7245 59.2852 32.9829 50.6535 32.9772 50.5675L31.6941 50.6644L30.9284 50.7212L30.4148 50.7592C30.4454 51.1333 31.0916 58.9078 36.5346 62.2086C33.6493 64.8128 33.0331 67.7494 33.006 67.8894L35.523 68.3992C35.5477 68.2805 36.1703 65.4989 39.248 63.3328C41.0372 63.7779 42.7994 63.6433 44.4403 62.9545C44.528 62.918 44.6195 62.8793 44.7088 62.8369C44.871 62.7666 45.0268 62.6852 45.1841 62.598C45.2121 62.5865 45.238 62.5714 45.2638 62.5562C45.2734 62.5556 45.2771 62.5534 45.2845 62.5491C45.3583 62.5058 45.4285 62.4646 45.5024 62.4213C45.5319 62.404 45.5615 62.3867 45.5873 62.3716C45.6686 62.3239 45.7499 62.2763 45.8268 62.2213C45.8822 62.1888 45.9391 62.1505 45.9902 62.1106C46.0678 62.0652 46.141 62.0123 46.2143 61.9595C46.2364 61.9465 46.2564 61.9298 46.2764 61.9131C46.3275 61.8733 46.3844 61.8349 46.4392 61.7929C46.4961 61.7546 46.5472 61.7147 46.5961 61.6712C46.6746 61.6103 46.7493 61.5516 46.8256 61.487C46.8878 61.4407 46.9478 61.3906 47.0019 61.339C47.0508 61.2955 47.0997 61.2519 47.1523 61.2062C47.2286 61.1416 47.2991 61.0755 47.371 61.0036C47.4704 60.9106 47.5676 60.814 47.6648 60.7173C47.7619 60.6207 47.857 60.5203 47.9535 60.4141C48.1629 60.1871 48.3621 59.9513 48.5548 59.7044C48.6225 59.625 48.6879 59.542 48.7513 59.4553C48.7513 59.4553 48.7654 59.437 48.7915 59.3969C48.8119 59.4148 48.8381 59.4341 48.8622 59.4498C50.7875 60.8721 54.3618 62.246 58.1391 60.1562C58.2136 60.1224 58.2838 60.0813 58.3577 60.038C58.4759 59.9687 58.5978 59.8973 58.7154 59.8185C59.5063 59.3053 60.2121 58.7229 60.8363 58.0692C62.8272 55.9794 63.9318 53.1733 64.0734 49.825C64.3244 43.7081 61.1786 36.7236 56.5984 33.2099C56.2909 32.9732 55.9805 32.7483 55.6749 32.5403C52.0531 30.0777 48.5253 29.4011 46.4571 29.2337C46.0216 28.025 45.7051 26.816 45.4912 25.6214C45.4407 25.3235 45.3901 25.0256 45.3513 24.7307C45.3103 24.4322 45.2715 24.1373 45.2444 23.8456C45.2151 23.5501 45.1917 23.2561 45.1763 22.9674C45.1588 22.675 45.1434 22.3862 45.1397 22.1006C45.1358 21.8399 45.134 21.5828 45.136 21.3237C45.1364 21.0703 45.1442 20.8127 45.1541 20.5587C45.1583 20.5066 45.1604 20.4509 45.1609 20.4009C45.1725 20.2006 45.1841 20.0003 45.2001 19.8073C45.2162 19.5894 45.2346 19.3752 45.2551 19.1646C45.26 19.1221 45.2633 19.0854 45.2666 19.0487C45.2712 19.0312 45.2699 19.0121 45.2708 18.9966C45.295 18.784 45.3236 18.5787 45.3521 18.3734C45.3536 18.3675 45.3552 18.3616 45.353 18.3579C45.3849 18.116 45.4226 17.8755 45.4625 17.6387C45.5024 17.402 45.5496 17.1609 45.5954 16.9257L45.6649 16.5871C45.6903 16.478 45.712 16.371 45.7373 16.2619L45.7404 16.2501L45.7441 16.248C45.785 16.0553 45.8302 15.87 45.8776 15.6884C45.9271 15.5104 45.9745 15.3288 46.0263 15.1546C46.0584 15.0316 46.0963 14.9101 46.1365 14.7923C46.2225 14.4987 46.3171 14.2199 46.4102 13.947C46.4874 13.7231 46.569 13.5066 46.6527 13.2938C46.7364 13.081 46.8207 12.8777 46.9087 12.6723L46.9124 12.6701C46.9967 12.4668 47.0854 12.271 47.1799 12.0766C47.1799 12.0766 47.1836 12.0745 47.1815 12.0708C47.252 11.9202 47.3248 11.7734 47.3997 11.6302C47.4813 11.4732 47.5614 11.322 47.6416 11.1709C47.7291 11.0154 47.8151 10.8657 47.9032 10.7198C48.1071 10.3819 48.313 10.0727 48.5186 9.78844C48.5693 9.71406 48.6221 9.64338 48.6771 9.5764C48.7635 9.46127 48.8542 9.35353 48.9375 9.25012C48.9821 9.19918 49.0267 9.14824 49.0712 9.0973C49.1121 9.04852 49.1589 9.00127 49.2019 8.95619C49.2607 8.88704 49.3215 8.82158 49.3846 8.75982C49.4529 8.69003 49.5211 8.62024 49.5937 8.55784C49.61 8.54332 49.6226 8.53097 49.6353 8.51861C49.6931 8.46487 49.7494 8.41699 49.8057 8.36911C49.8546 8.32555 49.9057 8.2857 49.953 8.248C49.993 8.21464 50.0315 8.18713 50.07 8.15962C50.121 8.11976 50.1706 8.08576 50.2238 8.04959C50.294 8.00846 50.3599 7.95994 50.43 7.91881C50.6923 7.76511 50.9519 7.65764 51.2014 7.60073C59.2485 5.80232 62.6472 19.5265 63.9576 23.9045C65.2644 28.2847 71.6506 49.6717 71.6506 49.6717C77.7466 51.3094 85.772 43.7673 90.0956 48.1807C90.3056 48.3951 90.4842 48.6576 90.6294 48.9646Z"/>
</mask>
<path d="M90.6294 48.9646C90.6294 48.9646 90.6452 49 90.656 49.0185C90.661 49.0354 90.6718 49.0539 90.6789 49.0745L90.6854 49.0856C90.7083 49.1416 90.7334 49.2013 90.7548 49.2632C90.7592 49.2706 90.7657 49.2817 90.7663 49.2913L90.7728 49.3023C90.8084 49.4055 90.8463 49.5124 90.8767 49.6236C90.9071 49.7348 90.936 49.8518 90.9612 49.971C90.9864 50.0902 91.0079 50.2116 91.0242 50.341C91.042 50.4645 91.0583 50.5939 91.0672 50.7277C91.0764 50.8364 91.0803 50.9532 91.0843 51.07C91.0892 51.2309 91.0905 51.3939 91.0822 51.5576C91.0763 51.7 91.0689 51.8482 91.0557 51.9949C91.0424 52.1416 91.0255 52.2905 91.0048 52.4416L91.0002 52.4592C91.0002 52.4592 90.9963 52.4863 90.9954 52.5017C90.9765 52.6219 90.9577 52.7421 90.933 52.8608C90.9336 52.8704 90.9321 52.8763 90.929 52.888C90.9281 52.9034 90.9257 52.9247 90.9211 52.9422C90.9031 53.047 90.883 53.1482 90.8555 53.2536C90.8115 53.458 90.7565 53.6689 90.6977 53.882C90.6026 54.2107 90.4926 54.5481 90.3636 54.8867C90.2345 55.2254 90.0849 55.5711 89.9198 55.916C89.8335 56.0906 89.7473 56.2652 89.6515 56.4405C89.2794 57.135 88.8294 57.8404 88.2928 58.542C88.0263 58.8917 87.7386 59.239 87.4274 59.5801C87.1184 59.925 86.7844 60.2696 86.4307 60.6059C86.2609 60.765 86.0874 60.9262 85.9081 61.0859C85.8881 61.1026 85.8681 61.1193 85.8444 61.1381L85.837 61.1425C85.6829 61.2775 85.5229 61.4109 85.3592 61.5465C85.3408 61.5574 85.326 61.566 85.3119 61.5842C85.3066 61.5923 85.3014 61.6003 85.2919 61.6009C85.2445 61.6386 85.1971 61.6763 85.1497 61.714C84.7943 61.9967 84.4214 62.2748 84.0309 62.5484C83.3483 63.0179 82.6145 63.4678 81.8216 63.8929C72.5988 68.8417 66.5094 66.411 66.5094 66.411C65.8165 67.9635 61.9171 75.6281 57.8503 79.019C57.0341 79.7009 55.9195 80.4831 54.5861 81.2646C54.2241 81.4768 53.8504 81.6859 53.4576 81.8963C53.2612 82.0014 53.0626 82.1029 52.8604 82.2066C52.4522 82.4161 52.0359 82.6203 51.6 82.8163C51.386 82.9169 51.1661 83.016 50.9441 83.1113C50.8342 83.1609 50.7221 83.2067 50.6101 83.2525C50.405 83.3429 50.1956 83.426 49.9862 83.509C49.9656 83.5161 49.9471 83.5269 49.9265 83.5341C49.734 83.6121 49.5431 83.6843 49.3463 83.755C49.176 83.8201 49.0021 83.8873 48.8274 83.945C48.627 84.0178 48.4206 84.0891 48.2121 84.1567C48.0338 84.2166 47.8497 84.2749 47.6655 84.3332C47.4946 84.3887 47.3252 84.4384 47.1521 84.4902C47.1108 84.5044 47.0674 84.515 47.0261 84.5293C46.8376 84.5802 46.6476 84.637 46.4532 84.6864C46.359 84.7119 46.2684 84.7352 46.172 84.7569C46.01 84.8022 45.8495 84.8417 45.6869 84.8775C45.536 84.9163 45.3829 84.9515 45.2239 84.9851C44.9177 85.0553 44.6072 85.1182 44.2961 85.1716C44.1408 85.203 43.9871 85.2286 43.8275 85.2527C43.7459 85.2658 43.6642 85.2789 43.5826 85.292C43.4554 85.312 43.3281 85.332 43.2024 85.3461C43.0693 85.3646 42.9399 85.3808 42.8068 85.3993C42.6774 85.4156 42.5422 85.4304 42.4106 85.4429C42.1459 85.474 41.8806 85.4955 41.6153 85.517C41.3516 85.5326 41.0819 85.5468 40.816 85.5587C40.6801 85.5639 40.5479 85.567 40.4136 85.5663C40.2814 85.5694 40.1491 85.5724 40.0126 85.5681C39.8804 85.5711 39.7461 85.5705 39.6132 85.564C39.4788 85.5633 39.346 85.5568 39.2132 85.5503C39.0803 85.5438 38.9438 85.5394 38.8088 85.5292C38.541 85.5125 38.2725 85.4863 38.0077 85.4578C37.8764 85.4455 37.7392 85.4316 37.6036 85.4118C37.4701 85.3958 37.3366 85.3797 37.2025 85.3541C37.0691 85.338 36.9371 85.3161 36.803 85.2905C36.6711 85.2686 36.537 85.243 36.4065 85.2152C36.1383 85.164 35.8753 85.1047 35.608 85.0381C35.4637 85.0036 35.3231 84.9669 35.184 84.9243C35.061 84.8922 34.9417 84.858 34.8202 84.82C34.6518 84.7698 34.4871 84.7174 34.3203 84.6614C34.2339 84.6326 34.1476 84.6038 34.0591 84.5713C33.8703 84.5033 33.6772 84.4279 33.4842 84.3525C33.4783 84.3509 33.4725 84.3494 33.4703 84.3457C33.3701 84.3102 33.2714 84.2688 33.1764 84.2252C33.0718 84.1823 32.9731 84.1409 32.8701 84.0921C32.615 83.9786 32.3592 83.8555 32.105 83.7266C31.9363 83.6419 31.7691 83.5513 31.5997 83.4571C31.3923 83.3404 31.1844 83.2142 30.9764 83.0879C19.1252 75.737 16.796 66.1747 17.8014 54.0379C17.8218 53.7679 17.8502 53.5031 17.8786 53.2383C17.9043 53.0198 17.9301 52.8012 17.9617 52.5842C17.982 52.3986 18.0118 52.2124 18.0416 52.0263C18.1046 51.6172 18.1734 51.2096 18.2561 50.8088C18.2792 50.696 18.3003 50.5794 18.3272 50.4644C18.3311 50.4373 18.3372 50.4139 18.3412 50.3868C18.3836 50.1882 18.4297 49.9875 18.478 49.7905C18.5416 49.5348 18.6052 49.2792 18.6752 49.0347C18.6982 48.9468 18.7211 48.859 18.744 48.7711C18.7875 48.6166 18.8309 48.4621 18.8787 48.315C18.9274 48.1525 18.9782 47.9937 19.029 47.8349C19.0799 47.6761 19.1307 47.5172 19.1837 47.3621C19.2594 47.1441 19.3409 46.9276 19.4187 46.7132C19.5137 46.469 19.6051 46.2269 19.7045 45.99C19.8973 45.5147 20.1084 45.0535 20.3275 44.5976L20.3312 44.5954C20.4407 44.3674 20.5546 44.1469 20.6685 43.9263C20.8168 43.6458 20.9709 43.3669 21.1257 43.0976C21.2341 42.91 21.341 42.7283 21.4515 42.5444C21.4552 42.5422 21.453 42.5385 21.4567 42.5363C21.5553 42.3743 21.6576 42.2102 21.7642 42.0534C21.7867 42.0155 21.8112 41.9812 21.8337 41.9432C21.9329 41.7908 22.0358 41.6362 22.1394 41.4911C22.1566 41.4612 22.1759 41.435 22.1953 41.4087C22.3056 41.2498 22.4159 41.0909 22.5321 40.9335C22.6461 40.7724 22.7681 40.6165 22.8901 40.4606C22.9676 40.3557 23.0509 40.2522 23.1342 40.1488C23.2331 40.0214 23.3343 39.8976 23.4354 39.7738C23.6131 39.5605 23.7966 39.3487 23.9787 39.1427C24.1109 38.9958 24.2453 38.8525 24.3759 38.7114C24.5318 38.5456 24.6899 38.3835 24.848 38.2214C25.1285 37.9379 25.4191 37.6633 25.7104 37.3983C25.7756 37.3402 25.8409 37.2822 25.9061 37.2241C26.0439 37.1036 26.1817 36.9831 26.318 36.8685C26.4469 36.7582 26.5743 36.6538 26.7038 36.5531C26.7327 36.5262 26.7601 36.5052 26.7912 36.482C26.8201 36.4552 26.8475 36.4341 26.8748 36.4131C27.0281 36.2936 27.1813 36.174 27.3367 36.0581C27.5084 35.9277 27.6822 35.801 27.8546 35.6801C27.97 35.5976 28.0875 35.5188 28.2014 35.4421C28.2931 35.3784 28.3885 35.3126 28.4824 35.2526C28.6406 35.15 28.7988 35.0473 28.9591 34.9484C29.1195 34.8495 29.2798 34.7505 29.4387 34.6574C30.99 33.7482 32.5837 33.0722 34.1398 32.6366C35.3003 32.3137 36.3956 32.1928 37.4414 32.2498C39.0237 32.3249 40.4719 32.806 41.782 33.5766C43.6191 34.6536 45.1831 36.2976 46.4727 38.2016C47.1977 39.1761 47.8484 40.3033 48.3703 41.6003C48.7712 42.462 49.1234 43.3424 49.4272 44.2164C49.5627 44.6084 49.6745 45.0193 49.7567 45.4475C50.3914 48.4947 49.7582 52.2998 48.1996 55.4066C48.1944 55.4147 48.1913 55.4264 48.184 55.4307C47.9271 55.9832 47.6459 56.4855 47.3562 56.948C47.3532 56.9597 47.3516 56.9656 47.3443 56.9699C46.9597 57.5923 46.5301 58.1716 46.063 58.6786C45.9397 58.8154 45.8047 58.9491 45.666 59.085C45.459 59.2907 45.2323 59.4881 44.9858 59.6772C44.9147 59.7337 44.8415 59.7866 44.7682 59.8394C44.7335 59.8648 44.6987 59.8901 44.6581 59.9139C44.6218 59.9451 44.587 59.9704 44.5501 59.9921C44.4362 60.0688 44.3202 60.1417 44.202 60.211L44.1983 60.2132C43.8474 60.4188 43.4681 60.6014 43.0606 60.736C42.1278 61.0495 41.0519 61.1442 39.8435 60.8351C33.7245 59.2852 32.9829 50.6535 32.9772 50.5675L31.6941 50.6644L30.9284 50.7212L30.4148 50.7592C30.4454 51.1333 31.0916 58.9078 36.5346 62.2086C33.6493 64.8128 33.0331 67.7494 33.006 67.8894L35.523 68.3992C35.5477 68.2805 36.1703 65.4989 39.248 63.3328C41.0372 63.7779 42.7994 63.6433 44.4403 62.9545C44.528 62.918 44.6195 62.8793 44.7088 62.8369C44.871 62.7666 45.0268 62.6852 45.1841 62.598C45.2121 62.5865 45.238 62.5714 45.2638 62.5562C45.2734 62.5556 45.2771 62.5534 45.2845 62.5491C45.3583 62.5058 45.4285 62.4646 45.5024 62.4213C45.5319 62.404 45.5615 62.3867 45.5873 62.3716C45.6686 62.3239 45.7499 62.2763 45.8268 62.2213C45.8822 62.1888 45.9391 62.1505 45.9902 62.1106C46.0678 62.0652 46.141 62.0123 46.2143 61.9595C46.2364 61.9465 46.2564 61.9298 46.2764 61.9131C46.3275 61.8733 46.3844 61.8349 46.4392 61.7929C46.4961 61.7546 46.5472 61.7147 46.5961 61.6712C46.6746 61.6103 46.7493 61.5516 46.8256 61.487C46.8878 61.4407 46.9478 61.3906 47.0019 61.339C47.0508 61.2955 47.0997 61.2519 47.1523 61.2062C47.2286 61.1416 47.2991 61.0755 47.371 61.0036C47.4704 60.9106 47.5676 60.814 47.6648 60.7173C47.7619 60.6207 47.857 60.5203 47.9535 60.4141C48.1629 60.1871 48.3621 59.9513 48.5548 59.7044C48.6225 59.625 48.6879 59.542 48.7513 59.4553C48.7513 59.4553 48.7654 59.437 48.7915 59.3969C48.8119 59.4148 48.8381 59.4341 48.8622 59.4498C50.7875 60.8721 54.3618 62.246 58.1391 60.1562C58.2136 60.1224 58.2838 60.0813 58.3577 60.038C58.4759 59.9687 58.5978 59.8973 58.7154 59.8185C59.5063 59.3053 60.2121 58.7229 60.8363 58.0692C62.8272 55.9794 63.9318 53.1733 64.0734 49.825C64.3244 43.7081 61.1786 36.7236 56.5984 33.2099C56.2909 32.9732 55.9805 32.7483 55.6749 32.5403C52.0531 30.0777 48.5253 29.4011 46.4571 29.2337C46.0216 28.025 45.7051 26.816 45.4912 25.6214C45.4407 25.3235 45.3901 25.0256 45.3513 24.7307C45.3103 24.4322 45.2715 24.1373 45.2444 23.8456C45.2151 23.5501 45.1917 23.2561 45.1763 22.9674C45.1588 22.675 45.1434 22.3862 45.1397 22.1006C45.1358 21.8399 45.134 21.5828 45.136 21.3237C45.1364 21.0703 45.1442 20.8127 45.1541 20.5587C45.1583 20.5066 45.1604 20.4509 45.1609 20.4009C45.1725 20.2006 45.1841 20.0003 45.2001 19.8073C45.2162 19.5894 45.2346 19.3752 45.2551 19.1646C45.26 19.1221 45.2633 19.0854 45.2666 19.0487C45.2712 19.0312 45.2699 19.0121 45.2708 18.9966C45.295 18.784 45.3236 18.5787 45.3521 18.3734C45.3536 18.3675 45.3552 18.3616 45.353 18.3579C45.3849 18.116 45.4226 17.8755 45.4625 17.6387C45.5024 17.402 45.5496 17.1609 45.5954 16.9257L45.6649 16.5871C45.6903 16.478 45.712 16.371 45.7373 16.2619L45.7404 16.2501L45.7441 16.248C45.785 16.0553 45.8302 15.87 45.8776 15.6884C45.9271 15.5104 45.9745 15.3288 46.0263 15.1546C46.0584 15.0316 46.0963 14.9101 46.1365 14.7923C46.2225 14.4987 46.3171 14.2199 46.4102 13.947C46.4874 13.7231 46.569 13.5066 46.6527 13.2938C46.7364 13.081 46.8207 12.8777 46.9087 12.6723L46.9124 12.6701C46.9967 12.4668 47.0854 12.271 47.1799 12.0766C47.1799 12.0766 47.1836 12.0745 47.1815 12.0708C47.252 11.9202 47.3248 11.7734 47.3997 11.6302C47.4813 11.4732 47.5614 11.322 47.6416 11.1709C47.7291 11.0154 47.8151 10.8657 47.9032 10.7198C48.1071 10.3819 48.313 10.0727 48.5186 9.78844C48.5693 9.71406 48.6221 9.64338 48.6771 9.5764C48.7635 9.46127 48.8542 9.35353 48.9375 9.25012C48.9821 9.19918 49.0267 9.14824 49.0712 9.0973C49.1121 9.04852 49.1589 9.00127 49.2019 8.95619C49.2607 8.88704 49.3215 8.82158 49.3846 8.75982C49.4529 8.69003 49.5211 8.62024 49.5937 8.55784C49.61 8.54332 49.6226 8.53097 49.6353 8.51861C49.6931 8.46487 49.7494 8.41699 49.8057 8.36911C49.8546 8.32555 49.9057 8.2857 49.953 8.248C49.993 8.21464 50.0315 8.18713 50.07 8.15962C50.121 8.11976 50.1706 8.08576 50.2238 8.04959C50.294 8.00846 50.3599 7.95994 50.43 7.91881C50.6923 7.76511 50.9519 7.65764 51.2014 7.60073C59.2485 5.80232 62.6472 19.5265 63.9576 23.9045C65.2644 28.2847 71.6506 49.6717 71.6506 49.6717C77.7466 51.3094 85.772 43.7673 90.0956 48.1807C90.3056 48.3951 90.4842 48.6576 90.6294 48.9646Z" fill="white"/>
<path d="M90.6294 48.9646C90.6294 48.9646 90.6452 49 90.656 49.0185C90.661 49.0354 90.6718 49.0539 90.6789 49.0745L90.6854 49.0856C90.7083 49.1416 90.7334 49.2013 90.7548 49.2632C90.7592 49.2706 90.7657 49.2817 90.7663 49.2913L90.7728 49.3023C90.8084 49.4055 90.8463 49.5124 90.8767 49.6236C90.9071 49.7348 90.936 49.8518 90.9612 49.971C90.9864 50.0902 91.0079 50.2116 91.0242 50.341C91.042 50.4645 91.0583 50.5939 91.0672 50.7277C91.0764 50.8364 91.0803 50.9532 91.0843 51.07C91.0892 51.2309 91.0905 51.3939 91.0822 51.5576C91.0763 51.7 91.0689 51.8482 91.0557 51.9949C91.0424 52.1416 91.0255 52.2905 91.0048 52.4416L91.0002 52.4592C91.0002 52.4592 90.9963 52.4863 90.9954 52.5017C90.9765 52.6219 90.9577 52.7421 90.933 52.8608C90.9336 52.8704 90.9321 52.8763 90.929 52.888C90.9281 52.9034 90.9257 52.9247 90.9211 52.9422C90.9031 53.047 90.883 53.1482 90.8555 53.2536C90.8115 53.458 90.7565 53.6689 90.6977 53.882C90.6026 54.2107 90.4926 54.5481 90.3636 54.8867C90.2345 55.2254 90.0849 55.5711 89.9198 55.916C89.8335 56.0906 89.7473 56.2652 89.6515 56.4405C89.2794 57.135 88.8294 57.8404 88.2928 58.542C88.0263 58.8917 87.7386 59.239 87.4274 59.5801C87.1184 59.925 86.7844 60.2696 86.4307 60.6059C86.2609 60.765 86.0874 60.9262 85.9081 61.0859C85.8881 61.1026 85.8681 61.1193 85.8444 61.1381L85.837 61.1425C85.6829 61.2775 85.5229 61.4109 85.3592 61.5465C85.3408 61.5574 85.326 61.566 85.3119 61.5842C85.3066 61.5923 85.3014 61.6003 85.2919 61.6009C85.2445 61.6386 85.1971 61.6763 85.1497 61.714C84.7943 61.9967 84.4214 62.2748 84.0309 62.5484C83.3483 63.0179 82.6145 63.4678 81.8216 63.8929C72.5988 68.8417 66.5094 66.411 66.5094 66.411C65.8165 67.9635 61.9171 75.6281 57.8503 79.019C57.0341 79.7009 55.9195 80.4831 54.5861 81.2646C54.2241 81.4768 53.8504 81.6859 53.4576 81.8963C53.2612 82.0014 53.0626 82.1029 52.8604 82.2066C52.4522 82.4161 52.0359 82.6203 51.6 82.8163C51.386 82.9169 51.1661 83.016 50.9441 83.1113C50.8342 83.1609 50.7221 83.2067 50.6101 83.2525C50.405 83.3429 50.1956 83.426 49.9862 83.509C49.9656 83.5161 49.9471 83.5269 49.9265 83.5341C49.734 83.6121 49.5431 83.6843 49.3463 83.755C49.176 83.8201 49.0021 83.8873 48.8274 83.945C48.627 84.0178 48.4206 84.0891 48.2121 84.1567C48.0338 84.2166 47.8497 84.2749 47.6655 84.3332C47.4946 84.3887 47.3252 84.4384 47.1521 84.4902C47.1108 84.5044 47.0674 84.515 47.0261 84.5293C46.8376 84.5802 46.6476 84.637 46.4532 84.6864C46.359 84.7119 46.2684 84.7352 46.172 84.7569C46.01 84.8022 45.8495 84.8417 45.6869 84.8775C45.536 84.9163 45.3829 84.9515 45.2239 84.9851C44.9177 85.0553 44.6072 85.1182 44.2961 85.1716C44.1408 85.203 43.9871 85.2286 43.8275 85.2527C43.7459 85.2658 43.6642 85.2789 43.5826 85.292C43.4554 85.312 43.3281 85.332 43.2024 85.3461C43.0693 85.3646 42.9399 85.3808 42.8068 85.3993C42.6774 85.4156 42.5422 85.4304 42.4106 85.4429C42.1459 85.474 41.8806 85.4955 41.6153 85.517C41.3516 85.5326 41.0819 85.5468 40.816 85.5587C40.6801 85.5639 40.5479 85.567 40.4136 85.5663C40.2814 85.5694 40.1491 85.5724 40.0126 85.5681C39.8804 85.5711 39.7461 85.5705 39.6132 85.564C39.4788 85.5633 39.346 85.5568 39.2132 85.5503C39.0803 85.5438 38.9438 85.5394 38.8088 85.5292C38.541 85.5125 38.2725 85.4863 38.0077 85.4578C37.8764 85.4455 37.7392 85.4316 37.6036 85.4118C37.4701 85.3958 37.3366 85.3797 37.2025 85.3541C37.0691 85.338 36.9371 85.3161 36.803 85.2905C36.6711 85.2686 36.537 85.243 36.4065 85.2152C36.1383 85.164 35.8753 85.1047 35.608 85.0381C35.4637 85.0036 35.3231 84.9669 35.184 84.9243C35.061 84.8922 34.9417 84.858 34.8202 84.82C34.6518 84.7698 34.4871 84.7174 34.3203 84.6614C34.2339 84.6326 34.1476 84.6038 34.0591 84.5713C33.8703 84.5033 33.6772 84.4279 33.4842 84.3525C33.4783 84.3509 33.4725 84.3494 33.4703 84.3457C33.3701 84.3102 33.2714 84.2688 33.1764 84.2252C33.0718 84.1823 32.9731 84.1409 32.8701 84.0921C32.615 83.9786 32.3592 83.8555 32.105 83.7266C31.9363 83.6419 31.7691 83.5513 31.5997 83.4571C31.3923 83.3404 31.1844 83.2142 30.9764 83.0879C19.1252 75.737 16.796 66.1747 17.8014 54.0379C17.8218 53.7679 17.8502 53.5031 17.8786 53.2383C17.9043 53.0198 17.9301 52.8012 17.9617 52.5842C17.982 52.3986 18.0118 52.2124 18.0416 52.0263C18.1046 51.6172 18.1734 51.2096 18.2561 50.8088C18.2792 50.696 18.3003 50.5794 18.3272 50.4644C18.3311 50.4373 18.3372 50.4139 18.3412 50.3868C18.3836 50.1882 18.4297 49.9875 18.478 49.7905C18.5416 49.5348 18.6052 49.2792 18.6752 49.0347C18.6982 48.9468 18.7211 48.859 18.744 48.7711C18.7875 48.6166 18.8309 48.4621 18.8787 48.315C18.9274 48.1525 18.9782 47.9937 19.029 47.8349C19.0799 47.6761 19.1307 47.5172 19.1837 47.3621C19.2594 47.1441 19.3409 46.9276 19.4187 46.7132C19.5137 46.469 19.6051 46.2269 19.7045 45.99C19.8973 45.5147 20.1084 45.0535 20.3275 44.5976L20.3312 44.5954C20.4407 44.3674 20.5546 44.1469 20.6685 43.9263C20.8168 43.6458 20.9709 43.3669 21.1257 43.0976C21.2341 42.91 21.341 42.7283 21.4515 42.5444C21.4552 42.5422 21.453 42.5385 21.4567 42.5363C21.5553 42.3743 21.6576 42.2102 21.7642 42.0534C21.7867 42.0155 21.8112 41.9812 21.8337 41.9432C21.9329 41.7908 22.0358 41.6362 22.1394 41.4911C22.1566 41.4612 22.1759 41.435 22.1953 41.4087C22.3056 41.2498 22.4159 41.0909 22.5321 40.9335C22.6461 40.7724 22.7681 40.6165 22.8901 40.4606C22.9676 40.3557 23.0509 40.2522 23.1342 40.1488C23.2331 40.0214 23.3343 39.8976 23.4354 39.7738C23.6131 39.5605 23.7966 39.3487 23.9787 39.1427C24.1109 38.9958 24.2453 38.8525 24.3759 38.7114C24.5318 38.5456 24.6899 38.3835 24.848 38.2214C25.1285 37.9379 25.4191 37.6633 25.7104 37.3983C25.7756 37.3402 25.8409 37.2822 25.9061 37.2241C26.0439 37.1036 26.1817 36.9831 26.318 36.8685C26.4469 36.7582 26.5743 36.6538 26.7038 36.5531C26.7327 36.5262 26.7601 36.5052 26.7912 36.482C26.8201 36.4552 26.8475 36.4341 26.8748 36.4131C27.0281 36.2936 27.1813 36.174 27.3367 36.0581C27.5084 35.9277 27.6822 35.801 27.8546 35.6801C27.97 35.5976 28.0875 35.5188 28.2014 35.4421C28.2931 35.3784 28.3885 35.3126 28.4824 35.2526C28.6406 35.15 28.7988 35.0473 28.9591 34.9484C29.1195 34.8495 29.2798 34.7505 29.4387 34.6574C30.99 33.7482 32.5837 33.0722 34.1398 32.6366C35.3003 32.3137 36.3956 32.1928 37.4414 32.2498C39.0237 32.3249 40.4719 32.806 41.782 33.5766C43.6191 34.6536 45.1831 36.2976 46.4727 38.2016C47.1977 39.1761 47.8484 40.3033 48.3703 41.6003C48.7712 42.462 49.1234 43.3424 49.4272 44.2164C49.5627 44.6084 49.6745 45.0193 49.7567 45.4475C50.3914 48.4947 49.7582 52.2998 48.1996 55.4066C48.1944 55.4147 48.1913 55.4264 48.184 55.4307C47.9271 55.9832 47.6459 56.4855 47.3562 56.948C47.3532 56.9597 47.3516 56.9656 47.3443 56.9699C46.9597 57.5923 46.5301 58.1716 46.063 58.6786C45.9397 58.8154 45.8047 58.9491 45.666 59.085C45.459 59.2907 45.2323 59.4881 44.9858 59.6772C44.9147 59.7337 44.8415 59.7866 44.7682 59.8394C44.7335 59.8648 44.6987 59.8901 44.6581 59.9139C44.6218 59.9451 44.587 59.9704 44.5501 59.9921C44.4362 60.0688 44.3202 60.1417 44.202 60.211L44.1983 60.2132C43.8474 60.4188 43.4681 60.6014 43.0606 60.736C42.1278 61.0495 41.0519 61.1442 39.8435 60.8351C33.7245 59.2852 32.9829 50.6535 32.9772 50.5675L31.6941 50.6644L30.9284 50.7212L30.4148 50.7592C30.4454 51.1333 31.0916 58.9078 36.5346 62.2086C33.6493 64.8128 33.0331 67.7494 33.006 67.8894L35.523 68.3992C35.5477 68.2805 36.1703 65.4989 39.248 63.3328C41.0372 63.7779 42.7994 63.6433 44.4403 62.9545C44.528 62.918 44.6195 62.8793 44.7088 62.8369C44.871 62.7666 45.0268 62.6852 45.1841 62.598C45.2121 62.5865 45.238 62.5714 45.2638 62.5562C45.2734 62.5556 45.2771 62.5534 45.2845 62.5491C45.3583 62.5058 45.4285 62.4646 45.5024 62.4213C45.5319 62.404 45.5615 62.3867 45.5873 62.3716C45.6686 62.3239 45.7499 62.2763 45.8268 62.2213C45.8822 62.1888 45.9391 62.1505 45.9902 62.1106C46.0678 62.0652 46.141 62.0123 46.2143 61.9595C46.2364 61.9465 46.2564 61.9298 46.2764 61.9131C46.3275 61.8733 46.3844 61.8349 46.4392 61.7929C46.4961 61.7546 46.5472 61.7147 46.5961 61.6712C46.6746 61.6103 46.7493 61.5516 46.8256 61.487C46.8878 61.4407 46.9478 61.3906 47.0019 61.339C47.0508 61.2955 47.0997 61.2519 47.1523 61.2062C47.2286 61.1416 47.2991 61.0755 47.371 61.0036C47.4704 60.9106 47.5676 60.814 47.6648 60.7173C47.7619 60.6207 47.857 60.5203 47.9535 60.4141C48.1629 60.1871 48.3621 59.9513 48.5548 59.7044C48.6225 59.625 48.6879 59.542 48.7513 59.4553C48.7513 59.4553 48.7654 59.437 48.7915 59.3969C48.8119 59.4148 48.8381 59.4341 48.8622 59.4498C50.7875 60.8721 54.3618 62.246 58.1391 60.1562C58.2136 60.1224 58.2838 60.0813 58.3577 60.038C58.4759 59.9687 58.5978 59.8973 58.7154 59.8185C59.5063 59.3053 60.2121 58.7229 60.8363 58.0692C62.8272 55.9794 63.9318 53.1733 64.0734 49.825C64.3244 43.7081 61.1786 36.7236 56.5984 33.2099C56.2909 32.9732 55.9805 32.7483 55.6749 32.5403C52.0531 30.0777 48.5253 29.4011 46.4571 29.2337C46.0216 28.025 45.7051 26.816 45.4912 25.6214C45.4407 25.3235 45.3901 25.0256 45.3513 24.7307C45.3103 24.4322 45.2715 24.1373 45.2444 23.8456C45.2151 23.5501 45.1917 23.2561 45.1763 22.9674C45.1588 22.675 45.1434 22.3862 45.1397 22.1006C45.1358 21.8399 45.134 21.5828 45.136 21.3237C45.1364 21.0703 45.1442 20.8127 45.1541 20.5587C45.1583 20.5066 45.1604 20.4509 45.1609 20.4009C45.1725 20.2006 45.1841 20.0003 45.2001 19.8073C45.2162 19.5894 45.2346 19.3752 45.2551 19.1646C45.26 19.1221 45.2633 19.0854 45.2666 19.0487C45.2712 19.0312 45.2699 19.0121 45.2708 18.9966C45.295 18.784 45.3236 18.5787 45.3521 18.3734C45.3536 18.3675 45.3552 18.3616 45.353 18.3579C45.3849 18.116 45.4226 17.8755 45.4625 17.6387C45.5024 17.402 45.5496 17.1609 45.5954 16.9257L45.6649 16.5871C45.6903 16.478 45.712 16.371 45.7373 16.2619L45.7404 16.2501L45.7441 16.248C45.785 16.0553 45.8302 15.87 45.8776 15.6884C45.9271 15.5104 45.9745 15.3288 46.0263 15.1546C46.0584 15.0316 46.0963 14.9101 46.1365 14.7923C46.2225 14.4987 46.3171 14.2199 46.4102 13.947C46.4874 13.7231 46.569 13.5066 46.6527 13.2938C46.7364 13.081 46.8207 12.8777 46.9087 12.6723L46.9124 12.6701C46.9967 12.4668 47.0854 12.271 47.1799 12.0766C47.1799 12.0766 47.1836 12.0745 47.1815 12.0708C47.252 11.9202 47.3248 11.7734 47.3997 11.6302C47.4813 11.4732 47.5614 11.322 47.6416 11.1709C47.7291 11.0154 47.8151 10.8657 47.9032 10.7198C48.1071 10.3819 48.313 10.0727 48.5186 9.78844C48.5693 9.71406 48.6221 9.64338 48.6771 9.5764C48.7635 9.46127 48.8542 9.35353 48.9375 9.25012C48.9821 9.19918 49.0267 9.14824 49.0712 9.0973C49.1121 9.04852 49.1589 9.00127 49.2019 8.95619C49.2607 8.88704 49.3215 8.82158 49.3846 8.75982C49.4529 8.69003 49.5211 8.62024 49.5937 8.55784C49.61 8.54332 49.6226 8.53097 49.6353 8.51861C49.6931 8.46487 49.7494 8.41699 49.8057 8.36911C49.8546 8.32555 49.9057 8.2857 49.953 8.248C49.993 8.21464 50.0315 8.18713 50.07 8.15962C50.121 8.11976 50.1706 8.08576 50.2238 8.04959C50.294 8.00846 50.3599 7.95994 50.43 7.91881C50.6923 7.76511 50.9519 7.65764 51.2014 7.60073C59.2485 5.80232 62.6472 19.5265 63.9576 23.9045C65.2644 28.2847 71.6506 49.6717 71.6506 49.6717C77.7466 51.3094 85.772 43.7673 90.0956 48.1807C90.3056 48.3951 90.4842 48.6576 90.6294 48.9646Z" stroke="#FFC814" stroke-opacity="0.48" stroke-width="6.27787" mask="url(#path-14-outside-2_56_2)"/>
</svg>
