<svg width="99" height="95" viewBox="0 0 99 95" fill="none" xmlns="http://www.w3.org/2000/svg">
<path d="M45.5874 62.5942C45.5616 62.6093 45.532 62.6266 45.5025 62.644C45.4286 62.6873 45.3584 62.7284 45.2845 62.7717C45.2772 62.776 45.2735 62.7782 45.2639 62.7788C45.3732 62.7197 45.4825 62.6606 45.5874 62.5942Z" fill="#FF8A8C" fill-opacity="0.54"/>
<path d="M43.8275 59.5921L43.8171 59.5744L43.6554 59.6693C43.6403 59.6774 43.6223 59.6874 43.5996 59.6997L43.5998 59.7018L43.5147 59.7517L43.6004 59.7049L45.4965 66.2715C45.7548 66.2543 46.117 66.2017 46.5236 66.0464C46.7043 65.9774 46.8454 65.9066 46.9319 65.8603C46.9737 65.838 47.0065 65.8186 47.0247 65.8082L47.114 65.7559C47.156 65.7324 47.2011 65.7047 47.2496 65.6764L47.3566 65.6136L47.3557 65.612C47.3895 65.5914 47.4255 65.5727 47.4601 65.5507L45.2018 61.8463M43.8275 59.5921C43.7887 59.6099 43.7524 59.6279 43.7189 59.6445L45.2123 62.0031L45.2018 61.8463M43.8275 59.5921L45.2018 61.8463M43.8275 59.5921C43.8889 59.5641 43.9556 59.5344 44.0258 59.5076C44.4266 59.3545 44.7825 59.3027 45.0314 59.2861L45.2018 61.8463" stroke="#FF8A8C" stroke-opacity="0.54" stroke-width="7"/>
<path d="M45.2639 62.7788C45.2639 62.7788 45.2772 62.776 45.2845 62.7717C45.3584 62.7284 45.4286 62.6873 45.5025 62.644C45.532 62.6266 45.5616 62.6093 45.5874 62.5942C45.4803 62.6569 45.3732 62.7197 45.2639 62.7788Z" fill="#FF8A8C" fill-opacity="0.54"/>
<path d="M43.8171 59.5744L43.827 59.5913C44.0708 59.4799 44.2545 59.4275 44.2869 59.418C44.3482 59.4 44.4005 59.387 44.4387 59.3777C44.4585 59.3729 44.477 59.3686 44.4934 59.3648C44.5018 59.363 44.5108 59.3609 44.5184 59.3592C44.5221 59.3584 44.5257 59.3571 44.5292 59.3563C44.5309 59.356 44.5327 59.3559 44.5344 59.3556L44.5374 59.3549L44.5396 59.3548C44.5407 59.3588 44.5609 59.4535 45.0205 61.6277L47.3566 65.6136L47.0542 65.7909C47.018 65.8121 46.9804 65.8291 46.9451 65.8481C46.9395 65.8511 46.9338 65.8549 46.9282 65.858L46.9286 65.8566C46.5873 66.0381 46.303 66.1217 46.2556 66.1356C46.19 66.1548 46.1339 66.1689 46.093 66.1788C46.0718 66.184 46.0525 66.1884 46.0352 66.1923C46.0266 66.1942 46.0181 66.1962 46.0102 66.1979C46.0063 66.1987 46.0024 66.2005 45.9986 66.2013C45.9969 66.2017 45.9951 66.2017 45.9934 66.2021L45.9904 66.2027L45.9891 66.2024C45.987 66.194 45.9508 66.0287 45.2639 62.7788L45.9874 66.2033L43.6014 59.7066L43.5147 59.7517L43.6006 59.7014L43.5996 59.6997C43.6469 59.6741 43.702 59.642 43.8171 59.5744Z" stroke="#FF8A8C" stroke-opacity="0.54" stroke-width="7"/>
<path d="M47.1889 35.1162C46.0648 33.9687 44.8641 33.0546 43.6872 32.3251C43.7199 32.2961 43.8337 32.2194 43.9556 32.148C44.0864 32.0664 44.2268 31.9841 44.2776 31.9692C44.3845 31.9314 44.4898 31.8994 44.5951 31.8675C47.3954 31.0401 50.3736 32.3961 52.5004 33.6457C53.469 34.2145 54.3742 34.87 55.2103 35.6107C55.2707 35.6546 55.326 35.7066 55.3791 35.7548C55.3952 35.7653 55.4097 35.7816 55.422 35.7942C55.4344 35.8068 55.4504 35.8173 55.4628 35.8299C56.5104 36.7791 57.4451 37.849 58.2386 39.0166C58.3493 39.18 58.4562 39.3456 58.5632 39.5111C58.6702 39.6767 58.7698 39.8466 58.8693 40.0165C58.9992 40.2382 59.1276 40.4656 59.2464 40.6937C59.3343 40.8606 59.42 41.0238 59.5004 41.1949L59.5134 41.2171C59.5134 41.2171 59.5243 41.2356 59.5271 41.2488C59.5954 41.3824 59.6623 41.5219 59.7233 41.6598C59.7298 41.6709 59.7341 41.6783 59.7406 41.6894C59.8592 41.9425 59.9682 42.1962 60.0756 42.4557C60.2382 42.8517 60.3876 43.2505 60.5259 43.6558C60.8703 44.6499 61.1365 45.6799 61.2998 46.7205C61.3329 46.9294 61.3623 47.1405 61.3896 47.3478C61.4202 47.578 61.4435 47.8124 61.4631 48.0491C61.4704 48.1292 61.4776 48.2093 61.4827 48.2857C61.49 48.3658 61.4914 48.4444 61.4949 48.5267C61.5034 48.6259 61.5061 48.7236 61.5088 48.8213C61.5151 48.9168 61.5141 49.0166 61.5168 49.1143C61.5216 49.2157 61.5227 49.3192 61.518 49.4213C61.5199 49.5938 61.516 49.7649 61.5083 49.9381C61.4976 50.2669 61.4708 50.5853 61.436 50.8985C61.4166 51.0687 61.3936 51.241 61.3662 51.4059C61.3431 51.5782 61.3105 51.7512 61.2757 51.9205C61.2372 52.0919 61.1972 52.2692 61.155 52.4428C60.7732 53.9419 60.0405 55.5028 58.69 56.8054C58.6106 56.8817 58.5254 56.9565 58.4439 57.0291C58.3587 57.1038 58.2735 57.1786 58.1824 57.2518C58.1372 57.2932 58.0861 57.333 58.0365 57.367C57.9713 57.4251 57.9003 57.4817 57.8249 57.5308C57.8027 57.5438 57.7849 57.5642 57.7627 57.5772C57.7264 57.6084 57.6842 57.638 57.6421 57.6677C57.6088 57.6872 57.5719 57.7088 57.5387 57.7283C57.5297 57.7385 57.515 57.7472 57.5039 57.7537L57.5002 57.7558C57.4433 57.7942 57.3863 57.8325 57.3257 57.873C57.1416 57.9908 56.957 58.099 56.7732 58.1919C56.7008 58.2293 56.6285 58.2667 56.554 58.3005L56.5466 58.3048C56.5466 58.3048 56.5223 58.3141 56.5112 58.3206C56.4949 58.3351 56.4742 58.3422 56.4536 58.3494C56.3659 58.3859 56.2803 58.4262 56.1962 58.4605C56.0016 58.5349 55.8159 58.5991 55.6296 58.6537C55.5375 58.6829 55.4432 58.7083 55.3505 58.7279C55.2599 58.7512 55.1709 58.7687 55.0819 58.7861C54.987 58.802 54.8921 58.8179 54.7988 58.828C54.7113 58.8396 54.6275 58.849 54.5415 58.8547C54.4555 58.8604 54.3695 58.8662 54.2814 58.8682C54.2145 58.8726 54.1492 58.8712 54.0839 58.8698C54.0398 58.8708 53.9936 58.8682 53.9532 58.867C53.8725 58.8647 53.7917 58.8624 53.7125 58.8543C53.6317 58.852 53.5525 58.8438 53.477 58.8335C53.334 58.818 53.1983 58.7983 53.0621 58.769C53.0019 58.7596 52.9418 58.7501 52.8832 58.7348C52.7081 58.6985 52.5441 58.6557 52.389 58.6027C52.3048 58.5776 52.2184 58.5488 52.1416 58.5194C52.0889 58.5057 52.0414 58.4839 51.9961 58.4658C51.2515 58.1776 50.668 57.8001 50.3044 57.5269L50.2979 57.5158L50.2921 57.5142C50.276 57.5038 50.26 57.4934 50.2498 57.4844C50.2498 57.4844 50.2535 57.4823 50.2513 57.4786C50.9378 56.2029 51.539 54.714 51.9223 53.0057L51.926 53.0035C51.926 53.0035 51.9254 52.9939 51.9269 52.9881C52.4601 50.6211 52.5894 47.8359 51.9963 44.6055C51.8884 44.0236 51.7606 43.4584 51.6134 42.9194C50.703 39.5624 49.0688 37.0366 47.2093 35.134L47.205 35.1266C47.205 35.1266 47.1948 35.1177 47.1905 35.1103L47.1889 35.1162Z" fill="#FF8A8C" fill-opacity="0.54"/>
<path d="M47.1629 28.1417C50.1266 28.3512 52.7256 29.7194 54.2717 30.6277C55.4 31.2903 56.4614 32.0543 57.446 32.917C57.5096 32.9682 57.563 33.0124 57.6026 33.047C57.6395 33.0793 57.6706 33.1083 57.6915 33.1273C57.702 33.1369 57.7121 33.1463 57.7186 33.1522C57.726 33.159 57.7305 33.1617 57.7338 33.1648L57.733 33.1653C57.7549 33.1841 57.7823 33.2081 57.813 33.2361L58.275 33.6671C59.1872 34.5435 60.0234 35.5012 60.7688 36.5295L61.1334 37.0493L61.1364 37.0544C61.2717 37.2542 61.3991 37.4515 61.5026 37.6117C61.6577 37.8517 61.7953 38.0879 61.8885 38.2469C62.0342 38.4956 62.1898 38.7718 62.3415 39.0624L62.3429 39.0627C62.4114 39.193 62.5038 39.3716 62.6008 39.5704C62.619 39.6045 62.6423 39.6465 62.666 39.6951C62.6693 39.702 62.6731 39.7141 62.6805 39.7296C62.7303 39.8285 62.7789 39.9306 62.8273 40.0341L62.8416 40.0586L62.9105 40.205C63.0599 40.524 63.1907 40.831 63.3091 41.1169L63.3132 41.1258C63.5013 41.5839 63.6731 42.0445 63.832 42.5094C64.2373 43.679 64.5567 44.9097 64.7552 46.1723L64.7566 46.1727C64.7963 46.4233 64.8306 46.6677 64.86 46.8919L64.8587 46.8916C64.8978 47.1856 64.9255 47.4699 64.9475 47.7326L64.9489 47.7329C64.9539 47.7886 64.9596 47.8757 64.9669 47.9703L64.969 47.9701C64.9798 48.0895 64.9844 48.1915 64.9872 48.2561C65.0002 48.5619 64.9808 48.1248 64.9917 48.3757L64.9895 48.3758C64.9992 48.5313 65.0058 48.6622 65.0075 48.7252L65.0053 48.7254C65.0085 48.8005 65.0126 48.8636 65.0133 48.9052C65.015 49.0011 65.0149 48.9899 65.0157 49.0193L65.0143 49.0189C65.0187 49.1324 65.0203 49.2558 65.0183 49.3868C65.0209 49.6367 65.015 49.8727 65.0053 50.0928L65.004 50.0924C64.9887 50.5214 64.9552 50.9206 64.9148 51.2845L64.9137 51.2942C64.8893 51.5083 64.8579 51.7419 64.8184 51.9794L64.8171 51.9791C64.7808 52.2259 64.7402 52.4496 64.7042 52.6248L64.6909 52.6869C64.6527 52.857 64.6065 53.0616 64.5562 53.2684L64.5519 53.2879L64.547 53.3067C64.0443 55.2804 63.0419 57.4705 61.1195 59.3247L61.115 59.3285C60.9745 59.4636 60.8235 59.5969 60.7717 59.6429L60.7618 59.651L60.7523 59.66C60.6753 59.7275 60.5345 59.8515 60.3757 59.9792L60.3739 59.978C60.3148 60.0271 60.2573 60.0749 60.1994 60.1187C60.105 60.1965 59.9998 60.2796 59.8825 60.3622C59.8693 60.3721 59.8546 60.382 59.8395 60.393C59.7377 60.4707 59.6631 60.525 59.656 60.53L59.5377 60.614L59.4147 60.6861C59.3696 60.7165 59.3213 60.7491 59.2702 60.7833L59.2409 60.8027L59.2119 60.8209C58.9638 60.9796 58.6845 61.1451 58.3811 61.2999C58.3757 61.3026 58.3697 61.3059 58.3629 61.3094C58.3589 61.3114 58.3551 61.3143 58.3511 61.3163L58.3506 61.3155C58.3203 61.3311 58.2785 61.3506 58.2302 61.3747L58.0668 61.4705L57.9553 61.5121C57.9515 61.5138 57.9481 61.5167 57.9443 61.5185C57.8911 61.5429 57.8412 61.5616 57.7987 61.5789L57.7997 61.5806C57.7994 61.5807 57.7957 61.582 57.7869 61.5859C57.7746 61.5912 57.7617 61.5963 57.7371 61.6071C57.6981 61.6243 57.6136 61.6619 57.5209 61.6999L57.4459 61.7302C57.2063 61.8218 56.9532 61.9084 56.6853 61.9892L56.6858 61.9901C56.6842 61.9906 56.6823 61.9903 56.6806 61.9909C56.6584 61.9975 56.6367 62.0062 56.6143 62.0128L56.6133 62.0111C56.4905 62.0485 56.3597 62.0841 56.2224 62.1168L56.2229 62.1176C56.2073 62.1216 56.1913 62.1244 56.1759 62.1282C56.1424 62.1359 56.1089 62.1452 56.0747 62.1524L56.0737 62.1508C55.9305 62.1839 55.8111 62.21 55.7549 62.221L55.7083 62.2302L55.6606 62.2378C55.5945 62.2489 55.4366 62.2737 55.2565 62.2958L55.258 62.2983C55.1284 62.3154 54.9627 62.3341 54.7736 62.3467C54.721 62.3502 54.6258 62.3543 54.5127 62.3593L54.5137 62.361C54.4875 62.3627 54.4614 62.3623 54.436 62.3635C54.4118 62.3643 54.3872 62.3665 54.3622 62.3671L54.3613 62.3654C54.1843 62.3715 54.0436 62.3699 54.0092 62.3692L54.0082 62.3675C53.9656 62.367 53.9311 62.3678 53.9084 62.3671C53.8846 62.3664 53.8619 62.3662 53.8544 62.3659C53.8428 62.3655 53.8463 62.3654 53.8531 62.3656C53.8028 62.3641 53.6393 62.3587 53.448 62.3426C53.3177 62.3348 53.2005 62.3248 53.1011 62.3128C53.0818 62.3107 53.0623 62.3076 53.0424 62.3053C53.0289 62.3035 53.0154 62.3031 53.0028 62.3014L53.0031 62.3C52.855 62.2824 52.6935 62.2574 52.5202 62.2254L52.5198 62.2267C52.4965 62.2231 52.3542 62.1987 52.1735 62.1592L52.1728 62.1619C52.1271 62.1524 52.0814 62.1391 52.0344 62.1286C52.0231 62.1258 52.0113 62.1247 51.9998 62.1217L52.0002 62.1204C51.8392 62.0836 51.6701 62.0441 51.497 61.9919L51.2573 61.9151C51.1808 61.8907 51.1011 61.863 51.0195 61.8338C50.9228 61.8021 50.8447 61.7742 50.7927 61.7539L50.6996 61.7168L50.7 61.7154C49.599 61.2849 48.746 60.7338 48.2018 60.3249L47.6397 59.9027L47.5775 59.7965L44.2901 56.9204L47.5802 54.9922C47.9567 54.1685 48.2797 53.2524 48.5069 52.2395L48.5361 52.1058C48.943 50.2309 49.0534 47.9589 48.5537 45.2371C48.4622 44.7444 48.3559 44.2766 48.2371 43.8414L48.2358 43.8353C47.508 41.152 46.2311 39.1664 44.7864 37.6641L44.6888 37.5651C43.787 36.6446 42.814 35.902 41.8435 35.3004L37.8575 32.8293L41.3594 29.7117C41.6245 29.4756 41.9396 29.2792 42.104 29.1802L42.103 29.1785C42.1254 29.1645 42.1507 29.1513 42.1763 29.1355C42.1799 29.1334 42.1828 29.1306 42.1859 29.1288L42.1864 29.1296C42.2588 29.0853 42.3408 29.0339 42.4259 28.9859C42.4844 28.9529 42.5702 28.9059 42.6694 28.8567C42.7081 28.8375 42.877 28.7542 43.1101 28.672L43.11 28.6698C43.1549 28.6539 43.1999 28.6415 43.2424 28.6273C43.2591 28.6221 43.2754 28.6154 43.2925 28.6104L43.2921 28.6117L43.5792 28.5182L43.5908 28.5148L43.6032 28.5109C44.2025 28.3338 44.7987 28.2239 45.3862 28.1655L45.9383 26.0523L47.1629 28.1417ZM57.8329 61.56C57.8369 61.5584 57.8414 61.5564 57.8465 61.5543L57.8196 61.5644C57.8237 61.5628 57.8283 61.5618 57.8329 61.56ZM57.797 61.5742L57.8004 61.5723C57.8017 61.5718 57.803 61.5716 57.8043 61.5711C57.8063 61.5704 57.8081 61.5685 57.8102 61.5677L57.7966 61.5734L57.797 61.5742Z" stroke="#FF8A8C" stroke-opacity="0.54" stroke-width="7"/>
<mask id="path-7-outside-1_56_2" maskUnits="userSpaceOnUse" x="-10.4414" y="-8.79274" width="116.373" height="113.516" fill="black">
<rect fill="white" x="-10.4414" y="-8.79274" width="116.373" height="113.516"/>
<path d="M90.6294 49.1872C90.6294 49.1872 90.6452 49.2226 90.656 49.2411C90.661 49.258 90.6718 49.2765 90.6789 49.2971L90.6854 49.3082C90.7083 49.3643 90.7334 49.424 90.7548 49.4859C90.7592 49.4933 90.7657 49.5044 90.7663 49.5139L90.7728 49.525C90.8084 49.6282 90.8463 49.735 90.8767 49.8462C90.9071 49.9574 90.936 50.0745 90.9612 50.1937C90.9864 50.3129 91.0079 50.4343 91.0242 50.5637C91.042 50.6872 91.0583 50.8166 91.0672 50.9503C91.0764 51.0591 91.0803 51.1759 91.0843 51.2927C91.0892 51.4535 91.0905 51.6166 91.0822 51.7802C91.0763 51.9226 91.0689 52.0709 91.0557 52.2176C91.0424 52.3643 91.0255 52.5132 91.0048 52.6642L91.0002 52.6818C91.0002 52.6818 90.9963 52.7089 90.9954 52.7243C90.9765 52.8446 90.9577 52.9648 90.933 53.0835C90.9336 53.0931 90.9321 53.0989 90.929 53.1106C90.9281 53.126 90.9257 53.1473 90.9211 53.1649C90.9031 53.2697 90.883 53.3708 90.8555 53.4763C90.8115 53.6807 90.7565 53.8916 90.6977 54.1047C90.6026 54.4334 90.4926 54.7707 90.3636 55.1094C90.2345 55.448 90.0849 55.7938 89.9198 56.1387C89.8335 56.3133 89.7473 56.4879 89.6515 56.6631C89.2794 57.3576 88.8294 58.063 88.2928 58.7646C88.0263 59.1143 87.7386 59.4616 87.4274 59.8028C87.1184 60.1477 86.7844 60.4923 86.4307 60.8286C86.2609 60.9877 86.0874 61.1489 85.9081 61.3086C85.8881 61.3253 85.8681 61.3419 85.8444 61.3608L85.837 61.3651C85.6829 61.5001 85.5229 61.6336 85.3592 61.7692C85.3408 61.78 85.326 61.7887 85.3119 61.8069C85.3066 61.8149 85.3014 61.8229 85.2919 61.8236C85.2445 61.8613 85.1971 61.899 85.1497 61.9367C84.7943 62.2194 84.4214 62.4975 84.0309 62.771C83.3483 63.2406 82.6145 63.6905 81.8216 64.1155C72.5988 69.0644 66.5094 66.6337 66.5094 66.6337C65.8165 68.1861 61.9171 75.8508 57.8503 79.2417C57.0341 79.9235 55.9195 80.7058 54.5861 81.4873C54.2241 81.6995 53.8504 81.9085 53.4576 82.1189C53.2612 82.2241 53.0626 82.3256 52.8604 82.4292C52.4522 82.6387 52.0359 82.843 51.6 83.0389C51.386 83.1395 51.1661 83.2386 50.9441 83.334C50.8342 83.3835 50.7221 83.4294 50.6101 83.4752C50.405 83.5656 50.1956 83.6486 49.9862 83.7316C49.9656 83.7388 49.9471 83.7496 49.9265 83.7567C49.734 83.8348 49.5431 83.907 49.3463 83.9776C49.176 84.0427 49.0021 84.1099 48.8274 84.1676C48.627 84.2405 48.4206 84.3118 48.2121 84.3794C48.0338 84.4392 47.8497 84.4975 47.6655 84.5559C47.4946 84.6114 47.3252 84.661 47.1521 84.7128C47.1108 84.7271 47.0674 84.7377 47.0261 84.7519C46.8376 84.8029 46.6476 84.8596 46.4532 84.909C46.359 84.9345 46.2684 84.9578 46.172 84.9796C46.01 85.0249 45.8495 85.0644 45.6869 85.1001C45.536 85.139 45.3829 85.1741 45.2239 85.2077C44.9177 85.278 44.6072 85.3409 44.2961 85.3942C44.1408 85.4257 43.9871 85.4513 43.8275 85.4753C43.7459 85.4884 43.6642 85.5015 43.5826 85.5147C43.4554 85.5346 43.3281 85.5546 43.2024 85.5688C43.0693 85.5872 42.9399 85.6035 42.8068 85.622C42.6774 85.6382 42.5422 85.653 42.4106 85.6656C42.1459 85.6967 41.8806 85.7182 41.6153 85.7397C41.3516 85.7553 41.0819 85.7694 40.816 85.7814C40.6801 85.7866 40.5479 85.7896 40.4136 85.789C40.2814 85.792 40.1491 85.7951 40.0126 85.7907C39.8804 85.7938 39.7461 85.7931 39.6132 85.7866C39.4788 85.786 39.346 85.7795 39.2132 85.7729C39.0803 85.7664 38.9438 85.7621 38.8088 85.7519C38.541 85.7352 38.2725 85.7089 38.0077 85.6805C37.8764 85.6681 37.7392 85.6542 37.6036 85.6345C37.4701 85.6184 37.3366 85.6024 37.2025 85.5768C37.0691 85.5607 36.9371 85.5388 36.803 85.5132C36.6711 85.4913 36.537 85.4656 36.4065 85.4379C36.1383 85.3866 35.8753 85.3274 35.608 85.2608C35.4637 85.2262 35.3231 85.1895 35.184 85.147C35.061 85.1149 34.9417 85.0806 34.8202 85.0427C34.6518 84.9925 34.4871 84.9401 34.3203 84.884C34.2339 84.8553 34.1476 84.8265 34.0591 84.794C33.8703 84.7259 33.6772 84.6505 33.4842 84.5751C33.4783 84.5736 33.4725 84.5721 33.4703 84.5684C33.3701 84.5328 33.2714 84.4914 33.1764 84.4479C33.0718 84.4049 32.9731 84.3635 32.8701 84.3147C32.615 84.2012 32.3592 84.0782 32.105 83.9493C31.9363 83.8646 31.7691 83.774 31.5997 83.6797C31.3923 83.563 31.1844 83.4368 30.9764 83.3106C19.1252 75.9596 16.796 66.3974 17.8014 54.2606C17.8218 53.9906 17.8502 53.7258 17.8786 53.461C17.9043 53.2424 17.9301 53.0239 17.9617 52.8069C17.982 52.6213 18.0118 52.4351 18.0416 52.2489C18.1046 51.8398 18.1734 51.4323 18.2561 51.0315C18.2792 50.9186 18.3003 50.8021 18.3272 50.6871C18.3311 50.66 18.3372 50.6365 18.3412 50.6094C18.3836 50.4109 18.4297 50.2101 18.478 50.0131C18.5416 49.7575 18.6052 49.5019 18.6752 49.2574C18.6982 49.1695 18.7211 49.0816 18.744 48.9937C18.7875 48.8392 18.8309 48.6848 18.8787 48.5377C18.9274 48.3752 18.9782 48.2163 19.029 48.0575C19.0799 47.8987 19.1307 47.7399 19.1837 47.5848C19.2594 47.3667 19.3409 47.1502 19.4187 46.9359C19.5137 46.6916 19.6051 46.4495 19.7045 46.2126C19.8973 45.7373 20.1084 45.2762 20.3275 44.8202L20.3312 44.8181C20.4407 44.5901 20.5546 44.3695 20.6685 44.1489C20.8168 43.8685 20.9709 43.5896 21.1257 43.3202C21.2341 43.1326 21.341 42.9509 21.4515 42.767C21.4552 42.7648 21.453 42.7612 21.4567 42.759C21.5553 42.597 21.6576 42.4328 21.7642 42.2761C21.7867 42.2381 21.8112 42.2038 21.8337 42.1659C21.9329 42.0135 22.0358 41.8588 22.1394 41.7138C22.1566 41.6839 22.1759 41.6576 22.1953 41.6314C22.3056 41.4725 22.4159 41.3135 22.5321 41.1561C22.6461 40.995 22.7681 40.8391 22.8901 40.6832C22.9676 40.5783 23.0509 40.4749 23.1342 40.3715C23.2331 40.244 23.3343 40.1202 23.4354 39.9964C23.6131 39.7831 23.7966 39.5713 23.9787 39.3654C24.1109 39.2184 24.2453 39.0752 24.3759 38.9341C24.5318 38.7683 24.6899 38.6061 24.848 38.444C25.1285 38.1605 25.4191 37.886 25.7104 37.621C25.7756 37.5629 25.8409 37.5048 25.9061 37.4467C26.0439 37.3263 26.1817 37.2058 26.318 37.0912C26.4469 36.9809 26.5743 36.8765 26.7038 36.7757C26.7327 36.7489 26.7601 36.7279 26.7912 36.7047C26.8201 36.6778 26.8475 36.6568 26.8748 36.6358C27.0281 36.5162 27.1813 36.3966 27.3367 36.2807C27.5084 36.1503 27.6822 36.0236 27.8546 35.9028C27.97 35.8203 28.0875 35.7414 28.2014 35.6648C28.2931 35.6011 28.3885 35.5353 28.4824 35.4753C28.6406 35.3726 28.7988 35.27 28.9591 35.1711C29.1195 35.0721 29.2798 34.9732 29.4387 34.8801C30.99 33.9709 32.5837 33.2948 34.1398 32.8593C35.3003 32.5364 36.3956 32.4155 37.4414 32.4725C39.0237 32.5475 40.4719 33.0287 41.782 33.7992C43.6191 34.8762 45.1831 36.5202 46.4727 38.4243C47.1977 39.3988 47.8484 40.526 48.3703 41.8229C48.7712 42.6847 49.1234 43.5651 49.4272 44.439C49.5627 44.8311 49.6745 45.2419 49.7567 45.6701C50.3914 48.7173 49.7582 52.5224 48.1996 55.6293C48.1944 55.6373 48.1913 55.649 48.184 55.6534C47.9271 56.2058 47.6459 56.7081 47.3562 57.1707C47.3532 57.1824 47.3516 57.1883 47.3443 57.1926C46.9597 57.815 46.5301 58.3943 46.063 58.9013C45.9397 59.0381 45.8047 59.1718 45.666 59.3077C45.459 59.5133 45.2323 59.7107 44.9858 59.8998C44.9147 59.9564 44.8415 60.0092 44.7682 60.0621C44.7335 60.0874 44.6987 60.1128 44.6581 60.1366C44.6218 60.1678 44.587 60.1931 44.5501 60.2148C44.4362 60.2914 44.3202 60.3644 44.202 60.4337L44.1983 60.4358C43.8474 60.6415 43.4681 60.8241 43.0606 60.9587C42.1278 61.2722 41.0519 61.3668 39.8435 61.0577C33.7245 59.5078 32.9829 50.8761 32.9772 50.7901L31.6941 50.8871L30.9284 50.9438L30.4148 50.9818C30.4454 51.3559 31.0916 59.1305 36.5346 62.4313C33.6493 65.0355 33.0331 67.9721 33.006 68.1121L35.523 68.6219C35.5477 68.5032 36.1703 65.7215 39.248 63.5555C41.0372 64.0005 42.7994 63.8659 44.4403 63.1772C44.528 63.1406 44.6195 63.1019 44.7088 63.0595C44.871 62.9892 45.0268 62.9079 45.1841 62.8206C45.2121 62.8092 45.238 62.794 45.2638 62.7789C45.2734 62.7782 45.2771 62.7761 45.2845 62.7717C45.3583 62.7284 45.4285 62.6873 45.5024 62.644C45.5319 62.6267 45.5615 62.6094 45.5873 62.5942C45.6686 62.5466 45.7499 62.499 45.8268 62.4439C45.8822 62.4115 45.9391 62.3731 45.9902 62.3333C46.0678 62.2878 46.141 62.235 46.2143 62.1821C46.2364 62.1691 46.2564 62.1525 46.2764 62.1358C46.3275 62.0959 46.3844 62.0576 46.4392 62.0156C46.4961 61.9772 46.5472 61.9374 46.5961 61.8938C46.6746 61.8329 46.7493 61.7742 46.8256 61.7097C46.8878 61.6633 46.9478 61.6133 47.0019 61.5617C47.0508 61.5181 47.0997 61.4746 47.1523 61.4289C47.2286 61.3643 47.2991 61.2982 47.371 61.2263C47.4704 61.1333 47.5676 61.0366 47.6648 60.94C47.7619 60.8433 47.857 60.743 47.9535 60.6367C48.1629 60.4098 48.3621 60.1739 48.5548 59.927C48.6225 59.8477 48.6879 59.7646 48.7513 59.6779C48.7513 59.6779 48.7654 59.6597 48.7915 59.6196C48.8119 59.6374 48.8381 59.6568 48.8622 59.6724C50.7875 61.0947 54.3618 62.4686 58.1391 60.3788C58.2136 60.3451 58.2838 60.304 58.3577 60.2607C58.4759 60.1914 58.5978 60.12 58.7154 60.0411C59.5063 59.5279 60.2121 58.9456 60.8363 58.2919C62.8272 56.202 63.9318 53.396 64.0734 50.0477C64.3244 43.9308 61.1786 36.9462 56.5984 33.4326C56.2909 33.1959 55.9805 32.971 55.6749 32.7629C52.0531 30.3004 48.5253 29.6238 46.4571 29.4563C46.0216 28.2476 45.7051 27.0387 45.4912 25.844C45.4407 25.5461 45.3901 25.2482 45.3513 24.9534C45.3103 24.6548 45.2715 24.36 45.2444 24.0682C45.2151 23.7727 45.1917 23.4788 45.1763 23.19C45.1588 22.8976 45.1434 22.6089 45.1397 22.3232C45.1358 22.0625 45.134 21.8055 45.136 21.5463C45.1364 21.293 45.1442 21.0353 45.1541 20.7814C45.1583 20.7293 45.1604 20.6735 45.1609 20.6236C45.1725 20.4232 45.1841 20.2229 45.2001 20.03C45.2162 19.812 45.2346 19.5978 45.2551 19.3873C45.26 19.3448 45.2633 19.3081 45.2666 19.2714C45.2712 19.2538 45.2699 19.2347 45.2708 19.2193C45.295 19.0066 45.3236 18.8013 45.3521 18.596C45.3536 18.5901 45.3552 18.5843 45.353 18.5806C45.3849 18.3386 45.4226 18.0982 45.4625 17.8614C45.5024 17.6246 45.5496 17.3835 45.5954 17.1483L45.6649 16.8098C45.6903 16.7006 45.712 16.5937 45.7373 16.4845L45.7404 16.4728L45.7441 16.4706C45.785 16.2779 45.8302 16.0926 45.8776 15.911C45.9271 15.7331 45.9745 15.5515 46.0263 15.3773C46.0584 15.2542 46.0963 15.1327 46.1365 15.0149C46.2225 14.7214 46.3171 14.4426 46.4102 14.1696C46.4874 13.9458 46.569 13.7292 46.6527 13.5164C46.7364 13.3036 46.8207 13.1004 46.9087 12.8949L46.9124 12.8928C46.9967 12.6895 47.0854 12.4936 47.1799 12.2993C47.1799 12.2993 47.1836 12.2971 47.1815 12.2934C47.252 12.1429 47.3248 11.996 47.3997 11.8529C47.4813 11.6959 47.5614 11.5447 47.6416 11.3935C47.7291 11.238 47.8151 11.0884 47.9032 10.9424C48.1071 10.6046 48.313 10.2953 48.5186 10.0111C48.5693 9.93672 48.6221 9.86604 48.6771 9.79905C48.7635 9.68393 48.8542 9.57619 48.9375 9.47277C48.9821 9.42183 49.0267 9.37089 49.0712 9.31995C49.1121 9.27118 49.1589 9.22393 49.2019 9.17885C49.2607 9.10969 49.3215 9.04424 49.3846 8.98247C49.4529 8.91269 49.5211 8.8429 49.5937 8.78049C49.61 8.76598 49.6226 8.75362 49.6353 8.74127C49.6931 8.68753 49.7494 8.63965 49.8057 8.59176C49.8546 8.54821 49.9057 8.50835 49.953 8.47066C49.993 8.43729 50.0315 8.40978 50.07 8.38228C50.121 8.34242 50.1706 8.30841 50.2238 8.27225C50.294 8.23112 50.3599 8.1826 50.43 8.14147C50.6923 7.98777 50.9519 7.88029 51.2014 7.82338C59.2485 6.02498 62.6472 19.7491 63.9576 24.1272C65.2644 28.5074 71.6506 49.8943 71.6506 49.8943C77.7466 51.5321 85.772 43.9899 90.0956 48.4034C90.3056 48.6178 90.4842 48.8803 90.6294 49.1872Z"/>
</mask>
<path d="M90.6294 49.1872C90.6294 49.1872 90.6452 49.2226 90.656 49.2411C90.661 49.258 90.6718 49.2765 90.6789 49.2971L90.6854 49.3082C90.7083 49.3643 90.7334 49.424 90.7548 49.4859C90.7592 49.4933 90.7657 49.5044 90.7663 49.5139L90.7728 49.525C90.8084 49.6282 90.8463 49.735 90.8767 49.8462C90.9071 49.9574 90.936 50.0745 90.9612 50.1937C90.9864 50.3129 91.0079 50.4343 91.0242 50.5637C91.042 50.6872 91.0583 50.8166 91.0672 50.9503C91.0764 51.0591 91.0803 51.1759 91.0843 51.2927C91.0892 51.4535 91.0905 51.6166 91.0822 51.7802C91.0763 51.9226 91.0689 52.0709 91.0557 52.2176C91.0424 52.3643 91.0255 52.5132 91.0048 52.6642L91.0002 52.6818C91.0002 52.6818 90.9963 52.7089 90.9954 52.7243C90.9765 52.8446 90.9577 52.9648 90.933 53.0835C90.9336 53.0931 90.9321 53.0989 90.929 53.1106C90.9281 53.126 90.9257 53.1473 90.9211 53.1649C90.9031 53.2697 90.883 53.3708 90.8555 53.4763C90.8115 53.6807 90.7565 53.8916 90.6977 54.1047C90.6026 54.4334 90.4926 54.7707 90.3636 55.1094C90.2345 55.448 90.0849 55.7938 89.9198 56.1387C89.8335 56.3133 89.7473 56.4879 89.6515 56.6631C89.2794 57.3576 88.8294 58.063 88.2928 58.7646C88.0263 59.1143 87.7386 59.4616 87.4274 59.8028C87.1184 60.1477 86.7844 60.4923 86.4307 60.8286C86.2609 60.9877 86.0874 61.1489 85.9081 61.3086C85.8881 61.3253 85.8681 61.3419 85.8444 61.3608L85.837 61.3651C85.6829 61.5001 85.5229 61.6336 85.3592 61.7692C85.3408 61.78 85.326 61.7887 85.3119 61.8069C85.3066 61.8149 85.3014 61.8229 85.2919 61.8236C85.2445 61.8613 85.1971 61.899 85.1497 61.9367C84.7943 62.2194 84.4214 62.4975 84.0309 62.771C83.3483 63.2406 82.6145 63.6905 81.8216 64.1155C72.5988 69.0644 66.5094 66.6337 66.5094 66.6337C65.8165 68.1861 61.9171 75.8508 57.8503 79.2417C57.0341 79.9235 55.9195 80.7058 54.5861 81.4873C54.2241 81.6995 53.8504 81.9085 53.4576 82.1189C53.2612 82.2241 53.0626 82.3256 52.8604 82.4292C52.4522 82.6387 52.0359 82.843 51.6 83.0389C51.386 83.1395 51.1661 83.2386 50.9441 83.334C50.8342 83.3835 50.7221 83.4294 50.6101 83.4752C50.405 83.5656 50.1956 83.6486 49.9862 83.7316C49.9656 83.7388 49.9471 83.7496 49.9265 83.7567C49.734 83.8348 49.5431 83.907 49.3463 83.9776C49.176 84.0427 49.0021 84.1099 48.8274 84.1676C48.627 84.2405 48.4206 84.3118 48.2121 84.3794C48.0338 84.4392 47.8497 84.4975 47.6655 84.5559C47.4946 84.6114 47.3252 84.661 47.1521 84.7128C47.1108 84.7271 47.0674 84.7377 47.0261 84.7519C46.8376 84.8029 46.6476 84.8596 46.4532 84.909C46.359 84.9345 46.2684 84.9578 46.172 84.9796C46.01 85.0249 45.8495 85.0644 45.6869 85.1001C45.536 85.139 45.3829 85.1741 45.2239 85.2077C44.9177 85.278 44.6072 85.3409 44.2961 85.3942C44.1408 85.4257 43.9871 85.4513 43.8275 85.4753C43.7459 85.4884 43.6642 85.5015 43.5826 85.5147C43.4554 85.5346 43.3281 85.5546 43.2024 85.5688C43.0693 85.5872 42.9399 85.6035 42.8068 85.622C42.6774 85.6382 42.5422 85.653 42.4106 85.6656C42.1459 85.6967 41.8806 85.7182 41.6153 85.7397C41.3516 85.7553 41.0819 85.7694 40.816 85.7814C40.6801 85.7866 40.5479 85.7896 40.4136 85.789C40.2814 85.792 40.1491 85.7951 40.0126 85.7907C39.8804 85.7938 39.7461 85.7931 39.6132 85.7866C39.4788 85.786 39.346 85.7795 39.2132 85.7729C39.0803 85.7664 38.9438 85.7621 38.8088 85.7519C38.541 85.7352 38.2725 85.7089 38.0077 85.6805C37.8764 85.6681 37.7392 85.6542 37.6036 85.6345C37.4701 85.6184 37.3366 85.6024 37.2025 85.5768C37.0691 85.5607 36.9371 85.5388 36.803 85.5132C36.6711 85.4913 36.537 85.4656 36.4065 85.4379C36.1383 85.3866 35.8753 85.3274 35.608 85.2608C35.4637 85.2262 35.3231 85.1895 35.184 85.147C35.061 85.1149 34.9417 85.0806 34.8202 85.0427C34.6518 84.9925 34.4871 84.9401 34.3203 84.884C34.2339 84.8553 34.1476 84.8265 34.0591 84.794C33.8703 84.7259 33.6772 84.6505 33.4842 84.5751C33.4783 84.5736 33.4725 84.5721 33.4703 84.5684C33.3701 84.5328 33.2714 84.4914 33.1764 84.4479C33.0718 84.4049 32.9731 84.3635 32.8701 84.3147C32.615 84.2012 32.3592 84.0782 32.105 83.9493C31.9363 83.8646 31.7691 83.774 31.5997 83.6797C31.3923 83.563 31.1844 83.4368 30.9764 83.3106C19.1252 75.9596 16.796 66.3974 17.8014 54.2606C17.8218 53.9906 17.8502 53.7258 17.8786 53.461C17.9043 53.2424 17.9301 53.0239 17.9617 52.8069C17.982 52.6213 18.0118 52.4351 18.0416 52.2489C18.1046 51.8398 18.1734 51.4323 18.2561 51.0315C18.2792 50.9186 18.3003 50.8021 18.3272 50.6871C18.3311 50.66 18.3372 50.6365 18.3412 50.6094C18.3836 50.4109 18.4297 50.2101 18.478 50.0131C18.5416 49.7575 18.6052 49.5019 18.6752 49.2574C18.6982 49.1695 18.7211 49.0816 18.744 48.9937C18.7875 48.8392 18.8309 48.6848 18.8787 48.5377C18.9274 48.3752 18.9782 48.2163 19.029 48.0575C19.0799 47.8987 19.1307 47.7399 19.1837 47.5848C19.2594 47.3667 19.3409 47.1502 19.4187 46.9359C19.5137 46.6916 19.6051 46.4495 19.7045 46.2126C19.8973 45.7373 20.1084 45.2762 20.3275 44.8202L20.3312 44.8181C20.4407 44.5901 20.5546 44.3695 20.6685 44.1489C20.8168 43.8685 20.9709 43.5896 21.1257 43.3202C21.2341 43.1326 21.341 42.9509 21.4515 42.767C21.4552 42.7648 21.453 42.7612 21.4567 42.759C21.5553 42.597 21.6576 42.4328 21.7642 42.2761C21.7867 42.2381 21.8112 42.2038 21.8337 42.1659C21.9329 42.0135 22.0358 41.8588 22.1394 41.7138C22.1566 41.6839 22.1759 41.6576 22.1953 41.6314C22.3056 41.4725 22.4159 41.3135 22.5321 41.1561C22.6461 40.995 22.7681 40.8391 22.8901 40.6832C22.9676 40.5783 23.0509 40.4749 23.1342 40.3715C23.2331 40.244 23.3343 40.1202 23.4354 39.9964C23.6131 39.7831 23.7966 39.5713 23.9787 39.3654C24.1109 39.2184 24.2453 39.0752 24.3759 38.9341C24.5318 38.7683 24.6899 38.6061 24.848 38.444C25.1285 38.1605 25.4191 37.886 25.7104 37.621C25.7756 37.5629 25.8409 37.5048 25.9061 37.4467C26.0439 37.3263 26.1817 37.2058 26.318 37.0912C26.4469 36.9809 26.5743 36.8765 26.7038 36.7757C26.7327 36.7489 26.7601 36.7279 26.7912 36.7047C26.8201 36.6778 26.8475 36.6568 26.8748 36.6358C27.0281 36.5162 27.1813 36.3966 27.3367 36.2807C27.5084 36.1503 27.6822 36.0236 27.8546 35.9028C27.97 35.8203 28.0875 35.7414 28.2014 35.6648C28.2931 35.6011 28.3885 35.5353 28.4824 35.4753C28.6406 35.3726 28.7988 35.27 28.9591 35.1711C29.1195 35.0721 29.2798 34.9732 29.4387 34.8801C30.99 33.9709 32.5837 33.2948 34.1398 32.8593C35.3003 32.5364 36.3956 32.4155 37.4414 32.4725C39.0237 32.5475 40.4719 33.0287 41.782 33.7992C43.6191 34.8762 45.1831 36.5202 46.4727 38.4243C47.1977 39.3988 47.8484 40.526 48.3703 41.8229C48.7712 42.6847 49.1234 43.5651 49.4272 44.439C49.5627 44.8311 49.6745 45.2419 49.7567 45.6701C50.3914 48.7173 49.7582 52.5224 48.1996 55.6293C48.1944 55.6373 48.1913 55.649 48.184 55.6534C47.9271 56.2058 47.6459 56.7081 47.3562 57.1707C47.3532 57.1824 47.3516 57.1883 47.3443 57.1926C46.9597 57.815 46.5301 58.3943 46.063 58.9013C45.9397 59.0381 45.8047 59.1718 45.666 59.3077C45.459 59.5133 45.2323 59.7107 44.9858 59.8998C44.9147 59.9564 44.8415 60.0092 44.7682 60.0621C44.7335 60.0874 44.6987 60.1128 44.6581 60.1366C44.6218 60.1678 44.587 60.1931 44.5501 60.2148C44.4362 60.2914 44.3202 60.3644 44.202 60.4337L44.1983 60.4358C43.8474 60.6415 43.4681 60.8241 43.0606 60.9587C42.1278 61.2722 41.0519 61.3668 39.8435 61.0577C33.7245 59.5078 32.9829 50.8761 32.9772 50.7901L31.6941 50.8871L30.9284 50.9438L30.4148 50.9818C30.4454 51.3559 31.0916 59.1305 36.5346 62.4313C33.6493 65.0355 33.0331 67.9721 33.006 68.1121L35.523 68.6219C35.5477 68.5032 36.1703 65.7215 39.248 63.5555C41.0372 64.0005 42.7994 63.8659 44.4403 63.1772C44.528 63.1406 44.6195 63.1019 44.7088 63.0595C44.871 62.9892 45.0268 62.9079 45.1841 62.8206C45.2121 62.8092 45.238 62.794 45.2638 62.7789C45.2734 62.7782 45.2771 62.7761 45.2845 62.7717C45.3583 62.7284 45.4285 62.6873 45.5024 62.644C45.5319 62.6267 45.5615 62.6094 45.5873 62.5942C45.6686 62.5466 45.7499 62.499 45.8268 62.4439C45.8822 62.4115 45.9391 62.3731 45.9902 62.3333C46.0678 62.2878 46.141 62.235 46.2143 62.1821C46.2364 62.1691 46.2564 62.1525 46.2764 62.1358C46.3275 62.0959 46.3844 62.0576 46.4392 62.0156C46.4961 61.9772 46.5472 61.9374 46.5961 61.8938C46.6746 61.8329 46.7493 61.7742 46.8256 61.7097C46.8878 61.6633 46.9478 61.6133 47.0019 61.5617C47.0508 61.5181 47.0997 61.4746 47.1523 61.4289C47.2286 61.3643 47.2991 61.2982 47.371 61.2263C47.4704 61.1333 47.5676 61.0366 47.6648 60.94C47.7619 60.8433 47.857 60.743 47.9535 60.6367C48.1629 60.4098 48.3621 60.1739 48.5548 59.927C48.6225 59.8477 48.6879 59.7646 48.7513 59.6779C48.7513 59.6779 48.7654 59.6597 48.7915 59.6196C48.8119 59.6374 48.8381 59.6568 48.8622 59.6724C50.7875 61.0947 54.3618 62.4686 58.1391 60.3788C58.2136 60.3451 58.2838 60.304 58.3577 60.2607C58.4759 60.1914 58.5978 60.12 58.7154 60.0411C59.5063 59.5279 60.2121 58.9456 60.8363 58.2919C62.8272 56.202 63.9318 53.396 64.0734 50.0477C64.3244 43.9308 61.1786 36.9462 56.5984 33.4326C56.2909 33.1959 55.9805 32.971 55.6749 32.7629C52.0531 30.3004 48.5253 29.6238 46.4571 29.4563C46.0216 28.2476 45.7051 27.0387 45.4912 25.844C45.4407 25.5461 45.3901 25.2482 45.3513 24.9534C45.3103 24.6548 45.2715 24.36 45.2444 24.0682C45.2151 23.7727 45.1917 23.4788 45.1763 23.19C45.1588 22.8976 45.1434 22.6089 45.1397 22.3232C45.1358 22.0625 45.134 21.8055 45.136 21.5463C45.1364 21.293 45.1442 21.0353 45.1541 20.7814C45.1583 20.7293 45.1604 20.6735 45.1609 20.6236C45.1725 20.4232 45.1841 20.2229 45.2001 20.03C45.2162 19.812 45.2346 19.5978 45.2551 19.3873C45.26 19.3448 45.2633 19.3081 45.2666 19.2714C45.2712 19.2538 45.2699 19.2347 45.2708 19.2193C45.295 19.0066 45.3236 18.8013 45.3521 18.596C45.3536 18.5901 45.3552 18.5843 45.353 18.5806C45.3849 18.3386 45.4226 18.0982 45.4625 17.8614C45.5024 17.6246 45.5496 17.3835 45.5954 17.1483L45.6649 16.8098C45.6903 16.7006 45.712 16.5937 45.7373 16.4845L45.7404 16.4728L45.7441 16.4706C45.785 16.2779 45.8302 16.0926 45.8776 15.911C45.9271 15.7331 45.9745 15.5515 46.0263 15.3773C46.0584 15.2542 46.0963 15.1327 46.1365 15.0149C46.2225 14.7214 46.3171 14.4426 46.4102 14.1696C46.4874 13.9458 46.569 13.7292 46.6527 13.5164C46.7364 13.3036 46.8207 13.1004 46.9087 12.8949L46.9124 12.8928C46.9967 12.6895 47.0854 12.4936 47.1799 12.2993C47.1799 12.2993 47.1836 12.2971 47.1815 12.2934C47.252 12.1429 47.3248 11.996 47.3997 11.8529C47.4813 11.6959 47.5614 11.5447 47.6416 11.3935C47.7291 11.238 47.8151 11.0884 47.9032 10.9424C48.1071 10.6046 48.313 10.2953 48.5186 10.0111C48.5693 9.93672 48.6221 9.86604 48.6771 9.79905C48.7635 9.68393 48.8542 9.57619 48.9375 9.47277C48.9821 9.42183 49.0267 9.37089 49.0712 9.31995C49.1121 9.27118 49.1589 9.22393 49.2019 9.17885C49.2607 9.10969 49.3215 9.04424 49.3846 8.98247C49.4529 8.91269 49.5211 8.8429 49.5937 8.78049C49.61 8.76598 49.6226 8.75362 49.6353 8.74127C49.6931 8.68753 49.7494 8.63965 49.8057 8.59176C49.8546 8.54821 49.9057 8.50835 49.953 8.47066C49.993 8.43729 50.0315 8.40978 50.07 8.38228C50.121 8.34242 50.1706 8.30841 50.2238 8.27225C50.294 8.23112 50.3599 8.1826 50.43 8.14147C50.6923 7.98777 50.9519 7.88029 51.2014 7.82338C59.2485 6.02498 62.6472 19.7491 63.9576 24.1272C65.2644 28.5074 71.6506 49.8943 71.6506 49.8943C77.7466 51.5321 85.772 43.9899 90.0956 48.4034C90.3056 48.6178 90.4842 48.8803 90.6294 49.1872Z" fill="#FF8A8C" fill-opacity="0.54"/>
<path d="M90.6294 49.1872C90.6294 49.1872 90.6452 49.2226 90.656 49.2411C90.661 49.258 90.6718 49.2765 90.6789 49.2971L90.6854 49.3082C90.7083 49.3643 90.7334 49.424 90.7548 49.4859C90.7592 49.4933 90.7657 49.5044 90.7663 49.5139L90.7728 49.525C90.8084 49.6282 90.8463 49.735 90.8767 49.8462C90.9071 49.9574 90.936 50.0745 90.9612 50.1937C90.9864 50.3129 91.0079 50.4343 91.0242 50.5637C91.042 50.6872 91.0583 50.8166 91.0672 50.9503C91.0764 51.0591 91.0803 51.1759 91.0843 51.2927C91.0892 51.4535 91.0905 51.6166 91.0822 51.7802C91.0763 51.9226 91.0689 52.0709 91.0557 52.2176C91.0424 52.3643 91.0255 52.5132 91.0048 52.6642L91.0002 52.6818C91.0002 52.6818 90.9963 52.7089 90.9954 52.7243C90.9765 52.8446 90.9577 52.9648 90.933 53.0835C90.9336 53.0931 90.9321 53.0989 90.929 53.1106C90.9281 53.126 90.9257 53.1473 90.9211 53.1649C90.9031 53.2697 90.883 53.3708 90.8555 53.4763C90.8115 53.6807 90.7565 53.8916 90.6977 54.1047C90.6026 54.4334 90.4926 54.7707 90.3636 55.1094C90.2345 55.448 90.0849 55.7938 89.9198 56.1387C89.8335 56.3133 89.7473 56.4879 89.6515 56.6631C89.2794 57.3576 88.8294 58.063 88.2928 58.7646C88.0263 59.1143 87.7386 59.4616 87.4274 59.8028C87.1184 60.1477 86.7844 60.4923 86.4307 60.8286C86.2609 60.9877 86.0874 61.1489 85.9081 61.3086C85.8881 61.3253 85.8681 61.3419 85.8444 61.3608L85.837 61.3651C85.6829 61.5001 85.5229 61.6336 85.3592 61.7692C85.3408 61.78 85.326 61.7887 85.3119 61.8069C85.3066 61.8149 85.3014 61.8229 85.2919 61.8236C85.2445 61.8613 85.1971 61.899 85.1497 61.9367C84.7943 62.2194 84.4214 62.4975 84.0309 62.771C83.3483 63.2406 82.6145 63.6905 81.8216 64.1155C72.5988 69.0644 66.5094 66.6337 66.5094 66.6337C65.8165 68.1861 61.9171 75.8508 57.8503 79.2417C57.0341 79.9235 55.9195 80.7058 54.5861 81.4873C54.2241 81.6995 53.8504 81.9085 53.4576 82.1189C53.2612 82.2241 53.0626 82.3256 52.8604 82.4292C52.4522 82.6387 52.0359 82.843 51.6 83.0389C51.386 83.1395 51.1661 83.2386 50.9441 83.334C50.8342 83.3835 50.7221 83.4294 50.6101 83.4752C50.405 83.5656 50.1956 83.6486 49.9862 83.7316C49.9656 83.7388 49.9471 83.7496 49.9265 83.7567C49.734 83.8348 49.5431 83.907 49.3463 83.9776C49.176 84.0427 49.0021 84.1099 48.8274 84.1676C48.627 84.2405 48.4206 84.3118 48.2121 84.3794C48.0338 84.4392 47.8497 84.4975 47.6655 84.5559C47.4946 84.6114 47.3252 84.661 47.1521 84.7128C47.1108 84.7271 47.0674 84.7377 47.0261 84.7519C46.8376 84.8029 46.6476 84.8596 46.4532 84.909C46.359 84.9345 46.2684 84.9578 46.172 84.9796C46.01 85.0249 45.8495 85.0644 45.6869 85.1001C45.536 85.139 45.3829 85.1741 45.2239 85.2077C44.9177 85.278 44.6072 85.3409 44.2961 85.3942C44.1408 85.4257 43.9871 85.4513 43.8275 85.4753C43.7459 85.4884 43.6642 85.5015 43.5826 85.5147C43.4554 85.5346 43.3281 85.5546 43.2024 85.5688C43.0693 85.5872 42.9399 85.6035 42.8068 85.622C42.6774 85.6382 42.5422 85.653 42.4106 85.6656C42.1459 85.6967 41.8806 85.7182 41.6153 85.7397C41.3516 85.7553 41.0819 85.7694 40.816 85.7814C40.6801 85.7866 40.5479 85.7896 40.4136 85.789C40.2814 85.792 40.1491 85.7951 40.0126 85.7907C39.8804 85.7938 39.7461 85.7931 39.6132 85.7866C39.4788 85.786 39.346 85.7795 39.2132 85.7729C39.0803 85.7664 38.9438 85.7621 38.8088 85.7519C38.541 85.7352 38.2725 85.7089 38.0077 85.6805C37.8764 85.6681 37.7392 85.6542 37.6036 85.6345C37.4701 85.6184 37.3366 85.6024 37.2025 85.5768C37.0691 85.5607 36.9371 85.5388 36.803 85.5132C36.6711 85.4913 36.537 85.4656 36.4065 85.4379C36.1383 85.3866 35.8753 85.3274 35.608 85.2608C35.4637 85.2262 35.3231 85.1895 35.184 85.147C35.061 85.1149 34.9417 85.0806 34.8202 85.0427C34.6518 84.9925 34.4871 84.9401 34.3203 84.884C34.2339 84.8553 34.1476 84.8265 34.0591 84.794C33.8703 84.7259 33.6772 84.6505 33.4842 84.5751C33.4783 84.5736 33.4725 84.5721 33.4703 84.5684C33.3701 84.5328 33.2714 84.4914 33.1764 84.4479C33.0718 84.4049 32.9731 84.3635 32.8701 84.3147C32.615 84.2012 32.3592 84.0782 32.105 83.9493C31.9363 83.8646 31.7691 83.774 31.5997 83.6797C31.3923 83.563 31.1844 83.4368 30.9764 83.3106C19.1252 75.9596 16.796 66.3974 17.8014 54.2606C17.8218 53.9906 17.8502 53.7258 17.8786 53.461C17.9043 53.2424 17.9301 53.0239 17.9617 52.8069C17.982 52.6213 18.0118 52.4351 18.0416 52.2489C18.1046 51.8398 18.1734 51.4323 18.2561 51.0315C18.2792 50.9186 18.3003 50.8021 18.3272 50.6871C18.3311 50.66 18.3372 50.6365 18.3412 50.6094C18.3836 50.4109 18.4297 50.2101 18.478 50.0131C18.5416 49.7575 18.6052 49.5019 18.6752 49.2574C18.6982 49.1695 18.7211 49.0816 18.744 48.9937C18.7875 48.8392 18.8309 48.6848 18.8787 48.5377C18.9274 48.3752 18.9782 48.2163 19.029 48.0575C19.0799 47.8987 19.1307 47.7399 19.1837 47.5848C19.2594 47.3667 19.3409 47.1502 19.4187 46.9359C19.5137 46.6916 19.6051 46.4495 19.7045 46.2126C19.8973 45.7373 20.1084 45.2762 20.3275 44.8202L20.3312 44.8181C20.4407 44.5901 20.5546 44.3695 20.6685 44.1489C20.8168 43.8685 20.9709 43.5896 21.1257 43.3202C21.2341 43.1326 21.341 42.9509 21.4515 42.767C21.4552 42.7648 21.453 42.7612 21.4567 42.759C21.5553 42.597 21.6576 42.4328 21.7642 42.2761C21.7867 42.2381 21.8112 42.2038 21.8337 42.1659C21.9329 42.0135 22.0358 41.8588 22.1394 41.7138C22.1566 41.6839 22.1759 41.6576 22.1953 41.6314C22.3056 41.4725 22.4159 41.3135 22.5321 41.1561C22.6461 40.995 22.7681 40.8391 22.8901 40.6832C22.9676 40.5783 23.0509 40.4749 23.1342 40.3715C23.2331 40.244 23.3343 40.1202 23.4354 39.9964C23.6131 39.7831 23.7966 39.5713 23.9787 39.3654C24.1109 39.2184 24.2453 39.0752 24.3759 38.9341C24.5318 38.7683 24.6899 38.6061 24.848 38.444C25.1285 38.1605 25.4191 37.886 25.7104 37.621C25.7756 37.5629 25.8409 37.5048 25.9061 37.4467C26.0439 37.3263 26.1817 37.2058 26.318 37.0912C26.4469 36.9809 26.5743 36.8765 26.7038 36.7757C26.7327 36.7489 26.7601 36.7279 26.7912 36.7047C26.8201 36.6778 26.8475 36.6568 26.8748 36.6358C27.0281 36.5162 27.1813 36.3966 27.3367 36.2807C27.5084 36.1503 27.6822 36.0236 27.8546 35.9028C27.97 35.8203 28.0875 35.7414 28.2014 35.6648C28.2931 35.6011 28.3885 35.5353 28.4824 35.4753C28.6406 35.3726 28.7988 35.27 28.9591 35.1711C29.1195 35.0721 29.2798 34.9732 29.4387 34.8801C30.99 33.9709 32.5837 33.2948 34.1398 32.8593C35.3003 32.5364 36.3956 32.4155 37.4414 32.4725C39.0237 32.5475 40.4719 33.0287 41.782 33.7992C43.6191 34.8762 45.1831 36.5202 46.4727 38.4243C47.1977 39.3988 47.8484 40.526 48.3703 41.8229C48.7712 42.6847 49.1234 43.5651 49.4272 44.439C49.5627 44.8311 49.6745 45.2419 49.7567 45.6701C50.3914 48.7173 49.7582 52.5224 48.1996 55.6293C48.1944 55.6373 48.1913 55.649 48.184 55.6534C47.9271 56.2058 47.6459 56.7081 47.3562 57.1707C47.3532 57.1824 47.3516 57.1883 47.3443 57.1926C46.9597 57.815 46.5301 58.3943 46.063 58.9013C45.9397 59.0381 45.8047 59.1718 45.666 59.3077C45.459 59.5133 45.2323 59.7107 44.9858 59.8998C44.9147 59.9564 44.8415 60.0092 44.7682 60.0621C44.7335 60.0874 44.6987 60.1128 44.6581 60.1366C44.6218 60.1678 44.587 60.1931 44.5501 60.2148C44.4362 60.2914 44.3202 60.3644 44.202 60.4337L44.1983 60.4358C43.8474 60.6415 43.4681 60.8241 43.0606 60.9587C42.1278 61.2722 41.0519 61.3668 39.8435 61.0577C33.7245 59.5078 32.9829 50.8761 32.9772 50.7901L31.6941 50.8871L30.9284 50.9438L30.4148 50.9818C30.4454 51.3559 31.0916 59.1305 36.5346 62.4313C33.6493 65.0355 33.0331 67.9721 33.006 68.1121L35.523 68.6219C35.5477 68.5032 36.1703 65.7215 39.248 63.5555C41.0372 64.0005 42.7994 63.8659 44.4403 63.1772C44.528 63.1406 44.6195 63.1019 44.7088 63.0595C44.871 62.9892 45.0268 62.9079 45.1841 62.8206C45.2121 62.8092 45.238 62.794 45.2638 62.7789C45.2734 62.7782 45.2771 62.7761 45.2845 62.7717C45.3583 62.7284 45.4285 62.6873 45.5024 62.644C45.5319 62.6267 45.5615 62.6094 45.5873 62.5942C45.6686 62.5466 45.7499 62.499 45.8268 62.4439C45.8822 62.4115 45.9391 62.3731 45.9902 62.3333C46.0678 62.2878 46.141 62.235 46.2143 62.1821C46.2364 62.1691 46.2564 62.1525 46.2764 62.1358C46.3275 62.0959 46.3844 62.0576 46.4392 62.0156C46.4961 61.9772 46.5472 61.9374 46.5961 61.8938C46.6746 61.8329 46.7493 61.7742 46.8256 61.7097C46.8878 61.6633 46.9478 61.6133 47.0019 61.5617C47.0508 61.5181 47.0997 61.4746 47.1523 61.4289C47.2286 61.3643 47.2991 61.2982 47.371 61.2263C47.4704 61.1333 47.5676 61.0366 47.6648 60.94C47.7619 60.8433 47.857 60.743 47.9535 60.6367C48.1629 60.4098 48.3621 60.1739 48.5548 59.927C48.6225 59.8477 48.6879 59.7646 48.7513 59.6779C48.7513 59.6779 48.7654 59.6597 48.7915 59.6196C48.8119 59.6374 48.8381 59.6568 48.8622 59.6724C50.7875 61.0947 54.3618 62.4686 58.1391 60.3788C58.2136 60.3451 58.2838 60.304 58.3577 60.2607C58.4759 60.1914 58.5978 60.12 58.7154 60.0411C59.5063 59.5279 60.2121 58.9456 60.8363 58.2919C62.8272 56.202 63.9318 53.396 64.0734 50.0477C64.3244 43.9308 61.1786 36.9462 56.5984 33.4326C56.2909 33.1959 55.9805 32.971 55.6749 32.7629C52.0531 30.3004 48.5253 29.6238 46.4571 29.4563C46.0216 28.2476 45.7051 27.0387 45.4912 25.844C45.4407 25.5461 45.3901 25.2482 45.3513 24.9534C45.3103 24.6548 45.2715 24.36 45.2444 24.0682C45.2151 23.7727 45.1917 23.4788 45.1763 23.19C45.1588 22.8976 45.1434 22.6089 45.1397 22.3232C45.1358 22.0625 45.134 21.8055 45.136 21.5463C45.1364 21.293 45.1442 21.0353 45.1541 20.7814C45.1583 20.7293 45.1604 20.6735 45.1609 20.6236C45.1725 20.4232 45.1841 20.2229 45.2001 20.03C45.2162 19.812 45.2346 19.5978 45.2551 19.3873C45.26 19.3448 45.2633 19.3081 45.2666 19.2714C45.2712 19.2538 45.2699 19.2347 45.2708 19.2193C45.295 19.0066 45.3236 18.8013 45.3521 18.596C45.3536 18.5901 45.3552 18.5843 45.353 18.5806C45.3849 18.3386 45.4226 18.0982 45.4625 17.8614C45.5024 17.6246 45.5496 17.3835 45.5954 17.1483L45.6649 16.8098C45.6903 16.7006 45.712 16.5937 45.7373 16.4845L45.7404 16.4728L45.7441 16.4706C45.785 16.2779 45.8302 16.0926 45.8776 15.911C45.9271 15.7331 45.9745 15.5515 46.0263 15.3773C46.0584 15.2542 46.0963 15.1327 46.1365 15.0149C46.2225 14.7214 46.3171 14.4426 46.4102 14.1696C46.4874 13.9458 46.569 13.7292 46.6527 13.5164C46.7364 13.3036 46.8207 13.1004 46.9087 12.8949L46.9124 12.8928C46.9967 12.6895 47.0854 12.4936 47.1799 12.2993C47.1799 12.2993 47.1836 12.2971 47.1815 12.2934C47.252 12.1429 47.3248 11.996 47.3997 11.8529C47.4813 11.6959 47.5614 11.5447 47.6416 11.3935C47.7291 11.238 47.8151 11.0884 47.9032 10.9424C48.1071 10.6046 48.313 10.2953 48.5186 10.0111C48.5693 9.93672 48.6221 9.86604 48.6771 9.79905C48.7635 9.68393 48.8542 9.57619 48.9375 9.47277C48.9821 9.42183 49.0267 9.37089 49.0712 9.31995C49.1121 9.27118 49.1589 9.22393 49.2019 9.17885C49.2607 9.10969 49.3215 9.04424 49.3846 8.98247C49.4529 8.91269 49.5211 8.8429 49.5937 8.78049C49.61 8.76598 49.6226 8.75362 49.6353 8.74127C49.6931 8.68753 49.7494 8.63965 49.8057 8.59176C49.8546 8.54821 49.9057 8.50835 49.953 8.47066C49.993 8.43729 50.0315 8.40978 50.07 8.38228C50.121 8.34242 50.1706 8.30841 50.2238 8.27225C50.294 8.23112 50.3599 8.1826 50.43 8.14147C50.6923 7.98777 50.9519 7.88029 51.2014 7.82338C59.2485 6.02498 62.6472 19.7491 63.9576 24.1272C65.2644 28.5074 71.6506 49.8943 71.6506 49.8943C77.7466 51.5321 85.772 43.9899 90.0956 48.4034C90.3056 48.6178 90.4842 48.8803 90.6294 49.1872Z" stroke="#FF8A8C" stroke-opacity="0.54" stroke-width="14" mask="url(#path-7-outside-1_56_2)"/>
<path d="M45.5874 62.5942C45.5616 62.6093 45.532 62.6266 45.5025 62.644C45.4286 62.6873 45.3584 62.7284 45.2845 62.7717C45.2772 62.776 45.2735 62.7782 45.2639 62.7788C45.3732 62.7197 45.4825 62.6606 45.5874 62.5942Z" fill="white"/>
<path d="M44.8156 61.278L44.7934 61.2401L44.6897 61.3008C44.6476 61.3252 44.5952 61.3564 44.5172 61.3986L44.5179 61.4016L44.4909 61.4174L44.5184 61.4024L45.3677 64.3445C45.4863 64.3367 45.6513 64.3128 45.8354 64.2425C45.917 64.2113 45.9806 64.1792 46.0202 64.158C46.0394 64.1477 46.055 64.1386 46.0636 64.1336C46.068 64.1311 46.072 64.1298 46.0742 64.1286L46.3809 63.9488L46.3804 63.948C46.3958 63.9385 46.4122 63.9301 46.4276 63.9203L45.2071 61.919M44.8156 61.278C44.7987 61.2832 44.782 61.2895 44.7647 61.2954L45.2123 62.0031L45.2071 61.919M44.8156 61.278C44.9523 61.2363 45.072 61.2189 45.1601 61.2131L45.2071 61.919M44.8156 61.278L45.2071 61.919" stroke="#FF8A8C" stroke-opacity="0.54" stroke-width="3.13893"/>
<path d="M45.2639 62.7788C45.2639 62.7788 45.2772 62.776 45.2845 62.7717C45.3584 62.7284 45.4286 62.6873 45.5025 62.644C45.532 62.6266 45.5616 62.6093 45.5874 62.5942C45.4803 62.6569 45.3732 62.7197 45.2639 62.7788Z" fill="white"/>
<path d="M44.7934 61.2401L44.8146 61.2763C44.8224 61.274 44.8278 61.2712 44.8304 61.2705C44.8565 61.2628 44.8786 61.257 44.8949 61.253C44.9035 61.251 44.9118 61.2496 44.9191 61.2479C44.9227 61.2471 44.9265 61.2458 44.9298 61.245C44.9312 61.2447 44.9328 61.245 44.9342 61.2447L44.9372 61.2441L44.9389 61.2431L45.0205 61.6277L46.3809 63.9488L46.0784 64.1261C45.9001 64.2306 45.7394 64.2749 45.7129 64.2826C45.6823 64.2916 45.6559 64.2988 45.6368 64.3034C45.627 64.3058 45.618 64.3082 45.6101 64.31C45.6062 64.3109 45.6024 64.3113 45.5989 64.3121C45.5972 64.3125 45.5953 64.3125 45.5937 64.3129L45.5906 64.3135L45.5889 64.3145L44.5188 61.4033L44.4909 61.4174L44.5179 61.4016L44.5172 61.3986C44.5987 61.3545 44.6825 61.3051 44.7934 61.2401Z" stroke="#FF8A8C" stroke-opacity="0.54" stroke-width="3.13893"/>
<path d="M47.1889 35.1162C46.0648 33.9687 44.8641 33.0546 43.6872 32.3251C43.7199 32.2961 43.8337 32.2194 43.9556 32.148C44.0864 32.0664 44.2268 31.9841 44.2776 31.9692C44.3845 31.9314 44.4898 31.8994 44.5951 31.8675C47.3954 31.0401 50.3736 32.3961 52.5004 33.6457C53.469 34.2145 54.3742 34.87 55.2103 35.6107C55.2707 35.6546 55.326 35.7066 55.3791 35.7548C55.3952 35.7653 55.4097 35.7816 55.422 35.7942C55.4344 35.8068 55.4504 35.8173 55.4628 35.8299C56.5104 36.7791 57.4451 37.849 58.2386 39.0166C58.3493 39.18 58.4562 39.3456 58.5632 39.5111C58.6702 39.6767 58.7698 39.8466 58.8693 40.0165C58.9992 40.2382 59.1276 40.4656 59.2464 40.6937C59.3343 40.8606 59.42 41.0238 59.5004 41.1949L59.5134 41.2171C59.5134 41.2171 59.5243 41.2356 59.5271 41.2488C59.5954 41.3824 59.6623 41.5219 59.7233 41.6598C59.7298 41.6709 59.7341 41.6783 59.7406 41.6894C59.8592 41.9425 59.9682 42.1962 60.0756 42.4557C60.2382 42.8517 60.3876 43.2505 60.5259 43.6558C60.8703 44.6499 61.1365 45.6799 61.2998 46.7205C61.3329 46.9294 61.3623 47.1405 61.3896 47.3478C61.4202 47.578 61.4435 47.8124 61.4631 48.0491C61.4704 48.1292 61.4776 48.2093 61.4827 48.2857C61.49 48.3658 61.4914 48.4444 61.4949 48.5267C61.5034 48.6259 61.5061 48.7236 61.5088 48.8213C61.5151 48.9168 61.5141 49.0166 61.5168 49.1143C61.5216 49.2157 61.5227 49.3192 61.518 49.4213C61.5199 49.5938 61.516 49.7649 61.5083 49.9381C61.4976 50.2669 61.4708 50.5853 61.436 50.8985C61.4166 51.0687 61.3936 51.241 61.3662 51.4059C61.3431 51.5782 61.3105 51.7512 61.2757 51.9205C61.2372 52.0919 61.1972 52.2692 61.155 52.4428C60.7732 53.9419 60.0405 55.5028 58.69 56.8054C58.6106 56.8817 58.5254 56.9565 58.4439 57.0291C58.3587 57.1038 58.2735 57.1786 58.1824 57.2518C58.1372 57.2932 58.0861 57.333 58.0365 57.367C57.9713 57.4251 57.9003 57.4817 57.8249 57.5308C57.8027 57.5438 57.7849 57.5642 57.7627 57.5772C57.7264 57.6084 57.6842 57.638 57.6421 57.6677C57.6088 57.6872 57.5719 57.7088 57.5387 57.7283C57.5297 57.7385 57.515 57.7472 57.5039 57.7537L57.5002 57.7558C57.4433 57.7942 57.3863 57.8325 57.3257 57.873C57.1416 57.9908 56.957 58.099 56.7732 58.1919C56.7008 58.2293 56.6285 58.2667 56.554 58.3005L56.5466 58.3048C56.5466 58.3048 56.5223 58.3141 56.5112 58.3206C56.4949 58.3351 56.4742 58.3422 56.4536 58.3494C56.3659 58.3859 56.2803 58.4262 56.1962 58.4605C56.0016 58.5349 55.8159 58.5991 55.6296 58.6537C55.5375 58.6829 55.4432 58.7083 55.3505 58.7279C55.2599 58.7512 55.1709 58.7687 55.0819 58.7861C54.987 58.802 54.8921 58.8179 54.7988 58.828C54.7113 58.8396 54.6275 58.849 54.5415 58.8547C54.4555 58.8604 54.3695 58.8662 54.2814 58.8682C54.2145 58.8726 54.1492 58.8712 54.0839 58.8698C54.0398 58.8708 53.9936 58.8682 53.9532 58.867C53.8725 58.8647 53.7917 58.8624 53.7125 58.8543C53.6317 58.852 53.5525 58.8438 53.477 58.8335C53.334 58.818 53.1983 58.7983 53.0621 58.769C53.0019 58.7596 52.9418 58.7501 52.8832 58.7348C52.7081 58.6985 52.5441 58.6557 52.389 58.6027C52.3048 58.5776 52.2184 58.5488 52.1416 58.5194C52.0889 58.5057 52.0414 58.4839 51.9961 58.4658C51.2515 58.1776 50.668 57.8001 50.3044 57.5269L50.2979 57.5158L50.2921 57.5142C50.276 57.5038 50.26 57.4934 50.2498 57.4844C50.2498 57.4844 50.2535 57.4823 50.2513 57.4786C50.9378 56.2029 51.539 54.714 51.9223 53.0057L51.926 53.0035C51.926 53.0035 51.9254 52.9939 51.9269 52.9881C52.4601 50.6211 52.5894 47.8359 51.9963 44.6055C51.8884 44.0236 51.7606 43.4584 51.6134 42.9194C50.703 39.5624 49.0688 37.0366 47.2093 35.134L47.205 35.1266C47.205 35.1266 47.1948 35.1177 47.1905 35.1103L47.1889 35.1162Z" fill="white"/>
<path d="M43.3752 30.6673C43.3939 30.6568 43.5586 30.5617 43.7548 30.4924L43.7542 30.4893C43.7797 30.4803 43.806 30.4743 43.831 30.4658C43.8328 30.4653 43.8342 30.4634 43.836 30.4629L43.8357 30.4642L44.139 30.3657L44.1506 30.3623C47.6492 29.3287 51.1615 31.0382 53.2957 32.2921L53.2948 32.2925C54.348 32.911 55.3347 33.6248 56.2469 34.4324C56.3079 34.4822 56.3613 34.5273 56.3953 34.5582C56.4407 34.596 56.4747 34.6271 56.4944 34.6462C56.5008 34.6524 56.5064 34.6589 56.5118 34.6643C56.513 34.6654 56.5139 34.6669 56.5151 34.668L56.5168 34.667C57.5124 35.5691 58.4154 36.5729 59.205 37.6622L59.5371 38.1343L59.5386 38.1368C59.6602 38.3164 59.7758 38.4964 59.8811 38.6594C60.0096 38.8583 60.127 39.0577 60.2237 39.2227C60.3618 39.4584 60.5037 39.7103 60.6384 39.9689C60.709 40.1029 60.7869 40.2581 60.8674 40.4233L60.8787 40.4427C60.8828 40.4499 60.8872 40.4584 60.8922 40.4676C60.902 40.4856 60.9158 40.5105 60.9303 40.5404C60.9338 40.5475 60.9399 40.5647 60.9506 40.5885C61.0069 40.7002 61.0626 40.8155 61.1157 40.932L61.131 40.9581L61.1617 41.0239C61.2941 41.3066 61.4133 41.584 61.5256 41.8554L61.5272 41.8601C61.7012 42.2837 61.8603 42.7098 62.0078 43.1416C62.3795 44.2144 62.6695 45.3346 62.8486 46.4748L62.8499 46.4751C62.886 46.7026 62.9179 46.9284 62.9461 47.1432C62.9811 47.4066 63.0067 47.6678 63.0275 47.9195C63.0334 47.984 63.0388 48.0632 63.0446 48.1438C63.0452 48.1504 63.0459 48.1575 63.0464 48.1642C63.0468 48.1699 63.0481 48.1755 63.0485 48.1812L63.0471 48.1808C63.0565 48.3012 63.0618 48.4317 63.063 48.459L63.0617 48.4587C63.0706 48.5856 63.076 48.701 63.0781 48.7784L63.076 48.7786C63.0818 48.9057 63.0856 49.0614 63.0858 49.0716L63.0845 49.0712C63.0889 49.1754 63.0899 49.2871 63.087 49.4037C63.0892 49.6117 63.085 49.8129 63.0764 50.0076L63.075 50.0072C63.0623 50.3813 63.0336 50.7365 62.9963 51.0722L62.9952 51.0762C62.9736 51.266 62.9476 51.4658 62.9148 51.6632L62.9135 51.6629C62.8841 51.87 62.8479 52.0668 62.8129 52.2368L62.8103 52.2497L62.8073 52.2639C62.7689 52.4348 62.726 52.6252 62.6802 52.8138L62.676 52.8298C62.24 54.5417 61.3863 56.3846 59.7795 57.9345L59.7775 57.9369C59.6707 58.0395 59.5555 58.1402 59.4874 58.2008L59.4788 58.2093C59.3972 58.2808 59.2873 58.3777 59.166 58.4752L59.1642 58.474C59.1117 58.5186 59.0593 58.5604 59.0075 58.5987C58.9353 58.6598 58.8542 58.7236 58.7643 58.7865C58.7556 58.7935 58.7454 58.8023 58.7336 58.8113C58.7208 58.8211 58.7034 58.83 58.6854 58.8429C58.6182 58.8949 58.5644 58.9376 58.5451 58.9512L58.4924 58.9889L58.3947 59.0461C58.3819 59.0547 58.37 59.0623 58.3595 59.069C58.308 59.1037 58.2539 59.1398 58.1969 59.1779L58.1847 59.1862L58.1717 59.1949C57.9593 59.3309 57.7318 59.4645 57.4939 59.5854C57.4903 59.5873 57.4868 59.5898 57.483 59.5918L57.4813 59.5928L57.4808 59.5919C57.4361 59.6151 57.3751 59.6449 57.3071 59.6779L57.2279 59.7243L57.1749 59.7441C57.1619 59.7504 57.1507 59.7586 57.139 59.764C57.1085 59.778 57.08 59.7881 57.0568 59.7974L57.0573 59.7983C57.0318 59.8089 57.0041 59.8205 56.9568 59.8413C56.9158 59.8594 56.855 59.8864 56.7905 59.9128L56.7735 59.9205L56.7568 59.9268C56.5427 60.0087 56.3263 60.0828 56.1028 60.1494C56.0958 60.1516 56.0889 60.1539 56.0818 60.1561C56.0783 60.1571 56.0751 60.1588 56.0716 60.1598L56.0711 60.159C55.9664 60.1913 55.8556 60.2209 55.7412 60.247L55.7417 60.2479C55.7331 60.2501 55.7239 60.251 55.7154 60.2531C55.7019 60.2561 55.6885 60.2604 55.6749 60.2632L55.6744 60.2624C55.5581 60.2903 55.4532 60.3128 55.3837 60.3264L55.3625 60.3309L55.3417 60.334C55.2625 60.3473 55.1372 60.3671 55.0035 60.3828L55.0045 60.3845C54.8982 60.3985 54.7775 60.4118 54.6454 60.4206C54.5646 60.426 54.4452 60.4343 54.3178 60.4372L54.3172 60.4342C54.2405 60.4374 54.1709 60.438 54.1187 60.4373L54.1196 60.439C54.0563 60.4405 54.0015 60.4392 53.9686 60.4381C53.8884 60.4356 53.9561 60.4374 53.9085 60.436C53.8569 60.4345 53.7686 60.4293 53.6673 60.4223C53.5126 60.4179 53.3744 60.4036 53.265 60.3887L53.2645 60.3878C53.1234 60.3718 52.975 60.35 52.8192 60.3194L52.6904 60.2987C52.6525 60.2917 52.6098 60.2811 52.5642 60.2708L52.5647 60.2716C52.3599 60.2291 52.1508 60.1748 51.94 60.1057L51.9405 60.1066C51.9298 60.1034 51.9192 60.0993 51.9083 60.096C51.8996 60.0931 51.8907 60.0907 51.8819 60.0877L51.8814 60.0869C51.8135 60.0658 51.7436 60.0406 51.6731 60.0154C51.5979 59.9928 51.5356 59.972 51.4945 59.9559C51.4681 59.9456 51.4448 59.9362 51.4325 59.9312C51.4248 59.928 51.4217 59.9268 51.4177 59.9252C51.4158 59.9244 51.4149 59.9238 51.4145 59.9236L51.4148 59.9223C50.5106 59.5703 49.8063 59.1154 49.3618 58.7813L49.1093 58.592L49.0856 58.5515L47.5774 57.2316L49.0628 56.3611C49.6068 55.2841 50.0792 54.0534 50.3913 52.662L50.4066 52.5897C50.8824 50.4448 51.004 47.891 50.4529 44.8892C50.3524 44.3471 50.2343 43.8253 50.0998 43.3326L50.0983 43.3301C49.2764 40.3 47.8198 38.0295 46.1635 36.3114L46.0682 36.2144C45.0438 35.1687 43.9448 34.3317 42.8605 33.6596L41.0731 32.5508L42.6433 31.1529C42.79 31.0223 43.0003 30.8918 43.1256 30.817L43.1251 30.8162C43.1276 30.8146 43.1302 30.8133 43.1327 30.8117C43.1432 30.8055 43.1526 30.7989 43.1617 30.7936L43.1622 30.7944C43.2289 30.7532 43.3032 30.708 43.3752 30.6673ZM57.108 59.7708L57.1105 59.7694C57.1117 59.7689 57.1132 59.7687 57.1144 59.7682C57.1166 59.7674 57.1192 59.7661 57.1216 59.7651C57.1245 59.764 57.1279 59.7618 57.1322 59.76L57.1066 59.7705L57.108 59.7708Z" stroke="#FF8A8C" stroke-opacity="0.54" stroke-width="3.13893"/>
<mask id="path-14-outside-2_56_2" maskUnits="userSpaceOnUse" x="-5.47355" y="-4.18193" width="105.931" height="103.432" fill="black">
<rect fill="white" x="-5.47355" y="-4.18193" width="105.931" height="103.432"/>
<path d="M90.6294 49.1872C90.6294 49.1872 90.6452 49.2226 90.656 49.2411C90.661 49.258 90.6718 49.2765 90.6789 49.2971L90.6854 49.3082C90.7083 49.3643 90.7334 49.424 90.7548 49.4859C90.7592 49.4933 90.7657 49.5044 90.7663 49.5139L90.7728 49.525C90.8084 49.6282 90.8463 49.735 90.8767 49.8462C90.9071 49.9574 90.936 50.0745 90.9612 50.1937C90.9864 50.3129 91.0079 50.4343 91.0242 50.5637C91.042 50.6872 91.0583 50.8166 91.0672 50.9503C91.0764 51.0591 91.0803 51.1759 91.0843 51.2927C91.0892 51.4535 91.0905 51.6166 91.0822 51.7802C91.0763 51.9226 91.0689 52.0709 91.0557 52.2176C91.0424 52.3643 91.0255 52.5132 91.0048 52.6642L91.0002 52.6818C91.0002 52.6818 90.9963 52.7089 90.9954 52.7243C90.9765 52.8446 90.9577 52.9648 90.933 53.0835C90.9336 53.0931 90.9321 53.0989 90.929 53.1106C90.9281 53.126 90.9257 53.1473 90.9211 53.1649C90.9031 53.2697 90.883 53.3708 90.8555 53.4763C90.8115 53.6807 90.7565 53.8916 90.6977 54.1047C90.6026 54.4334 90.4926 54.7707 90.3636 55.1094C90.2345 55.448 90.0849 55.7938 89.9198 56.1387C89.8335 56.3133 89.7473 56.4879 89.6515 56.6631C89.2794 57.3576 88.8294 58.063 88.2928 58.7646C88.0263 59.1143 87.7386 59.4616 87.4274 59.8028C87.1184 60.1477 86.7844 60.4923 86.4307 60.8286C86.2609 60.9877 86.0874 61.1489 85.9081 61.3086C85.8881 61.3253 85.8681 61.3419 85.8444 61.3608L85.837 61.3651C85.6829 61.5001 85.5229 61.6336 85.3592 61.7692C85.3408 61.78 85.326 61.7887 85.3119 61.8069C85.3066 61.8149 85.3014 61.8229 85.2919 61.8236C85.2445 61.8613 85.1971 61.899 85.1497 61.9367C84.7943 62.2194 84.4214 62.4975 84.0309 62.771C83.3483 63.2406 82.6145 63.6905 81.8216 64.1155C72.5988 69.0644 66.5094 66.6337 66.5094 66.6337C65.8165 68.1861 61.9171 75.8508 57.8503 79.2417C57.0341 79.9235 55.9195 80.7058 54.5861 81.4873C54.2241 81.6995 53.8504 81.9085 53.4576 82.1189C53.2612 82.2241 53.0626 82.3256 52.8604 82.4292C52.4522 82.6387 52.0359 82.843 51.6 83.0389C51.386 83.1395 51.1661 83.2386 50.9441 83.334C50.8342 83.3835 50.7221 83.4294 50.6101 83.4752C50.405 83.5656 50.1956 83.6486 49.9862 83.7316C49.9656 83.7388 49.9471 83.7496 49.9265 83.7567C49.734 83.8348 49.5431 83.907 49.3463 83.9776C49.176 84.0427 49.0021 84.1099 48.8274 84.1676C48.627 84.2405 48.4206 84.3118 48.2121 84.3794C48.0338 84.4392 47.8497 84.4975 47.6655 84.5559C47.4946 84.6114 47.3252 84.661 47.1521 84.7128C47.1108 84.7271 47.0674 84.7377 47.0261 84.7519C46.8376 84.8029 46.6476 84.8596 46.4532 84.909C46.359 84.9345 46.2684 84.9578 46.172 84.9796C46.01 85.0249 45.8495 85.0644 45.6869 85.1001C45.536 85.139 45.3829 85.1741 45.2239 85.2077C44.9177 85.278 44.6072 85.3409 44.2961 85.3942C44.1408 85.4257 43.9871 85.4513 43.8275 85.4753C43.7459 85.4884 43.6642 85.5015 43.5826 85.5147C43.4554 85.5346 43.3281 85.5546 43.2024 85.5688C43.0693 85.5872 42.9399 85.6035 42.8068 85.622C42.6774 85.6382 42.5422 85.653 42.4106 85.6656C42.1459 85.6967 41.8806 85.7182 41.6153 85.7397C41.3516 85.7553 41.0819 85.7694 40.816 85.7814C40.6801 85.7866 40.5479 85.7896 40.4136 85.789C40.2814 85.792 40.1491 85.7951 40.0126 85.7907C39.8804 85.7938 39.7461 85.7931 39.6132 85.7866C39.4788 85.786 39.346 85.7795 39.2132 85.7729C39.0803 85.7664 38.9438 85.7621 38.8088 85.7519C38.541 85.7352 38.2725 85.7089 38.0077 85.6805C37.8764 85.6681 37.7392 85.6542 37.6036 85.6345C37.4701 85.6184 37.3366 85.6024 37.2025 85.5768C37.0691 85.5607 36.9371 85.5388 36.803 85.5132C36.6711 85.4913 36.537 85.4656 36.4065 85.4379C36.1383 85.3866 35.8753 85.3274 35.608 85.2608C35.4637 85.2262 35.3231 85.1895 35.184 85.147C35.061 85.1149 34.9417 85.0806 34.8202 85.0427C34.6518 84.9925 34.4871 84.9401 34.3203 84.884C34.2339 84.8553 34.1476 84.8265 34.0591 84.794C33.8703 84.7259 33.6772 84.6505 33.4842 84.5751C33.4783 84.5736 33.4725 84.5721 33.4703 84.5684C33.3701 84.5328 33.2714 84.4914 33.1764 84.4479C33.0718 84.4049 32.9731 84.3635 32.8701 84.3147C32.615 84.2012 32.3592 84.0782 32.105 83.9493C31.9363 83.8646 31.7691 83.774 31.5997 83.6797C31.3923 83.563 31.1844 83.4368 30.9764 83.3106C19.1252 75.9596 16.796 66.3974 17.8014 54.2606C17.8218 53.9906 17.8502 53.7258 17.8786 53.461C17.9043 53.2424 17.9301 53.0239 17.9617 52.8069C17.982 52.6213 18.0118 52.4351 18.0416 52.2489C18.1046 51.8398 18.1734 51.4323 18.2561 51.0315C18.2792 50.9186 18.3003 50.8021 18.3272 50.6871C18.3311 50.66 18.3372 50.6365 18.3412 50.6094C18.3836 50.4109 18.4297 50.2101 18.478 50.0131C18.5416 49.7575 18.6052 49.5019 18.6752 49.2574C18.6982 49.1695 18.7211 49.0816 18.744 48.9937C18.7875 48.8392 18.8309 48.6848 18.8787 48.5377C18.9274 48.3752 18.9782 48.2163 19.029 48.0575C19.0799 47.8987 19.1307 47.7399 19.1837 47.5848C19.2594 47.3667 19.3409 47.1502 19.4187 46.9359C19.5137 46.6916 19.6051 46.4495 19.7045 46.2126C19.8973 45.7373 20.1084 45.2762 20.3275 44.8202L20.3312 44.8181C20.4407 44.5901 20.5546 44.3695 20.6685 44.1489C20.8168 43.8685 20.9709 43.5896 21.1257 43.3202C21.2341 43.1326 21.341 42.9509 21.4515 42.767C21.4552 42.7648 21.453 42.7612 21.4567 42.759C21.5553 42.597 21.6576 42.4328 21.7642 42.2761C21.7867 42.2381 21.8112 42.2038 21.8337 42.1659C21.9329 42.0135 22.0358 41.8588 22.1394 41.7138C22.1566 41.6839 22.1759 41.6576 22.1953 41.6314C22.3056 41.4725 22.4159 41.3135 22.5321 41.1561C22.6461 40.995 22.7681 40.8391 22.8901 40.6832C22.9676 40.5783 23.0509 40.4749 23.1342 40.3715C23.2331 40.244 23.3343 40.1202 23.4354 39.9964C23.6131 39.7831 23.7966 39.5713 23.9787 39.3654C24.1109 39.2184 24.2453 39.0752 24.3759 38.9341C24.5318 38.7683 24.6899 38.6061 24.848 38.444C25.1285 38.1605 25.4191 37.886 25.7104 37.621C25.7756 37.5629 25.8409 37.5048 25.9061 37.4467C26.0439 37.3263 26.1817 37.2058 26.318 37.0912C26.4469 36.9809 26.5743 36.8765 26.7038 36.7757C26.7327 36.7489 26.7601 36.7279 26.7912 36.7047C26.8201 36.6778 26.8475 36.6568 26.8748 36.6358C27.0281 36.5162 27.1813 36.3966 27.3367 36.2807C27.5084 36.1503 27.6822 36.0236 27.8546 35.9028C27.97 35.8203 28.0875 35.7414 28.2014 35.6648C28.2931 35.6011 28.3885 35.5353 28.4824 35.4753C28.6406 35.3726 28.7988 35.27 28.9591 35.1711C29.1195 35.0721 29.2798 34.9732 29.4387 34.8801C30.99 33.9709 32.5837 33.2948 34.1398 32.8593C35.3003 32.5364 36.3956 32.4155 37.4414 32.4725C39.0237 32.5475 40.4719 33.0287 41.782 33.7992C43.6191 34.8762 45.1831 36.5202 46.4727 38.4243C47.1977 39.3988 47.8484 40.526 48.3703 41.8229C48.7712 42.6847 49.1234 43.5651 49.4272 44.439C49.5627 44.8311 49.6745 45.2419 49.7567 45.6701C50.3914 48.7173 49.7582 52.5224 48.1996 55.6293C48.1944 55.6373 48.1913 55.649 48.184 55.6534C47.9271 56.2058 47.6459 56.7081 47.3562 57.1707C47.3532 57.1824 47.3516 57.1883 47.3443 57.1926C46.9597 57.815 46.5301 58.3943 46.063 58.9013C45.9397 59.0381 45.8047 59.1718 45.666 59.3077C45.459 59.5133 45.2323 59.7107 44.9858 59.8998C44.9147 59.9564 44.8415 60.0092 44.7682 60.0621C44.7335 60.0874 44.6987 60.1128 44.6581 60.1366C44.6218 60.1678 44.587 60.1931 44.5501 60.2148C44.4362 60.2914 44.3202 60.3644 44.202 60.4337L44.1983 60.4358C43.8474 60.6415 43.4681 60.8241 43.0606 60.9587C42.1278 61.2722 41.0519 61.3668 39.8435 61.0577C33.7245 59.5078 32.9829 50.8761 32.9772 50.7901L31.6941 50.8871L30.9284 50.9438L30.4148 50.9818C30.4454 51.3559 31.0916 59.1305 36.5346 62.4313C33.6493 65.0355 33.0331 67.9721 33.006 68.1121L35.523 68.6219C35.5477 68.5032 36.1703 65.7215 39.248 63.5555C41.0372 64.0005 42.7994 63.8659 44.4403 63.1772C44.528 63.1406 44.6195 63.1019 44.7088 63.0595C44.871 62.9892 45.0268 62.9079 45.1841 62.8206C45.2121 62.8092 45.238 62.794 45.2638 62.7789C45.2734 62.7782 45.2771 62.7761 45.2845 62.7717C45.3583 62.7284 45.4285 62.6873 45.5024 62.644C45.5319 62.6267 45.5615 62.6094 45.5873 62.5942C45.6686 62.5466 45.7499 62.499 45.8268 62.4439C45.8822 62.4115 45.9391 62.3731 45.9902 62.3333C46.0678 62.2878 46.141 62.235 46.2143 62.1821C46.2364 62.1691 46.2564 62.1525 46.2764 62.1358C46.3275 62.0959 46.3844 62.0576 46.4392 62.0156C46.4961 61.9772 46.5472 61.9374 46.5961 61.8938C46.6746 61.8329 46.7493 61.7742 46.8256 61.7097C46.8878 61.6633 46.9478 61.6133 47.0019 61.5617C47.0508 61.5181 47.0997 61.4746 47.1523 61.4289C47.2286 61.3643 47.2991 61.2982 47.371 61.2263C47.4704 61.1333 47.5676 61.0366 47.6648 60.94C47.7619 60.8433 47.857 60.743 47.9535 60.6367C48.1629 60.4098 48.3621 60.1739 48.5548 59.927C48.6225 59.8477 48.6879 59.7646 48.7513 59.6779C48.7513 59.6779 48.7654 59.6597 48.7915 59.6196C48.8119 59.6374 48.8381 59.6568 48.8622 59.6724C50.7875 61.0947 54.3618 62.4686 58.1391 60.3788C58.2136 60.3451 58.2838 60.304 58.3577 60.2607C58.4759 60.1914 58.5978 60.12 58.7154 60.0411C59.5063 59.5279 60.2121 58.9456 60.8363 58.2919C62.8272 56.202 63.9318 53.396 64.0734 50.0477C64.3244 43.9308 61.1786 36.9462 56.5984 33.4326C56.2909 33.1959 55.9805 32.971 55.6749 32.7629C52.0531 30.3004 48.5253 29.6238 46.4571 29.4563C46.0216 28.2476 45.7051 27.0387 45.4912 25.844C45.4407 25.5461 45.3901 25.2482 45.3513 24.9534C45.3103 24.6548 45.2715 24.36 45.2444 24.0682C45.2151 23.7727 45.1917 23.4788 45.1763 23.19C45.1588 22.8976 45.1434 22.6089 45.1397 22.3232C45.1358 22.0625 45.134 21.8055 45.136 21.5463C45.1364 21.293 45.1442 21.0353 45.1541 20.7814C45.1583 20.7293 45.1604 20.6735 45.1609 20.6236C45.1725 20.4232 45.1841 20.2229 45.2001 20.03C45.2162 19.812 45.2346 19.5978 45.2551 19.3873C45.26 19.3448 45.2633 19.3081 45.2666 19.2714C45.2712 19.2538 45.2699 19.2347 45.2708 19.2193C45.295 19.0066 45.3236 18.8013 45.3521 18.596C45.3536 18.5901 45.3552 18.5843 45.353 18.5806C45.3849 18.3386 45.4226 18.0982 45.4625 17.8614C45.5024 17.6246 45.5496 17.3835 45.5954 17.1483L45.6649 16.8098C45.6903 16.7006 45.712 16.5937 45.7373 16.4845L45.7404 16.4728L45.7441 16.4706C45.785 16.2779 45.8302 16.0926 45.8776 15.911C45.9271 15.7331 45.9745 15.5515 46.0263 15.3773C46.0584 15.2542 46.0963 15.1327 46.1365 15.0149C46.2225 14.7214 46.3171 14.4426 46.4102 14.1696C46.4874 13.9458 46.569 13.7292 46.6527 13.5164C46.7364 13.3036 46.8207 13.1004 46.9087 12.8949L46.9124 12.8928C46.9967 12.6895 47.0854 12.4936 47.1799 12.2993C47.1799 12.2993 47.1836 12.2971 47.1815 12.2934C47.252 12.1429 47.3248 11.996 47.3997 11.8529C47.4813 11.6959 47.5614 11.5447 47.6416 11.3935C47.7291 11.238 47.8151 11.0884 47.9032 10.9424C48.1071 10.6046 48.313 10.2953 48.5186 10.0111C48.5693 9.93672 48.6221 9.86604 48.6771 9.79905C48.7635 9.68393 48.8542 9.57619 48.9375 9.47277C48.9821 9.42183 49.0267 9.37089 49.0712 9.31995C49.1121 9.27118 49.1589 9.22393 49.2019 9.17885C49.2607 9.10969 49.3215 9.04424 49.3846 8.98247C49.4529 8.91269 49.5211 8.8429 49.5937 8.78049C49.61 8.76598 49.6226 8.75362 49.6353 8.74127C49.6931 8.68753 49.7494 8.63965 49.8057 8.59176C49.8546 8.54821 49.9057 8.50835 49.953 8.47066C49.993 8.43729 50.0315 8.40978 50.07 8.38228C50.121 8.34242 50.1706 8.30841 50.2238 8.27225C50.294 8.23112 50.3599 8.1826 50.43 8.14147C50.6923 7.98777 50.9519 7.88029 51.2014 7.82338C59.2485 6.02498 62.6472 19.7491 63.9576 24.1272C65.2644 28.5074 71.6506 49.8943 71.6506 49.8943C77.7466 51.5321 85.772 43.9899 90.0956 48.4034C90.3056 48.6178 90.4842 48.8803 90.6294 49.1872Z"/>
</mask>
<path d="M90.6294 49.1872C90.6294 49.1872 90.6452 49.2226 90.656 49.2411C90.661 49.258 90.6718 49.2765 90.6789 49.2971L90.6854 49.3082C90.7083 49.3643 90.7334 49.424 90.7548 49.4859C90.7592 49.4933 90.7657 49.5044 90.7663 49.5139L90.7728 49.525C90.8084 49.6282 90.8463 49.735 90.8767 49.8462C90.9071 49.9574 90.936 50.0745 90.9612 50.1937C90.9864 50.3129 91.0079 50.4343 91.0242 50.5637C91.042 50.6872 91.0583 50.8166 91.0672 50.9503C91.0764 51.0591 91.0803 51.1759 91.0843 51.2927C91.0892 51.4535 91.0905 51.6166 91.0822 51.7802C91.0763 51.9226 91.0689 52.0709 91.0557 52.2176C91.0424 52.3643 91.0255 52.5132 91.0048 52.6642L91.0002 52.6818C91.0002 52.6818 90.9963 52.7089 90.9954 52.7243C90.9765 52.8446 90.9577 52.9648 90.933 53.0835C90.9336 53.0931 90.9321 53.0989 90.929 53.1106C90.9281 53.126 90.9257 53.1473 90.9211 53.1649C90.9031 53.2697 90.883 53.3708 90.8555 53.4763C90.8115 53.6807 90.7565 53.8916 90.6977 54.1047C90.6026 54.4334 90.4926 54.7707 90.3636 55.1094C90.2345 55.448 90.0849 55.7938 89.9198 56.1387C89.8335 56.3133 89.7473 56.4879 89.6515 56.6631C89.2794 57.3576 88.8294 58.063 88.2928 58.7646C88.0263 59.1143 87.7386 59.4616 87.4274 59.8028C87.1184 60.1477 86.7844 60.4923 86.4307 60.8286C86.2609 60.9877 86.0874 61.1489 85.9081 61.3086C85.8881 61.3253 85.8681 61.3419 85.8444 61.3608L85.837 61.3651C85.6829 61.5001 85.5229 61.6336 85.3592 61.7692C85.3408 61.78 85.326 61.7887 85.3119 61.8069C85.3066 61.8149 85.3014 61.8229 85.2919 61.8236C85.2445 61.8613 85.1971 61.899 85.1497 61.9367C84.7943 62.2194 84.4214 62.4975 84.0309 62.771C83.3483 63.2406 82.6145 63.6905 81.8216 64.1155C72.5988 69.0644 66.5094 66.6337 66.5094 66.6337C65.8165 68.1861 61.9171 75.8508 57.8503 79.2417C57.0341 79.9235 55.9195 80.7058 54.5861 81.4873C54.2241 81.6995 53.8504 81.9085 53.4576 82.1189C53.2612 82.2241 53.0626 82.3256 52.8604 82.4292C52.4522 82.6387 52.0359 82.843 51.6 83.0389C51.386 83.1395 51.1661 83.2386 50.9441 83.334C50.8342 83.3835 50.7221 83.4294 50.6101 83.4752C50.405 83.5656 50.1956 83.6486 49.9862 83.7316C49.9656 83.7388 49.9471 83.7496 49.9265 83.7567C49.734 83.8348 49.5431 83.907 49.3463 83.9776C49.176 84.0427 49.0021 84.1099 48.8274 84.1676C48.627 84.2405 48.4206 84.3118 48.2121 84.3794C48.0338 84.4392 47.8497 84.4975 47.6655 84.5559C47.4946 84.6114 47.3252 84.661 47.1521 84.7128C47.1108 84.7271 47.0674 84.7377 47.0261 84.7519C46.8376 84.8029 46.6476 84.8596 46.4532 84.909C46.359 84.9345 46.2684 84.9578 46.172 84.9796C46.01 85.0249 45.8495 85.0644 45.6869 85.1001C45.536 85.139 45.3829 85.1741 45.2239 85.2077C44.9177 85.278 44.6072 85.3409 44.2961 85.3942C44.1408 85.4257 43.9871 85.4513 43.8275 85.4753C43.7459 85.4884 43.6642 85.5015 43.5826 85.5147C43.4554 85.5346 43.3281 85.5546 43.2024 85.5688C43.0693 85.5872 42.9399 85.6035 42.8068 85.622C42.6774 85.6382 42.5422 85.653 42.4106 85.6656C42.1459 85.6967 41.8806 85.7182 41.6153 85.7397C41.3516 85.7553 41.0819 85.7694 40.816 85.7814C40.6801 85.7866 40.5479 85.7896 40.4136 85.789C40.2814 85.792 40.1491 85.7951 40.0126 85.7907C39.8804 85.7938 39.7461 85.7931 39.6132 85.7866C39.4788 85.786 39.346 85.7795 39.2132 85.7729C39.0803 85.7664 38.9438 85.7621 38.8088 85.7519C38.541 85.7352 38.2725 85.7089 38.0077 85.6805C37.8764 85.6681 37.7392 85.6542 37.6036 85.6345C37.4701 85.6184 37.3366 85.6024 37.2025 85.5768C37.0691 85.5607 36.9371 85.5388 36.803 85.5132C36.6711 85.4913 36.537 85.4656 36.4065 85.4379C36.1383 85.3866 35.8753 85.3274 35.608 85.2608C35.4637 85.2262 35.3231 85.1895 35.184 85.147C35.061 85.1149 34.9417 85.0806 34.8202 85.0427C34.6518 84.9925 34.4871 84.9401 34.3203 84.884C34.2339 84.8553 34.1476 84.8265 34.0591 84.794C33.8703 84.7259 33.6772 84.6505 33.4842 84.5751C33.4783 84.5736 33.4725 84.5721 33.4703 84.5684C33.3701 84.5328 33.2714 84.4914 33.1764 84.4479C33.0718 84.4049 32.9731 84.3635 32.8701 84.3147C32.615 84.2012 32.3592 84.0782 32.105 83.9493C31.9363 83.8646 31.7691 83.774 31.5997 83.6797C31.3923 83.563 31.1844 83.4368 30.9764 83.3106C19.1252 75.9596 16.796 66.3974 17.8014 54.2606C17.8218 53.9906 17.8502 53.7258 17.8786 53.461C17.9043 53.2424 17.9301 53.0239 17.9617 52.8069C17.982 52.6213 18.0118 52.4351 18.0416 52.2489C18.1046 51.8398 18.1734 51.4323 18.2561 51.0315C18.2792 50.9186 18.3003 50.8021 18.3272 50.6871C18.3311 50.66 18.3372 50.6365 18.3412 50.6094C18.3836 50.4109 18.4297 50.2101 18.478 50.0131C18.5416 49.7575 18.6052 49.5019 18.6752 49.2574C18.6982 49.1695 18.7211 49.0816 18.744 48.9937C18.7875 48.8392 18.8309 48.6848 18.8787 48.5377C18.9274 48.3752 18.9782 48.2163 19.029 48.0575C19.0799 47.8987 19.1307 47.7399 19.1837 47.5848C19.2594 47.3667 19.3409 47.1502 19.4187 46.9359C19.5137 46.6916 19.6051 46.4495 19.7045 46.2126C19.8973 45.7373 20.1084 45.2762 20.3275 44.8202L20.3312 44.8181C20.4407 44.5901 20.5546 44.3695 20.6685 44.1489C20.8168 43.8685 20.9709 43.5896 21.1257 43.3202C21.2341 43.1326 21.341 42.9509 21.4515 42.767C21.4552 42.7648 21.453 42.7612 21.4567 42.759C21.5553 42.597 21.6576 42.4328 21.7642 42.2761C21.7867 42.2381 21.8112 42.2038 21.8337 42.1659C21.9329 42.0135 22.0358 41.8588 22.1394 41.7138C22.1566 41.6839 22.1759 41.6576 22.1953 41.6314C22.3056 41.4725 22.4159 41.3135 22.5321 41.1561C22.6461 40.995 22.7681 40.8391 22.8901 40.6832C22.9676 40.5783 23.0509 40.4749 23.1342 40.3715C23.2331 40.244 23.3343 40.1202 23.4354 39.9964C23.6131 39.7831 23.7966 39.5713 23.9787 39.3654C24.1109 39.2184 24.2453 39.0752 24.3759 38.9341C24.5318 38.7683 24.6899 38.6061 24.848 38.444C25.1285 38.1605 25.4191 37.886 25.7104 37.621C25.7756 37.5629 25.8409 37.5048 25.9061 37.4467C26.0439 37.3263 26.1817 37.2058 26.318 37.0912C26.4469 36.9809 26.5743 36.8765 26.7038 36.7757C26.7327 36.7489 26.7601 36.7279 26.7912 36.7047C26.8201 36.6778 26.8475 36.6568 26.8748 36.6358C27.0281 36.5162 27.1813 36.3966 27.3367 36.2807C27.5084 36.1503 27.6822 36.0236 27.8546 35.9028C27.97 35.8203 28.0875 35.7414 28.2014 35.6648C28.2931 35.6011 28.3885 35.5353 28.4824 35.4753C28.6406 35.3726 28.7988 35.27 28.9591 35.1711C29.1195 35.0721 29.2798 34.9732 29.4387 34.8801C30.99 33.9709 32.5837 33.2948 34.1398 32.8593C35.3003 32.5364 36.3956 32.4155 37.4414 32.4725C39.0237 32.5475 40.4719 33.0287 41.782 33.7992C43.6191 34.8762 45.1831 36.5202 46.4727 38.4243C47.1977 39.3988 47.8484 40.526 48.3703 41.8229C48.7712 42.6847 49.1234 43.5651 49.4272 44.439C49.5627 44.8311 49.6745 45.2419 49.7567 45.6701C50.3914 48.7173 49.7582 52.5224 48.1996 55.6293C48.1944 55.6373 48.1913 55.649 48.184 55.6534C47.9271 56.2058 47.6459 56.7081 47.3562 57.1707C47.3532 57.1824 47.3516 57.1883 47.3443 57.1926C46.9597 57.815 46.5301 58.3943 46.063 58.9013C45.9397 59.0381 45.8047 59.1718 45.666 59.3077C45.459 59.5133 45.2323 59.7107 44.9858 59.8998C44.9147 59.9564 44.8415 60.0092 44.7682 60.0621C44.7335 60.0874 44.6987 60.1128 44.6581 60.1366C44.6218 60.1678 44.587 60.1931 44.5501 60.2148C44.4362 60.2914 44.3202 60.3644 44.202 60.4337L44.1983 60.4358C43.8474 60.6415 43.4681 60.8241 43.0606 60.9587C42.1278 61.2722 41.0519 61.3668 39.8435 61.0577C33.7245 59.5078 32.9829 50.8761 32.9772 50.7901L31.6941 50.8871L30.9284 50.9438L30.4148 50.9818C30.4454 51.3559 31.0916 59.1305 36.5346 62.4313C33.6493 65.0355 33.0331 67.9721 33.006 68.1121L35.523 68.6219C35.5477 68.5032 36.1703 65.7215 39.248 63.5555C41.0372 64.0005 42.7994 63.8659 44.4403 63.1772C44.528 63.1406 44.6195 63.1019 44.7088 63.0595C44.871 62.9892 45.0268 62.9079 45.1841 62.8206C45.2121 62.8092 45.238 62.794 45.2638 62.7789C45.2734 62.7782 45.2771 62.7761 45.2845 62.7717C45.3583 62.7284 45.4285 62.6873 45.5024 62.644C45.5319 62.6267 45.5615 62.6094 45.5873 62.5942C45.6686 62.5466 45.7499 62.499 45.8268 62.4439C45.8822 62.4115 45.9391 62.3731 45.9902 62.3333C46.0678 62.2878 46.141 62.235 46.2143 62.1821C46.2364 62.1691 46.2564 62.1525 46.2764 62.1358C46.3275 62.0959 46.3844 62.0576 46.4392 62.0156C46.4961 61.9772 46.5472 61.9374 46.5961 61.8938C46.6746 61.8329 46.7493 61.7742 46.8256 61.7097C46.8878 61.6633 46.9478 61.6133 47.0019 61.5617C47.0508 61.5181 47.0997 61.4746 47.1523 61.4289C47.2286 61.3643 47.2991 61.2982 47.371 61.2263C47.4704 61.1333 47.5676 61.0366 47.6648 60.94C47.7619 60.8433 47.857 60.743 47.9535 60.6367C48.1629 60.4098 48.3621 60.1739 48.5548 59.927C48.6225 59.8477 48.6879 59.7646 48.7513 59.6779C48.7513 59.6779 48.7654 59.6597 48.7915 59.6196C48.8119 59.6374 48.8381 59.6568 48.8622 59.6724C50.7875 61.0947 54.3618 62.4686 58.1391 60.3788C58.2136 60.3451 58.2838 60.304 58.3577 60.2607C58.4759 60.1914 58.5978 60.12 58.7154 60.0411C59.5063 59.5279 60.2121 58.9456 60.8363 58.2919C62.8272 56.202 63.9318 53.396 64.0734 50.0477C64.3244 43.9308 61.1786 36.9462 56.5984 33.4326C56.2909 33.1959 55.9805 32.971 55.6749 32.7629C52.0531 30.3004 48.5253 29.6238 46.4571 29.4563C46.0216 28.2476 45.7051 27.0387 45.4912 25.844C45.4407 25.5461 45.3901 25.2482 45.3513 24.9534C45.3103 24.6548 45.2715 24.36 45.2444 24.0682C45.2151 23.7727 45.1917 23.4788 45.1763 23.19C45.1588 22.8976 45.1434 22.6089 45.1397 22.3232C45.1358 22.0625 45.134 21.8055 45.136 21.5463C45.1364 21.293 45.1442 21.0353 45.1541 20.7814C45.1583 20.7293 45.1604 20.6735 45.1609 20.6236C45.1725 20.4232 45.1841 20.2229 45.2001 20.03C45.2162 19.812 45.2346 19.5978 45.2551 19.3873C45.26 19.3448 45.2633 19.3081 45.2666 19.2714C45.2712 19.2538 45.2699 19.2347 45.2708 19.2193C45.295 19.0066 45.3236 18.8013 45.3521 18.596C45.3536 18.5901 45.3552 18.5843 45.353 18.5806C45.3849 18.3386 45.4226 18.0982 45.4625 17.8614C45.5024 17.6246 45.5496 17.3835 45.5954 17.1483L45.6649 16.8098C45.6903 16.7006 45.712 16.5937 45.7373 16.4845L45.7404 16.4728L45.7441 16.4706C45.785 16.2779 45.8302 16.0926 45.8776 15.911C45.9271 15.7331 45.9745 15.5515 46.0263 15.3773C46.0584 15.2542 46.0963 15.1327 46.1365 15.0149C46.2225 14.7214 46.3171 14.4426 46.4102 14.1696C46.4874 13.9458 46.569 13.7292 46.6527 13.5164C46.7364 13.3036 46.8207 13.1004 46.9087 12.8949L46.9124 12.8928C46.9967 12.6895 47.0854 12.4936 47.1799 12.2993C47.1799 12.2993 47.1836 12.2971 47.1815 12.2934C47.252 12.1429 47.3248 11.996 47.3997 11.8529C47.4813 11.6959 47.5614 11.5447 47.6416 11.3935C47.7291 11.238 47.8151 11.0884 47.9032 10.9424C48.1071 10.6046 48.313 10.2953 48.5186 10.0111C48.5693 9.93672 48.6221 9.86604 48.6771 9.79905C48.7635 9.68393 48.8542 9.57619 48.9375 9.47277C48.9821 9.42183 49.0267 9.37089 49.0712 9.31995C49.1121 9.27118 49.1589 9.22393 49.2019 9.17885C49.2607 9.10969 49.3215 9.04424 49.3846 8.98247C49.4529 8.91269 49.5211 8.8429 49.5937 8.78049C49.61 8.76598 49.6226 8.75362 49.6353 8.74127C49.6931 8.68753 49.7494 8.63965 49.8057 8.59176C49.8546 8.54821 49.9057 8.50835 49.953 8.47066C49.993 8.43729 50.0315 8.40978 50.07 8.38228C50.121 8.34242 50.1706 8.30841 50.2238 8.27225C50.294 8.23112 50.3599 8.1826 50.43 8.14147C50.6923 7.98777 50.9519 7.88029 51.2014 7.82338C59.2485 6.02498 62.6472 19.7491 63.9576 24.1272C65.2644 28.5074 71.6506 49.8943 71.6506 49.8943C77.7466 51.5321 85.772 43.9899 90.0956 48.4034C90.3056 48.6178 90.4842 48.8803 90.6294 49.1872Z" fill="white"/>
<path d="M90.6294 49.1872C90.6294 49.1872 90.6452 49.2226 90.656 49.2411C90.661 49.258 90.6718 49.2765 90.6789 49.2971L90.6854 49.3082C90.7083 49.3643 90.7334 49.424 90.7548 49.4859C90.7592 49.4933 90.7657 49.5044 90.7663 49.5139L90.7728 49.525C90.8084 49.6282 90.8463 49.735 90.8767 49.8462C90.9071 49.9574 90.936 50.0745 90.9612 50.1937C90.9864 50.3129 91.0079 50.4343 91.0242 50.5637C91.042 50.6872 91.0583 50.8166 91.0672 50.9503C91.0764 51.0591 91.0803 51.1759 91.0843 51.2927C91.0892 51.4535 91.0905 51.6166 91.0822 51.7802C91.0763 51.9226 91.0689 52.0709 91.0557 52.2176C91.0424 52.3643 91.0255 52.5132 91.0048 52.6642L91.0002 52.6818C91.0002 52.6818 90.9963 52.7089 90.9954 52.7243C90.9765 52.8446 90.9577 52.9648 90.933 53.0835C90.9336 53.0931 90.9321 53.0989 90.929 53.1106C90.9281 53.126 90.9257 53.1473 90.9211 53.1649C90.9031 53.2697 90.883 53.3708 90.8555 53.4763C90.8115 53.6807 90.7565 53.8916 90.6977 54.1047C90.6026 54.4334 90.4926 54.7707 90.3636 55.1094C90.2345 55.448 90.0849 55.7938 89.9198 56.1387C89.8335 56.3133 89.7473 56.4879 89.6515 56.6631C89.2794 57.3576 88.8294 58.063 88.2928 58.7646C88.0263 59.1143 87.7386 59.4616 87.4274 59.8028C87.1184 60.1477 86.7844 60.4923 86.4307 60.8286C86.2609 60.9877 86.0874 61.1489 85.9081 61.3086C85.8881 61.3253 85.8681 61.3419 85.8444 61.3608L85.837 61.3651C85.6829 61.5001 85.5229 61.6336 85.3592 61.7692C85.3408 61.78 85.326 61.7887 85.3119 61.8069C85.3066 61.8149 85.3014 61.8229 85.2919 61.8236C85.2445 61.8613 85.1971 61.899 85.1497 61.9367C84.7943 62.2194 84.4214 62.4975 84.0309 62.771C83.3483 63.2406 82.6145 63.6905 81.8216 64.1155C72.5988 69.0644 66.5094 66.6337 66.5094 66.6337C65.8165 68.1861 61.9171 75.8508 57.8503 79.2417C57.0341 79.9235 55.9195 80.7058 54.5861 81.4873C54.2241 81.6995 53.8504 81.9085 53.4576 82.1189C53.2612 82.2241 53.0626 82.3256 52.8604 82.4292C52.4522 82.6387 52.0359 82.843 51.6 83.0389C51.386 83.1395 51.1661 83.2386 50.9441 83.334C50.8342 83.3835 50.7221 83.4294 50.6101 83.4752C50.405 83.5656 50.1956 83.6486 49.9862 83.7316C49.9656 83.7388 49.9471 83.7496 49.9265 83.7567C49.734 83.8348 49.5431 83.907 49.3463 83.9776C49.176 84.0427 49.0021 84.1099 48.8274 84.1676C48.627 84.2405 48.4206 84.3118 48.2121 84.3794C48.0338 84.4392 47.8497 84.4975 47.6655 84.5559C47.4946 84.6114 47.3252 84.661 47.1521 84.7128C47.1108 84.7271 47.0674 84.7377 47.0261 84.7519C46.8376 84.8029 46.6476 84.8596 46.4532 84.909C46.359 84.9345 46.2684 84.9578 46.172 84.9796C46.01 85.0249 45.8495 85.0644 45.6869 85.1001C45.536 85.139 45.3829 85.1741 45.2239 85.2077C44.9177 85.278 44.6072 85.3409 44.2961 85.3942C44.1408 85.4257 43.9871 85.4513 43.8275 85.4753C43.7459 85.4884 43.6642 85.5015 43.5826 85.5147C43.4554 85.5346 43.3281 85.5546 43.2024 85.5688C43.0693 85.5872 42.9399 85.6035 42.8068 85.622C42.6774 85.6382 42.5422 85.653 42.4106 85.6656C42.1459 85.6967 41.8806 85.7182 41.6153 85.7397C41.3516 85.7553 41.0819 85.7694 40.816 85.7814C40.6801 85.7866 40.5479 85.7896 40.4136 85.789C40.2814 85.792 40.1491 85.7951 40.0126 85.7907C39.8804 85.7938 39.7461 85.7931 39.6132 85.7866C39.4788 85.786 39.346 85.7795 39.2132 85.7729C39.0803 85.7664 38.9438 85.7621 38.8088 85.7519C38.541 85.7352 38.2725 85.7089 38.0077 85.6805C37.8764 85.6681 37.7392 85.6542 37.6036 85.6345C37.4701 85.6184 37.3366 85.6024 37.2025 85.5768C37.0691 85.5607 36.9371 85.5388 36.803 85.5132C36.6711 85.4913 36.537 85.4656 36.4065 85.4379C36.1383 85.3866 35.8753 85.3274 35.608 85.2608C35.4637 85.2262 35.3231 85.1895 35.184 85.147C35.061 85.1149 34.9417 85.0806 34.8202 85.0427C34.6518 84.9925 34.4871 84.9401 34.3203 84.884C34.2339 84.8553 34.1476 84.8265 34.0591 84.794C33.8703 84.7259 33.6772 84.6505 33.4842 84.5751C33.4783 84.5736 33.4725 84.5721 33.4703 84.5684C33.3701 84.5328 33.2714 84.4914 33.1764 84.4479C33.0718 84.4049 32.9731 84.3635 32.8701 84.3147C32.615 84.2012 32.3592 84.0782 32.105 83.9493C31.9363 83.8646 31.7691 83.774 31.5997 83.6797C31.3923 83.563 31.1844 83.4368 30.9764 83.3106C19.1252 75.9596 16.796 66.3974 17.8014 54.2606C17.8218 53.9906 17.8502 53.7258 17.8786 53.461C17.9043 53.2424 17.9301 53.0239 17.9617 52.8069C17.982 52.6213 18.0118 52.4351 18.0416 52.2489C18.1046 51.8398 18.1734 51.4323 18.2561 51.0315C18.2792 50.9186 18.3003 50.8021 18.3272 50.6871C18.3311 50.66 18.3372 50.6365 18.3412 50.6094C18.3836 50.4109 18.4297 50.2101 18.478 50.0131C18.5416 49.7575 18.6052 49.5019 18.6752 49.2574C18.6982 49.1695 18.7211 49.0816 18.744 48.9937C18.7875 48.8392 18.8309 48.6848 18.8787 48.5377C18.9274 48.3752 18.9782 48.2163 19.029 48.0575C19.0799 47.8987 19.1307 47.7399 19.1837 47.5848C19.2594 47.3667 19.3409 47.1502 19.4187 46.9359C19.5137 46.6916 19.6051 46.4495 19.7045 46.2126C19.8973 45.7373 20.1084 45.2762 20.3275 44.8202L20.3312 44.8181C20.4407 44.5901 20.5546 44.3695 20.6685 44.1489C20.8168 43.8685 20.9709 43.5896 21.1257 43.3202C21.2341 43.1326 21.341 42.9509 21.4515 42.767C21.4552 42.7648 21.453 42.7612 21.4567 42.759C21.5553 42.597 21.6576 42.4328 21.7642 42.2761C21.7867 42.2381 21.8112 42.2038 21.8337 42.1659C21.9329 42.0135 22.0358 41.8588 22.1394 41.7138C22.1566 41.6839 22.1759 41.6576 22.1953 41.6314C22.3056 41.4725 22.4159 41.3135 22.5321 41.1561C22.6461 40.995 22.7681 40.8391 22.8901 40.6832C22.9676 40.5783 23.0509 40.4749 23.1342 40.3715C23.2331 40.244 23.3343 40.1202 23.4354 39.9964C23.6131 39.7831 23.7966 39.5713 23.9787 39.3654C24.1109 39.2184 24.2453 39.0752 24.3759 38.9341C24.5318 38.7683 24.6899 38.6061 24.848 38.444C25.1285 38.1605 25.4191 37.886 25.7104 37.621C25.7756 37.5629 25.8409 37.5048 25.9061 37.4467C26.0439 37.3263 26.1817 37.2058 26.318 37.0912C26.4469 36.9809 26.5743 36.8765 26.7038 36.7757C26.7327 36.7489 26.7601 36.7279 26.7912 36.7047C26.8201 36.6778 26.8475 36.6568 26.8748 36.6358C27.0281 36.5162 27.1813 36.3966 27.3367 36.2807C27.5084 36.1503 27.6822 36.0236 27.8546 35.9028C27.97 35.8203 28.0875 35.7414 28.2014 35.6648C28.2931 35.6011 28.3885 35.5353 28.4824 35.4753C28.6406 35.3726 28.7988 35.27 28.9591 35.1711C29.1195 35.0721 29.2798 34.9732 29.4387 34.8801C30.99 33.9709 32.5837 33.2948 34.1398 32.8593C35.3003 32.5364 36.3956 32.4155 37.4414 32.4725C39.0237 32.5475 40.4719 33.0287 41.782 33.7992C43.6191 34.8762 45.1831 36.5202 46.4727 38.4243C47.1977 39.3988 47.8484 40.526 48.3703 41.8229C48.7712 42.6847 49.1234 43.5651 49.4272 44.439C49.5627 44.8311 49.6745 45.2419 49.7567 45.6701C50.3914 48.7173 49.7582 52.5224 48.1996 55.6293C48.1944 55.6373 48.1913 55.649 48.184 55.6534C47.9271 56.2058 47.6459 56.7081 47.3562 57.1707C47.3532 57.1824 47.3516 57.1883 47.3443 57.1926C46.9597 57.815 46.5301 58.3943 46.063 58.9013C45.9397 59.0381 45.8047 59.1718 45.666 59.3077C45.459 59.5133 45.2323 59.7107 44.9858 59.8998C44.9147 59.9564 44.8415 60.0092 44.7682 60.0621C44.7335 60.0874 44.6987 60.1128 44.6581 60.1366C44.6218 60.1678 44.587 60.1931 44.5501 60.2148C44.4362 60.2914 44.3202 60.3644 44.202 60.4337L44.1983 60.4358C43.8474 60.6415 43.4681 60.8241 43.0606 60.9587C42.1278 61.2722 41.0519 61.3668 39.8435 61.0577C33.7245 59.5078 32.9829 50.8761 32.9772 50.7901L31.6941 50.8871L30.9284 50.9438L30.4148 50.9818C30.4454 51.3559 31.0916 59.1305 36.5346 62.4313C33.6493 65.0355 33.0331 67.9721 33.006 68.1121L35.523 68.6219C35.5477 68.5032 36.1703 65.7215 39.248 63.5555C41.0372 64.0005 42.7994 63.8659 44.4403 63.1772C44.528 63.1406 44.6195 63.1019 44.7088 63.0595C44.871 62.9892 45.0268 62.9079 45.1841 62.8206C45.2121 62.8092 45.238 62.794 45.2638 62.7789C45.2734 62.7782 45.2771 62.7761 45.2845 62.7717C45.3583 62.7284 45.4285 62.6873 45.5024 62.644C45.5319 62.6267 45.5615 62.6094 45.5873 62.5942C45.6686 62.5466 45.7499 62.499 45.8268 62.4439C45.8822 62.4115 45.9391 62.3731 45.9902 62.3333C46.0678 62.2878 46.141 62.235 46.2143 62.1821C46.2364 62.1691 46.2564 62.1525 46.2764 62.1358C46.3275 62.0959 46.3844 62.0576 46.4392 62.0156C46.4961 61.9772 46.5472 61.9374 46.5961 61.8938C46.6746 61.8329 46.7493 61.7742 46.8256 61.7097C46.8878 61.6633 46.9478 61.6133 47.0019 61.5617C47.0508 61.5181 47.0997 61.4746 47.1523 61.4289C47.2286 61.3643 47.2991 61.2982 47.371 61.2263C47.4704 61.1333 47.5676 61.0366 47.6648 60.94C47.7619 60.8433 47.857 60.743 47.9535 60.6367C48.1629 60.4098 48.3621 60.1739 48.5548 59.927C48.6225 59.8477 48.6879 59.7646 48.7513 59.6779C48.7513 59.6779 48.7654 59.6597 48.7915 59.6196C48.8119 59.6374 48.8381 59.6568 48.8622 59.6724C50.7875 61.0947 54.3618 62.4686 58.1391 60.3788C58.2136 60.3451 58.2838 60.304 58.3577 60.2607C58.4759 60.1914 58.5978 60.12 58.7154 60.0411C59.5063 59.5279 60.2121 58.9456 60.8363 58.2919C62.8272 56.202 63.9318 53.396 64.0734 50.0477C64.3244 43.9308 61.1786 36.9462 56.5984 33.4326C56.2909 33.1959 55.9805 32.971 55.6749 32.7629C52.0531 30.3004 48.5253 29.6238 46.4571 29.4563C46.0216 28.2476 45.7051 27.0387 45.4912 25.844C45.4407 25.5461 45.3901 25.2482 45.3513 24.9534C45.3103 24.6548 45.2715 24.36 45.2444 24.0682C45.2151 23.7727 45.1917 23.4788 45.1763 23.19C45.1588 22.8976 45.1434 22.6089 45.1397 22.3232C45.1358 22.0625 45.134 21.8055 45.136 21.5463C45.1364 21.293 45.1442 21.0353 45.1541 20.7814C45.1583 20.7293 45.1604 20.6735 45.1609 20.6236C45.1725 20.4232 45.1841 20.2229 45.2001 20.03C45.2162 19.812 45.2346 19.5978 45.2551 19.3873C45.26 19.3448 45.2633 19.3081 45.2666 19.2714C45.2712 19.2538 45.2699 19.2347 45.2708 19.2193C45.295 19.0066 45.3236 18.8013 45.3521 18.596C45.3536 18.5901 45.3552 18.5843 45.353 18.5806C45.3849 18.3386 45.4226 18.0982 45.4625 17.8614C45.5024 17.6246 45.5496 17.3835 45.5954 17.1483L45.6649 16.8098C45.6903 16.7006 45.712 16.5937 45.7373 16.4845L45.7404 16.4728L45.7441 16.4706C45.785 16.2779 45.8302 16.0926 45.8776 15.911C45.9271 15.7331 45.9745 15.5515 46.0263 15.3773C46.0584 15.2542 46.0963 15.1327 46.1365 15.0149C46.2225 14.7214 46.3171 14.4426 46.4102 14.1696C46.4874 13.9458 46.569 13.7292 46.6527 13.5164C46.7364 13.3036 46.8207 13.1004 46.9087 12.8949L46.9124 12.8928C46.9967 12.6895 47.0854 12.4936 47.1799 12.2993C47.1799 12.2993 47.1836 12.2971 47.1815 12.2934C47.252 12.1429 47.3248 11.996 47.3997 11.8529C47.4813 11.6959 47.5614 11.5447 47.6416 11.3935C47.7291 11.238 47.8151 11.0884 47.9032 10.9424C48.1071 10.6046 48.313 10.2953 48.5186 10.0111C48.5693 9.93672 48.6221 9.86604 48.6771 9.79905C48.7635 9.68393 48.8542 9.57619 48.9375 9.47277C48.9821 9.42183 49.0267 9.37089 49.0712 9.31995C49.1121 9.27118 49.1589 9.22393 49.2019 9.17885C49.2607 9.10969 49.3215 9.04424 49.3846 8.98247C49.4529 8.91269 49.5211 8.8429 49.5937 8.78049C49.61 8.76598 49.6226 8.75362 49.6353 8.74127C49.6931 8.68753 49.7494 8.63965 49.8057 8.59176C49.8546 8.54821 49.9057 8.50835 49.953 8.47066C49.993 8.43729 50.0315 8.40978 50.07 8.38228C50.121 8.34242 50.1706 8.30841 50.2238 8.27225C50.294 8.23112 50.3599 8.1826 50.43 8.14147C50.6923 7.98777 50.9519 7.88029 51.2014 7.82338C59.2485 6.02498 62.6472 19.7491 63.9576 24.1272C65.2644 28.5074 71.6506 49.8943 71.6506 49.8943C77.7466 51.5321 85.772 43.9899 90.0956 48.4034C90.3056 48.6178 90.4842 48.8803 90.6294 49.1872Z" stroke="#FF8A8C" stroke-opacity="0.54" stroke-width="6.27787" mask="url(#path-14-outside-2_56_2)"/>
</svg>
