<?xml version="1.0" encoding="iso-8859-1"?>
<!-- Generator: Adobe Illustrator 19.0.0, SVG Export Plug-In . SVG Version: 6.00 Build 0)  -->
<!-- License: CC0. Made by SVG Repo: https://www.svgrepo.com/svg/278554/paste -->
<svg width="83" height="88" viewBox="0 0 83 88" fill="none" xmlns="http://www.w3.org/2000/svg">
<g opacity="0.5">
<path d="M46.2116 53.5801L46.1905 53.5759L46.1529 53.7656C46.149 53.7824 46.1444 53.8025 46.1386 53.8274L46.1403 53.8288L46.1211 53.9255L46.143 53.8303L52.3123 56.7722C52.4711 56.5674 52.6723 56.2611 52.8262 55.8537C52.8944 55.673 52.9351 55.5212 52.9579 55.4258C52.969 55.3795 52.9765 55.3413 52.9807 55.3208L53.0011 55.2183C53.0115 55.1707 53.0209 55.1179 53.0321 55.0622L53.0566 54.9386L53.0547 54.9382C53.0618 54.8994 53.0717 54.8598 53.0782 54.8195L48.798 54.0476M46.2116 53.5801C46.199 53.6209 46.1876 53.6597 46.1777 53.6958L48.9222 54.144L48.798 54.0476M46.2116 53.5801L48.798 54.0476M46.2116 53.5801C46.231 53.517 46.2523 53.4487 46.2781 53.3802C46.4297 52.9792 46.6272 52.6792 46.7799 52.4822L48.798 54.0476" fill="white" stroke="#C6EB0F" stroke-width="7"/>
<path d="M46.1905 53.5759L46.2106 53.5799C46.2886 53.327 46.3698 53.1571 46.3842 53.1265C46.4115 53.0687 46.4365 53.0209 46.4549 52.9862C46.4645 52.968 46.4736 52.9507 46.4818 52.9358C46.4859 52.9284 46.4903 52.921 46.4941 52.9143C46.4959 52.9111 46.4972 52.9075 46.499 52.9044C46.4999 52.9028 46.501 52.9015 46.5019 52.8999L46.5034 52.8973L46.5048 52.8955C46.5085 52.8974 46.5923 52.9449 48.5076 54.0358L53.0566 54.9386L52.9872 55.2883C52.9791 55.3291 52.9668 55.3681 52.9577 55.4068C52.9562 55.4133 52.9552 55.4205 52.9537 55.427L52.9529 55.4258C52.8621 55.8015 52.7358 56.0695 52.7147 56.1143C52.6856 56.1761 52.6588 56.2274 52.6391 56.2646C52.6289 56.2838 52.6194 56.3012 52.6108 56.3167C52.6065 56.3245 52.6024 56.3321 52.5984 56.3391C52.5964 56.3426 52.5952 56.3467 52.5933 56.35C52.5924 56.3516 52.5912 56.3529 52.5904 56.3545L52.5889 56.3571L52.5877 56.3579C52.5801 56.3539 52.4325 56.2712 49.5461 54.6272L52.5873 56.3598L46.1449 53.8307L46.1211 53.9255L46.1405 53.8278L46.1386 53.8274C46.1513 53.7733 46.1641 53.7088 46.1905 53.5759Z" fill="white" stroke="#C6EB0F" stroke-width="7"/>
<path d="M24.5515 29.8982C26.701 27.7864 29.4918 26.7327 31.2283 26.1697L31.7155 26.0175C32.8152 25.6894 33.9378 25.4534 35.078 25.3089C35.1672 25.2935 35.2432 25.2824 35.2997 25.2752C35.3484 25.2691 35.3906 25.2641 35.419 25.2611C35.4331 25.2596 35.4467 25.2583 35.4556 25.2574C35.4658 25.2563 35.4714 25.255 35.476 25.2545L35.4759 25.2554L35.478 25.2549C35.512 25.2502 35.5561 25.2449 35.6074 25.2397C35.6217 25.2383 35.6369 25.2382 35.6528 25.2368C37.1151 25.0821 38.5945 25.0725 40.064 25.2182L40.7036 25.2914L40.7094 25.2926C40.9518 25.3245 41.1875 25.3602 41.3791 25.3896C41.6642 25.4335 41.9344 25.4879 42.118 25.5243C42.4094 25.5822 42.7297 25.6505 43.0573 25.7327L43.0562 25.7334C43.2006 25.769 43.3929 25.8172 43.6024 25.8757C43.6397 25.8847 43.6854 25.896 43.7369 25.9104C43.7455 25.9128 43.7608 25.9191 43.7827 25.9254C43.8903 25.9542 43.9999 25.9845 44.1099 26.0173L44.1339 26.022L44.2881 26.0676C44.6302 26.1689 44.9514 26.2758 45.2479 26.3785L45.2571 26.3823C45.7306 26.5479 46.1947 26.7271 46.6539 26.9194L46.655 26.9187C47.8134 27.3982 48.9588 27.9849 50.0483 28.6833L50.0494 28.6825C50.2637 28.8196 50.4693 28.9575 50.6575 29.085C50.9083 29.2542 51.1448 29.4256 51.3604 29.5869C51.4192 29.6303 51.5203 29.7032 51.6205 29.7809L51.6192 29.7826C51.6865 29.8339 51.7439 29.8773 51.7824 29.9086C52.0195 30.1017 51.6805 29.8261 51.8758 29.9849L51.8733 29.9874C51.9373 30.0374 51.9954 30.0841 52.0433 30.1237L52.0447 30.122C52.1516 30.2049 52.2414 30.2815 52.2913 30.3242C52.3647 30.3871 52.3557 30.381 52.3787 30.4003C52.471 30.4761 52.5689 30.5618 52.6706 30.6554C52.8568 30.8177 53.0281 30.9767 53.1849 31.1288L53.1838 31.1296C53.498 31.4293 53.7774 31.7232 54.0258 31.9986L54.0324 32.0059C54.178 32.1682 54.3344 32.3481 54.4874 32.5373L54.4863 32.538C54.6485 32.7311 54.7902 32.9127 54.8988 33.058L54.9176 33.0836L54.9355 33.1091C55.0389 33.2528 55.1635 33.4256 55.2865 33.6029L55.308 33.635C56.4633 35.3407 57.447 37.5676 57.5585 40.2644L57.5583 40.2703C57.5661 40.4671 57.5652 40.671 57.5653 40.7417L57.5648 40.7545L57.5652 40.7675C57.5645 40.8718 57.5639 41.0607 57.5538 41.2661L57.5517 41.2666C57.5491 41.3465 57.5454 41.4241 57.5394 41.4992C57.5348 41.6219 57.5281 41.7561 57.5119 41.8989C57.5105 41.9157 57.508 41.9335 57.5062 41.9525C57.4967 42.0796 57.488 42.1706 57.487 42.1797L57.4702 42.3247L57.4451 42.4512C57.4371 42.5106 57.4283 42.575 57.4189 42.6431L57.4094 42.7109C57.363 43.005 57.2997 43.3268 57.2132 43.6596C57.2117 43.6655 57.2101 43.6721 57.2082 43.6795C57.2071 43.6839 57.2067 43.6885 57.2056 43.6929L57.2046 43.6928C57.1962 43.7261 57.1829 43.7706 57.1688 43.823L57.1313 44.0117L57.0894 44.1229C57.088 44.1273 57.0871 44.1318 57.0858 44.1361C57.0686 44.1925 57.0494 44.2426 57.0341 44.2861L57.035 44.2863C57.0354 44.2853 57.034 44.2888 57.0303 44.3003C57.026 44.3134 57.0222 44.3269 57.0139 44.3528C57.0007 44.394 56.9718 44.4826 56.9384 44.5778L56.9258 44.6161L56.9113 44.654C56.8196 44.8969 56.7151 45.1463 56.5964 45.403L56.5983 45.4033C56.5927 45.4158 56.5857 45.4279 56.58 45.4405C56.5752 45.4507 56.5716 45.4615 56.5668 45.4718L56.5658 45.4716C56.5116 45.5897 56.4492 45.7122 56.3815 45.8382L56.3835 45.8386C56.3744 45.8562 56.3634 45.8725 56.3544 45.8896C56.3397 45.9165 56.3267 45.9446 56.3113 45.9716L56.3093 45.9712C56.2382 46.102 56.178 46.2106 56.1483 46.2609L56.1233 46.3017L56.0985 46.3416C56.0622 46.3994 55.9747 46.5353 55.8709 46.6857L55.8737 46.6862C55.7998 46.7956 55.7036 46.9335 55.5867 47.0843C55.54 47.1444 55.4409 47.2734 55.3261 47.4089L55.3244 47.4076C55.21 47.5457 55.1142 47.6514 55.0907 47.6768L55.0888 47.6764C55.06 47.7081 55.0378 47.7351 55.0221 47.7518C55.0057 47.7691 54.9896 47.7856 54.9844 47.7911C54.9764 47.7995 54.9787 47.7967 54.9833 47.7919C54.9485 47.8289 54.836 47.9472 54.6972 48.0796C54.6029 48.1738 54.516 48.2566 54.4395 48.3241L54.4405 48.3243C54.4258 48.3376 54.41 48.3504 54.3948 48.364C54.3847 48.3728 54.3753 48.3819 54.3657 48.3901L54.3649 48.389C54.2519 48.4895 54.1246 48.5957 53.9835 48.7055C53.9646 48.7212 53.8519 48.8129 53.7015 48.9224L53.7031 48.9247C53.469 49.099 53.2029 49.2798 52.9041 49.4491L52.9033 49.4479C52.8355 49.4882 52.7642 49.53 52.6897 49.5708C52.5982 49.6245 52.5229 49.6664 52.4714 49.6927C52.4286 49.7146 52.3917 49.7326 52.3786 49.739C52.3572 49.7495 52.3687 49.7438 52.3797 49.7383L52.379 49.7371C51.3156 50.2799 50.3275 50.5548 49.6537 50.6916L48.965 50.8307L48.8462 50.8072L44.512 51.3557L45.2524 47.6148C44.8785 46.7658 44.397 45.8943 43.7751 45.0307L43.7594 45.0097C42.6036 43.4025 40.9304 41.749 38.4751 40.2622C38.0381 39.9987 37.6098 39.7635 37.1977 39.5596L37.1924 39.5566C34.6648 38.3005 32.2956 37.9281 30.1788 38.0092L30.0158 38.0177C28.7043 38.0821 27.4805 38.321 26.3662 38.6534L21.873 39.9927L21.8657 35.304C21.8652 34.9481 21.928 34.5806 21.9634 34.3905L21.9615 34.3901C21.9659 34.3638 21.9729 34.3357 21.9782 34.3058C21.979 34.3018 21.9788 34.2976 21.9795 34.2941L21.9805 34.2943C21.9956 34.2098 22.0118 34.1134 22.0325 34.0169C22.0468 33.9508 22.0687 33.8551 22.0978 33.7481C22.1093 33.7061 22.1591 33.524 22.2525 33.2949L22.2508 33.2936L22.4508 32.8375L22.4562 32.8256L22.4613 32.8147C22.735 32.2315 23.0601 31.6977 23.4187 31.2066L22.2363 29.4387L24.5515 29.8982ZM57.043 44.2461C57.0439 44.2438 57.0445 44.2413 57.0455 44.2386L57.0375 44.2589C57.039 44.2548 57.0414 44.2507 57.043 44.2461ZM57.0299 44.2823L57.0306 44.2785C57.0311 44.2772 57.0319 44.2761 57.0323 44.2748C57.0331 44.2729 57.0329 44.2702 57.0337 44.2681L57.0289 44.2821L57.0299 44.2823ZM57.5216 41.7396C57.5218 41.7352 57.5228 41.7313 57.5229 41.7279C57.5234 41.7165 57.5229 41.7059 57.5231 41.702C57.523 41.704 57.5223 41.7201 57.5216 41.7396Z" fill="white" stroke="#C6EB0F" stroke-width="7"/>
<mask id="path-4-outside-1_56_2" maskUnits="userSpaceOnUse" x="-8.42348" y="-8.7289" width="96.7765" height="103.066" fill="black">
<rect fill="white" x="-8.42348" y="-8.7289" width="96.7765" height="103.066"/>
<path d="M69.8045 11.0284C69.8045 11.0284 69.842 11.0403 69.8633 11.0445C69.8795 11.0522 69.9008 11.0564 69.9213 11.0649L69.9341 11.0674C69.9921 11.0878 70.0543 11.109 70.1157 11.1345C70.1243 11.1362 70.1371 11.1387 70.1447 11.1447L70.1575 11.1472C70.2599 11.1897 70.3665 11.233 70.4714 11.2849C70.5763 11.3367 70.6847 11.3937 70.7921 11.4549C70.8996 11.5161 71.0063 11.5816 71.1155 11.6564C71.2213 11.7261 71.3305 11.801 71.438 11.8844C71.5267 11.9507 71.6181 12.0264 71.7094 12.1022C71.8348 12.2068 71.9594 12.3157 72.0781 12.4323C72.1822 12.5328 72.2898 12.6383 72.3922 12.7472C72.4946 12.8562 72.5962 12.9694 72.697 13.0869L72.7072 13.1022C72.7072 13.1022 72.7252 13.1235 72.7363 13.1346C72.8148 13.2299 72.8934 13.3252 72.9668 13.424C72.9745 13.43 72.9779 13.4351 72.9848 13.4453C72.9959 13.4564 73.0104 13.4725 73.0206 13.4879C73.0881 13.5722 73.1513 13.6556 73.2128 13.7476C73.3383 13.9187 73.4613 14.1026 73.5835 14.2908C73.7689 14.5846 73.9509 14.8954 74.121 15.2217C74.2911 15.5479 74.4527 15.8945 74.6032 16.2523C74.6777 16.4354 74.7521 16.6186 74.8206 16.8094C75.097 17.5599 75.3292 18.377 75.5001 19.2572C75.5859 19.6952 75.6557 20.1477 75.7049 20.6139C75.7585 21.0809 75.795 21.5667 75.8119 22.0619C75.8182 22.298 75.8237 22.5383 75.824 22.7821C75.8232 22.8085 75.8224 22.835 75.8207 22.8656L75.8191 22.8742C75.8177 23.0821 75.8111 23.2935 75.8038 23.5092C75.7996 23.5305 75.7962 23.5476 75.8005 23.5706C75.803 23.5799 75.8056 23.5893 75.7997 23.597C75.7963 23.6584 75.793 23.7197 75.7897 23.7811C75.7648 24.2414 75.7246 24.712 75.669 25.1928C75.5654 26.0274 75.4124 26.8877 75.2006 27.7761C72.7414 38.1128 66.7921 41.0972 66.7921 41.0972C67.5035 42.6696 70.6939 50.7955 70.5271 56.1681C70.4945 57.2473 70.3372 58.6206 70.0317 60.1596C69.9488 60.5774 69.8557 61.002 69.7506 61.442C69.6981 61.6619 69.6413 61.8811 69.5837 62.1045C69.4676 62.5555 69.3421 63.0092 69.197 63.4722C69.1292 63.7025 69.0562 63.9361 68.979 64.1689C68.9425 64.2857 68.9018 64.4017 68.861 64.5177C68.7915 64.7343 68.7134 64.9492 68.6353 65.1641C68.6268 65.1846 68.6225 65.2059 68.614 65.2264C68.5436 65.4251 68.4697 65.6187 68.3907 65.8157C68.3253 65.9888 68.2591 66.1662 68.1852 66.3376C68.1054 66.5389 68.0205 66.7436 67.9313 66.9474C67.8565 67.1231 67.7767 67.3022 67.6968 67.4814C67.6237 67.6485 67.5473 67.8106 67.47 67.9769C67.453 68.0178 67.4317 68.0579 67.4147 68.0989C67.3263 68.2763 67.2414 68.4588 67.1479 68.6397C67.1037 68.7284 67.0603 68.8128 67.0119 68.9007C66.9371 69.0542 66.8589 69.2026 66.7764 69.3502C66.7042 69.491 66.6277 69.6309 66.5461 69.7742C66.3931 70.054 66.2315 70.3321 66.0623 70.6042C65.9815 70.7433 65.8974 70.8772 65.808 71.0146C65.763 71.0854 65.7179 71.1562 65.6728 71.227C65.6023 71.3371 65.5317 71.4471 65.4577 71.5521C65.382 71.6656 65.3071 71.7748 65.2314 71.8882C65.1566 71.9975 65.0766 72.1101 64.9975 72.2184C64.8427 72.4403 64.6802 72.6562 64.5178 72.8721C64.3519 73.0828 64.1809 73.297 64.0107 73.507C63.9231 73.6136 63.8363 73.716 63.7452 73.8176C63.6584 73.92 63.5716 74.0224 63.4763 74.1231C63.3895 74.2255 63.2985 74.3271 63.204 74.4236C63.1129 74.5251 63.0185 74.6216 62.924 74.718C62.8295 74.8145 62.7342 74.9152 62.6355 75.0108C62.4423 75.2029 62.2414 75.389 62.0414 75.5708C61.9435 75.6622 61.8405 75.7569 61.7341 75.8466C61.6319 75.9371 61.5298 76.0276 61.4199 76.1121C61.3178 76.2026 61.2122 76.288 61.1024 76.3726C60.9968 76.458 60.887 76.5425 60.778 76.6228C60.5584 76.7919 60.3361 76.9516 60.1054 77.1096C59.9819 77.1959 59.8593 77.2779 59.7332 77.3548C59.626 77.4266 59.5195 77.494 59.4088 77.5607C59.2572 77.6547 59.1065 77.7444 58.9515 77.8333C58.8714 77.8794 58.7914 77.9256 58.7071 77.9709C58.5282 78.0683 58.3408 78.164 58.1535 78.2598C58.1483 78.2632 58.1432 78.2666 58.139 78.2658C58.0444 78.3179 57.9465 78.3649 57.8494 78.4077C57.7463 78.4581 57.6484 78.5051 57.5419 78.5505C57.2838 78.6676 57.018 78.7788 56.7488 78.8849C56.5708 78.9559 56.3893 79.0218 56.2036 79.0869C55.9753 79.1656 55.7393 79.2384 55.5033 79.3112C41.9355 83.3534 33.1067 78.6767 24.5709 69.7335C24.3797 69.536 24.1978 69.336 24.016 69.136C23.8674 68.9691 23.7189 68.8023 23.5754 68.632C23.4482 68.4916 23.327 68.3434 23.2057 68.1953C22.9376 67.8718 22.6746 67.5449 22.4261 67.212C22.356 67.1183 22.2818 67.0238 22.2126 66.9259C22.1946 66.9046 22.181 66.8842 22.163 66.8629C22.0409 66.6969 21.9196 66.5266 21.8026 66.3571C21.6514 66.1366 21.5002 65.9161 21.3618 65.6981C21.3106 65.6214 21.2593 65.5448 21.2081 65.4681C21.1201 65.331 21.0321 65.1939 20.9526 65.0585C20.862 64.9121 20.7757 64.7664 20.6894 64.6208C20.6031 64.4752 20.5168 64.3296 20.4348 64.1848C20.3203 63.9804 20.2109 63.7726 20.1006 63.569C19.9792 63.3322 19.857 63.0997 19.7442 62.8646C19.5133 62.3979 19.3055 61.9268 19.1071 61.4532L19.1079 61.449C19.0087 61.2121 18.918 60.977 18.8273 60.7419C18.7144 60.4403 18.6065 60.1354 18.5063 59.8363C18.437 59.6276 18.3711 59.424 18.306 59.2161C18.3068 59.2118 18.3026 59.211 18.3034 59.2067C18.2469 59.0227 18.1912 58.8344 18.1441 58.6478C18.1304 58.6052 18.1209 58.5635 18.1072 58.5209C18.0584 58.3428 18.0104 58.1605 17.9701 57.9841C17.9589 57.9509 17.9521 57.9185 17.9452 57.8861C17.8989 57.6953 17.8526 57.5044 17.8114 57.3101C17.7659 57.115 17.7298 56.9173 17.6937 56.7196C17.6663 56.5901 17.6439 56.4572 17.6216 56.3242C17.5915 56.1632 17.5657 56.003 17.5399 55.8428C17.4977 55.5641 17.4606 55.282 17.427 55.0051C17.4045 54.8056 17.3863 54.6071 17.3673 54.4128C17.3465 54.1827 17.33 53.9534 17.3135 53.7241C17.2873 53.3202 17.2748 52.9145 17.2699 52.5147C17.2698 52.4261 17.2697 52.3374 17.2695 52.2488C17.271 52.063 17.2724 51.8771 17.2772 51.6964C17.2804 51.5243 17.287 51.3572 17.2978 51.191C17.2969 51.1509 17.2994 51.1159 17.3027 51.0767C17.3018 51.0367 17.3043 51.0017 17.3068 50.9668C17.3193 50.7699 17.3318 50.5729 17.3486 50.3769C17.3653 50.1587 17.3863 49.9413 17.4107 49.729C17.4259 49.5858 17.4452 49.4434 17.4638 49.3053C17.4773 49.1928 17.4916 49.076 17.5093 48.9643C17.538 48.775 17.5667 48.5858 17.5997 48.3973C17.6327 48.2089 17.6656 48.0205 17.702 47.8372C18.0574 46.0467 18.6183 44.3813 19.3364 42.9065C19.8735 41.8079 20.5199 40.8949 21.268 40.1394C22.3915 38.9888 23.7328 38.2138 25.2007 37.7386C27.2565 37.0698 29.5585 36.9906 31.8731 37.2949C33.1015 37.4014 34.3958 37.6671 35.7322 38.145C36.6565 38.4215 37.5622 38.7475 38.4304 39.1059C38.8193 39.2673 39.2066 39.4594 39.5871 39.6855C42.328 41.2575 44.7898 44.3028 46.0979 47.5799C46.1004 47.5892 46.1073 47.5995 46.1056 47.608C46.3519 48.1753 46.5436 48.7273 46.6995 49.259C46.7064 49.2692 46.7098 49.2743 46.7081 49.2828C46.9214 49.9942 47.0716 50.7108 47.1417 51.4071C47.1624 51.5929 47.1729 51.7855 47.1826 51.9824C47.1992 52.2781 47.1962 52.5833 47.1737 52.8978C47.1687 52.9899 47.1595 53.0811 47.1502 53.1723C47.146 53.2158 47.1418 53.2593 47.1325 53.3062C47.1317 53.3548 47.1275 53.3982 47.1191 53.4409C47.1005 53.579 47.0777 53.7162 47.0506 53.8527L47.0498 53.8569C46.9694 54.2619 46.8524 54.6729 46.6799 55.0729C46.2892 55.9923 45.6359 56.8729 44.5868 57.5819C39.2862 61.1824 32.2338 55.9277 32.1647 55.8741L31.3735 56.9135L30.9005 57.533L30.5832 57.9485C30.8878 58.1774 37.2252 62.9268 43.3994 61.0195C43.4316 64.965 45.2456 67.412 45.3336 67.527L47.417 65.9598C47.3436 65.8611 45.6516 63.5136 46.0816 59.7174C47.6254 58.6591 48.7109 57.2307 49.2939 55.5208C49.3253 55.4296 49.3576 55.3341 49.3856 55.2377C49.4416 55.0672 49.4848 54.8941 49.5246 54.7159C49.5348 54.6869 49.5407 54.657 49.5466 54.6272C49.5526 54.6195 49.5534 54.6153 49.5551 54.6067C49.572 54.5215 49.5881 54.4405 49.605 54.3552C49.6118 54.3211 49.6186 54.287 49.6245 54.2572C49.6431 54.1634 49.6617 54.0696 49.6718 53.9741C49.6845 53.9102 49.6938 53.8411 49.6979 53.7755C49.7157 53.6859 49.7249 53.5947 49.7342 53.5035C49.7393 53.4779 49.7401 53.4515 49.7409 53.4251C49.7451 53.3595 49.7543 53.2904 49.7593 53.2205C49.7686 53.1514 49.7728 53.0858 49.7727 53.0193C49.7794 52.9187 49.7852 52.8224 49.7876 52.721C49.7943 52.6425 49.7967 52.5633 49.7941 52.4874C49.794 52.4209 49.7939 52.3545 49.7946 52.2837C49.797 52.1823 49.7943 52.0843 49.7882 51.9811C49.7846 51.8431 49.7767 51.7041 49.7688 51.5652C49.761 51.4263 49.7488 51.2865 49.7333 51.1416C49.7021 50.8297 49.6574 50.5195 49.5998 50.2068C49.5851 50.102 49.5662 49.9963 49.5431 49.8898C49.5431 49.8898 49.5388 49.8668 49.5259 49.8199C49.5532 49.8165 49.5856 49.8096 49.6137 49.8019C51.991 49.2989 55.443 47.5116 56.4024 43.2356C56.427 43.1563 56.4431 43.0753 56.46 42.9901C56.4871 42.8536 56.515 42.713 56.5344 42.5706C56.6779 41.6243 56.7115 40.696 56.636 39.7815C56.3914 36.8617 55.0057 34.132 52.5594 31.7677C48.085 27.4545 40.6627 25.1351 34.9084 26.2439C34.5215 26.3178 34.1415 26.4019 33.7776 26.4936C29.4672 27.5833 26.5758 29.8054 25.0548 31.2626C23.8438 30.7785 22.7127 30.204 21.6616 29.5611C21.4014 29.3987 21.1412 29.2363 20.8912 29.067C20.637 28.8969 20.387 28.7277 20.1472 28.5516C19.9032 28.3747 19.6643 28.1943 19.4347 28.0114C19.2009 27.8276 18.9714 27.6447 18.752 27.455C18.5515 27.2822 18.3552 27.1104 18.1597 26.9342C17.9677 26.7632 17.7774 26.5836 17.5913 26.4049C17.5546 26.3666 17.5136 26.3274 17.476 26.2934C17.3318 26.1495 17.1875 26.0057 17.0518 25.8636C16.8973 25.7044 16.747 25.5461 16.6011 25.3886C16.572 25.3563 16.5464 25.329 16.5208 25.3018C16.5106 25.2865 16.4952 25.2745 16.4841 25.2635C16.339 25.1017 16.2023 24.9417 16.0657 24.7817C16.0623 24.7766 16.0589 24.7714 16.0546 24.7706C15.8924 24.5833 15.7353 24.3926 15.5824 24.2028C15.4296 24.0129 15.2784 23.8145 15.1307 23.6213L14.9206 23.3403C14.8548 23.2475 14.7882 23.159 14.7225 23.0661L14.7156 23.0559L14.7165 23.0517C14.5978 22.8907 14.4876 22.7315 14.3816 22.5731C14.28 22.4156 14.1741 22.2572 14.0767 22.1005C14.0049 21.9932 13.9383 21.8825 13.8759 21.7727C13.711 21.5095 13.5631 21.2498 13.4187 20.9951C13.3008 20.7856 13.1914 20.5778 13.0862 20.3708C12.9811 20.1639 12.8836 19.9629 12.787 19.7576L12.7879 19.7533C12.6904 19.5523 12.6015 19.353 12.5176 19.1502C12.5176 19.1502 12.5185 19.146 12.5142 19.1451C12.4475 18.9901 12.3851 18.8359 12.3269 18.6826C12.2627 18.5148 12.2019 18.352 12.1412 18.1893C12.0821 18.0181 12.0265 17.852 11.9751 17.6867C11.8561 17.3042 11.7601 16.9395 11.6828 16.5918C11.6605 16.5032 11.6425 16.4155 11.6287 16.3285C11.5996 16.1854 11.5789 16.0439 11.5565 15.911C11.5479 15.8428 11.5393 15.7746 11.5307 15.7065C11.5212 15.6426 11.5168 15.5752 11.5116 15.5122C11.4987 15.421 11.4901 15.3306 11.4857 15.2412C11.4787 15.1423 11.4717 15.0434 11.4733 14.9463C11.4733 14.9241 11.4724 14.9062 11.4715 14.8883C11.4697 14.8082 11.4713 14.7332 11.4729 14.6582C11.4728 14.5917 11.4769 14.526 11.4803 14.4647C11.4819 14.4118 11.4869 14.3641 11.492 14.3163C11.4961 14.2507 11.5037 14.1902 11.5121 14.1254C11.5282 14.0444 11.5358 13.9617 11.5518 13.8807C11.6119 13.578 11.7053 13.3085 11.8302 13.0808C15.8886 5.75989 28.5977 12.4297 32.8044 14.3856C37.0102 16.3458 57.5498 25.9124 57.5498 25.9124C62.9017 22.3885 62.5853 11.2129 68.8497 10.9054C69.1539 10.8905 69.4736 10.9317 69.8045 11.0284Z"/>
</mask>
<path d="M69.8045 11.0284C69.8045 11.0284 69.842 11.0403 69.8633 11.0445C69.8795 11.0522 69.9008 11.0564 69.9213 11.0649L69.9341 11.0674C69.9921 11.0878 70.0543 11.109 70.1157 11.1345C70.1243 11.1362 70.1371 11.1387 70.1447 11.1447L70.1575 11.1472C70.2599 11.1897 70.3665 11.233 70.4714 11.2849C70.5763 11.3367 70.6847 11.3937 70.7921 11.4549C70.8996 11.5161 71.0063 11.5816 71.1155 11.6564C71.2213 11.7261 71.3305 11.801 71.438 11.8844C71.5267 11.9507 71.6181 12.0264 71.7094 12.1022C71.8348 12.2068 71.9594 12.3157 72.0781 12.4323C72.1822 12.5328 72.2898 12.6383 72.3922 12.7472C72.4946 12.8562 72.5962 12.9694 72.697 13.0869L72.7072 13.1022C72.7072 13.1022 72.7252 13.1235 72.7363 13.1346C72.8148 13.2299 72.8934 13.3252 72.9668 13.424C72.9745 13.43 72.9779 13.4351 72.9848 13.4453C72.9959 13.4564 73.0104 13.4725 73.0206 13.4879C73.0881 13.5722 73.1513 13.6556 73.2128 13.7476C73.3383 13.9187 73.4613 14.1026 73.5835 14.2908C73.7689 14.5846 73.9509 14.8954 74.121 15.2217C74.2911 15.5479 74.4527 15.8945 74.6032 16.2523C74.6777 16.4354 74.7521 16.6186 74.8206 16.8094C75.097 17.5599 75.3292 18.377 75.5001 19.2572C75.5859 19.6952 75.6557 20.1477 75.7049 20.6139C75.7585 21.0809 75.795 21.5667 75.8119 22.0619C75.8182 22.298 75.8237 22.5383 75.824 22.7821C75.8232 22.8085 75.8224 22.835 75.8207 22.8656L75.8191 22.8742C75.8177 23.0821 75.8111 23.2935 75.8038 23.5092C75.7996 23.5305 75.7962 23.5476 75.8005 23.5706C75.803 23.5799 75.8056 23.5893 75.7997 23.597C75.7963 23.6584 75.793 23.7197 75.7897 23.7811C75.7648 24.2414 75.7246 24.712 75.669 25.1928C75.5654 26.0274 75.4124 26.8877 75.2006 27.7761C72.7414 38.1128 66.7921 41.0972 66.7921 41.0972C67.5035 42.6696 70.6939 50.7955 70.5271 56.1681C70.4945 57.2473 70.3372 58.6206 70.0317 60.1596C69.9488 60.5774 69.8557 61.002 69.7506 61.442C69.6981 61.6619 69.6413 61.8811 69.5837 62.1045C69.4676 62.5555 69.3421 63.0092 69.197 63.4722C69.1292 63.7025 69.0562 63.9361 68.979 64.1689C68.9425 64.2857 68.9018 64.4017 68.861 64.5177C68.7915 64.7343 68.7134 64.9492 68.6353 65.1641C68.6268 65.1846 68.6225 65.2059 68.614 65.2264C68.5436 65.4251 68.4697 65.6187 68.3907 65.8157C68.3253 65.9888 68.2591 66.1662 68.1852 66.3376C68.1054 66.5389 68.0205 66.7436 67.9313 66.9474C67.8565 67.1231 67.7767 67.3022 67.6968 67.4814C67.6237 67.6485 67.5473 67.8106 67.47 67.9769C67.453 68.0178 67.4317 68.0579 67.4147 68.0989C67.3263 68.2763 67.2414 68.4588 67.1479 68.6397C67.1037 68.7284 67.0603 68.8128 67.0119 68.9007C66.9371 69.0542 66.8589 69.2026 66.7764 69.3502C66.7042 69.491 66.6277 69.6309 66.5461 69.7742C66.3931 70.054 66.2315 70.3321 66.0623 70.6042C65.9815 70.7433 65.8974 70.8772 65.808 71.0146C65.763 71.0854 65.7179 71.1562 65.6728 71.227C65.6023 71.3371 65.5317 71.4471 65.4577 71.5521C65.382 71.6656 65.3071 71.7748 65.2314 71.8882C65.1566 71.9975 65.0766 72.1101 64.9975 72.2184C64.8427 72.4403 64.6802 72.6562 64.5178 72.8721C64.3519 73.0828 64.1809 73.297 64.0107 73.507C63.9231 73.6136 63.8363 73.716 63.7452 73.8176C63.6584 73.92 63.5716 74.0224 63.4763 74.1231C63.3895 74.2255 63.2985 74.3271 63.204 74.4236C63.1129 74.5251 63.0185 74.6216 62.924 74.718C62.8295 74.8145 62.7342 74.9152 62.6355 75.0108C62.4423 75.2029 62.2414 75.389 62.0414 75.5708C61.9435 75.6622 61.8405 75.7569 61.7341 75.8466C61.6319 75.9371 61.5298 76.0276 61.4199 76.1121C61.3178 76.2026 61.2122 76.288 61.1024 76.3726C60.9968 76.458 60.887 76.5425 60.778 76.6228C60.5584 76.7919 60.3361 76.9516 60.1054 77.1096C59.9819 77.1959 59.8593 77.2779 59.7332 77.3548C59.626 77.4266 59.5195 77.494 59.4088 77.5607C59.2572 77.6547 59.1065 77.7444 58.9515 77.8333C58.8714 77.8794 58.7914 77.9256 58.7071 77.9709C58.5282 78.0683 58.3408 78.164 58.1535 78.2598C58.1483 78.2632 58.1432 78.2666 58.139 78.2658C58.0444 78.3179 57.9465 78.3649 57.8494 78.4077C57.7463 78.4581 57.6484 78.5051 57.5419 78.5505C57.2838 78.6676 57.018 78.7788 56.7488 78.8849C56.5708 78.9559 56.3893 79.0218 56.2036 79.0869C55.9753 79.1656 55.7393 79.2384 55.5033 79.3112C41.9355 83.3534 33.1067 78.6767 24.5709 69.7335C24.3797 69.536 24.1978 69.336 24.016 69.136C23.8674 68.9691 23.7189 68.8023 23.5754 68.632C23.4482 68.4916 23.327 68.3434 23.2057 68.1953C22.9376 67.8718 22.6746 67.5449 22.4261 67.212C22.356 67.1183 22.2818 67.0238 22.2126 66.9259C22.1946 66.9046 22.181 66.8842 22.163 66.8629C22.0409 66.6969 21.9196 66.5266 21.8026 66.3571C21.6514 66.1366 21.5002 65.9161 21.3618 65.6981C21.3106 65.6214 21.2593 65.5448 21.2081 65.4681C21.1201 65.331 21.0321 65.1939 20.9526 65.0585C20.862 64.9121 20.7757 64.7664 20.6894 64.6208C20.6031 64.4752 20.5168 64.3296 20.4348 64.1848C20.3203 63.9804 20.2109 63.7726 20.1006 63.569C19.9792 63.3322 19.857 63.0997 19.7442 62.8646C19.5133 62.3979 19.3055 61.9268 19.1071 61.4532L19.1079 61.449C19.0087 61.2121 18.918 60.977 18.8273 60.7419C18.7144 60.4403 18.6065 60.1354 18.5063 59.8363C18.437 59.6276 18.3711 59.424 18.306 59.2161C18.3068 59.2118 18.3026 59.211 18.3034 59.2067C18.2469 59.0227 18.1912 58.8344 18.1441 58.6478C18.1304 58.6052 18.1209 58.5635 18.1072 58.5209C18.0584 58.3428 18.0104 58.1605 17.9701 57.9841C17.9589 57.9509 17.9521 57.9185 17.9452 57.8861C17.8989 57.6953 17.8526 57.5044 17.8114 57.3101C17.7659 57.115 17.7298 56.9173 17.6937 56.7196C17.6663 56.5901 17.6439 56.4572 17.6216 56.3242C17.5915 56.1632 17.5657 56.003 17.5399 55.8428C17.4977 55.5641 17.4606 55.282 17.427 55.0051C17.4045 54.8056 17.3863 54.6071 17.3673 54.4128C17.3465 54.1827 17.33 53.9534 17.3135 53.7241C17.2873 53.3202 17.2748 52.9145 17.2699 52.5147C17.2698 52.4261 17.2697 52.3374 17.2695 52.2488C17.271 52.063 17.2724 51.8771 17.2772 51.6964C17.2804 51.5243 17.287 51.3572 17.2978 51.191C17.2969 51.1509 17.2994 51.1159 17.3027 51.0767C17.3018 51.0367 17.3043 51.0017 17.3068 50.9668C17.3193 50.7699 17.3318 50.5729 17.3486 50.3769C17.3653 50.1587 17.3863 49.9413 17.4107 49.729C17.4259 49.5858 17.4452 49.4434 17.4638 49.3053C17.4773 49.1928 17.4916 49.076 17.5093 48.9643C17.538 48.775 17.5667 48.5858 17.5997 48.3973C17.6327 48.2089 17.6656 48.0205 17.702 47.8372C18.0574 46.0467 18.6183 44.3813 19.3364 42.9065C19.8735 41.8079 20.5199 40.8949 21.268 40.1394C22.3915 38.9888 23.7328 38.2138 25.2007 37.7386C27.2565 37.0698 29.5585 36.9906 31.8731 37.2949C33.1015 37.4014 34.3958 37.6671 35.7322 38.145C36.6565 38.4215 37.5622 38.7475 38.4304 39.1059C38.8193 39.2673 39.2066 39.4594 39.5871 39.6855C42.328 41.2575 44.7898 44.3028 46.0979 47.5799C46.1004 47.5892 46.1073 47.5995 46.1056 47.608C46.3519 48.1753 46.5436 48.7273 46.6995 49.259C46.7064 49.2692 46.7098 49.2743 46.7081 49.2828C46.9214 49.9942 47.0716 50.7108 47.1417 51.4071C47.1624 51.5929 47.1729 51.7855 47.1826 51.9824C47.1992 52.2781 47.1962 52.5833 47.1737 52.8978C47.1687 52.9899 47.1595 53.0811 47.1502 53.1723C47.146 53.2158 47.1418 53.2593 47.1325 53.3062C47.1317 53.3548 47.1275 53.3982 47.1191 53.4409C47.1005 53.579 47.0777 53.7162 47.0506 53.8527L47.0498 53.8569C46.9694 54.2619 46.8524 54.6729 46.6799 55.0729C46.2892 55.9923 45.6359 56.8729 44.5868 57.5819C39.2862 61.1824 32.2338 55.9277 32.1647 55.8741L31.3735 56.9135L30.9005 57.533L30.5832 57.9485C30.8878 58.1774 37.2252 62.9268 43.3994 61.0195C43.4316 64.965 45.2456 67.412 45.3336 67.527L47.417 65.9598C47.3436 65.8611 45.6516 63.5136 46.0816 59.7174C47.6254 58.6591 48.7109 57.2307 49.2939 55.5208C49.3253 55.4296 49.3576 55.3341 49.3856 55.2377C49.4416 55.0672 49.4848 54.8941 49.5246 54.7159C49.5348 54.6869 49.5407 54.657 49.5466 54.6272C49.5526 54.6195 49.5534 54.6153 49.5551 54.6067C49.572 54.5215 49.5881 54.4405 49.605 54.3552C49.6118 54.3211 49.6186 54.287 49.6245 54.2572C49.6431 54.1634 49.6617 54.0696 49.6718 53.9741C49.6845 53.9102 49.6938 53.8411 49.6979 53.7755C49.7157 53.6859 49.7249 53.5947 49.7342 53.5035C49.7393 53.4779 49.7401 53.4515 49.7409 53.4251C49.7451 53.3595 49.7543 53.2904 49.7593 53.2205C49.7686 53.1514 49.7728 53.0858 49.7727 53.0193C49.7794 52.9187 49.7852 52.8224 49.7876 52.721C49.7943 52.6425 49.7967 52.5633 49.7941 52.4874C49.794 52.4209 49.7939 52.3545 49.7946 52.2837C49.797 52.1823 49.7943 52.0843 49.7882 51.9811C49.7846 51.8431 49.7767 51.7041 49.7688 51.5652C49.761 51.4263 49.7488 51.2865 49.7333 51.1416C49.7021 50.8297 49.6574 50.5195 49.5998 50.2068C49.5851 50.102 49.5662 49.9963 49.5431 49.8898C49.5431 49.8898 49.5388 49.8668 49.5259 49.8199C49.5532 49.8165 49.5856 49.8096 49.6137 49.8019C51.991 49.2989 55.443 47.5116 56.4024 43.2356C56.427 43.1563 56.4431 43.0753 56.46 42.9901C56.4871 42.8536 56.515 42.713 56.5344 42.5706C56.6779 41.6243 56.7115 40.696 56.636 39.7815C56.3914 36.8617 55.0057 34.132 52.5594 31.7677C48.085 27.4545 40.6627 25.1351 34.9084 26.2439C34.5215 26.3178 34.1415 26.4019 33.7776 26.4936C29.4672 27.5833 26.5758 29.8054 25.0548 31.2626C23.8438 30.7785 22.7127 30.204 21.6616 29.5611C21.4014 29.3987 21.1412 29.2363 20.8912 29.067C20.637 28.8969 20.387 28.7277 20.1472 28.5516C19.9032 28.3747 19.6643 28.1943 19.4347 28.0114C19.2009 27.8276 18.9714 27.6447 18.752 27.455C18.5515 27.2822 18.3552 27.1104 18.1597 26.9342C17.9677 26.7632 17.7774 26.5836 17.5913 26.4049C17.5546 26.3666 17.5136 26.3274 17.476 26.2934C17.3318 26.1495 17.1875 26.0057 17.0518 25.8636C16.8973 25.7044 16.747 25.5461 16.6011 25.3886C16.572 25.3563 16.5464 25.329 16.5208 25.3018C16.5106 25.2865 16.4952 25.2745 16.4841 25.2635C16.339 25.1017 16.2023 24.9417 16.0657 24.7817C16.0623 24.7766 16.0589 24.7714 16.0546 24.7706C15.8924 24.5833 15.7353 24.3926 15.5824 24.2028C15.4296 24.0129 15.2784 23.8145 15.1307 23.6213L14.9206 23.3403C14.8548 23.2475 14.7882 23.159 14.7225 23.0661L14.7156 23.0559L14.7165 23.0517C14.5978 22.8907 14.4876 22.7315 14.3816 22.5731C14.28 22.4156 14.1741 22.2572 14.0767 22.1005C14.0049 21.9932 13.9383 21.8825 13.8759 21.7727C13.711 21.5095 13.5631 21.2498 13.4187 20.9951C13.3008 20.7856 13.1914 20.5778 13.0862 20.3708C12.9811 20.1639 12.8836 19.9629 12.787 19.7576L12.7879 19.7533C12.6904 19.5523 12.6015 19.353 12.5176 19.1502C12.5176 19.1502 12.5185 19.146 12.5142 19.1451C12.4475 18.9901 12.3851 18.8359 12.3269 18.6826C12.2627 18.5148 12.2019 18.352 12.1412 18.1893C12.0821 18.0181 12.0265 17.852 11.9751 17.6867C11.8561 17.3042 11.7601 16.9395 11.6828 16.5918C11.6605 16.5032 11.6425 16.4155 11.6287 16.3285C11.5996 16.1854 11.5789 16.0439 11.5565 15.911C11.5479 15.8428 11.5393 15.7746 11.5307 15.7065C11.5212 15.6426 11.5168 15.5752 11.5116 15.5122C11.4987 15.421 11.4901 15.3306 11.4857 15.2412C11.4787 15.1423 11.4717 15.0434 11.4733 14.9463C11.4733 14.9241 11.4724 14.9062 11.4715 14.8883C11.4697 14.8082 11.4713 14.7332 11.4729 14.6582C11.4728 14.5917 11.4769 14.526 11.4803 14.4647C11.4819 14.4118 11.4869 14.3641 11.492 14.3163C11.4961 14.2507 11.5037 14.1902 11.5121 14.1254C11.5282 14.0444 11.5358 13.9617 11.5518 13.8807C11.6119 13.578 11.7053 13.3085 11.8302 13.0808C15.8886 5.75989 28.5977 12.4297 32.8044 14.3856C37.0102 16.3458 57.5498 25.9124 57.5498 25.9124C62.9017 22.3885 62.5853 11.2129 68.8497 10.9054C69.1539 10.8905 69.4736 10.9317 69.8045 11.0284Z" fill="white"/>
<path d="M69.8045 11.0284C69.8045 11.0284 69.842 11.0403 69.8633 11.0445C69.8795 11.0522 69.9008 11.0564 69.9213 11.0649L69.9341 11.0674C69.9921 11.0878 70.0543 11.109 70.1157 11.1345C70.1243 11.1362 70.1371 11.1387 70.1447 11.1447L70.1575 11.1472C70.2599 11.1897 70.3665 11.233 70.4714 11.2849C70.5763 11.3367 70.6847 11.3937 70.7921 11.4549C70.8996 11.5161 71.0063 11.5816 71.1155 11.6564C71.2213 11.7261 71.3305 11.801 71.438 11.8844C71.5267 11.9507 71.6181 12.0264 71.7094 12.1022C71.8348 12.2068 71.9594 12.3157 72.0781 12.4323C72.1822 12.5328 72.2898 12.6383 72.3922 12.7472C72.4946 12.8562 72.5962 12.9694 72.697 13.0869L72.7072 13.1022C72.7072 13.1022 72.7252 13.1235 72.7363 13.1346C72.8148 13.2299 72.8934 13.3252 72.9668 13.424C72.9745 13.43 72.9779 13.4351 72.9848 13.4453C72.9959 13.4564 73.0104 13.4725 73.0206 13.4879C73.0881 13.5722 73.1513 13.6556 73.2128 13.7476C73.3383 13.9187 73.4613 14.1026 73.5835 14.2908C73.7689 14.5846 73.9509 14.8954 74.121 15.2217C74.2911 15.5479 74.4527 15.8945 74.6032 16.2523C74.6777 16.4354 74.7521 16.6186 74.8206 16.8094C75.097 17.5599 75.3292 18.377 75.5001 19.2572C75.5859 19.6952 75.6557 20.1477 75.7049 20.6139C75.7585 21.0809 75.795 21.5667 75.8119 22.0619C75.8182 22.298 75.8237 22.5383 75.824 22.7821C75.8232 22.8085 75.8224 22.835 75.8207 22.8656L75.8191 22.8742C75.8177 23.0821 75.8111 23.2935 75.8038 23.5092C75.7996 23.5305 75.7962 23.5476 75.8005 23.5706C75.803 23.5799 75.8056 23.5893 75.7997 23.597C75.7963 23.6584 75.793 23.7197 75.7897 23.7811C75.7648 24.2414 75.7246 24.712 75.669 25.1928C75.5654 26.0274 75.4124 26.8877 75.2006 27.7761C72.7414 38.1128 66.7921 41.0972 66.7921 41.0972C67.5035 42.6696 70.6939 50.7955 70.5271 56.1681C70.4945 57.2473 70.3372 58.6206 70.0317 60.1596C69.9488 60.5774 69.8557 61.002 69.7506 61.442C69.6981 61.6619 69.6413 61.8811 69.5837 62.1045C69.4676 62.5555 69.3421 63.0092 69.197 63.4722C69.1292 63.7025 69.0562 63.9361 68.979 64.1689C68.9425 64.2857 68.9018 64.4017 68.861 64.5177C68.7915 64.7343 68.7134 64.9492 68.6353 65.1641C68.6268 65.1846 68.6225 65.2059 68.614 65.2264C68.5436 65.4251 68.4697 65.6187 68.3907 65.8157C68.3253 65.9888 68.2591 66.1662 68.1852 66.3376C68.1054 66.5389 68.0205 66.7436 67.9313 66.9474C67.8565 67.1231 67.7767 67.3022 67.6968 67.4814C67.6237 67.6485 67.5473 67.8106 67.47 67.9769C67.453 68.0178 67.4317 68.0579 67.4147 68.0989C67.3263 68.2763 67.2414 68.4588 67.1479 68.6397C67.1037 68.7284 67.0603 68.8128 67.0119 68.9007C66.9371 69.0542 66.8589 69.2026 66.7764 69.3502C66.7042 69.491 66.6277 69.6309 66.5461 69.7742C66.3931 70.054 66.2315 70.3321 66.0623 70.6042C65.9815 70.7433 65.8974 70.8772 65.808 71.0146C65.763 71.0854 65.7179 71.1562 65.6728 71.227C65.6023 71.3371 65.5317 71.4471 65.4577 71.5521C65.382 71.6656 65.3071 71.7748 65.2314 71.8882C65.1566 71.9975 65.0766 72.1101 64.9975 72.2184C64.8427 72.4403 64.6802 72.6562 64.5178 72.8721C64.3519 73.0828 64.1809 73.297 64.0107 73.507C63.9231 73.6136 63.8363 73.716 63.7452 73.8176C63.6584 73.92 63.5716 74.0224 63.4763 74.1231C63.3895 74.2255 63.2985 74.3271 63.204 74.4236C63.1129 74.5251 63.0185 74.6216 62.924 74.718C62.8295 74.8145 62.7342 74.9152 62.6355 75.0108C62.4423 75.2029 62.2414 75.389 62.0414 75.5708C61.9435 75.6622 61.8405 75.7569 61.7341 75.8466C61.6319 75.9371 61.5298 76.0276 61.4199 76.1121C61.3178 76.2026 61.2122 76.288 61.1024 76.3726C60.9968 76.458 60.887 76.5425 60.778 76.6228C60.5584 76.7919 60.3361 76.9516 60.1054 77.1096C59.9819 77.1959 59.8593 77.2779 59.7332 77.3548C59.626 77.4266 59.5195 77.494 59.4088 77.5607C59.2572 77.6547 59.1065 77.7444 58.9515 77.8333C58.8714 77.8794 58.7914 77.9256 58.7071 77.9709C58.5282 78.0683 58.3408 78.164 58.1535 78.2598C58.1483 78.2632 58.1432 78.2666 58.139 78.2658C58.0444 78.3179 57.9465 78.3649 57.8494 78.4077C57.7463 78.4581 57.6484 78.5051 57.5419 78.5505C57.2838 78.6676 57.018 78.7788 56.7488 78.8849C56.5708 78.9559 56.3893 79.0218 56.2036 79.0869C55.9753 79.1656 55.7393 79.2384 55.5033 79.3112C41.9355 83.3534 33.1067 78.6767 24.5709 69.7335C24.3797 69.536 24.1978 69.336 24.016 69.136C23.8674 68.9691 23.7189 68.8023 23.5754 68.632C23.4482 68.4916 23.327 68.3434 23.2057 68.1953C22.9376 67.8718 22.6746 67.5449 22.4261 67.212C22.356 67.1183 22.2818 67.0238 22.2126 66.9259C22.1946 66.9046 22.181 66.8842 22.163 66.8629C22.0409 66.6969 21.9196 66.5266 21.8026 66.3571C21.6514 66.1366 21.5002 65.9161 21.3618 65.6981C21.3106 65.6214 21.2593 65.5448 21.2081 65.4681C21.1201 65.331 21.0321 65.1939 20.9526 65.0585C20.862 64.9121 20.7757 64.7664 20.6894 64.6208C20.6031 64.4752 20.5168 64.3296 20.4348 64.1848C20.3203 63.9804 20.2109 63.7726 20.1006 63.569C19.9792 63.3322 19.857 63.0997 19.7442 62.8646C19.5133 62.3979 19.3055 61.9268 19.1071 61.4532L19.1079 61.449C19.0087 61.2121 18.918 60.977 18.8273 60.7419C18.7144 60.4403 18.6065 60.1354 18.5063 59.8363C18.437 59.6276 18.3711 59.424 18.306 59.2161C18.3068 59.2118 18.3026 59.211 18.3034 59.2067C18.2469 59.0227 18.1912 58.8344 18.1441 58.6478C18.1304 58.6052 18.1209 58.5635 18.1072 58.5209C18.0584 58.3428 18.0104 58.1605 17.9701 57.9841C17.9589 57.9509 17.9521 57.9185 17.9452 57.8861C17.8989 57.6953 17.8526 57.5044 17.8114 57.3101C17.7659 57.115 17.7298 56.9173 17.6937 56.7196C17.6663 56.5901 17.6439 56.4572 17.6216 56.3242C17.5915 56.1632 17.5657 56.003 17.5399 55.8428C17.4977 55.5641 17.4606 55.282 17.427 55.0051C17.4045 54.8056 17.3863 54.6071 17.3673 54.4128C17.3465 54.1827 17.33 53.9534 17.3135 53.7241C17.2873 53.3202 17.2748 52.9145 17.2699 52.5147C17.2698 52.4261 17.2697 52.3374 17.2695 52.2488C17.271 52.063 17.2724 51.8771 17.2772 51.6964C17.2804 51.5243 17.287 51.3572 17.2978 51.191C17.2969 51.1509 17.2994 51.1159 17.3027 51.0767C17.3018 51.0367 17.3043 51.0017 17.3068 50.9668C17.3193 50.7699 17.3318 50.5729 17.3486 50.3769C17.3653 50.1587 17.3863 49.9413 17.4107 49.729C17.4259 49.5858 17.4452 49.4434 17.4638 49.3053C17.4773 49.1928 17.4916 49.076 17.5093 48.9643C17.538 48.775 17.5667 48.5858 17.5997 48.3973C17.6327 48.2089 17.6656 48.0205 17.702 47.8372C18.0574 46.0467 18.6183 44.3813 19.3364 42.9065C19.8735 41.8079 20.5199 40.8949 21.268 40.1394C22.3915 38.9888 23.7328 38.2138 25.2007 37.7386C27.2565 37.0698 29.5585 36.9906 31.8731 37.2949C33.1015 37.4014 34.3958 37.6671 35.7322 38.145C36.6565 38.4215 37.5622 38.7475 38.4304 39.1059C38.8193 39.2673 39.2066 39.4594 39.5871 39.6855C42.328 41.2575 44.7898 44.3028 46.0979 47.5799C46.1004 47.5892 46.1073 47.5995 46.1056 47.608C46.3519 48.1753 46.5436 48.7273 46.6995 49.259C46.7064 49.2692 46.7098 49.2743 46.7081 49.2828C46.9214 49.9942 47.0716 50.7108 47.1417 51.4071C47.1624 51.5929 47.1729 51.7855 47.1826 51.9824C47.1992 52.2781 47.1962 52.5833 47.1737 52.8978C47.1687 52.9899 47.1595 53.0811 47.1502 53.1723C47.146 53.2158 47.1418 53.2593 47.1325 53.3062C47.1317 53.3548 47.1275 53.3982 47.1191 53.4409C47.1005 53.579 47.0777 53.7162 47.0506 53.8527L47.0498 53.8569C46.9694 54.2619 46.8524 54.6729 46.6799 55.0729C46.2892 55.9923 45.6359 56.8729 44.5868 57.5819C39.2862 61.1824 32.2338 55.9277 32.1647 55.8741L31.3735 56.9135L30.9005 57.533L30.5832 57.9485C30.8878 58.1774 37.2252 62.9268 43.3994 61.0195C43.4316 64.965 45.2456 67.412 45.3336 67.527L47.417 65.9598C47.3436 65.8611 45.6516 63.5136 46.0816 59.7174C47.6254 58.6591 48.7109 57.2307 49.2939 55.5208C49.3253 55.4296 49.3576 55.3341 49.3856 55.2377C49.4416 55.0672 49.4848 54.8941 49.5246 54.7159C49.5348 54.6869 49.5407 54.657 49.5466 54.6272C49.5526 54.6195 49.5534 54.6153 49.5551 54.6067C49.572 54.5215 49.5881 54.4405 49.605 54.3552C49.6118 54.3211 49.6186 54.287 49.6245 54.2572C49.6431 54.1634 49.6617 54.0696 49.6718 53.9741C49.6845 53.9102 49.6938 53.8411 49.6979 53.7755C49.7157 53.6859 49.7249 53.5947 49.7342 53.5035C49.7393 53.4779 49.7401 53.4515 49.7409 53.4251C49.7451 53.3595 49.7543 53.2904 49.7593 53.2205C49.7686 53.1514 49.7728 53.0858 49.7727 53.0193C49.7794 52.9187 49.7852 52.8224 49.7876 52.721C49.7943 52.6425 49.7967 52.5633 49.7941 52.4874C49.794 52.4209 49.7939 52.3545 49.7946 52.2837C49.797 52.1823 49.7943 52.0843 49.7882 51.9811C49.7846 51.8431 49.7767 51.7041 49.7688 51.5652C49.761 51.4263 49.7488 51.2865 49.7333 51.1416C49.7021 50.8297 49.6574 50.5195 49.5998 50.2068C49.5851 50.102 49.5662 49.9963 49.5431 49.8898C49.5431 49.8898 49.5388 49.8668 49.5259 49.8199C49.5532 49.8165 49.5856 49.8096 49.6137 49.8019C51.991 49.2989 55.443 47.5116 56.4024 43.2356C56.427 43.1563 56.4431 43.0753 56.46 42.9901C56.4871 42.8536 56.515 42.713 56.5344 42.5706C56.6779 41.6243 56.7115 40.696 56.636 39.7815C56.3914 36.8617 55.0057 34.132 52.5594 31.7677C48.085 27.4545 40.6627 25.1351 34.9084 26.2439C34.5215 26.3178 34.1415 26.4019 33.7776 26.4936C29.4672 27.5833 26.5758 29.8054 25.0548 31.2626C23.8438 30.7785 22.7127 30.204 21.6616 29.5611C21.4014 29.3987 21.1412 29.2363 20.8912 29.067C20.637 28.8969 20.387 28.7277 20.1472 28.5516C19.9032 28.3747 19.6643 28.1943 19.4347 28.0114C19.2009 27.8276 18.9714 27.6447 18.752 27.455C18.5515 27.2822 18.3552 27.1104 18.1597 26.9342C17.9677 26.7632 17.7774 26.5836 17.5913 26.4049C17.5546 26.3666 17.5136 26.3274 17.476 26.2934C17.3318 26.1495 17.1875 26.0057 17.0518 25.8636C16.8973 25.7044 16.747 25.5461 16.6011 25.3886C16.572 25.3563 16.5464 25.329 16.5208 25.3018C16.5106 25.2865 16.4952 25.2745 16.4841 25.2635C16.339 25.1017 16.2023 24.9417 16.0657 24.7817C16.0623 24.7766 16.0589 24.7714 16.0546 24.7706C15.8924 24.5833 15.7353 24.3926 15.5824 24.2028C15.4296 24.0129 15.2784 23.8145 15.1307 23.6213L14.9206 23.3403C14.8548 23.2475 14.7882 23.159 14.7225 23.0661L14.7156 23.0559L14.7165 23.0517C14.5978 22.8907 14.4876 22.7315 14.3816 22.5731C14.28 22.4156 14.1741 22.2572 14.0767 22.1005C14.0049 21.9932 13.9383 21.8825 13.8759 21.7727C13.711 21.5095 13.5631 21.2498 13.4187 20.9951C13.3008 20.7856 13.1914 20.5778 13.0862 20.3708C12.9811 20.1639 12.8836 19.9629 12.787 19.7576L12.7879 19.7533C12.6904 19.5523 12.6015 19.353 12.5176 19.1502C12.5176 19.1502 12.5185 19.146 12.5142 19.1451C12.4475 18.9901 12.3851 18.8359 12.3269 18.6826C12.2627 18.5148 12.2019 18.352 12.1412 18.1893C12.0821 18.0181 12.0265 17.852 11.9751 17.6867C11.8561 17.3042 11.7601 16.9395 11.6828 16.5918C11.6605 16.5032 11.6425 16.4155 11.6287 16.3285C11.5996 16.1854 11.5789 16.0439 11.5565 15.911C11.5479 15.8428 11.5393 15.7746 11.5307 15.7065C11.5212 15.6426 11.5168 15.5752 11.5116 15.5122C11.4987 15.421 11.4901 15.3306 11.4857 15.2412C11.4787 15.1423 11.4717 15.0434 11.4733 14.9463C11.4733 14.9241 11.4724 14.9062 11.4715 14.8883C11.4697 14.8082 11.4713 14.7332 11.4729 14.6582C11.4728 14.5917 11.4769 14.526 11.4803 14.4647C11.4819 14.4118 11.4869 14.3641 11.492 14.3163C11.4961 14.2507 11.5037 14.1902 11.5121 14.1254C11.5282 14.0444 11.5358 13.9617 11.5518 13.8807C11.6119 13.578 11.7053 13.3085 11.8302 13.0808C15.8886 5.75989 28.5977 12.4297 32.8044 14.3856C37.0102 16.3458 57.5498 25.9124 57.5498 25.9124C62.9017 22.3885 62.5853 11.2129 68.8497 10.9054C69.1539 10.8905 69.4736 10.9317 69.8045 11.0284Z" stroke="#C6EB0F" stroke-width="14" mask="url(#path-4-outside-1_56_2)"/>
</g>
<path d="M48.7147 54.0759L48.6427 54.0626L48.621 54.1718C48.6083 54.2359 48.5943 54.3081 48.5729 54.3992L48.5756 54.4007L48.5733 54.4122L48.5773 54.4021L50.3365 55.24C50.384 55.1788 50.4428 55.089 50.4876 54.9704C50.5075 54.9177 50.5197 54.8731 50.5265 54.8447L50.5576 54.6876C50.5761 54.6044 50.5957 54.5128 50.6111 54.4184L48.8714 54.104M48.7147 54.0759C48.7084 54.0855 48.7013 54.0951 48.6948 54.1058L48.9215 54.1428L48.8714 54.104M48.7147 54.0759L48.8714 54.104M48.7147 54.0759C48.7299 54.0528 48.7426 54.0314 48.7558 54.0143L48.8714 54.104" fill="white" stroke="#C6EB0F" stroke-width="2"/>
<path d="M48.6427 54.0626L50.6044 54.4519L50.535 54.8016C50.509 54.9324 50.4625 55.0302 50.4544 55.0474C50.4454 55.0664 50.4364 55.0819 50.4303 55.0934C50.4271 55.0994 50.4247 55.105 50.4221 55.1097C50.4209 55.1119 50.4199 55.1141 50.4189 55.116C50.4183 55.1171 50.4167 55.1185 50.4162 55.1195L50.4156 55.1223L48.5775 54.4011L48.5733 54.4122L48.5756 54.4007L48.5729 54.3992C48.5971 54.296 48.6176 54.1889 48.6427 54.0626Z" fill="white" stroke="#C6EB0F" stroke-width="2"/>
<path d="M24.4769 34.5429C24.4846 34.5069 24.5141 34.369 24.5688 34.2355L24.567 34.2342C24.5733 34.2189 24.5816 34.2046 24.5879 34.1895C24.5886 34.1879 24.5882 34.1854 24.589 34.1838L24.5898 34.1849L24.7215 33.8825L24.7247 33.8762C26.1811 30.7728 29.6128 29.321 32 28.547L31.9998 28.548C33.1403 28.1779 34.3064 27.9193 35.4924 27.7756C35.5793 27.7603 35.6596 27.7499 35.7086 27.7449C35.7506 27.7383 35.7842 27.7346 35.8045 27.733C35.8065 27.7329 35.8085 27.7333 35.8104 27.7332C35.8118 27.733 35.8133 27.7322 35.8147 27.7321C35.8251 27.7306 35.8386 27.7296 35.8543 27.728C37.1703 27.5845 38.5003 27.5755 39.8181 27.7063L40.3819 27.7704L40.3828 27.7705C40.594 27.7983 40.8031 27.8309 40.9991 27.861C41.2217 27.8952 41.4389 27.9383 41.6313 27.9765C41.8972 28.0293 42.1741 28.0888 42.4486 28.1576C42.6128 28.1981 42.7918 28.2444 42.9774 28.2974L43.0099 28.3039C43.0235 28.307 43.0423 28.3116 43.064 28.3176C43.0736 28.3203 43.1015 28.3287 43.1406 28.3428C43.2561 28.3736 43.3732 28.4069 43.4891 28.4428L43.5342 28.4518L43.5784 28.4645C43.8702 28.551 44.1516 28.6448 44.4286 28.7408L44.4313 28.7423C44.8594 28.892 45.2802 29.0546 45.6976 29.2296C46.7339 29.6586 47.7498 30.1767 48.7044 30.7891L48.7033 30.7899C48.8934 30.9115 49.0806 31.0359 49.2596 31.1572C49.4732 31.3013 49.6821 31.4518 49.8831 31.6025C49.9397 31.6443 50.0042 31.6936 50.0683 31.7428L50.0694 31.742C50.1604 31.8092 50.2589 31.8931 50.298 31.9248C50.3926 31.997 50.4786 32.0684 50.5434 32.1229L50.5423 32.1236C50.6325 32.1959 50.7407 32.2888 50.7712 32.3144C50.8517 32.3799 50.9335 32.4534 51.0159 32.5313L51.0171 32.5305C51.1632 32.6574 51.3009 32.7867 51.4344 32.916C51.7007 33.1684 51.9439 33.4226 52.1702 33.6733L52.1717 33.6756C52.2962 33.8144 52.4235 33.9615 52.5435 34.1098L52.5424 34.1106C52.6717 34.2622 52.7912 34.4148 52.8962 34.5552L52.9073 34.5693C53.0113 34.7138 53.1235 34.871 53.2324 35.0281L53.2387 35.0363C54.1979 36.4524 54.9718 38.2379 55.0599 40.3679L55.0605 40.37C55.0658 40.5057 55.0645 40.6459 55.0647 40.7451L55.065 40.7532C55.0645 40.8485 55.0612 40.9613 55.0567 41.0811L55.0579 41.0803C55.0593 41.175 55.053 41.2685 55.0441 41.3554C55.0422 41.4444 55.0367 41.5406 55.0242 41.6411C55.0242 41.6424 55.0245 41.6439 55.0244 41.6452C55.024 41.6549 55.0226 41.6689 55.0214 41.6854C55.0205 41.6986 55.017 41.7144 55.015 41.7329C55.0105 41.8056 55.0064 41.8686 55.003 41.8988L54.9978 41.9396L54.9786 42.0363C54.978 42.042 54.9781 42.0476 54.9775 42.052C54.9758 42.0653 54.9729 42.078 54.9711 42.0896C54.962 42.1572 54.9532 42.227 54.943 42.301L54.9392 42.3202C54.9008 42.5634 54.8527 42.8113 54.7886 43.0539L54.7877 43.0538C54.7735 43.1097 54.7543 43.1797 54.7328 43.2549L54.7193 43.3229L54.7056 43.357C54.7009 43.3753 54.6991 43.3927 54.6945 43.4076C54.6873 43.4314 54.6767 43.4533 54.6697 43.4724L54.6716 43.4728C54.6601 43.5064 54.6489 43.5415 54.6335 43.5897C54.6193 43.6338 54.6004 43.691 54.5799 43.7493L54.5767 43.7606L54.5727 43.7707C54.4933 43.9809 54.4076 44.184 54.3133 44.3853L54.3143 44.3855C54.3129 44.3886 54.3109 44.3914 54.3095 44.3945C54.3079 44.3978 54.307 44.4014 54.3055 44.4047L54.3045 44.4045C54.2553 44.5134 54.2006 44.6256 54.1384 44.7349L54.1374 44.7347C54.085 44.8338 54.0335 44.9239 53.994 44.991L53.9877 45.0027L53.9804 45.0142C53.9344 45.0876 53.8707 45.1867 53.801 45.2862L53.8019 45.2864C53.7991 45.2906 53.7954 45.2943 53.7926 45.2985C53.7908 45.3009 53.7897 45.3041 53.788 45.3065L53.787 45.3063C53.7338 45.3844 53.6766 45.4673 53.6108 45.5521C53.5657 45.6103 53.5084 45.6832 53.4452 45.7592C53.4418 45.7636 53.4381 45.7677 53.4347 45.7721C53.4292 45.7787 53.4243 45.7861 53.4187 45.7928L53.4168 45.7924C53.3682 45.8524 53.3208 45.9049 53.2852 45.9435L53.2862 45.9437C53.2548 45.9807 53.2256 46.0129 53.2055 46.0342C53.1646 46.0774 53.1877 46.0516 53.1617 46.0793C53.1204 46.1232 53.059 46.1863 52.9898 46.2532L52.8592 46.3846C52.8247 46.4169 52.7904 46.4459 52.7589 46.4733L52.7599 46.4734C52.6344 46.5874 52.5002 46.7014 52.3503 46.8113L52.3494 46.8111C52.3124 46.8411 52.2629 46.8793 52.2076 46.9184L52.2093 46.9197C52.0488 47.0394 51.8812 47.1517 51.705 47.2537C51.6121 47.3113 51.5102 47.3708 51.4095 47.4231L51.4086 47.4229C51.3792 47.4397 51.3541 47.456 51.3332 47.4667C51.313 47.477 51.2943 47.4856 51.2825 47.4914C51.2681 47.4985 51.2629 47.5012 51.2582 47.5035L51.2572 47.5033C50.4391 47.9231 49.6719 48.1366 49.1564 48.2413L48.9593 48.2808L48.9335 48.2757L47.6373 48.4406L47.8508 47.3649C47.3785 46.1348 46.7212 44.8453 45.8033 43.5704L45.7601 43.5121C44.4049 41.6385 42.4887 39.7698 39.7706 38.1239C39.2782 37.8268 38.7876 37.5566 38.3066 37.3186L38.3049 37.3172C35.3457 35.8467 32.5322 35.408 30.0148 35.5146L29.8932 35.5203C28.3553 35.5958 26.9323 35.8757 25.6519 36.2575L24.3674 36.6398L24.3654 35.3003C24.3652 35.1552 24.4005 34.9473 24.4271 34.8088C24.4415 34.7242 24.4584 34.6286 24.4769 34.5429ZM26.3636 35.3504C26.3637 35.3494 26.3646 35.3473 26.3647 35.3447L26.3642 35.3426C26.3638 35.3459 26.3638 35.3487 26.3636 35.3504Z" fill="white" stroke="#C6EB0F" stroke-width="2"/>
<mask id="path-8-outside-2_56_2" maskUnits="userSpaceOnUse" x="-2.54576" y="-2.85118" width="85.021" height="91.3106" fill="black">
<rect fill="white" x="-2.54576" y="-2.85118" width="85.021" height="91.3106"/>
<path d="M69.8045 11.0284C69.8045 11.0284 69.842 11.0403 69.8633 11.0445C69.8795 11.0522 69.9008 11.0564 69.9213 11.0649L69.9341 11.0674C69.9921 11.0878 70.0543 11.109 70.1157 11.1345C70.1243 11.1362 70.1371 11.1387 70.1447 11.1447L70.1575 11.1472C70.2599 11.1897 70.3665 11.233 70.4714 11.2849C70.5763 11.3367 70.6847 11.3937 70.7921 11.4549C70.8996 11.5161 71.0063 11.5816 71.1155 11.6564C71.2213 11.7261 71.3305 11.801 71.438 11.8844C71.5267 11.9507 71.6181 12.0264 71.7094 12.1022C71.8348 12.2068 71.9594 12.3157 72.0781 12.4323C72.1822 12.5328 72.2898 12.6383 72.3922 12.7472C72.4946 12.8562 72.5962 12.9694 72.697 13.0869L72.7072 13.1022C72.7072 13.1022 72.7252 13.1235 72.7363 13.1346C72.8148 13.2299 72.8934 13.3252 72.9668 13.424C72.9745 13.43 72.9779 13.4351 72.9848 13.4453C72.9959 13.4564 73.0104 13.4725 73.0206 13.4879C73.0881 13.5722 73.1513 13.6556 73.2128 13.7476C73.3383 13.9187 73.4613 14.1026 73.5835 14.2908C73.7689 14.5846 73.9509 14.8954 74.121 15.2217C74.2911 15.5479 74.4527 15.8945 74.6032 16.2523C74.6777 16.4354 74.7521 16.6186 74.8206 16.8094C75.097 17.5599 75.3292 18.377 75.5001 19.2572C75.5859 19.6952 75.6557 20.1477 75.7049 20.6139C75.7585 21.0809 75.795 21.5667 75.8119 22.0619C75.8182 22.298 75.8237 22.5383 75.824 22.7821C75.8232 22.8085 75.8224 22.835 75.8207 22.8656L75.8191 22.8742C75.8177 23.0821 75.8111 23.2935 75.8038 23.5092C75.7996 23.5305 75.7962 23.5476 75.8005 23.5706C75.803 23.5799 75.8056 23.5893 75.7997 23.597C75.7963 23.6584 75.793 23.7197 75.7897 23.7811C75.7648 24.2414 75.7246 24.712 75.669 25.1928C75.5654 26.0274 75.4124 26.8877 75.2006 27.7761C72.7414 38.1128 66.7921 41.0972 66.7921 41.0972C67.5035 42.6696 70.6939 50.7955 70.5271 56.1681C70.4945 57.2473 70.3372 58.6206 70.0317 60.1596C69.9488 60.5774 69.8557 61.002 69.7506 61.442C69.6981 61.6619 69.6413 61.8811 69.5837 62.1045C69.4676 62.5555 69.3421 63.0092 69.197 63.4722C69.1292 63.7025 69.0562 63.9361 68.979 64.1689C68.9425 64.2857 68.9018 64.4017 68.861 64.5177C68.7915 64.7343 68.7134 64.9492 68.6353 65.1641C68.6268 65.1846 68.6225 65.2059 68.614 65.2264C68.5436 65.4251 68.4697 65.6187 68.3907 65.8157C68.3253 65.9888 68.2591 66.1662 68.1852 66.3376C68.1054 66.5389 68.0205 66.7436 67.9313 66.9474C67.8565 67.1231 67.7767 67.3022 67.6968 67.4814C67.6237 67.6485 67.5473 67.8106 67.47 67.9769C67.453 68.0178 67.4317 68.0579 67.4147 68.0989C67.3263 68.2763 67.2414 68.4588 67.1479 68.6397C67.1037 68.7284 67.0603 68.8128 67.0119 68.9007C66.9371 69.0542 66.8589 69.2026 66.7764 69.3502C66.7042 69.491 66.6277 69.6309 66.5461 69.7742C66.3931 70.054 66.2315 70.3321 66.0623 70.6042C65.9815 70.7433 65.8974 70.8772 65.808 71.0146C65.763 71.0854 65.7179 71.1562 65.6728 71.227C65.6023 71.3371 65.5317 71.4471 65.4577 71.5521C65.382 71.6656 65.3071 71.7748 65.2314 71.8882C65.1566 71.9975 65.0766 72.1101 64.9975 72.2184C64.8427 72.4403 64.6802 72.6562 64.5178 72.8721C64.3519 73.0828 64.1809 73.297 64.0107 73.507C63.9231 73.6136 63.8363 73.716 63.7452 73.8176C63.6584 73.92 63.5716 74.0224 63.4763 74.1231C63.3895 74.2255 63.2985 74.3271 63.204 74.4236C63.1129 74.5251 63.0185 74.6216 62.924 74.718C62.8295 74.8145 62.7342 74.9152 62.6355 75.0108C62.4423 75.2029 62.2414 75.389 62.0414 75.5708C61.9435 75.6622 61.8405 75.7569 61.7341 75.8466C61.6319 75.9371 61.5298 76.0276 61.4199 76.1121C61.3178 76.2026 61.2122 76.288 61.1024 76.3726C60.9968 76.458 60.887 76.5425 60.778 76.6228C60.5584 76.7919 60.3361 76.9516 60.1054 77.1096C59.9819 77.1959 59.8593 77.2779 59.7332 77.3548C59.626 77.4266 59.5195 77.494 59.4088 77.5607C59.2572 77.6547 59.1065 77.7444 58.9515 77.8333C58.8714 77.8794 58.7914 77.9256 58.7071 77.9709C58.5282 78.0683 58.3408 78.164 58.1535 78.2598C58.1483 78.2632 58.1432 78.2666 58.139 78.2658C58.0444 78.3179 57.9465 78.3649 57.8494 78.4077C57.7463 78.4581 57.6484 78.5051 57.5419 78.5505C57.2838 78.6676 57.018 78.7788 56.7488 78.8849C56.5708 78.9559 56.3893 79.0218 56.2036 79.0869C55.9753 79.1656 55.7393 79.2384 55.5033 79.3112C41.9355 83.3534 33.1067 78.6767 24.5709 69.7335C24.3797 69.536 24.1978 69.336 24.016 69.136C23.8674 68.9691 23.7189 68.8023 23.5754 68.632C23.4482 68.4916 23.327 68.3434 23.2057 68.1953C22.9376 67.8718 22.6746 67.5449 22.4261 67.212C22.356 67.1183 22.2818 67.0238 22.2126 66.9259C22.1946 66.9046 22.181 66.8842 22.163 66.8629C22.0409 66.6969 21.9196 66.5266 21.8026 66.3571C21.6514 66.1366 21.5002 65.9161 21.3618 65.6981C21.3106 65.6214 21.2593 65.5448 21.2081 65.4681C21.1201 65.331 21.0321 65.1939 20.9526 65.0585C20.862 64.9121 20.7757 64.7664 20.6894 64.6208C20.6031 64.4752 20.5168 64.3296 20.4348 64.1848C20.3203 63.9804 20.2109 63.7726 20.1006 63.569C19.9792 63.3322 19.857 63.0997 19.7442 62.8646C19.5133 62.3979 19.3055 61.9268 19.1071 61.4532L19.1079 61.449C19.0087 61.2121 18.918 60.977 18.8273 60.7419C18.7144 60.4403 18.6065 60.1354 18.5063 59.8363C18.437 59.6276 18.3711 59.424 18.306 59.2161C18.3068 59.2118 18.3026 59.211 18.3034 59.2067C18.2469 59.0227 18.1912 58.8344 18.1441 58.6478C18.1304 58.6052 18.1209 58.5635 18.1072 58.5209C18.0584 58.3428 18.0104 58.1605 17.9701 57.9841C17.9589 57.9509 17.9521 57.9185 17.9452 57.8861C17.8989 57.6953 17.8526 57.5044 17.8114 57.3101C17.7659 57.115 17.7298 56.9173 17.6937 56.7196C17.6663 56.5901 17.6439 56.4572 17.6216 56.3242C17.5915 56.1632 17.5657 56.003 17.5399 55.8428C17.4977 55.5641 17.4606 55.282 17.427 55.0051C17.4045 54.8056 17.3863 54.6071 17.3673 54.4128C17.3465 54.1827 17.33 53.9534 17.3135 53.7241C17.2873 53.3202 17.2748 52.9145 17.2699 52.5147C17.2698 52.4261 17.2697 52.3374 17.2695 52.2488C17.271 52.063 17.2724 51.8771 17.2772 51.6964C17.2804 51.5243 17.287 51.3572 17.2978 51.191C17.2969 51.1509 17.2994 51.1159 17.3027 51.0767C17.3018 51.0367 17.3043 51.0017 17.3068 50.9668C17.3193 50.7699 17.3318 50.5729 17.3486 50.3769C17.3653 50.1587 17.3863 49.9413 17.4107 49.729C17.4259 49.5858 17.4452 49.4434 17.4638 49.3053C17.4773 49.1928 17.4916 49.076 17.5093 48.9643C17.538 48.775 17.5667 48.5858 17.5997 48.3973C17.6327 48.2089 17.6656 48.0205 17.702 47.8372C18.0574 46.0467 18.6183 44.3813 19.3364 42.9065C19.8735 41.8079 20.5199 40.8949 21.268 40.1394C22.3915 38.9888 23.7328 38.2138 25.2007 37.7386C27.2565 37.0698 29.5585 36.9906 31.8731 37.2949C33.1015 37.4014 34.3958 37.6671 35.7322 38.145C36.6565 38.4215 37.5622 38.7475 38.4304 39.1059C38.8193 39.2673 39.2066 39.4594 39.5871 39.6855C42.328 41.2575 44.7898 44.3028 46.0979 47.5799C46.1004 47.5892 46.1073 47.5995 46.1056 47.608C46.3519 48.1753 46.5436 48.7273 46.6995 49.259C46.7064 49.2692 46.7098 49.2743 46.7081 49.2828C46.9214 49.9942 47.0716 50.7108 47.1417 51.4071C47.1624 51.5929 47.1729 51.7855 47.1826 51.9824C47.1992 52.2781 47.1962 52.5833 47.1737 52.8978C47.1687 52.9899 47.1595 53.0811 47.1502 53.1723C47.146 53.2158 47.1418 53.2593 47.1325 53.3062C47.1317 53.3548 47.1275 53.3982 47.1191 53.4409C47.1005 53.579 47.0777 53.7162 47.0506 53.8527L47.0498 53.8569C46.9694 54.2619 46.8524 54.6729 46.6799 55.0729C46.2892 55.9923 45.6359 56.8729 44.5868 57.5819C39.2862 61.1824 32.2338 55.9277 32.1647 55.8741L31.3735 56.9135L30.9005 57.533L30.5832 57.9485C30.8878 58.1774 37.2252 62.9268 43.3994 61.0195C43.4316 64.965 45.2456 67.412 45.3336 67.527L47.417 65.9598C47.3436 65.8611 45.6516 63.5136 46.0816 59.7174C47.6254 58.6591 48.7109 57.2307 49.2939 55.5208C49.3253 55.4296 49.3576 55.3341 49.3856 55.2377C49.4416 55.0672 49.4848 54.8941 49.5246 54.7159C49.5348 54.6869 49.5407 54.657 49.5466 54.6272C49.5526 54.6195 49.5534 54.6153 49.5551 54.6067C49.572 54.5215 49.5881 54.4405 49.605 54.3552C49.6118 54.3211 49.6186 54.287 49.6245 54.2572C49.6431 54.1634 49.6617 54.0696 49.6718 53.9741C49.6845 53.9102 49.6938 53.8411 49.6979 53.7755C49.7157 53.6859 49.7249 53.5947 49.7342 53.5035C49.7393 53.4779 49.7401 53.4515 49.7409 53.4251C49.7451 53.3595 49.7543 53.2904 49.7593 53.2205C49.7686 53.1514 49.7728 53.0858 49.7727 53.0193C49.7794 52.9187 49.7852 52.8224 49.7876 52.721C49.7943 52.6425 49.7967 52.5633 49.7941 52.4874C49.794 52.4209 49.7939 52.3545 49.7946 52.2837C49.797 52.1823 49.7943 52.0843 49.7882 51.9811C49.7846 51.8431 49.7767 51.7041 49.7688 51.5652C49.761 51.4263 49.7488 51.2865 49.7333 51.1416C49.7021 50.8297 49.6574 50.5195 49.5998 50.2068C49.5851 50.102 49.5662 49.9963 49.5431 49.8898C49.5431 49.8898 49.5388 49.8668 49.5259 49.8199C49.5532 49.8165 49.5856 49.8096 49.6137 49.8019C51.991 49.2989 55.443 47.5116 56.4024 43.2356C56.427 43.1563 56.4431 43.0753 56.46 42.9901C56.4871 42.8536 56.515 42.713 56.5344 42.5706C56.6779 41.6243 56.7115 40.696 56.636 39.7815C56.3914 36.8617 55.0057 34.132 52.5594 31.7677C48.085 27.4545 40.6627 25.1351 34.9084 26.2439C34.5215 26.3178 34.1415 26.4019 33.7776 26.4936C29.4672 27.5833 26.5758 29.8054 25.0548 31.2626C23.8438 30.7785 22.7127 30.204 21.6616 29.5611C21.4014 29.3987 21.1412 29.2363 20.8912 29.067C20.637 28.8969 20.387 28.7277 20.1472 28.5516C19.9032 28.3747 19.6643 28.1943 19.4347 28.0114C19.2009 27.8276 18.9714 27.6447 18.752 27.455C18.5515 27.2822 18.3552 27.1104 18.1597 26.9342C17.9677 26.7632 17.7774 26.5836 17.5913 26.4049C17.5546 26.3666 17.5136 26.3274 17.476 26.2934C17.3318 26.1495 17.1875 26.0057 17.0518 25.8636C16.8973 25.7044 16.747 25.5461 16.6011 25.3886C16.572 25.3563 16.5464 25.329 16.5208 25.3018C16.5106 25.2865 16.4952 25.2745 16.4841 25.2635C16.339 25.1017 16.2023 24.9417 16.0657 24.7817C16.0623 24.7766 16.0589 24.7714 16.0546 24.7706C15.8924 24.5833 15.7353 24.3926 15.5824 24.2028C15.4296 24.0129 15.2784 23.8145 15.1307 23.6213L14.9206 23.3403C14.8548 23.2475 14.7882 23.159 14.7225 23.0661L14.7156 23.0559L14.7165 23.0517C14.5978 22.8907 14.4876 22.7315 14.3816 22.5731C14.28 22.4156 14.1741 22.2572 14.0767 22.1005C14.0049 21.9932 13.9383 21.8825 13.8759 21.7727C13.711 21.5095 13.5631 21.2498 13.4187 20.9951C13.3008 20.7856 13.1914 20.5778 13.0862 20.3708C12.9811 20.1639 12.8836 19.9629 12.787 19.7576L12.7879 19.7533C12.6904 19.5523 12.6015 19.353 12.5176 19.1502C12.5176 19.1502 12.5185 19.146 12.5142 19.1451C12.4475 18.9901 12.3851 18.8359 12.3269 18.6826C12.2627 18.5148 12.2019 18.352 12.1412 18.1893C12.0821 18.0181 12.0265 17.852 11.9751 17.6867C11.8561 17.3042 11.7601 16.9395 11.6828 16.5918C11.6605 16.5032 11.6425 16.4155 11.6287 16.3285C11.5996 16.1854 11.5789 16.0439 11.5565 15.911C11.5479 15.8428 11.5393 15.7746 11.5307 15.7065C11.5212 15.6426 11.5168 15.5752 11.5116 15.5122C11.4987 15.421 11.4901 15.3306 11.4857 15.2412C11.4787 15.1423 11.4717 15.0434 11.4733 14.9463C11.4733 14.9241 11.4724 14.9062 11.4715 14.8883C11.4697 14.8082 11.4713 14.7332 11.4729 14.6582C11.4728 14.5917 11.4769 14.526 11.4803 14.4647C11.4819 14.4118 11.4869 14.3641 11.492 14.3163C11.4961 14.2507 11.5037 14.1902 11.5121 14.1254C11.5282 14.0444 11.5358 13.9617 11.5518 13.8807C11.6119 13.578 11.7053 13.3085 11.8302 13.0808C15.8886 5.75989 28.5977 12.4297 32.8044 14.3856C37.0102 16.3458 57.5498 25.9124 57.5498 25.9124C62.9017 22.3885 62.5853 11.2129 68.8497 10.9054C69.1539 10.8905 69.4736 10.9317 69.8045 11.0284Z"/>
</mask>
<path d="M69.8045 11.0284C69.8045 11.0284 69.842 11.0403 69.8633 11.0445C69.8795 11.0522 69.9008 11.0564 69.9213 11.0649L69.9341 11.0674C69.9921 11.0878 70.0543 11.109 70.1157 11.1345C70.1243 11.1362 70.1371 11.1387 70.1447 11.1447L70.1575 11.1472C70.2599 11.1897 70.3665 11.233 70.4714 11.2849C70.5763 11.3367 70.6847 11.3937 70.7921 11.4549C70.8996 11.5161 71.0063 11.5816 71.1155 11.6564C71.2213 11.7261 71.3305 11.801 71.438 11.8844C71.5267 11.9507 71.6181 12.0264 71.7094 12.1022C71.8348 12.2068 71.9594 12.3157 72.0781 12.4323C72.1822 12.5328 72.2898 12.6383 72.3922 12.7472C72.4946 12.8562 72.5962 12.9694 72.697 13.0869L72.7072 13.1022C72.7072 13.1022 72.7252 13.1235 72.7363 13.1346C72.8148 13.2299 72.8934 13.3252 72.9668 13.424C72.9745 13.43 72.9779 13.4351 72.9848 13.4453C72.9959 13.4564 73.0104 13.4725 73.0206 13.4879C73.0881 13.5722 73.1513 13.6556 73.2128 13.7476C73.3383 13.9187 73.4613 14.1026 73.5835 14.2908C73.7689 14.5846 73.9509 14.8954 74.121 15.2217C74.2911 15.5479 74.4527 15.8945 74.6032 16.2523C74.6777 16.4354 74.7521 16.6186 74.8206 16.8094C75.097 17.5599 75.3292 18.377 75.5001 19.2572C75.5859 19.6952 75.6557 20.1477 75.7049 20.6139C75.7585 21.0809 75.795 21.5667 75.8119 22.0619C75.8182 22.298 75.8237 22.5383 75.824 22.7821C75.8232 22.8085 75.8224 22.835 75.8207 22.8656L75.8191 22.8742C75.8177 23.0821 75.8111 23.2935 75.8038 23.5092C75.7996 23.5305 75.7962 23.5476 75.8005 23.5706C75.803 23.5799 75.8056 23.5893 75.7997 23.597C75.7963 23.6584 75.793 23.7197 75.7897 23.7811C75.7648 24.2414 75.7246 24.712 75.669 25.1928C75.5654 26.0274 75.4124 26.8877 75.2006 27.7761C72.7414 38.1128 66.7921 41.0972 66.7921 41.0972C67.5035 42.6696 70.6939 50.7955 70.5271 56.1681C70.4945 57.2473 70.3372 58.6206 70.0317 60.1596C69.9488 60.5774 69.8557 61.002 69.7506 61.442C69.6981 61.6619 69.6413 61.8811 69.5837 62.1045C69.4676 62.5555 69.3421 63.0092 69.197 63.4722C69.1292 63.7025 69.0562 63.9361 68.979 64.1689C68.9425 64.2857 68.9018 64.4017 68.861 64.5177C68.7915 64.7343 68.7134 64.9492 68.6353 65.1641C68.6268 65.1846 68.6225 65.2059 68.614 65.2264C68.5436 65.4251 68.4697 65.6187 68.3907 65.8157C68.3253 65.9888 68.2591 66.1662 68.1852 66.3376C68.1054 66.5389 68.0205 66.7436 67.9313 66.9474C67.8565 67.1231 67.7767 67.3022 67.6968 67.4814C67.6237 67.6485 67.5473 67.8106 67.47 67.9769C67.453 68.0178 67.4317 68.0579 67.4147 68.0989C67.3263 68.2763 67.2414 68.4588 67.1479 68.6397C67.1037 68.7284 67.0603 68.8128 67.0119 68.9007C66.9371 69.0542 66.8589 69.2026 66.7764 69.3502C66.7042 69.491 66.6277 69.6309 66.5461 69.7742C66.3931 70.054 66.2315 70.3321 66.0623 70.6042C65.9815 70.7433 65.8974 70.8772 65.808 71.0146C65.763 71.0854 65.7179 71.1562 65.6728 71.227C65.6023 71.3371 65.5317 71.4471 65.4577 71.5521C65.382 71.6656 65.3071 71.7748 65.2314 71.8882C65.1566 71.9975 65.0766 72.1101 64.9975 72.2184C64.8427 72.4403 64.6802 72.6562 64.5178 72.8721C64.3519 73.0828 64.1809 73.297 64.0107 73.507C63.9231 73.6136 63.8363 73.716 63.7452 73.8176C63.6584 73.92 63.5716 74.0224 63.4763 74.1231C63.3895 74.2255 63.2985 74.3271 63.204 74.4236C63.1129 74.5251 63.0185 74.6216 62.924 74.718C62.8295 74.8145 62.7342 74.9152 62.6355 75.0108C62.4423 75.2029 62.2414 75.389 62.0414 75.5708C61.9435 75.6622 61.8405 75.7569 61.7341 75.8466C61.6319 75.9371 61.5298 76.0276 61.4199 76.1121C61.3178 76.2026 61.2122 76.288 61.1024 76.3726C60.9968 76.458 60.887 76.5425 60.778 76.6228C60.5584 76.7919 60.3361 76.9516 60.1054 77.1096C59.9819 77.1959 59.8593 77.2779 59.7332 77.3548C59.626 77.4266 59.5195 77.494 59.4088 77.5607C59.2572 77.6547 59.1065 77.7444 58.9515 77.8333C58.8714 77.8794 58.7914 77.9256 58.7071 77.9709C58.5282 78.0683 58.3408 78.164 58.1535 78.2598C58.1483 78.2632 58.1432 78.2666 58.139 78.2658C58.0444 78.3179 57.9465 78.3649 57.8494 78.4077C57.7463 78.4581 57.6484 78.5051 57.5419 78.5505C57.2838 78.6676 57.018 78.7788 56.7488 78.8849C56.5708 78.9559 56.3893 79.0218 56.2036 79.0869C55.9753 79.1656 55.7393 79.2384 55.5033 79.3112C41.9355 83.3534 33.1067 78.6767 24.5709 69.7335C24.3797 69.536 24.1978 69.336 24.016 69.136C23.8674 68.9691 23.7189 68.8023 23.5754 68.632C23.4482 68.4916 23.327 68.3434 23.2057 68.1953C22.9376 67.8718 22.6746 67.5449 22.4261 67.212C22.356 67.1183 22.2818 67.0238 22.2126 66.9259C22.1946 66.9046 22.181 66.8842 22.163 66.8629C22.0409 66.6969 21.9196 66.5266 21.8026 66.3571C21.6514 66.1366 21.5002 65.9161 21.3618 65.6981C21.3106 65.6214 21.2593 65.5448 21.2081 65.4681C21.1201 65.331 21.0321 65.1939 20.9526 65.0585C20.862 64.9121 20.7757 64.7664 20.6894 64.6208C20.6031 64.4752 20.5168 64.3296 20.4348 64.1848C20.3203 63.9804 20.2109 63.7726 20.1006 63.569C19.9792 63.3322 19.857 63.0997 19.7442 62.8646C19.5133 62.3979 19.3055 61.9268 19.1071 61.4532L19.1079 61.449C19.0087 61.2121 18.918 60.977 18.8273 60.7419C18.7144 60.4403 18.6065 60.1354 18.5063 59.8363C18.437 59.6276 18.3711 59.424 18.306 59.2161C18.3068 59.2118 18.3026 59.211 18.3034 59.2067C18.2469 59.0227 18.1912 58.8344 18.1441 58.6478C18.1304 58.6052 18.1209 58.5635 18.1072 58.5209C18.0584 58.3428 18.0104 58.1605 17.9701 57.9841C17.9589 57.9509 17.9521 57.9185 17.9452 57.8861C17.8989 57.6953 17.8526 57.5044 17.8114 57.3101C17.7659 57.115 17.7298 56.9173 17.6937 56.7196C17.6663 56.5901 17.6439 56.4572 17.6216 56.3242C17.5915 56.1632 17.5657 56.003 17.5399 55.8428C17.4977 55.5641 17.4606 55.282 17.427 55.0051C17.4045 54.8056 17.3863 54.6071 17.3673 54.4128C17.3465 54.1827 17.33 53.9534 17.3135 53.7241C17.2873 53.3202 17.2748 52.9145 17.2699 52.5147C17.2698 52.4261 17.2697 52.3374 17.2695 52.2488C17.271 52.063 17.2724 51.8771 17.2772 51.6964C17.2804 51.5243 17.287 51.3572 17.2978 51.191C17.2969 51.1509 17.2994 51.1159 17.3027 51.0767C17.3018 51.0367 17.3043 51.0017 17.3068 50.9668C17.3193 50.7699 17.3318 50.5729 17.3486 50.3769C17.3653 50.1587 17.3863 49.9413 17.4107 49.729C17.4259 49.5858 17.4452 49.4434 17.4638 49.3053C17.4773 49.1928 17.4916 49.076 17.5093 48.9643C17.538 48.775 17.5667 48.5858 17.5997 48.3973C17.6327 48.2089 17.6656 48.0205 17.702 47.8372C18.0574 46.0467 18.6183 44.3813 19.3364 42.9065C19.8735 41.8079 20.5199 40.8949 21.268 40.1394C22.3915 38.9888 23.7328 38.2138 25.2007 37.7386C27.2565 37.0698 29.5585 36.9906 31.8731 37.2949C33.1015 37.4014 34.3958 37.6671 35.7322 38.145C36.6565 38.4215 37.5622 38.7475 38.4304 39.1059C38.8193 39.2673 39.2066 39.4594 39.5871 39.6855C42.328 41.2575 44.7898 44.3028 46.0979 47.5799C46.1004 47.5892 46.1073 47.5995 46.1056 47.608C46.3519 48.1753 46.5436 48.7273 46.6995 49.259C46.7064 49.2692 46.7098 49.2743 46.7081 49.2828C46.9214 49.9942 47.0716 50.7108 47.1417 51.4071C47.1624 51.5929 47.1729 51.7855 47.1826 51.9824C47.1992 52.2781 47.1962 52.5833 47.1737 52.8978C47.1687 52.9899 47.1595 53.0811 47.1502 53.1723C47.146 53.2158 47.1418 53.2593 47.1325 53.3062C47.1317 53.3548 47.1275 53.3982 47.1191 53.4409C47.1005 53.579 47.0777 53.7162 47.0506 53.8527L47.0498 53.8569C46.9694 54.2619 46.8524 54.6729 46.6799 55.0729C46.2892 55.9923 45.6359 56.8729 44.5868 57.5819C39.2862 61.1824 32.2338 55.9277 32.1647 55.8741L31.3735 56.9135L30.9005 57.533L30.5832 57.9485C30.8878 58.1774 37.2252 62.9268 43.3994 61.0195C43.4316 64.965 45.2456 67.412 45.3336 67.527L47.417 65.9598C47.3436 65.8611 45.6516 63.5136 46.0816 59.7174C47.6254 58.6591 48.7109 57.2307 49.2939 55.5208C49.3253 55.4296 49.3576 55.3341 49.3856 55.2377C49.4416 55.0672 49.4848 54.8941 49.5246 54.7159C49.5348 54.6869 49.5407 54.657 49.5466 54.6272C49.5526 54.6195 49.5534 54.6153 49.5551 54.6067C49.572 54.5215 49.5881 54.4405 49.605 54.3552C49.6118 54.3211 49.6186 54.287 49.6245 54.2572C49.6431 54.1634 49.6617 54.0696 49.6718 53.9741C49.6845 53.9102 49.6938 53.8411 49.6979 53.7755C49.7157 53.6859 49.7249 53.5947 49.7342 53.5035C49.7393 53.4779 49.7401 53.4515 49.7409 53.4251C49.7451 53.3595 49.7543 53.2904 49.7593 53.2205C49.7686 53.1514 49.7728 53.0858 49.7727 53.0193C49.7794 52.9187 49.7852 52.8224 49.7876 52.721C49.7943 52.6425 49.7967 52.5633 49.7941 52.4874C49.794 52.4209 49.7939 52.3545 49.7946 52.2837C49.797 52.1823 49.7943 52.0843 49.7882 51.9811C49.7846 51.8431 49.7767 51.7041 49.7688 51.5652C49.761 51.4263 49.7488 51.2865 49.7333 51.1416C49.7021 50.8297 49.6574 50.5195 49.5998 50.2068C49.5851 50.102 49.5662 49.9963 49.5431 49.8898C49.5431 49.8898 49.5388 49.8668 49.5259 49.8199C49.5532 49.8165 49.5856 49.8096 49.6137 49.8019C51.991 49.2989 55.443 47.5116 56.4024 43.2356C56.427 43.1563 56.4431 43.0753 56.46 42.9901C56.4871 42.8536 56.515 42.713 56.5344 42.5706C56.6779 41.6243 56.7115 40.696 56.636 39.7815C56.3914 36.8617 55.0057 34.132 52.5594 31.7677C48.085 27.4545 40.6627 25.1351 34.9084 26.2439C34.5215 26.3178 34.1415 26.4019 33.7776 26.4936C29.4672 27.5833 26.5758 29.8054 25.0548 31.2626C23.8438 30.7785 22.7127 30.204 21.6616 29.5611C21.4014 29.3987 21.1412 29.2363 20.8912 29.067C20.637 28.8969 20.387 28.7277 20.1472 28.5516C19.9032 28.3747 19.6643 28.1943 19.4347 28.0114C19.2009 27.8276 18.9714 27.6447 18.752 27.455C18.5515 27.2822 18.3552 27.1104 18.1597 26.9342C17.9677 26.7632 17.7774 26.5836 17.5913 26.4049C17.5546 26.3666 17.5136 26.3274 17.476 26.2934C17.3318 26.1495 17.1875 26.0057 17.0518 25.8636C16.8973 25.7044 16.747 25.5461 16.6011 25.3886C16.572 25.3563 16.5464 25.329 16.5208 25.3018C16.5106 25.2865 16.4952 25.2745 16.4841 25.2635C16.339 25.1017 16.2023 24.9417 16.0657 24.7817C16.0623 24.7766 16.0589 24.7714 16.0546 24.7706C15.8924 24.5833 15.7353 24.3926 15.5824 24.2028C15.4296 24.0129 15.2784 23.8145 15.1307 23.6213L14.9206 23.3403C14.8548 23.2475 14.7882 23.159 14.7225 23.0661L14.7156 23.0559L14.7165 23.0517C14.5978 22.8907 14.4876 22.7315 14.3816 22.5731C14.28 22.4156 14.1741 22.2572 14.0767 22.1005C14.0049 21.9932 13.9383 21.8825 13.8759 21.7727C13.711 21.5095 13.5631 21.2498 13.4187 20.9951C13.3008 20.7856 13.1914 20.5778 13.0862 20.3708C12.9811 20.1639 12.8836 19.9629 12.787 19.7576L12.7879 19.7533C12.6904 19.5523 12.6015 19.353 12.5176 19.1502C12.5176 19.1502 12.5185 19.146 12.5142 19.1451C12.4475 18.9901 12.3851 18.8359 12.3269 18.6826C12.2627 18.5148 12.2019 18.352 12.1412 18.1893C12.0821 18.0181 12.0265 17.852 11.9751 17.6867C11.8561 17.3042 11.7601 16.9395 11.6828 16.5918C11.6605 16.5032 11.6425 16.4155 11.6287 16.3285C11.5996 16.1854 11.5789 16.0439 11.5565 15.911C11.5479 15.8428 11.5393 15.7746 11.5307 15.7065C11.5212 15.6426 11.5168 15.5752 11.5116 15.5122C11.4987 15.421 11.4901 15.3306 11.4857 15.2412C11.4787 15.1423 11.4717 15.0434 11.4733 14.9463C11.4733 14.9241 11.4724 14.9062 11.4715 14.8883C11.4697 14.8082 11.4713 14.7332 11.4729 14.6582C11.4728 14.5917 11.4769 14.526 11.4803 14.4647C11.4819 14.4118 11.4869 14.3641 11.492 14.3163C11.4961 14.2507 11.5037 14.1902 11.5121 14.1254C11.5282 14.0444 11.5358 13.9617 11.5518 13.8807C11.6119 13.578 11.7053 13.3085 11.8302 13.0808C15.8886 5.75989 28.5977 12.4297 32.8044 14.3856C37.0102 16.3458 57.5498 25.9124 57.5498 25.9124C62.9017 22.3885 62.5853 11.2129 68.8497 10.9054C69.1539 10.8905 69.4736 10.9317 69.8045 11.0284Z" fill="white"/>
<path d="M69.8045 11.0284C69.8045 11.0284 69.842 11.0403 69.8633 11.0445C69.8795 11.0522 69.9008 11.0564 69.9213 11.0649L69.9341 11.0674C69.9921 11.0878 70.0543 11.109 70.1157 11.1345C70.1243 11.1362 70.1371 11.1387 70.1447 11.1447L70.1575 11.1472C70.2599 11.1897 70.3665 11.233 70.4714 11.2849C70.5763 11.3367 70.6847 11.3937 70.7921 11.4549C70.8996 11.5161 71.0063 11.5816 71.1155 11.6564C71.2213 11.7261 71.3305 11.801 71.438 11.8844C71.5267 11.9507 71.6181 12.0264 71.7094 12.1022C71.8348 12.2068 71.9594 12.3157 72.0781 12.4323C72.1822 12.5328 72.2898 12.6383 72.3922 12.7472C72.4946 12.8562 72.5962 12.9694 72.697 13.0869L72.7072 13.1022C72.7072 13.1022 72.7252 13.1235 72.7363 13.1346C72.8148 13.2299 72.8934 13.3252 72.9668 13.424C72.9745 13.43 72.9779 13.4351 72.9848 13.4453C72.9959 13.4564 73.0104 13.4725 73.0206 13.4879C73.0881 13.5722 73.1513 13.6556 73.2128 13.7476C73.3383 13.9187 73.4613 14.1026 73.5835 14.2908C73.7689 14.5846 73.9509 14.8954 74.121 15.2217C74.2911 15.5479 74.4527 15.8945 74.6032 16.2523C74.6777 16.4354 74.7521 16.6186 74.8206 16.8094C75.097 17.5599 75.3292 18.377 75.5001 19.2572C75.5859 19.6952 75.6557 20.1477 75.7049 20.6139C75.7585 21.0809 75.795 21.5667 75.8119 22.0619C75.8182 22.298 75.8237 22.5383 75.824 22.7821C75.8232 22.8085 75.8224 22.835 75.8207 22.8656L75.8191 22.8742C75.8177 23.0821 75.8111 23.2935 75.8038 23.5092C75.7996 23.5305 75.7962 23.5476 75.8005 23.5706C75.803 23.5799 75.8056 23.5893 75.7997 23.597C75.7963 23.6584 75.793 23.7197 75.7897 23.7811C75.7648 24.2414 75.7246 24.712 75.669 25.1928C75.5654 26.0274 75.4124 26.8877 75.2006 27.7761C72.7414 38.1128 66.7921 41.0972 66.7921 41.0972C67.5035 42.6696 70.6939 50.7955 70.5271 56.1681C70.4945 57.2473 70.3372 58.6206 70.0317 60.1596C69.9488 60.5774 69.8557 61.002 69.7506 61.442C69.6981 61.6619 69.6413 61.8811 69.5837 62.1045C69.4676 62.5555 69.3421 63.0092 69.197 63.4722C69.1292 63.7025 69.0562 63.9361 68.979 64.1689C68.9425 64.2857 68.9018 64.4017 68.861 64.5177C68.7915 64.7343 68.7134 64.9492 68.6353 65.1641C68.6268 65.1846 68.6225 65.2059 68.614 65.2264C68.5436 65.4251 68.4697 65.6187 68.3907 65.8157C68.3253 65.9888 68.2591 66.1662 68.1852 66.3376C68.1054 66.5389 68.0205 66.7436 67.9313 66.9474C67.8565 67.1231 67.7767 67.3022 67.6968 67.4814C67.6237 67.6485 67.5473 67.8106 67.47 67.9769C67.453 68.0178 67.4317 68.0579 67.4147 68.0989C67.3263 68.2763 67.2414 68.4588 67.1479 68.6397C67.1037 68.7284 67.0603 68.8128 67.0119 68.9007C66.9371 69.0542 66.8589 69.2026 66.7764 69.3502C66.7042 69.491 66.6277 69.6309 66.5461 69.7742C66.3931 70.054 66.2315 70.3321 66.0623 70.6042C65.9815 70.7433 65.8974 70.8772 65.808 71.0146C65.763 71.0854 65.7179 71.1562 65.6728 71.227C65.6023 71.3371 65.5317 71.4471 65.4577 71.5521C65.382 71.6656 65.3071 71.7748 65.2314 71.8882C65.1566 71.9975 65.0766 72.1101 64.9975 72.2184C64.8427 72.4403 64.6802 72.6562 64.5178 72.8721C64.3519 73.0828 64.1809 73.297 64.0107 73.507C63.9231 73.6136 63.8363 73.716 63.7452 73.8176C63.6584 73.92 63.5716 74.0224 63.4763 74.1231C63.3895 74.2255 63.2985 74.3271 63.204 74.4236C63.1129 74.5251 63.0185 74.6216 62.924 74.718C62.8295 74.8145 62.7342 74.9152 62.6355 75.0108C62.4423 75.2029 62.2414 75.389 62.0414 75.5708C61.9435 75.6622 61.8405 75.7569 61.7341 75.8466C61.6319 75.9371 61.5298 76.0276 61.4199 76.1121C61.3178 76.2026 61.2122 76.288 61.1024 76.3726C60.9968 76.458 60.887 76.5425 60.778 76.6228C60.5584 76.7919 60.3361 76.9516 60.1054 77.1096C59.9819 77.1959 59.8593 77.2779 59.7332 77.3548C59.626 77.4266 59.5195 77.494 59.4088 77.5607C59.2572 77.6547 59.1065 77.7444 58.9515 77.8333C58.8714 77.8794 58.7914 77.9256 58.7071 77.9709C58.5282 78.0683 58.3408 78.164 58.1535 78.2598C58.1483 78.2632 58.1432 78.2666 58.139 78.2658C58.0444 78.3179 57.9465 78.3649 57.8494 78.4077C57.7463 78.4581 57.6484 78.5051 57.5419 78.5505C57.2838 78.6676 57.018 78.7788 56.7488 78.8849C56.5708 78.9559 56.3893 79.0218 56.2036 79.0869C55.9753 79.1656 55.7393 79.2384 55.5033 79.3112C41.9355 83.3534 33.1067 78.6767 24.5709 69.7335C24.3797 69.536 24.1978 69.336 24.016 69.136C23.8674 68.9691 23.7189 68.8023 23.5754 68.632C23.4482 68.4916 23.327 68.3434 23.2057 68.1953C22.9376 67.8718 22.6746 67.5449 22.4261 67.212C22.356 67.1183 22.2818 67.0238 22.2126 66.9259C22.1946 66.9046 22.181 66.8842 22.163 66.8629C22.0409 66.6969 21.9196 66.5266 21.8026 66.3571C21.6514 66.1366 21.5002 65.9161 21.3618 65.6981C21.3106 65.6214 21.2593 65.5448 21.2081 65.4681C21.1201 65.331 21.0321 65.1939 20.9526 65.0585C20.862 64.9121 20.7757 64.7664 20.6894 64.6208C20.6031 64.4752 20.5168 64.3296 20.4348 64.1848C20.3203 63.9804 20.2109 63.7726 20.1006 63.569C19.9792 63.3322 19.857 63.0997 19.7442 62.8646C19.5133 62.3979 19.3055 61.9268 19.1071 61.4532L19.1079 61.449C19.0087 61.2121 18.918 60.977 18.8273 60.7419C18.7144 60.4403 18.6065 60.1354 18.5063 59.8363C18.437 59.6276 18.3711 59.424 18.306 59.2161C18.3068 59.2118 18.3026 59.211 18.3034 59.2067C18.2469 59.0227 18.1912 58.8344 18.1441 58.6478C18.1304 58.6052 18.1209 58.5635 18.1072 58.5209C18.0584 58.3428 18.0104 58.1605 17.9701 57.9841C17.9589 57.9509 17.9521 57.9185 17.9452 57.8861C17.8989 57.6953 17.8526 57.5044 17.8114 57.3101C17.7659 57.115 17.7298 56.9173 17.6937 56.7196C17.6663 56.5901 17.6439 56.4572 17.6216 56.3242C17.5915 56.1632 17.5657 56.003 17.5399 55.8428C17.4977 55.5641 17.4606 55.282 17.427 55.0051C17.4045 54.8056 17.3863 54.6071 17.3673 54.4128C17.3465 54.1827 17.33 53.9534 17.3135 53.7241C17.2873 53.3202 17.2748 52.9145 17.2699 52.5147C17.2698 52.4261 17.2697 52.3374 17.2695 52.2488C17.271 52.063 17.2724 51.8771 17.2772 51.6964C17.2804 51.5243 17.287 51.3572 17.2978 51.191C17.2969 51.1509 17.2994 51.1159 17.3027 51.0767C17.3018 51.0367 17.3043 51.0017 17.3068 50.9668C17.3193 50.7699 17.3318 50.5729 17.3486 50.3769C17.3653 50.1587 17.3863 49.9413 17.4107 49.729C17.4259 49.5858 17.4452 49.4434 17.4638 49.3053C17.4773 49.1928 17.4916 49.076 17.5093 48.9643C17.538 48.775 17.5667 48.5858 17.5997 48.3973C17.6327 48.2089 17.6656 48.0205 17.702 47.8372C18.0574 46.0467 18.6183 44.3813 19.3364 42.9065C19.8735 41.8079 20.5199 40.8949 21.268 40.1394C22.3915 38.9888 23.7328 38.2138 25.2007 37.7386C27.2565 37.0698 29.5585 36.9906 31.8731 37.2949C33.1015 37.4014 34.3958 37.6671 35.7322 38.145C36.6565 38.4215 37.5622 38.7475 38.4304 39.1059C38.8193 39.2673 39.2066 39.4594 39.5871 39.6855C42.328 41.2575 44.7898 44.3028 46.0979 47.5799C46.1004 47.5892 46.1073 47.5995 46.1056 47.608C46.3519 48.1753 46.5436 48.7273 46.6995 49.259C46.7064 49.2692 46.7098 49.2743 46.7081 49.2828C46.9214 49.9942 47.0716 50.7108 47.1417 51.4071C47.1624 51.5929 47.1729 51.7855 47.1826 51.9824C47.1992 52.2781 47.1962 52.5833 47.1737 52.8978C47.1687 52.9899 47.1595 53.0811 47.1502 53.1723C47.146 53.2158 47.1418 53.2593 47.1325 53.3062C47.1317 53.3548 47.1275 53.3982 47.1191 53.4409C47.1005 53.579 47.0777 53.7162 47.0506 53.8527L47.0498 53.8569C46.9694 54.2619 46.8524 54.6729 46.6799 55.0729C46.2892 55.9923 45.6359 56.8729 44.5868 57.5819C39.2862 61.1824 32.2338 55.9277 32.1647 55.8741L31.3735 56.9135L30.9005 57.533L30.5832 57.9485C30.8878 58.1774 37.2252 62.9268 43.3994 61.0195C43.4316 64.965 45.2456 67.412 45.3336 67.527L47.417 65.9598C47.3436 65.8611 45.6516 63.5136 46.0816 59.7174C47.6254 58.6591 48.7109 57.2307 49.2939 55.5208C49.3253 55.4296 49.3576 55.3341 49.3856 55.2377C49.4416 55.0672 49.4848 54.8941 49.5246 54.7159C49.5348 54.6869 49.5407 54.657 49.5466 54.6272C49.5526 54.6195 49.5534 54.6153 49.5551 54.6067C49.572 54.5215 49.5881 54.4405 49.605 54.3552C49.6118 54.3211 49.6186 54.287 49.6245 54.2572C49.6431 54.1634 49.6617 54.0696 49.6718 53.9741C49.6845 53.9102 49.6938 53.8411 49.6979 53.7755C49.7157 53.6859 49.7249 53.5947 49.7342 53.5035C49.7393 53.4779 49.7401 53.4515 49.7409 53.4251C49.7451 53.3595 49.7543 53.2904 49.7593 53.2205C49.7686 53.1514 49.7728 53.0858 49.7727 53.0193C49.7794 52.9187 49.7852 52.8224 49.7876 52.721C49.7943 52.6425 49.7967 52.5633 49.7941 52.4874C49.794 52.4209 49.7939 52.3545 49.7946 52.2837C49.797 52.1823 49.7943 52.0843 49.7882 51.9811C49.7846 51.8431 49.7767 51.7041 49.7688 51.5652C49.761 51.4263 49.7488 51.2865 49.7333 51.1416C49.7021 50.8297 49.6574 50.5195 49.5998 50.2068C49.5851 50.102 49.5662 49.9963 49.5431 49.8898C49.5431 49.8898 49.5388 49.8668 49.5259 49.8199C49.5532 49.8165 49.5856 49.8096 49.6137 49.8019C51.991 49.2989 55.443 47.5116 56.4024 43.2356C56.427 43.1563 56.4431 43.0753 56.46 42.9901C56.4871 42.8536 56.515 42.713 56.5344 42.5706C56.6779 41.6243 56.7115 40.696 56.636 39.7815C56.3914 36.8617 55.0057 34.132 52.5594 31.7677C48.085 27.4545 40.6627 25.1351 34.9084 26.2439C34.5215 26.3178 34.1415 26.4019 33.7776 26.4936C29.4672 27.5833 26.5758 29.8054 25.0548 31.2626C23.8438 30.7785 22.7127 30.204 21.6616 29.5611C21.4014 29.3987 21.1412 29.2363 20.8912 29.067C20.637 28.8969 20.387 28.7277 20.1472 28.5516C19.9032 28.3747 19.6643 28.1943 19.4347 28.0114C19.2009 27.8276 18.9714 27.6447 18.752 27.455C18.5515 27.2822 18.3552 27.1104 18.1597 26.9342C17.9677 26.7632 17.7774 26.5836 17.5913 26.4049C17.5546 26.3666 17.5136 26.3274 17.476 26.2934C17.3318 26.1495 17.1875 26.0057 17.0518 25.8636C16.8973 25.7044 16.747 25.5461 16.6011 25.3886C16.572 25.3563 16.5464 25.329 16.5208 25.3018C16.5106 25.2865 16.4952 25.2745 16.4841 25.2635C16.339 25.1017 16.2023 24.9417 16.0657 24.7817C16.0623 24.7766 16.0589 24.7714 16.0546 24.7706C15.8924 24.5833 15.7353 24.3926 15.5824 24.2028C15.4296 24.0129 15.2784 23.8145 15.1307 23.6213L14.9206 23.3403C14.8548 23.2475 14.7882 23.159 14.7225 23.0661L14.7156 23.0559L14.7165 23.0517C14.5978 22.8907 14.4876 22.7315 14.3816 22.5731C14.28 22.4156 14.1741 22.2572 14.0767 22.1005C14.0049 21.9932 13.9383 21.8825 13.8759 21.7727C13.711 21.5095 13.5631 21.2498 13.4187 20.9951C13.3008 20.7856 13.1914 20.5778 13.0862 20.3708C12.9811 20.1639 12.8836 19.9629 12.787 19.7576L12.7879 19.7533C12.6904 19.5523 12.6015 19.353 12.5176 19.1502C12.5176 19.1502 12.5185 19.146 12.5142 19.1451C12.4475 18.9901 12.3851 18.8359 12.3269 18.6826C12.2627 18.5148 12.2019 18.352 12.1412 18.1893C12.0821 18.0181 12.0265 17.852 11.9751 17.6867C11.8561 17.3042 11.7601 16.9395 11.6828 16.5918C11.6605 16.5032 11.6425 16.4155 11.6287 16.3285C11.5996 16.1854 11.5789 16.0439 11.5565 15.911C11.5479 15.8428 11.5393 15.7746 11.5307 15.7065C11.5212 15.6426 11.5168 15.5752 11.5116 15.5122C11.4987 15.421 11.4901 15.3306 11.4857 15.2412C11.4787 15.1423 11.4717 15.0434 11.4733 14.9463C11.4733 14.9241 11.4724 14.9062 11.4715 14.8883C11.4697 14.8082 11.4713 14.7332 11.4729 14.6582C11.4728 14.5917 11.4769 14.526 11.4803 14.4647C11.4819 14.4118 11.4869 14.3641 11.492 14.3163C11.4961 14.2507 11.5037 14.1902 11.5121 14.1254C11.5282 14.0444 11.5358 13.9617 11.5518 13.8807C11.6119 13.578 11.7053 13.3085 11.8302 13.0808C15.8886 5.75989 28.5977 12.4297 32.8044 14.3856C37.0102 16.3458 57.5498 25.9124 57.5498 25.9124C62.9017 22.3885 62.5853 11.2129 68.8497 10.9054C69.1539 10.8905 69.4736 10.9317 69.8045 11.0284Z" stroke="#C6EB0F" stroke-width="4" mask="url(#path-8-outside-2_56_2)"/>
</svg>
