<svg width="63" height="62" viewBox="0 0 63 62" fill="none" xmlns="http://www.w3.org/2000/svg">
<path d="M45.8661 43.852C45.8627 43.8692 45.8588 43.8888 45.8549 43.9084C45.8452 43.9575 45.8359 44.0041 45.8262 44.0531C45.8252 44.058 45.8247 44.0605 45.8213 44.0649C45.8379 43.9942 45.8544 43.9236 45.8661 43.852Z" fill="white"/>
<path d="M45.8213 44.0649C45.8213 44.0649 45.8252 44.058 45.8262 44.0531C45.8359 44.0041 45.8452 43.9575 45.8549 43.9084C45.8588 43.8888 45.8627 43.8692 45.8661 43.852C45.852 43.9231 45.8379 43.9942 45.8213 44.0649Z" fill="white"/>
<path d="M34.4872 32.4985C33.5502 32.5445 32.6855 32.7144 31.9106 32.9455C31.9106 32.9201 31.9212 32.8406 31.9373 32.7597C31.9524 32.6709 31.9709 32.5777 31.9841 32.5497C32.009 32.4884 32.0359 32.43 32.0628 32.3716C32.7872 30.8279 34.5341 30.053 35.9045 29.6087C36.5284 29.4063 37.1657 29.2651 37.8133 29.1872C37.856 29.1778 37.9001 29.1738 37.9418 29.1693C37.9526 29.1664 37.9653 29.1664 37.9756 29.1658C37.9859 29.1653 37.9967 29.1624 38.007 29.1619C38.8277 29.0724 39.6574 29.079 40.4749 29.1852C40.5892 29.2003 40.703 29.2177 40.8168 29.2352C40.9306 29.2527 41.0434 29.2751 41.1562 29.2975C41.3033 29.3267 41.4525 29.3588 41.5982 29.3954C41.7051 29.4217 41.8096 29.4476 41.9155 29.4788L41.9302 29.4817C41.9302 29.4817 41.9425 29.4841 41.9494 29.4881C42.0342 29.51 42.1211 29.5349 42.205 29.5617C42.2123 29.5632 42.2172 29.5642 42.2246 29.5656C42.3811 29.612 42.5341 29.6627 42.6892 29.7165C42.9251 29.799 43.1572 29.8884 43.3878 29.9851C43.9555 30.2202 44.5085 30.5033 45.0263 30.8354C45.1304 30.902 45.234 30.971 45.3351 31.0395C45.4475 31.1153 45.5589 31.196 45.6698 31.2792C45.7076 31.3071 45.7454 31.335 45.7808 31.3624C45.8186 31.3903 45.8534 31.4202 45.8908 31.4505C45.9374 31.4853 45.9811 31.522 46.0248 31.5587C46.069 31.593 46.1122 31.6321 46.1559 31.6688C46.202 31.706 46.2477 31.7457 46.2904 31.7873C46.3665 31.8534 46.4397 31.9215 46.5123 31.992C46.6518 32.1241 46.7805 32.2593 46.9037 32.3959C46.9705 32.4704 47.0368 32.5472 47.0982 32.6232C47.1646 32.7 47.2274 32.7814 47.2879 32.8622C47.3478 32.9454 47.4097 33.0317 47.4692 33.1174C47.9758 33.8654 48.3734 34.7906 48.4186 35.8855C48.4212 35.9497 48.4208 36.0159 48.4209 36.0797C48.4205 36.1459 48.4201 36.2121 48.4168 36.2802C48.4173 36.316 48.4149 36.3538 48.4106 36.3886C48.4106 36.4396 48.4078 36.4926 48.4 36.5445C48.3971 36.5593 48.3991 36.5749 48.3961 36.5897C48.3957 36.6176 48.3923 36.6475 48.3889 36.6774C48.3845 36.6995 48.3797 36.724 48.3753 36.7461C48.3763 36.754 48.3743 36.7638 48.3729 36.7711L48.3724 36.7736C48.367 36.8133 48.3617 36.853 48.3559 36.8952C48.336 37.0213 48.3116 37.1439 48.2809 37.2601C48.2692 37.3062 48.2575 37.3524 48.2434 37.398L48.2424 37.4029C48.2424 37.4029 48.237 37.4171 48.2356 37.4245C48.2356 37.4372 48.2307 37.449 48.2258 37.4608C48.2077 37.5133 48.1921 37.5662 48.1745 37.6163C48.1316 37.7301 48.0876 37.8361 48.0392 37.9386C48.0162 37.9902 47.9908 38.0412 47.9634 38.0893C47.9385 38.1379 47.9116 38.1835 47.8847 38.2292C47.8548 38.2768 47.825 38.3244 47.7932 38.369C47.7643 38.4117 47.7359 38.452 47.7051 38.4918C47.6743 38.5315 47.6434 38.5713 47.6101 38.6106C47.5862 38.6415 47.5602 38.6695 47.5343 38.6975C47.5176 38.7171 47.4985 38.7363 47.4824 38.7534C47.4501 38.7878 47.4177 38.8222 47.3835 38.8536C47.3511 38.888 47.3169 38.9194 47.2831 38.9484C47.2209 39.0049 47.1597 39.0565 47.094 39.1046C47.0666 39.1272 47.0392 39.1498 47.0098 39.1695C46.926 39.2319 46.8437 39.2869 46.7604 39.3341C46.7168 39.3611 46.6708 39.3877 46.6282 39.4098C46.6017 39.4275 46.5738 39.4398 46.5483 39.4526C46.1338 39.666 45.7426 39.7745 45.4823 39.8273L45.475 39.8258L45.472 39.8278C45.4613 39.8308 45.4505 39.8337 45.4426 39.8347C45.4426 39.8347 45.4431 39.8323 45.4407 39.8318C45.1497 39.0373 44.7326 38.1975 44.1352 37.3677L44.1356 37.3653C44.1356 37.3653 44.1312 37.3618 44.1293 37.3589C43.3023 36.2083 42.1361 35.0719 40.4954 34.0784C40.1994 33.8999 39.903 33.7365 39.6105 33.5918C37.7915 32.6878 36.0548 32.4221 34.5029 32.4965L34.498 32.4955C34.498 32.4955 34.4902 32.4965 34.4853 32.4955L34.4872 32.4985Z" fill="white"/>
<path d="M57.4756 18.9831C57.4756 18.9831 57.4972 18.9899 57.5094 18.9923C57.5187 18.9967 57.531 18.9992 57.5428 19.004L57.5501 19.0055C57.5835 19.0172 57.6193 19.0294 57.6546 19.0441C57.6595 19.0451 57.6669 19.0465 57.6713 19.0499L57.6787 19.0514C57.7376 19.0758 57.7989 19.1008 57.8592 19.1306C57.9196 19.1604 57.9819 19.1932 58.0438 19.2284C58.1056 19.2636 58.1669 19.3013 58.2298 19.3443C58.2906 19.3844 58.3535 19.4275 58.4153 19.4755C58.4664 19.5136 58.5189 19.5572 58.5714 19.6008C58.6436 19.661 58.7153 19.7236 58.7835 19.7907C58.8434 19.8485 58.9053 19.9092 58.9643 19.9719C59.0232 20.0345 59.0816 20.0997 59.1396 20.1673L59.1455 20.1761C59.1455 20.1761 59.1558 20.1883 59.1622 20.1947C59.2074 20.2495 59.2526 20.3044 59.2948 20.3612C59.2993 20.3646 59.3012 20.3676 59.3051 20.3735C59.3115 20.3798 59.3199 20.3891 59.3258 20.3979C59.3646 20.4464 59.4009 20.4944 59.4363 20.5473C59.5086 20.6458 59.5793 20.7516 59.6496 20.8599C59.7563 21.0289 59.861 21.2077 59.9588 21.3954C60.0567 21.583 60.1496 21.7825 60.2362 21.9883C60.2791 22.0936 60.3219 22.199 60.3613 22.3088C60.5203 22.7406 60.6539 23.2106 60.7522 23.717C60.8016 23.969 60.8417 24.2293 60.87 24.4975C60.9008 24.7661 60.9218 25.0456 60.9316 25.3305C60.9352 25.4663 60.9383 25.6046 60.9385 25.7448C60.9381 25.76 60.9376 25.7752 60.9367 25.7929L60.9357 25.7978C60.9349 25.9174 60.9311 26.039 60.9269 26.1631C60.9245 26.1754 60.9225 26.1852 60.925 26.1984C60.9265 26.2038 60.9279 26.2092 60.9245 26.2136C60.9226 26.2489 60.9207 26.2842 60.9188 26.3195C60.9045 26.5843 60.8813 26.855 60.8494 27.1316C60.7898 27.6118 60.7017 28.1067 60.5799 28.6178C59.1651 34.5644 55.7426 36.2812 55.7426 36.2812C56.1519 37.1858 57.9872 41.8606 57.8913 44.9514C57.8726 45.5722 57.782 46.3623 57.6063 47.2476C57.5586 47.488 57.505 47.7323 57.4446 47.9854C57.4144 48.1119 57.3817 48.238 57.3486 48.3665C57.2818 48.626 57.2096 48.887 57.1261 49.1534C57.0871 49.2858 57.0451 49.4202 57.0007 49.5542C56.9797 49.6214 56.9563 49.6881 56.9328 49.7548C56.8928 49.8794 56.8479 50.003 56.8029 50.1267C56.798 50.1385 56.7956 50.1507 56.7907 50.1625C56.7502 50.2768 56.7077 50.3882 56.6623 50.5015C56.6246 50.6011 56.5865 50.7032 56.544 50.8018C56.4981 50.9176 56.4492 51.0353 56.3979 51.1526C56.3549 51.2537 56.309 51.3567 56.263 51.4598C56.221 51.5559 56.177 51.6492 56.1325 51.7448C56.1228 51.7684 56.1105 51.7915 56.1008 51.815C56.0499 51.9171 56.001 52.0221 55.9473 52.1261C55.9218 52.1771 55.8969 52.2257 55.869 52.2763C55.826 52.3646 55.781 52.45 55.7336 52.5349C55.692 52.6159 55.648 52.6963 55.601 52.7788C55.513 52.9398 55.4201 53.0997 55.3227 53.2563C55.2763 53.3363 55.2278 53.4134 55.1765 53.4924C55.1505 53.5331 55.1246 53.5739 55.0987 53.6146C55.0581 53.6779 55.0175 53.7412 54.9749 53.8016C54.9314 53.8669 54.8883 53.9297 54.8448 53.995C54.8017 54.0578 54.7557 54.1226 54.7102 54.185C54.6211 54.3126 54.5277 54.4368 54.4342 54.561C54.3387 54.6822 54.2404 54.8054 54.1425 54.9262C54.0921 54.9876 54.0421 55.0465 53.9897 55.1049C53.9398 55.1638 53.8899 55.2228 53.835 55.2807C53.7851 55.3396 53.7327 55.398 53.6784 55.4535C53.626 55.512 53.5717 55.5674 53.5173 55.6229C53.463 55.6784 53.4081 55.7364 53.3513 55.7914C53.2402 55.9019 53.1246 56.0089 53.0095 56.1135C52.9532 56.1661 52.894 56.2206 52.8328 56.2722C52.774 56.3242 52.7152 56.3763 52.652 56.425C52.5933 56.477 52.5325 56.5261 52.4694 56.5748C52.4086 56.6239 52.3454 56.6725 52.2827 56.7187C52.1564 56.816 52.0285 56.9079 51.8958 56.9988C51.8248 57.0484 51.7542 57.0956 51.6817 57.1398C51.62 57.1811 51.5587 57.2199 51.4951 57.2583C51.4079 57.3123 51.3211 57.364 51.232 57.4151C51.1859 57.4416 51.1399 57.4682 51.0914 57.4942C50.9885 57.5503 50.8807 57.6054 50.7729 57.6604C50.7699 57.6624 50.767 57.6644 50.7645 57.6639C50.7102 57.6939 50.6538 57.7209 50.5979 57.7455C50.5387 57.7746 50.4823 57.8016 50.421 57.8277C50.2726 57.8951 50.1197 57.9591 49.9648 58.0201C49.8624 58.0609 49.758 58.0988 49.6512 58.1363C49.5198 58.1816 49.384 58.2234 49.2483 58.2653C41.4429 60.5907 36.3638 57.9003 31.4532 52.7554C31.3432 52.6418 31.2386 52.5267 31.134 52.4116C31.0485 52.3157 30.9631 52.2197 30.8805 52.1217C30.8074 52.0409 30.7376 51.9557 30.6679 51.8705C30.5136 51.6844 30.3623 51.4963 30.2193 51.3048C30.179 51.2509 30.1363 51.1965 30.0965 51.1402C30.0862 51.128 30.0783 51.1162 30.068 51.104C29.9977 51.0085 29.928 50.9105 29.8607 50.813C29.7737 50.6861 29.6867 50.5593 29.6071 50.4338C29.5776 50.3898 29.5481 50.3457 29.5186 50.3016C29.468 50.2227 29.4174 50.1438 29.3717 50.0659C29.3196 49.9817 29.2699 49.8979 29.2203 49.8141C29.1706 49.7303 29.121 49.6466 29.0738 49.5633C29.0079 49.4457 28.9449 49.3261 28.8815 49.209C28.8117 49.0728 28.7414 48.9391 28.6764 48.8038C28.5437 48.5353 28.4241 48.2643 28.3099 47.9918L28.3104 47.9894C28.2534 47.8532 28.2012 47.7179 28.149 47.5826C28.084 47.4091 28.022 47.2337 27.9644 47.0617C27.9245 46.9416 27.8865 46.8245 27.8491 46.7049C27.8496 46.7024 27.8471 46.7019 27.8476 46.6995C27.8151 46.5936 27.7831 46.4853 27.7559 46.3779C27.7481 46.3534 27.7426 46.3294 27.7347 46.3049C27.7066 46.2025 27.679 46.0976 27.6558 45.9961C27.6494 45.977 27.6455 45.9584 27.6415 45.9397C27.6149 45.8299 27.5882 45.7201 27.5645 45.6084C27.5384 45.4961 27.5176 45.3824 27.4969 45.2687C27.4811 45.1941 27.4682 45.1177 27.4553 45.0412C27.438 44.9485 27.4232 44.8564 27.4084 44.7642C27.3841 44.6039 27.3628 44.4416 27.3434 44.2823C27.3305 44.1676 27.32 44.0533 27.3091 43.9415C27.2971 43.8092 27.2876 43.6773 27.2781 43.5454C27.263 43.313 27.2558 43.0796 27.253 42.8496C27.253 42.7986 27.2529 42.7476 27.2528 42.6966C27.2536 42.5897 27.2545 42.4828 27.2573 42.3789C27.2591 42.2798 27.2629 42.1837 27.2691 42.0881C27.2686 42.065 27.27 42.0449 27.2719 42.0224C27.2714 41.9993 27.2729 41.9792 27.2743 41.9591C27.2815 41.8458 27.2887 41.7326 27.2983 41.6198C27.3079 41.4942 27.32 41.3692 27.3341 41.247C27.3428 41.1646 27.3539 41.0827 27.3646 41.0033C27.3723 40.9386 27.3806 40.8714 27.3908 40.8071C27.4073 40.6982 27.4238 40.5893 27.4428 40.481C27.4617 40.3726 27.4807 40.2642 27.5016 40.1587C27.7061 39.1287 28.0288 38.1705 28.4419 37.3221C28.7509 36.6901 29.1227 36.1649 29.5531 35.7303C30.1994 35.0683 30.9711 34.6225 31.8155 34.3491C32.9982 33.9644 34.3226 33.9188 35.6541 34.0939C36.3608 34.1551 37.1054 34.308 37.8742 34.5829C38.4059 34.742 38.927 34.9295 39.4264 35.1357C39.6502 35.2285 39.873 35.339 40.0918 35.4691C41.6687 36.3735 43.0849 38.1254 43.8374 40.0107C43.8389 40.0161 43.8428 40.0219 43.8419 40.0268C43.9836 40.3532 44.0939 40.6708 44.1836 40.9766C44.1875 40.9825 44.1895 40.9855 44.1885 40.9904C44.3112 41.3996 44.3976 41.8119 44.4379 42.2124C44.4498 42.3193 44.4559 42.4301 44.4614 42.5434C44.471 42.7135 44.4693 42.8891 44.4563 43.07C44.4535 43.123 44.4482 43.1755 44.4428 43.2279C44.4404 43.253 44.438 43.278 44.4327 43.3049C44.4322 43.3329 44.4298 43.3579 44.4249 43.3824C44.4142 43.4619 44.4011 43.5408 44.3855 43.6193L44.3851 43.6218C44.3388 43.8548 44.2715 44.0912 44.1723 44.3213C43.9475 44.8503 43.5717 45.3569 42.9682 45.7647C39.9188 47.836 35.8616 44.8131 35.8218 44.7823L35.3667 45.3802L35.0946 45.7366L34.912 45.9756C35.0873 46.1073 38.7331 48.8396 42.2851 47.7423C42.3036 50.0121 43.3472 51.4199 43.3978 51.486L44.5963 50.5844C44.5541 50.5276 43.5807 49.1772 43.8281 46.9933C44.7162 46.3844 45.3407 45.5627 45.6761 44.579C45.6942 44.5265 45.7127 44.4716 45.7288 44.4161C45.761 44.318 45.7859 44.2184 45.8088 44.1159C45.8146 44.0992 45.8181 44.0821 45.8215 44.0649C45.8249 44.0605 45.8254 44.058 45.8263 44.0531C45.8361 44.0041 45.8453 43.9575 45.8551 43.9084C45.859 43.8888 45.8629 43.8692 45.8663 43.852C45.877 43.7981 45.8877 43.7441 45.8935 43.6892C45.9008 43.6524 45.9061 43.6127 45.9085 43.5749C45.9187 43.5234 45.9241 43.4709 45.9294 43.4185C45.9323 43.4038 45.9328 43.3886 45.9332 43.3734C45.9356 43.3356 45.941 43.2959 45.9438 43.2557C45.9492 43.2159 45.9516 43.1782 45.9515 43.1399C45.9554 43.0821 45.9587 43.0266 45.9601 42.9683C45.9639 42.9232 45.9653 42.8776 45.9638 42.8339C45.9638 42.7957 45.9637 42.7574 45.9641 42.7167C45.9655 42.6584 45.964 42.602 45.9604 42.5427C45.9584 42.4632 45.9538 42.3833 45.9493 42.3034C45.9448 42.2235 45.9378 42.1431 45.9288 42.0597C45.9109 41.8803 45.8852 41.7018 45.8521 41.5219C45.8436 41.4616 45.8327 41.4008 45.8194 41.3395C45.8194 41.3395 45.8169 41.3263 45.8096 41.2994C45.8252 41.2974 45.8439 41.2934 45.86 41.289C47.2277 40.9996 49.2136 39.9714 49.7655 37.5115C49.7797 37.4658 49.7889 37.4193 49.7987 37.3702C49.8142 37.2917 49.8303 37.2108 49.8415 37.1289C49.924 36.5845 49.9433 36.0505 49.8999 35.5244C49.7592 33.8446 48.962 32.2742 47.5547 30.9141C44.9806 28.4328 40.7106 27.0984 37.4002 27.7364C37.1777 27.7788 36.9591 27.8272 36.7498 27.88C34.27 28.5069 32.6066 29.7852 31.7316 30.6235C31.0349 30.345 30.3842 30.0145 29.7796 29.6447C29.6299 29.5513 29.4802 29.4578 29.3364 29.3605C29.1901 29.2626 29.0463 29.1652 28.9083 29.0639C28.7679 28.9621 28.6305 28.8584 28.4984 28.7532C28.3639 28.6474 28.2319 28.5422 28.1057 28.433C27.9903 28.3337 27.8774 28.2348 27.7649 28.1335C27.6545 28.0351 27.545 27.9318 27.4379 27.8289C27.4168 27.8069 27.3932 27.7844 27.3716 27.7648C27.2886 27.6821 27.2057 27.5993 27.1276 27.5175C27.0387 27.426 26.9522 27.3349 26.8683 27.2443C26.8516 27.2257 26.8368 27.21 26.8221 27.1943C26.8162 27.1855 26.8074 27.1787 26.801 27.1723C26.7175 27.0793 26.6389 26.9872 26.5603 26.8951C26.5583 26.8922 26.5564 26.8893 26.5539 26.8888C26.4606 26.781 26.3702 26.6713 26.2823 26.5621C26.1943 26.4529 26.1074 26.3388 26.0224 26.2276L25.9015 26.0659C25.8637 26.0125 25.8254 25.9616 25.7875 25.9082L25.7836 25.9023L25.7841 25.8999C25.7158 25.8073 25.6524 25.7157 25.5915 25.6246C25.533 25.534 25.472 25.4428 25.416 25.3527C25.3747 25.291 25.3364 25.2273 25.3005 25.1641C25.2056 25.0127 25.1206 24.8633 25.0375 24.7168C24.9697 24.5962 24.9067 24.4767 24.8462 24.3576C24.7857 24.2386 24.7297 24.1229 24.6741 24.0048L24.6746 24.0024C24.6185 23.8867 24.5673 23.7721 24.5191 23.6554C24.5191 23.6554 24.5196 23.653 24.5172 23.6525C24.4788 23.5633 24.4428 23.4746 24.4094 23.3864C24.3725 23.2899 24.3375 23.1962 24.3026 23.1026C24.2686 23.0041 24.2366 22.9086 24.207 22.8135C24.1385 22.5934 24.0833 22.3836 24.0389 22.1836C24.026 22.1326 24.0157 22.0822 24.0078 22.0321C23.991 21.9498 23.9791 21.8684 23.9662 21.7919C23.9612 21.7527 23.9563 21.7135 23.9513 21.6743C23.9459 21.6375 23.9434 21.5988 23.9404 21.5625C23.9329 21.51 23.928 21.4581 23.9254 21.4066C23.9214 21.3497 23.9174 21.2928 23.9183 21.2369C23.9183 21.2242 23.9178 21.2139 23.9173 21.2036C23.9162 21.1575 23.9172 21.1143 23.9181 21.0712C23.918 21.0329 23.9204 20.9952 23.9223 20.9599C23.9233 20.9295 23.9262 20.902 23.9291 20.8745C23.9315 20.8368 23.9358 20.802 23.9407 20.7647C23.9499 20.7181 23.9543 20.6705 23.9635 20.6239C23.9981 20.4498 24.0518 20.2948 24.1237 20.1637C26.4584 15.9521 33.7698 19.7892 36.1898 20.9144C38.6094 22.0421 50.4256 27.5456 50.4256 27.5456C53.5045 25.5184 53.3225 19.0892 56.9263 18.9123C57.1013 18.9037 57.2852 18.9274 57.4756 18.9831Z" fill="white"/>
<path d="M13.817 6.11531C13.9693 5.85374 14.3472 5.85374 14.4996 6.11531L16.3689 9.32486C16.4248 9.42067 16.5183 9.48862 16.6266 9.51209L20.2568 10.2982C20.5526 10.3622 20.6694 10.7216 20.4677 10.9473L17.9929 13.717C17.919 13.7997 17.8833 13.9097 17.8945 14.02L18.2686 17.7154C18.2991 18.0165 17.9934 18.2386 17.7164 18.1166L14.3175 16.6188C14.2161 16.5741 14.1005 16.5741 13.999 16.6188L10.6001 18.1166C10.3231 18.2386 10.0174 18.0165 10.0479 17.7154L10.4221 14.02C10.4332 13.9097 10.3975 13.7997 10.3236 13.717L7.84883 10.9473C7.64714 10.7216 7.76391 10.3622 8.05976 10.2982L11.6899 9.51209C11.7983 9.48862 11.8918 9.42067 11.9476 9.32486L13.817 6.11531Z" fill="#FFC814"/>
<path opacity="0.5" d="M21.2178 0.182097C21.2315 0.131621 21.3031 0.131621 21.3169 0.182097L21.4457 0.655931C21.642 1.3775 22.1274 1.98605 22.7873 2.33781C22.8128 2.35143 22.8128 2.38804 22.7873 2.40165C22.1274 2.75342 21.642 3.36197 21.4457 4.08353L21.3168 4.55737C21.3031 4.60784 21.2315 4.60784 21.2178 4.55737L21.0889 4.08353C20.8927 3.36197 20.4072 2.75342 19.7474 2.40165C19.7218 2.38804 19.7218 2.35143 19.7474 2.33781C20.4072 1.98605 20.8927 1.3775 21.0889 0.65593L21.2178 0.182097Z" fill="#FFC814"/>
<path opacity="0.5" d="M3.93895 15.9803C3.92522 15.9298 3.85362 15.9298 3.83989 15.9803L3.71101 16.4541C3.51475 17.1757 3.02935 17.7843 2.36947 18.136C2.34393 18.1496 2.34393 18.1863 2.36947 18.1999C3.02935 18.5516 3.51475 19.1602 3.71101 19.8818L3.83989 20.3556C3.85362 20.4061 3.92522 20.4061 3.93895 20.3556L4.06782 19.8818C4.26408 19.1602 4.74949 18.5516 5.40936 18.1999C5.4349 18.1863 5.4349 18.1496 5.40936 18.136C4.74949 17.7843 4.26408 17.1757 4.06782 16.4541L3.93895 15.9803Z" fill="#FFC814"/>
<circle opacity="0.6" cx="24.0322" cy="5.92431" r="0.394955" fill="#FFC814"/>
<circle opacity="0.6" cx="0.394955" cy="0.394955" r="0.394955" transform="matrix(-1 0 0 1 1.51978 21.3276)" fill="#FFC814"/>
<circle opacity="0.6" cx="26.007" cy="2.36974" r="0.789911" fill="#FFC814"/>
</svg>
