<svg width="54" height="36" viewBox="0 0 54 36" fill="none" xmlns="http://www.w3.org/2000/svg">
<path d="M53.8672 19.3989C54.1471 16.6232 54.1826 12.8554 51.9206 10.0191C49.6587 7.18274 46.6469 5.69566 43.5829 6.15724C41.323 6.49977 38.2193 7.77173 36.3208 10.6435C36.8032 11.4184 36.7093 12.2852 36.6487 12.8261C36.6362 12.9285 36.6257 13.0245 36.6215 13.0976C36.5631 14.1169 35.1491 20.5936 34.5392 22.158C34.8253 23.0018 35.2117 23.8727 35.7213 24.775C38.8731 30.3599 43.9045 29.0127 43.9045 29.0127C44.8862 31.7133 46.4652 35.6315 49.5375 35.6315C52.6099 35.6315 51.5886 30.8653 51.198 29.7772C50.6215 28.1648 50.1704 26.9012 49.9761 26.2433C49.9761 26.2433 53.4077 23.9542 53.8672 19.3989ZM48.2906 19.8751C48.1215 20.7586 47.7915 21.3142 47.7915 21.3142C47.545 19.8918 47.0876 18.411 46.2835 16.9929C45.6485 15.8734 44.3536 14.5931 42.95 15.2635C41.2478 16.076 41.2896 18.4632 41.5862 20.0297C41.7637 20.9717 41.9642 21.9094 42.1752 22.8451C39.6605 22.8451 39.6459 17.9536 39.9779 16.6107C40.5168 14.4343 42.1564 12.0325 45.2078 12.6862C48.2593 13.3399 48.7564 17.4336 48.2865 19.8751H48.2906Z" fill="#5C5751"/>
<path d="M35.4442 12.2161C35.4316 12.5043 35.3857 12.7863 35.3711 13.0223C35.3356 13.6301 34.5878 17.2162 33.9675 19.662C33.7252 20.6164 33.5018 21.3955 33.3493 21.7568C33.2741 21.9344 33.1906 22.0952 33.1007 22.2351C33.0402 22.3312 32.9775 22.4168 32.9086 22.4962C32.8752 22.5359 32.8397 22.5735 32.8042 22.609C32.6621 22.751 32.5055 22.8638 32.3321 22.9473C32.0731 23.0705 31.7787 23.1311 31.4445 23.1311C31.1103 23.1311 30.7719 23.0768 30.3793 22.9724C28.8922 22.5756 28.8985 21.8257 28.9987 20.982C29.0885 20.2196 30.5046 14.0917 31.0936 11.9007C31.1333 11.7587 31.1771 11.6292 31.2252 11.5164C31.2628 11.4308 31.3024 11.3535 31.3463 11.2846C31.3672 11.2512 31.3881 11.2199 31.4111 11.1906C31.4487 11.1363 31.4925 11.0862 31.5364 11.0402C31.5719 11.0047 31.6074 10.9734 31.645 10.9442C31.6826 10.9149 31.7202 10.8878 31.7599 10.8627H31.7619C31.833 10.8188 31.9081 10.7813 31.9875 10.752C32.0669 10.7207 32.1504 10.6977 32.2402 10.6789C32.2423 10.6789 32.2444 10.6789 32.2444 10.6789C32.2945 10.6685 32.3468 10.6601 32.399 10.6518H32.4031C32.4575 10.6434 32.5118 10.6371 32.5661 10.6309C32.6266 10.6267 32.6893 10.6225 32.7519 10.6183C32.8104 10.6163 32.871 10.6142 32.9316 10.6121C32.9984 10.61 33.0694 10.61 33.1404 10.61C33.2574 10.61 33.3785 10.61 33.5038 10.6142C33.5686 10.6142 33.6354 10.6142 33.7044 10.6225C35.2708 10.729 35.4734 11.4872 35.4442 12.2161Z" fill="#5C5751"/>
<path d="M36.1329 7.05261C36.1329 7.8061 35.6696 9.60082 34.3942 9.60082C33.1189 9.60082 31.9484 9.09118 32.2508 7.48666C32.2679 7.39887 32.2849 7.31353 32.302 7.23306C32.3118 7.1916 32.3191 7.15259 32.3288 7.11357C32.3386 7.07456 32.3459 7.03554 32.3556 6.99896C32.3654 6.95751 32.3752 6.91362 32.3849 6.8746C32.3947 6.83315 32.4069 6.79413 32.4166 6.75511C32.4337 6.68928 32.4532 6.62587 32.4703 6.56491C32.5166 6.42104 32.5629 6.29424 32.6141 6.17963C32.6239 6.15281 32.6361 6.12842 32.6483 6.1016C32.6605 6.07722 32.6727 6.05283 32.6848 6.02845C32.7117 5.9748 32.7409 5.92603 32.7702 5.8797C32.7873 5.85288 32.8043 5.82849 32.819 5.80654C32.8336 5.78704 32.8482 5.76753 32.8629 5.75046C32.8872 5.71876 32.9116 5.69194 32.936 5.66755C32.9531 5.64804 32.9701 5.63097 32.9872 5.61878C33.014 5.59196 33.0409 5.57001 33.0677 5.5505C33.1043 5.52612 33.1408 5.50173 33.1774 5.48223C33.1969 5.47247 33.2164 5.46272 33.2359 5.45296C33.253 5.44565 33.2725 5.43589 33.2896 5.42858C33.3115 5.41883 33.3335 5.41151 33.3579 5.40419C33.3798 5.39688 33.4018 5.392 33.4237 5.38713C33.4896 5.37006 33.5578 5.35786 33.6285 5.35055C33.8139 5.33104 34.0187 5.33836 34.2504 5.3603C34.2967 5.36518 34.3455 5.37006 34.3942 5.37493C35.7208 5.51393 36.1329 6.30156 36.1329 7.05261Z" fill="#5C5751"/>
<path d="M13.046 21.7233C13.0313 21.7233 13.0146 21.7233 12.9979 21.7233C12.9562 21.7233 12.9165 21.7233 12.8747 21.7233C12.8705 21.7233 12.8684 21.7233 12.8643 21.7212C12.9248 21.7233 12.9854 21.7254 13.046 21.7233Z" fill="#5C5751"/>
<path d="M20.4984 10.5537C20.3083 9.79344 20.0284 9.11256 19.713 8.51522C19.7339 8.51104 19.8008 8.50686 19.8697 8.50686C19.9449 8.50478 20.0243 8.50478 20.0493 8.51104C20.1036 8.52148 20.1558 8.53402 20.2081 8.54655C21.5907 8.88908 22.5097 10.1945 23.0966 11.245C23.3639 11.7233 23.5833 12.2225 23.7524 12.7404C23.7671 12.7739 23.7775 12.8094 23.7879 12.8428C23.7921 12.8511 23.7942 12.8616 23.7963 12.8699C23.7984 12.8783 23.8026 12.8867 23.8046 12.895C24.0114 13.5529 24.1409 14.2338 24.1869 14.9209C24.1931 15.017 24.1973 15.1131 24.2015 15.2092C24.2057 15.3052 24.2057 15.4013 24.2057 15.4974C24.2057 15.6227 24.2036 15.7501 24.1973 15.8754C24.1931 15.9673 24.189 16.0571 24.1806 16.149V16.1616C24.1806 16.1616 24.1806 16.172 24.1785 16.1783C24.1743 16.2514 24.1681 16.3266 24.1597 16.3997C24.1597 16.4059 24.1597 16.4101 24.1597 16.4164C24.1472 16.5521 24.1305 16.6858 24.1117 16.8216C24.0824 17.0283 24.0469 17.233 24.0052 17.4377C23.9049 17.9411 23.7629 18.4402 23.5749 18.9185C23.5373 19.0146 23.4976 19.1107 23.4579 19.2047C23.4141 19.3091 23.366 19.4135 23.3159 19.5179C23.2992 19.5535 23.2825 19.589 23.2658 19.6224C23.2491 19.6579 23.2303 19.6913 23.2115 19.7268C23.1906 19.7707 23.1676 19.8124 23.1446 19.8542C23.1238 19.896 23.0987 19.9378 23.0757 19.9795C23.0527 20.0234 23.0277 20.0672 23.0005 20.109C22.9588 20.1821 22.9149 20.2531 22.8689 20.3241C22.7833 20.4599 22.6935 20.5873 22.6016 20.7105C22.5515 20.7774 22.4993 20.8442 22.447 20.9069C22.3948 20.9737 22.3384 21.0384 22.282 21.1011C22.2236 21.1638 22.163 21.2285 22.1024 21.2912C21.5719 21.8279 20.8785 22.3041 19.9887 22.5193C19.9365 22.5318 19.8822 22.5422 19.83 22.5527C19.7757 22.5631 19.7214 22.5736 19.665 22.5819C19.6358 22.5882 19.6044 22.5924 19.5752 22.5944C19.5334 22.6028 19.4896 22.6091 19.4457 22.6112C19.4332 22.6112 19.4206 22.6153 19.4081 22.6153C19.3851 22.6195 19.3601 22.6216 19.335 22.6237C19.3162 22.6237 19.2953 22.6237 19.2765 22.6237C19.2703 22.6258 19.2619 22.6258 19.2556 22.6258H19.2536C19.2201 22.6279 19.1867 22.63 19.1512 22.632C19.0447 22.6362 18.9403 22.6362 18.84 22.63C18.8003 22.6279 18.7606 22.6258 18.721 22.6216H18.7168C18.7168 22.6216 18.7042 22.6195 18.698 22.6195C18.6875 22.6216 18.6771 22.6195 18.6667 22.6174C18.6207 22.6112 18.5748 22.607 18.5309 22.6007C18.4306 22.584 18.3367 22.5652 18.2448 22.5422C18.1988 22.5318 18.1529 22.5193 18.109 22.5046C18.0651 22.4921 18.0234 22.4775 17.9816 22.4629C17.9377 22.4462 17.8939 22.4294 17.8521 22.4107C17.8124 22.3939 17.7748 22.3772 17.7372 22.3584C17.6996 22.3396 17.662 22.3208 17.6244 22.3C17.5952 22.2853 17.568 22.2686 17.5409 22.2519C17.5221 22.2415 17.5033 22.2289 17.4866 22.2185C17.4532 22.1976 17.4197 22.1767 17.3884 22.1538C17.355 22.1329 17.3237 22.1099 17.2944 22.0869C17.238 22.0451 17.1858 22.0034 17.1357 21.9574C17.1127 21.9386 17.0897 21.9198 17.0689 21.8989C17.0041 21.8405 16.9456 21.782 16.8934 21.7214C16.8642 21.6901 16.8349 21.6567 16.8099 21.6253C16.7911 21.6065 16.7765 21.5857 16.7618 21.5669C16.5196 21.2619 16.3671 20.9591 16.2815 20.7544V20.7481L16.2794 20.746C16.2752 20.7377 16.271 20.7293 16.2689 20.7231C16.2689 20.7231 16.271 20.7231 16.271 20.721C16.8746 20.3534 17.4949 19.8751 18.0777 19.2506H18.0798C18.0798 19.2506 18.0818 19.2464 18.0839 19.2443C18.8922 18.3797 19.6337 17.2393 20.1809 15.7334C20.2791 15.4619 20.3647 15.1925 20.4357 14.9293C20.8806 13.2918 20.8158 11.8256 20.5025 10.5662V10.562C20.5025 10.562 20.5005 10.5558 20.5005 10.5516L20.4984 10.5537Z" fill="#5C5751"/>
<path d="M35.3103 27.1914C35.3103 27.1914 35.3082 27.2102 35.3082 27.2207C35.3061 27.229 35.3061 27.2395 35.3041 27.2499V27.2562C35.2999 27.2854 35.2957 27.3168 35.2894 27.3481C35.2894 27.3523 35.2894 27.3585 35.2873 27.3627V27.369C35.2769 27.4212 35.2665 27.4755 35.2518 27.5298C35.2372 27.5841 35.2205 27.6405 35.2017 27.6969C35.1829 27.7533 35.162 27.8097 35.137 27.8681C35.114 27.9245 35.0889 27.983 35.0597 28.0415C35.0367 28.0895 35.0096 28.1397 34.9824 28.1898C34.9448 28.2587 34.9051 28.3276 34.8613 28.3945C34.8237 28.453 34.784 28.5135 34.7422 28.572C34.7004 28.6305 34.6566 28.689 34.6106 28.7474L34.6044 28.7537C34.6044 28.7537 34.596 28.7642 34.5918 28.7704C34.5542 28.8164 34.5167 28.8623 34.477 28.9062C34.4749 28.9104 34.4728 28.9124 34.4686 28.9166C34.4644 28.9229 34.4582 28.9312 34.4519 28.9375C34.4185 28.9772 34.3851 29.0148 34.3475 29.0524C34.2785 29.1276 34.2034 29.2028 34.1261 29.2779C34.0049 29.3928 33.8754 29.5077 33.7376 29.6184C33.5997 29.7291 33.4515 29.8377 33.2969 29.9421C33.2175 29.9943 33.1382 30.0466 33.0546 30.0967C32.7267 30.2972 32.3633 30.4831 31.9644 30.646C31.7659 30.7274 31.5592 30.8026 31.344 30.8695C31.1289 30.9384 30.9033 31.001 30.6715 31.0553C30.5608 31.0804 30.448 31.1055 30.3332 31.1284C30.3206 31.1305 30.3081 31.1326 30.2935 31.1347H30.2893C30.1911 31.1535 30.0909 31.1702 29.9885 31.1869C29.9781 31.1869 29.9697 31.1869 29.9593 31.1911C29.9551 31.1932 29.9509 31.1953 29.9468 31.1932C29.9175 31.1974 29.8883 31.2015 29.859 31.2057C29.6397 31.2371 29.4142 31.2621 29.1823 31.2809C28.7792 31.3102 28.3594 31.3185 27.9208 31.3018C22.8183 31.1096 20.855 28.5845 20.855 28.5845C20.1804 29.067 16.6485 31.331 14.1004 31.755C13.5887 31.8407 12.9266 31.895 12.1726 31.895C11.968 31.895 11.7591 31.8908 11.5419 31.8824C11.4333 31.8783 11.3247 31.872 11.214 31.8657C10.9905 31.8532 10.7649 31.8365 10.5331 31.8114C10.4182 31.801 10.3012 31.7884 10.1843 31.7738C10.1258 31.7676 10.0673 31.7592 10.0088 31.7509C9.90022 31.7383 9.79162 31.7216 9.68301 31.7049C9.67257 31.7028 9.66212 31.7028 9.65168 31.7007C9.55142 31.6861 9.45326 31.6694 9.35301 31.6506C9.26528 31.636 9.17547 31.6214 9.08775 31.6026C8.98541 31.5838 8.88098 31.5629 8.77655 31.5399C8.68674 31.5211 8.59484 31.5002 8.50294 31.4793C8.41731 31.4605 8.33376 31.4396 8.24813 31.4188C8.22724 31.4146 8.20636 31.4083 8.18547 31.4041C8.09357 31.3791 7.99958 31.3561 7.9056 31.329C7.85965 31.3164 7.81579 31.3039 7.76984 31.2893C7.69047 31.2684 7.61319 31.2454 7.53591 31.2203C7.46281 31.1995 7.38971 31.1765 7.31452 31.1514C7.16832 31.1055 7.02211 31.0553 6.878 31.001C6.8049 30.976 6.73388 30.9488 6.66078 30.9196C6.62319 30.905 6.58559 30.8903 6.548 30.8757C6.48952 30.8528 6.43103 30.8298 6.37464 30.8047C6.31407 30.7797 6.25559 30.7546 6.19502 30.7295C6.13654 30.7045 6.07597 30.6773 6.01749 30.6502C5.89844 30.5979 5.78147 30.5416 5.66451 30.4852C5.54964 30.4267 5.43268 30.3661 5.3178 30.3055C5.25932 30.2742 5.20293 30.2429 5.14653 30.2095C5.09014 30.1781 5.03375 30.1468 4.97736 30.1113C4.92096 30.08 4.86457 30.0466 4.81027 30.011C4.75388 29.9776 4.69957 29.9421 4.64527 29.9066C4.59096 29.8711 4.53457 29.8356 4.48027 29.798C4.37166 29.7249 4.26514 29.6476 4.16071 29.5704C4.10849 29.5328 4.05419 29.4931 4.00197 29.4513C3.94976 29.4116 3.89754 29.3719 3.84742 29.3281C3.7952 29.2884 3.74507 29.2466 3.69495 29.2028C3.64482 29.161 3.59469 29.1171 3.54666 29.0733C3.4464 28.9855 3.35033 28.8957 3.25425 28.8017C3.20203 28.7516 3.15191 28.7015 3.10387 28.6493C3.06001 28.6054 3.01824 28.5616 2.97646 28.5156C2.91798 28.453 2.86159 28.3903 2.8052 28.3255C2.77596 28.2921 2.74672 28.2587 2.71748 28.2232C2.65482 28.148 2.59216 28.0687 2.5295 27.9893C2.52741 27.9872 2.52532 27.9851 2.52532 27.983C2.4919 27.9433 2.46058 27.9016 2.43134 27.8598C2.39792 27.8159 2.36659 27.7742 2.33526 27.7282C2.25589 27.6175 2.17861 27.5026 2.10342 27.3857C2.0533 27.3084 2.00526 27.229 1.95722 27.1476C1.89874 27.0473 1.84235 26.9429 1.78595 26.8385C-1.38874 20.8212 -0.0102569 16.2221 3.40672 11.362C3.48191 11.2534 3.55919 11.1489 3.63647 11.0445C3.70121 10.9589 3.76596 10.8732 3.8328 10.7897C3.8871 10.7166 3.94558 10.6456 4.00406 10.5746C4.13147 10.4179 4.26096 10.2634 4.39463 10.1151C4.43223 10.0733 4.46982 10.0294 4.50951 9.98767C4.51786 9.97723 4.52622 9.96887 4.53457 9.95843C4.60141 9.88533 4.67033 9.81223 4.73926 9.74122C4.82907 9.64932 4.91888 9.55742 5.00869 9.47179C5.04002 9.44046 5.07135 9.40913 5.10267 9.3778C5.15907 9.3235 5.21546 9.26919 5.27185 9.21907C5.33242 9.16267 5.39299 9.10837 5.45356 9.05407C5.51413 8.99976 5.5747 8.94546 5.63527 8.89325C5.7209 8.82014 5.80863 8.74913 5.89426 8.67812C5.99451 8.59875 6.09268 8.51939 6.19293 8.4442C6.39135 8.29173 6.59395 8.1497 6.79863 8.01186H6.80072C6.90306 7.94293 7.0054 7.87819 7.10775 7.81344C7.23933 7.73199 7.373 7.65262 7.50458 7.57743C7.59648 7.52521 7.68629 7.47509 7.77819 7.42496C7.78028 7.42496 7.78028 7.42287 7.78237 7.42287C7.86382 7.37901 7.94737 7.33515 8.03091 7.29547C8.04971 7.28503 8.06851 7.27667 8.08731 7.26623C8.16667 7.22655 8.24813 7.18686 8.3275 7.15136C8.34212 7.143 8.35674 7.13674 8.37136 7.13047C8.45699 7.09079 8.54262 7.0511 8.63035 7.01351C8.71807 6.97382 8.80788 6.93832 8.89769 6.90281C8.95617 6.87775 9.01674 6.85477 9.07731 6.8318C9.15041 6.80256 9.22351 6.77541 9.29661 6.74826C9.42402 6.70231 9.55351 6.65845 9.68092 6.61667C9.77282 6.58743 9.86472 6.56028 9.95453 6.53313C10.061 6.5018 10.1676 6.47256 10.2741 6.44332C10.4621 6.3932 10.6521 6.34933 10.8401 6.30965C10.8819 6.3013 10.9236 6.29294 10.9654 6.28459C11.0531 6.26788 11.1409 6.25117 11.2265 6.23655C11.308 6.22193 11.3873 6.2094 11.4667 6.19896C11.4855 6.19478 11.5022 6.19269 11.521 6.1906C11.5398 6.18642 11.5565 6.18434 11.5732 6.18225C11.6672 6.16971 11.7612 6.15718 11.8552 6.14674C11.9596 6.13421 12.064 6.12377 12.1664 6.11541C12.2353 6.10915 12.3042 6.10497 12.3711 6.10079C12.4254 6.09661 12.4818 6.09244 12.5361 6.09035C12.628 6.08617 12.7199 6.08199 12.8118 6.07991C12.9037 6.07782 12.9956 6.07573 13.0854 6.07573C13.9626 6.07573 14.8001 6.18434 15.5625 6.38484C16.1306 6.53522 16.6214 6.75452 17.0475 7.03648C17.6949 7.45838 18.1858 8.01812 18.5471 8.66559C19.0546 9.57204 19.3073 10.6498 19.3805 11.7692C19.4452 12.3582 19.441 12.9932 19.3408 13.6678C19.2969 14.1294 19.228 14.5868 19.1403 15.0295C19.1006 15.228 19.0463 15.4285 18.9753 15.629C18.4907 17.068 17.2856 18.5133 15.8632 19.4365C15.859 19.4386 15.8549 19.4427 15.8507 19.4427C15.6063 19.6119 15.364 19.7539 15.128 19.8772C15.1239 19.8814 15.1218 19.8834 15.1176 19.8834C14.8022 20.0505 14.4785 20.1884 14.1568 20.2865C14.0712 20.3137 13.9814 20.3367 13.8895 20.3596C13.7516 20.3951 13.6075 20.4223 13.4571 20.4411C13.4133 20.4474 13.3694 20.4515 13.3256 20.4557C13.3047 20.4578 13.2838 20.4599 13.2608 20.4599C13.2378 20.4641 13.2169 20.4662 13.1961 20.4662C13.1292 20.4703 13.0624 20.4724 12.9956 20.4724H12.9935C12.795 20.4724 12.5904 20.4557 12.3857 20.4119C11.9157 20.3137 11.4395 20.0881 11.0072 19.66C8.81414 17.4983 10.6312 13.6824 10.65 13.6448L10.0861 13.3691L9.74984 13.2041L9.52427 13.0934C9.44491 13.2584 7.79908 16.69 9.27573 19.4219C7.41895 19.8062 6.43521 20.8901 6.38926 20.9424L7.32287 21.7778C7.36256 21.7339 8.31079 20.7168 10.1404 20.5643C10.7837 21.193 11.5586 21.571 12.4191 21.6859C12.465 21.6922 12.5131 21.6984 12.5611 21.7026C12.6468 21.7131 12.7324 21.7172 12.8201 21.7193C12.8347 21.7214 12.8493 21.7214 12.864 21.7214C12.8681 21.7235 12.8702 21.7235 12.8744 21.7235C12.9162 21.7235 12.9559 21.7235 12.9976 21.7235C13.0143 21.7235 13.0311 21.7235 13.0457 21.7235C13.0916 21.7235 13.1376 21.7235 13.1835 21.7193C13.2149 21.7193 13.2483 21.7172 13.2796 21.7131C13.3235 21.7131 13.3673 21.7089 13.4112 21.7047C13.4237 21.7047 13.4363 21.7026 13.4488 21.7005C13.4801 21.6963 13.5135 21.6943 13.5469 21.6901C13.5804 21.688 13.6117 21.6838 13.643 21.6775C13.6911 21.6713 13.737 21.665 13.785 21.6567C13.8226 21.6525 13.8602 21.6462 13.8957 21.6379C13.9271 21.6316 13.9584 21.6253 13.9918 21.6191C14.0399 21.6107 14.0858 21.6003 14.1338 21.5877C14.1986 21.5731 14.2633 21.5564 14.3281 21.5397C14.3928 21.523 14.4576 21.5042 14.5244 21.4833C14.6685 21.4394 14.8106 21.3893 14.9526 21.3329C15.0006 21.3162 15.0487 21.2974 15.0967 21.2765C15.0967 21.2765 15.1071 21.2724 15.128 21.2619C15.1322 21.2744 15.1385 21.2891 15.1447 21.3016C15.6042 22.3751 16.7697 23.8351 18.875 23.8873C18.9147 23.8915 18.9544 23.8915 18.9961 23.8915C19.063 23.8915 19.1319 23.8915 19.2008 23.8873C19.6603 23.8664 20.101 23.7954 20.525 23.6742C21.8784 23.2858 23.0355 22.3772 23.9211 21.0029C25.5356 18.4903 25.9345 14.7747 24.8735 12.1661C24.8025 11.9906 24.7273 11.8194 24.65 11.6565C23.7331 9.7266 22.4152 8.5716 21.586 7.99097C21.7009 7.37484 21.8659 6.78794 22.0706 6.23237C22.1228 6.09453 22.175 5.95668 22.2314 5.82301C22.2878 5.68725 22.3442 5.55358 22.4048 5.42409C22.4653 5.2925 22.528 5.16301 22.5927 5.0377C22.6575 4.91029 22.7222 4.78498 22.7912 4.66384C22.8538 4.55314 22.9165 4.44453 22.9812 4.33593C23.0439 4.22941 23.1107 4.12289 23.1776 4.01846C23.1922 3.99757 23.2068 3.9746 23.2193 3.95371C23.2736 3.87226 23.3279 3.7908 23.3822 3.71353C23.4428 3.6258 23.5034 3.54017 23.5639 3.45663C23.5765 3.43992 23.5869 3.4253 23.5974 3.41068C23.6036 3.40441 23.6078 3.39606 23.612 3.38979C23.6746 3.30625 23.7373 3.22688 23.8 3.14752C23.802 3.14543 23.8041 3.14334 23.8041 3.14125C23.8772 3.04726 23.9524 2.95536 24.0276 2.86555C24.1028 2.77575 24.1822 2.68594 24.2595 2.59821L24.3722 2.4729C24.4098 2.43322 24.4453 2.39353 24.4829 2.35385L24.4871 2.34967H24.4892C24.554 2.27866 24.6187 2.21182 24.6834 2.14708C24.7482 2.08442 24.8129 2.01967 24.8777 1.9591C24.9215 1.91524 24.9675 1.87347 25.0134 1.83379C25.1221 1.73145 25.2307 1.63746 25.3372 1.54556C25.4249 1.47037 25.5126 1.39936 25.6003 1.33044C25.6881 1.26151 25.7737 1.19677 25.8614 1.13202H25.8635C25.9491 1.06727 26.0348 1.0067 26.1225 0.948223C26.1225 0.948223 26.1246 0.948223 26.1246 0.946134C26.1914 0.900185 26.2583 0.856325 26.3251 0.814553C26.3982 0.768604 26.4692 0.724743 26.5402 0.680883C26.6154 0.637022 26.6885 0.59525 26.7616 0.555567C26.9308 0.463669 27.0937 0.384302 27.2504 0.315378C27.29 0.296581 27.3297 0.279872 27.3694 0.265252C27.4342 0.2381 27.4989 0.215125 27.5595 0.192151C27.5908 0.181708 27.6221 0.171265 27.6535 0.160822C27.6827 0.150379 27.714 0.142025 27.7433 0.13367C27.785 0.11905 27.8268 0.106518 27.8686 0.0960755C27.9145 0.0835439 27.9605 0.0710123 28.0064 0.0626579C28.0169 0.0605693 28.0252 0.0584807 28.0336 0.0563921C28.0712 0.0480377 28.1067 0.0417719 28.1422 0.0355061C28.1735 0.0292404 28.2049 0.0250632 28.2341 0.020886C28.2592 0.0167088 28.2821 0.0146202 28.3051 0.0125316C28.3364 0.00835439 28.3657 0.00626579 28.397 0.00417719C28.4367 0.00417719 28.4764 0 28.5161 0C28.6643 0 28.8001 0.0187974 28.9192 0.0563921C32.7497 1.28449 30.7947 7.89907 30.2663 10.0649C29.7358 12.2308 27.148 22.8075 27.148 22.8075C29.3097 25.0005 34.548 23.8058 35.279 26.7299C35.3145 26.8719 35.3249 27.0264 35.3103 27.1914Z" fill="#5C5751"/>
</svg>
