<svg width="57" height="52" viewBox="0 0 57 52" fill="none" xmlns="http://www.w3.org/2000/svg">
<path d="M17.0386 34.5168C17.0195 34.5168 16.9977 34.5168 16.9759 34.5168C16.9213 34.5168 16.8695 34.5168 16.8149 34.5168C16.8095 34.5168 16.8067 34.5168 16.8013 34.5141C16.8804 34.5168 16.9595 34.5196 17.0386 34.5168Z" fill="white"/>
<path d="M16.8013 34.5141C16.8013 34.5141 16.8095 34.5168 16.8149 34.5168C16.8695 34.5168 16.9213 34.5168 16.9759 34.5168C16.9977 34.5168 17.0195 34.5168 17.0386 34.5168C16.9595 34.5168 16.8804 34.5168 16.8013 34.5141Z" fill="white"/>
<path d="M26.7718 19.9281C26.5235 18.9352 26.158 18.0459 25.7461 17.2657C25.7734 17.2603 25.8606 17.2548 25.9507 17.2548C26.0489 17.2521 26.1525 17.2521 26.1853 17.2603C26.2562 17.2739 26.3244 17.2903 26.3926 17.3066C28.1984 17.754 29.3987 19.4589 30.1652 20.8311C30.5144 21.4557 30.8008 22.1077 31.0218 22.7842C31.0409 22.8279 31.0545 22.8742 31.0682 22.9179C31.0736 22.9288 31.0764 22.9424 31.0791 22.9533C31.0818 22.9643 31.0873 22.9752 31.09 22.9861C31.3601 23.8454 31.5292 24.7347 31.5892 25.6321C31.5974 25.7576 31.6028 25.8831 31.6083 26.0086C31.6137 26.1341 31.6137 26.2595 31.6137 26.385C31.6137 26.5487 31.611 26.7151 31.6028 26.8788C31.5974 26.9988 31.5919 27.1161 31.581 27.2361V27.2525C31.581 27.2525 31.581 27.2661 31.5783 27.2743C31.5728 27.3698 31.5646 27.468 31.5537 27.5635C31.5537 27.5716 31.5537 27.5771 31.5537 27.5853C31.5374 27.7626 31.5155 27.9372 31.491 28.1145C31.4528 28.3846 31.4064 28.6519 31.3519 28.9192C31.2209 29.5766 31.0354 30.2286 30.7899 30.8533C30.7408 30.9788 30.689 31.1043 30.6372 31.227C30.5799 31.3634 30.5171 31.4998 30.4517 31.6362C30.4298 31.6826 30.408 31.7289 30.3862 31.7726C30.3644 31.819 30.3398 31.8626 30.3153 31.909C30.288 31.9663 30.258 32.0208 30.228 32.0754C30.2007 32.1299 30.168 32.1845 30.138 32.2391C30.108 32.2963 30.0752 32.3536 30.0398 32.4082C29.9852 32.5037 29.9279 32.5964 29.8679 32.6891C29.7561 32.8665 29.6388 33.0329 29.5187 33.1938C29.4533 33.2811 29.3851 33.3684 29.3169 33.4502C29.2487 33.5375 29.175 33.6221 29.1014 33.7039C29.025 33.7858 28.9459 33.8703 28.8668 33.9522C28.1739 34.6532 27.2682 35.2752 26.1062 35.5562C26.038 35.5725 25.967 35.5862 25.8988 35.5998C25.8279 35.6134 25.757 35.6271 25.6833 35.638C25.6451 35.6462 25.6042 35.6516 25.566 35.6544C25.5115 35.6653 25.4542 35.6735 25.3969 35.6762C25.3805 35.6762 25.3642 35.6816 25.3478 35.6816C25.3178 35.6871 25.2851 35.6898 25.2523 35.6925C25.2278 35.6925 25.2005 35.6925 25.1759 35.6925C25.1678 35.6953 25.1569 35.6953 25.1487 35.6953H25.1459C25.1023 35.698 25.0587 35.7007 25.0123 35.7035C24.8732 35.7089 24.7368 35.7089 24.6058 35.7007C24.554 35.698 24.5022 35.6953 24.4503 35.6898H24.4449C24.4449 35.6898 24.4285 35.6871 24.4203 35.6871C24.4067 35.6898 24.393 35.6871 24.3794 35.6844C24.3194 35.6762 24.2594 35.6707 24.2021 35.6625C24.0712 35.6407 23.9484 35.6162 23.8284 35.5862C23.7684 35.5725 23.7083 35.5562 23.6511 35.5371C23.5938 35.5207 23.5392 35.5016 23.4847 35.4825C23.4274 35.4607 23.3701 35.4389 23.3155 35.4143C23.2637 35.3925 23.2146 35.3707 23.1655 35.3461C23.1164 35.3216 23.0673 35.297 23.0182 35.2697C22.98 35.2506 22.9445 35.2288 22.9091 35.207C22.8845 35.1933 22.86 35.177 22.8382 35.1633C22.7945 35.1361 22.7509 35.1088 22.7099 35.0788C22.6663 35.0515 22.6254 35.0215 22.5872 34.9915C22.5135 34.9369 22.4453 34.8824 22.3799 34.8223C22.3499 34.7978 22.3199 34.7732 22.2926 34.746C22.208 34.6696 22.1316 34.5932 22.0634 34.5141C22.0252 34.4732 21.9871 34.4295 21.9543 34.3886C21.9298 34.3641 21.9107 34.3368 21.8916 34.3122C21.5751 33.914 21.376 33.5184 21.2642 33.2511V33.2429L21.2614 33.2402C21.256 33.2293 21.2505 33.2184 21.2478 33.2102C21.2478 33.2102 21.2505 33.2102 21.2505 33.2074C22.0389 32.7273 22.8491 32.1027 23.6101 31.287H23.6129C23.6129 31.287 23.6156 31.2816 23.6183 31.2788C24.674 30.1495 25.6424 28.6601 26.3571 26.6933C26.4853 26.3386 26.5972 25.9867 26.6899 25.643C27.271 23.5044 27.1864 21.5894 26.7772 19.9445V19.939C26.7772 19.939 26.7745 19.9309 26.7745 19.9254L26.7718 19.9281Z" fill="white"/>
<path d="M46.1178 41.6584C46.1178 41.6584 46.115 41.683 46.115 41.6966C46.1123 41.7075 46.1123 41.7212 46.1096 41.7348V41.743C46.1041 41.7812 46.0987 41.8221 46.0905 41.863C46.0905 41.8685 46.0905 41.8767 46.0878 41.8821V41.8903C46.0741 41.9585 46.0605 42.0294 46.0414 42.1003C46.0223 42.1713 46.0005 42.2449 45.9759 42.3186C45.9514 42.3922 45.9241 42.4659 45.8914 42.5423C45.8614 42.6159 45.8286 42.6923 45.7904 42.7687C45.7604 42.8314 45.725 42.8969 45.6895 42.9624C45.6404 43.0524 45.5886 43.1424 45.5313 43.2297C45.4822 43.3061 45.4303 43.3852 45.3758 43.4616C45.3212 43.5379 45.2639 43.6143 45.2039 43.6907L45.1957 43.6989C45.1957 43.6989 45.1848 43.7125 45.1794 43.7207C45.1303 43.7807 45.0812 43.8407 45.0294 43.898C45.0266 43.9035 45.0239 43.9062 45.0184 43.9117C45.013 43.9198 45.0048 43.9308 44.9966 43.9389C44.953 43.9908 44.9093 44.0399 44.8602 44.089C44.7702 44.1872 44.672 44.2854 44.5711 44.3836C44.4128 44.5336 44.2437 44.6836 44.0637 44.8282C43.8836 44.9728 43.69 45.1147 43.4881 45.251C43.3844 45.3192 43.2808 45.3874 43.1717 45.4529C42.7434 45.7148 42.2687 45.9576 41.7477 46.1703C41.4886 46.2767 41.2185 46.3749 40.9375 46.4622C40.6566 46.5522 40.3619 46.6341 40.0592 46.705C39.9146 46.7377 39.7673 46.7705 39.6172 46.8005C39.6009 46.8032 39.5845 46.8059 39.5654 46.8087H39.56C39.4317 46.8332 39.3008 46.855 39.1671 46.8769C39.1535 46.8769 39.1426 46.8769 39.1289 46.8823C39.1235 46.885 39.118 46.8878 39.1126 46.885C39.0744 46.8905 39.0362 46.896 38.998 46.9014C38.7116 46.9423 38.417 46.9751 38.1142 46.9996C37.5877 47.0378 37.0394 47.0487 36.4665 47.0269C29.8023 46.7759 27.2381 43.4779 27.2381 43.4779C26.357 44.1081 21.7442 47.0651 18.4162 47.6188C17.7478 47.7307 16.8831 47.8016 15.8983 47.8016C15.631 47.8016 15.3582 47.7962 15.0745 47.7852C14.9327 47.7798 14.7908 47.7716 14.6462 47.7634C14.3543 47.7471 14.0597 47.7252 13.7569 47.6925C13.6069 47.6789 13.4541 47.6625 13.3014 47.6434C13.225 47.6352 13.1486 47.6243 13.0722 47.6134C12.9304 47.597 12.7885 47.5752 12.6467 47.5534C12.6331 47.5507 12.6194 47.5506 12.6058 47.5479C12.4748 47.5288 12.3466 47.507 12.2157 47.4824C12.1011 47.4634 11.9838 47.4443 11.8692 47.4197C11.7356 47.3952 11.5992 47.3679 11.4628 47.3379C11.3455 47.3133 11.2255 47.286 11.1054 47.2588C10.9936 47.2342 10.8845 47.2069 10.7726 47.1797C10.7454 47.1742 10.7181 47.166 10.6908 47.1606C10.5708 47.1278 10.448 47.0978 10.3253 47.0624C10.2653 47.046 10.208 47.0296 10.148 47.0105C10.0443 46.9832 9.94336 46.9532 9.84243 46.9205C9.74696 46.8932 9.65148 46.8632 9.55328 46.8305C9.36233 46.7705 9.17137 46.705 8.98315 46.6341C8.88767 46.6013 8.79493 46.5659 8.69945 46.5277C8.65035 46.5086 8.60125 46.4895 8.55215 46.4704C8.47576 46.4404 8.39938 46.4104 8.32573 46.3777C8.24662 46.3449 8.17024 46.3122 8.09113 46.2795C8.01475 46.2467 7.93564 46.2113 7.85926 46.1758C7.70377 46.1076 7.55101 46.034 7.39825 45.9603C7.24822 45.8839 7.09546 45.8048 6.94542 45.7257C6.86904 45.6848 6.79539 45.6439 6.72174 45.6002C6.64809 45.5593 6.57443 45.5184 6.50078 45.472C6.42713 45.4311 6.35347 45.3874 6.28255 45.3411C6.2089 45.2974 6.13797 45.251 6.06705 45.2047C5.99612 45.1583 5.92247 45.1119 5.85154 45.0628C5.70969 44.9673 5.57057 44.8664 5.43418 44.7655C5.36598 44.7164 5.29506 44.6646 5.22686 44.61C5.15866 44.5582 5.09047 44.5063 5.025 44.4491C4.9568 44.3972 4.89133 44.3427 4.82586 44.2854C4.76039 44.2308 4.69492 44.1735 4.63218 44.1162C4.50124 44.0017 4.37576 43.8844 4.25028 43.7616C4.18208 43.6962 4.11661 43.6307 4.05387 43.5625C3.99659 43.5052 3.94203 43.4479 3.88747 43.3879C3.81109 43.3061 3.73744 43.2242 3.66379 43.1397C3.6256 43.096 3.5874 43.0524 3.54921 43.006C3.46738 42.9078 3.38554 42.8041 3.30371 42.7005C3.30098 42.6978 3.29825 42.695 3.29825 42.6923C3.2546 42.6405 3.21369 42.5859 3.1755 42.5313C3.13185 42.4741 3.09093 42.4195 3.05001 42.3595C2.94635 42.2149 2.84542 42.0649 2.74722 41.9121C2.68175 41.8112 2.61901 41.7075 2.55627 41.6011C2.47989 41.4702 2.40623 41.3338 2.33258 41.1974C-1.8138 33.3384 -0.0133962 27.3316 4.44941 20.9838C4.54762 20.842 4.64855 20.7056 4.74948 20.5692C4.83405 20.4573 4.91861 20.3455 5.0059 20.2364C5.07683 20.1409 5.15321 20.0482 5.22959 19.9554C5.39599 19.7508 5.56512 19.549 5.7397 19.3553C5.7888 19.3007 5.83791 19.2434 5.88973 19.1889C5.90065 19.1752 5.91156 19.1643 5.92247 19.1507C6.00976 19.0552 6.09978 18.9597 6.1898 18.867C6.3071 18.747 6.4244 18.6269 6.5417 18.5151C6.58262 18.4742 6.62353 18.4333 6.66445 18.3923C6.73811 18.3214 6.81176 18.2505 6.88541 18.185C6.96452 18.1114 7.04363 18.0404 7.12274 17.9695C7.20185 17.8986 7.28095 17.8277 7.36006 17.7595C7.4719 17.664 7.58648 17.5713 7.69832 17.4785C7.82926 17.3748 7.95747 17.2712 8.08841 17.173C8.34755 16.9738 8.61216 16.7884 8.87949 16.6083H8.88222C9.01589 16.5183 9.14955 16.4337 9.28322 16.3492C9.45507 16.2428 9.62966 16.1391 9.80151 16.0409C9.92154 15.9727 10.0388 15.9072 10.1589 15.8418C10.1616 15.8418 10.1616 15.839 10.1643 15.839C10.2707 15.7818 10.3798 15.7245 10.4889 15.6726C10.5135 15.659 10.538 15.6481 10.5626 15.6345C10.6663 15.5826 10.7726 15.5308 10.8763 15.4844C10.8954 15.4735 10.9145 15.4653 10.9336 15.4571C11.0454 15.4053 11.1573 15.3535 11.2718 15.3044C11.3864 15.2526 11.5037 15.2062 11.621 15.1598C11.6974 15.1271 11.7765 15.0971 11.8556 15.0671C11.9511 15.0289 12.0466 14.9934 12.142 14.9579C12.3084 14.8979 12.4776 14.8406 12.644 14.7861C12.764 14.7479 12.884 14.7124 13.0013 14.677C13.1404 14.6361 13.2796 14.5979 13.4187 14.5597C13.6642 14.4942 13.9124 14.4369 14.1579 14.3851C14.2125 14.3742 14.2671 14.3633 14.3216 14.3524C14.4362 14.3305 14.5508 14.3087 14.6626 14.2896C14.769 14.2705 14.8726 14.2542 14.9763 14.2405C15.0009 14.2351 15.0227 14.2323 15.0472 14.2296C15.0718 14.2241 15.0936 14.2214 15.1154 14.2187C15.2382 14.2023 15.3609 14.186 15.4837 14.1723C15.6201 14.1559 15.7565 14.1423 15.8901 14.1314C15.9802 14.1232 16.0702 14.1178 16.1575 14.1123C16.2284 14.1068 16.302 14.1014 16.373 14.0987C16.493 14.0932 16.613 14.0878 16.7331 14.085C16.8531 14.0823 16.9731 14.0796 17.0904 14.0796C18.2361 14.0796 19.33 14.2214 20.3257 14.4833C21.0677 14.6797 21.7087 14.9661 22.2652 15.3344C23.1108 15.8854 23.7519 16.6165 24.2238 17.4621C24.8867 18.646 25.2168 20.0536 25.3122 21.5158C25.3968 22.285 25.3913 23.1143 25.2604 23.9954C25.2031 24.5983 25.1131 25.1957 24.9985 25.774C24.9467 26.0331 24.8758 26.295 24.783 26.5569C24.1502 28.4364 22.5762 30.3241 20.7185 31.5298C20.713 31.5325 20.7076 31.538 20.7021 31.538C20.383 31.759 20.0665 31.9445 19.7583 32.1054C19.7528 32.1108 19.7501 32.1136 19.7446 32.1136C19.3327 32.3318 18.9099 32.5118 18.4898 32.6401C18.378 32.6755 18.2607 32.7055 18.1406 32.7355C17.9606 32.7819 17.7724 32.8174 17.576 32.8419C17.5187 32.8501 17.4614 32.8556 17.4041 32.861C17.3768 32.8637 17.3496 32.8665 17.3195 32.8665C17.2895 32.8719 17.2623 32.8747 17.235 32.8747C17.1477 32.8801 17.0604 32.8828 16.9731 32.8828H16.9704C16.7112 32.8828 16.4439 32.861 16.1766 32.8037C15.5628 32.6755 14.9408 32.3809 14.3762 31.8217C11.5119 28.9983 13.8851 24.0145 13.9097 23.9654L13.1732 23.6053L12.734 23.3898L12.4394 23.2452C12.3357 23.4607 10.1861 27.9426 12.1148 31.5107C9.68967 32.0126 8.40484 33.4284 8.34483 33.4966L9.56419 34.5878C9.61602 34.5305 10.8545 33.202 13.2441 33.0029C14.0843 33.824 15.0963 34.3177 16.2202 34.4677C16.2802 34.4759 16.343 34.4841 16.4057 34.4896C16.5176 34.5032 16.6294 34.5087 16.744 34.5114C16.7631 34.5141 16.7822 34.5141 16.8013 34.5141C16.8067 34.5168 16.8094 34.5168 16.8149 34.5168C16.8694 34.5168 16.9213 34.5168 16.9758 34.5168C16.9977 34.5168 17.0195 34.5168 17.0386 34.5168C17.0986 34.5168 17.1586 34.5168 17.2186 34.5114C17.2595 34.5114 17.3032 34.5087 17.3441 34.5032C17.4014 34.5032 17.4587 34.4977 17.516 34.4923C17.5323 34.4923 17.5487 34.4896 17.5651 34.4868C17.606 34.4814 17.6496 34.4786 17.6933 34.4732C17.7369 34.4705 17.7778 34.465 17.8188 34.4568C17.8815 34.4486 17.9415 34.4405 18.0042 34.4295C18.0533 34.4241 18.1024 34.4159 18.1488 34.405C18.1897 34.3968 18.2307 34.3886 18.2743 34.3804C18.337 34.3695 18.3971 34.3559 18.4598 34.3395C18.5444 34.3204 18.6289 34.2986 18.7135 34.2768C18.7981 34.255 18.8826 34.2304 18.9699 34.2031C19.1581 34.1458 19.3436 34.0804 19.5291 34.0067C19.5919 33.9849 19.6546 33.9604 19.7174 33.9331C19.7174 33.9331 19.731 33.9276 19.7583 33.914C19.7637 33.9303 19.7719 33.9494 19.7801 33.9658C20.3802 35.3679 21.9024 37.2747 24.6521 37.3429C24.7039 37.3484 24.7557 37.3484 24.8103 37.3484C24.8976 37.3484 24.9876 37.3484 25.0776 37.3429C25.6778 37.3156 26.2534 37.2229 26.8071 37.0647C28.5748 36.5573 30.086 35.3707 31.2426 33.5757C33.3513 30.2941 33.8723 25.4412 32.4866 22.0341C32.3938 21.8049 32.2956 21.5812 32.1947 21.3685C30.9971 18.8479 29.2758 17.3394 28.1929 16.581C28.3429 15.7763 28.5584 15.0098 28.8257 14.2842C28.8939 14.1041 28.9621 13.9241 29.0358 13.7495C29.1094 13.5722 29.1831 13.3976 29.2622 13.2285C29.3413 13.0566 29.4231 12.8875 29.5077 12.7238C29.5923 12.5574 29.6768 12.3937 29.7669 12.2355C29.8487 12.0909 29.9305 11.9491 30.0151 11.8072C30.0969 11.6681 30.1842 11.529 30.2715 11.3926C30.2906 11.3653 30.3097 11.3353 30.3261 11.308C30.397 11.2017 30.4679 11.0953 30.5389 10.9943C30.618 10.8798 30.6971 10.7679 30.7762 10.6588C30.7925 10.637 30.8062 10.6179 30.8198 10.5988C30.828 10.5906 30.8335 10.5797 30.8389 10.5715C30.9208 10.4624 31.0026 10.3587 31.0844 10.2551C31.0872 10.2524 31.0899 10.2496 31.0899 10.2469C31.1854 10.1241 31.2836 10.0041 31.3818 9.88682C31.48 9.76952 31.5836 9.65222 31.6846 9.53765L31.8319 9.37397C31.881 9.32214 31.9273 9.27032 31.9764 9.21849L31.9819 9.21303H31.9846C32.0692 9.12028 32.1538 9.03299 32.2383 8.94843C32.3229 8.86659 32.4074 8.78202 32.492 8.70292C32.5493 8.64563 32.6093 8.59107 32.6693 8.53924C32.8112 8.40558 32.953 8.28282 33.0921 8.1628C33.2067 8.06459 33.3213 7.97184 33.4359 7.88182C33.5504 7.7918 33.6623 7.70724 33.7768 7.62268H33.7796C33.8914 7.53811 34.0033 7.459 34.1178 7.38262C34.1178 7.38262 34.1206 7.38262 34.1206 7.37989C34.2079 7.31988 34.2951 7.2626 34.3824 7.20804C34.4779 7.14802 34.5707 7.09074 34.6634 7.03345C34.7616 6.97617 34.8571 6.92161 34.9526 6.86978C35.1735 6.74975 35.3863 6.64609 35.5909 6.55607C35.6427 6.53152 35.6945 6.5097 35.7464 6.49061C35.8309 6.45514 35.9155 6.42514 35.9946 6.39513C36.0355 6.38149 36.0764 6.36785 36.1174 6.35421C36.1556 6.34057 36.1965 6.32966 36.2347 6.31875C36.2892 6.29965 36.3438 6.28329 36.3983 6.26965C36.4584 6.25328 36.5184 6.23691 36.5784 6.226C36.592 6.22327 36.6029 6.22055 36.6138 6.21782C36.6629 6.20691 36.7093 6.19872 36.7557 6.19054C36.7966 6.18236 36.8375 6.1769 36.8757 6.17144C36.9085 6.16599 36.9385 6.16326 36.9685 6.16053C37.0094 6.15508 37.0476 6.15235 37.0885 6.14962C37.1403 6.14962 37.1922 6.14417 37.244 6.14417C37.4377 6.14417 37.615 6.16872 37.7705 6.21782C42.7734 7.82181 40.2201 16.461 39.5299 19.2898C38.8371 22.1186 35.4572 35.9326 35.4572 35.9326C38.2806 38.7969 45.1221 37.2365 46.0769 41.0556C46.1232 41.2411 46.1369 41.4429 46.1178 41.6584Z" fill="white"/>
<path d="M28.6057 3.17392C27.834 3.47434 27.2238 3.84649 26.7751 4.29041C26.3302 4.71661 26.0272 5.30384 25.8672 6.05161C25.9244 6.04523 26.0068 6.05351 26.1136 6.07633C26.4697 6.15248 26.7655 6.33722 27.0009 6.62958C27.2541 6.92582 27.3336 7.29672 27.2384 7.74192C27.1432 8.18711 26.933 8.51477 26.6088 8.72476C26.2846 8.93467 25.9176 8.99539 25.5081 8.90782C24.974 8.79356 24.5997 8.49958 24.3846 8.02544C24.191 7.53712 24.1757 6.91006 24.3394 6.14433C24.5679 5.07592 25.0062 4.20122 25.6545 3.5205C26.3029 2.83976 27.1474 2.33124 28.1877 1.99502L28.6057 3.17392Z" fill="#C6EB0F"/>
<path d="M28.6057 3.17392C27.834 3.47434 27.2238 3.84649 26.7751 4.29041C26.3302 4.71661 26.0272 5.30384 25.8672 6.05161C25.9244 6.04523 26.0068 6.05351 26.1136 6.07633C26.4697 6.15248 26.7655 6.33722 27.0009 6.62958C27.2541 6.92582 27.3336 7.29672 27.2384 7.74192C27.1432 8.18711 26.933 8.51477 26.6088 8.72476C26.2846 8.93467 25.9176 8.99539 25.5081 8.90782C24.974 8.79356 24.5997 8.49958 24.3846 8.02544C24.191 7.53712 24.1757 6.91006 24.3394 6.14433C24.5679 5.07592 25.0062 4.20122 25.6545 3.5205C26.3029 2.83976 27.1474 2.33124 28.1877 1.99502L28.6057 3.17392Z" stroke="#C6EB0F"/>
<path d="M48.7834 47.7985C49.5865 47.5965 50.2383 47.3033 50.7388 46.9187C51.2333 46.5512 51.6071 46.0063 51.859 45.2843C51.8014 45.2835 51.7207 45.265 51.6176 45.2291C51.2737 45.1092 51.0032 44.889 50.8061 44.5696C50.5917 44.2441 50.5591 43.8662 50.709 43.4364C50.8589 43.0065 51.1082 42.7076 51.4561 42.5396C51.8039 42.3717 52.1756 42.3571 52.571 42.495C53.0867 42.6749 53.4215 43.0132 53.5759 43.5104C53.7071 44.0191 53.6442 44.6431 53.3864 45.3825C53.0267 46.4142 52.4828 47.2275 51.7548 47.8222C51.0267 48.4169 50.1254 48.8162 49.0514 49.0203L48.7834 47.7985Z" fill="#C6EB0F"/>
<path d="M48.7834 47.7985C49.5865 47.5965 50.2383 47.3033 50.7388 46.9187C51.2333 46.5512 51.6071 46.0063 51.859 45.2843C51.8014 45.2835 51.7207 45.265 51.6176 45.2291C51.2737 45.1092 51.0032 44.889 50.8061 44.5696C50.5917 44.2441 50.5591 43.8662 50.709 43.4364C50.8589 43.0065 51.1082 42.7076 51.4561 42.5396C51.8039 42.3717 52.1756 42.3571 52.571 42.495C53.0867 42.6749 53.4215 43.0132 53.5759 43.5104C53.7071 44.0191 53.6442 44.6431 53.3864 45.3825C53.0267 46.4142 52.4828 47.2275 51.7548 47.8222C51.0267 48.4169 50.1254 48.8162 49.0514 49.0203L48.7834 47.7985Z" stroke="#C6EB0F"/>
<path opacity="0.7" d="M24.0663 0.783938L24.3735 1.64955L24.411 1.75443L24.3065 1.79499C23.7504 2.01147 23.3173 2.27773 23.0021 2.5896L23.0009 2.59035C22.72 2.85948 22.5185 3.22584 22.3992 3.695C22.4189 3.69824 22.4394 3.70059 22.46 3.705C22.7467 3.76631 22.9857 3.91571 23.1741 4.14831C23.3873 4.39775 23.4496 4.70877 23.3738 5.06382C23.2988 5.41467 23.1305 5.68455 22.8624 5.85823C22.5965 6.03045 22.2951 6.07847 21.9674 6.00839C21.5418 5.91731 21.2352 5.67854 21.0614 5.29534L21.0593 5.29091C20.9057 4.9034 20.8985 4.41759 21.0212 3.84373C21.1926 3.04223 21.5234 2.3798 22.0161 1.86246C22.5072 1.34704 23.1441 0.964898 23.9226 0.71327L24.029 0.678098L24.0663 0.783938Z" fill="#C6EB0F" stroke="#C6EB0F" stroke-width="0.230631"/>
<path opacity="0.7" d="M52.9897 50.7351L52.7927 49.838L52.7686 49.7292L52.8774 49.702C53.456 49.5565 53.919 49.3462 54.2705 49.076L54.2718 49.0754C54.584 48.8434 54.8296 48.505 55.0064 48.0543C54.9873 48.0487 54.9673 48.0438 54.9473 48.0368C54.6705 47.9403 54.452 47.7623 54.294 47.508C54.1135 47.234 54.0904 46.9176 54.2099 46.5748C54.328 46.236 54.5286 45.9892 54.8162 45.8503C55.1015 45.7125 55.4065 45.7024 55.7229 45.8127C56.1339 45.9561 56.4084 46.2312 56.5331 46.633L56.5346 46.6377C56.6387 47.0413 56.5854 47.5242 56.3922 48.0784C56.1223 48.8523 55.7116 49.4684 55.1583 49.9203C54.6069 50.3706 53.9273 50.6704 53.1235 50.8231L53.0136 50.8448L52.9897 50.7351Z" fill="#C6EB0F" stroke="#C6EB0F" stroke-width="0.230631"/>
</svg>
