<svg width="47" height="42" viewBox="0 0 47 42" fill="none" xmlns="http://www.w3.org/2000/svg">
<path d="M17.0386 28.5168C17.0195 28.5168 16.9977 28.5168 16.9759 28.5168C16.9213 28.5168 16.8695 28.5168 16.8149 28.5168C16.8095 28.5168 16.8067 28.5168 16.8013 28.5141C16.8804 28.5168 16.9595 28.5196 17.0386 28.5168Z" fill="white"/>
<path d="M16.8013 28.5141C16.8013 28.5141 16.8095 28.5168 16.8149 28.5168C16.8695 28.5168 16.9213 28.5168 16.9759 28.5168C16.9977 28.5168 17.0195 28.5168 17.0386 28.5168C16.9595 28.5168 16.8804 28.5168 16.8013 28.5141Z" fill="white"/>
<path d="M26.7718 13.9281C26.5235 12.9352 26.158 12.0459 25.7461 11.2657C25.7734 11.2603 25.8606 11.2548 25.9507 11.2548C26.0489 11.2521 26.1525 11.2521 26.1853 11.2603C26.2562 11.2739 26.3244 11.2903 26.3926 11.3066C28.1984 11.754 29.3987 13.4589 30.1652 14.8311C30.5144 15.4557 30.8008 16.1077 31.0218 16.7842C31.0409 16.8279 31.0545 16.8742 31.0682 16.9179C31.0736 16.9288 31.0764 16.9424 31.0791 16.9533C31.0818 16.9643 31.0873 16.9752 31.09 16.9861C31.3601 17.8454 31.5292 18.7347 31.5892 19.6321C31.5974 19.7576 31.6028 19.8831 31.6083 20.0086C31.6137 20.1341 31.6137 20.2595 31.6137 20.385C31.6137 20.5487 31.611 20.7151 31.6028 20.8788C31.5974 20.9988 31.5919 21.1161 31.581 21.2361V21.2525C31.581 21.2525 31.581 21.2661 31.5783 21.2743C31.5728 21.3698 31.5646 21.468 31.5537 21.5635C31.5537 21.5716 31.5537 21.5771 31.5537 21.5853C31.5374 21.7626 31.5155 21.9372 31.491 22.1145C31.4528 22.3846 31.4064 22.6519 31.3519 22.9192C31.2209 23.5766 31.0354 24.2286 30.7899 24.8533C30.7408 24.9788 30.689 25.1043 30.6372 25.227C30.5799 25.3634 30.5171 25.4998 30.4517 25.6362C30.4298 25.6826 30.408 25.7289 30.3862 25.7726C30.3644 25.819 30.3398 25.8626 30.3153 25.909C30.288 25.9663 30.258 26.0208 30.228 26.0754C30.2007 26.1299 30.168 26.1845 30.138 26.2391C30.108 26.2963 30.0752 26.3536 30.0398 26.4082C29.9852 26.5037 29.9279 26.5964 29.8679 26.6891C29.7561 26.8665 29.6388 27.0329 29.5187 27.1938C29.4533 27.2811 29.3851 27.3684 29.3169 27.4502C29.2487 27.5375 29.175 27.6221 29.1014 27.7039C29.025 27.7858 28.9459 27.8703 28.8668 27.9522C28.1739 28.6532 27.2682 29.2752 26.1062 29.5562C26.038 29.5725 25.967 29.5862 25.8988 29.5998C25.8279 29.6134 25.757 29.6271 25.6833 29.638C25.6451 29.6462 25.6042 29.6516 25.566 29.6544C25.5115 29.6653 25.4542 29.6735 25.3969 29.6762C25.3805 29.6762 25.3642 29.6816 25.3478 29.6816C25.3178 29.6871 25.2851 29.6898 25.2523 29.6925C25.2278 29.6925 25.2005 29.6925 25.1759 29.6925C25.1678 29.6953 25.1569 29.6953 25.1487 29.6953H25.1459C25.1023 29.698 25.0587 29.7007 25.0123 29.7035C24.8732 29.7089 24.7368 29.7089 24.6058 29.7007C24.554 29.698 24.5022 29.6953 24.4503 29.6898H24.4449C24.4449 29.6898 24.4285 29.6871 24.4203 29.6871C24.4067 29.6898 24.393 29.6871 24.3794 29.6844C24.3194 29.6762 24.2594 29.6707 24.2021 29.6625C24.0712 29.6407 23.9484 29.6162 23.8284 29.5862C23.7684 29.5725 23.7083 29.5562 23.6511 29.5371C23.5938 29.5207 23.5392 29.5016 23.4847 29.4825C23.4274 29.4607 23.3701 29.4389 23.3155 29.4143C23.2637 29.3925 23.2146 29.3707 23.1655 29.3461C23.1164 29.3216 23.0673 29.297 23.0182 29.2697C22.98 29.2506 22.9445 29.2288 22.9091 29.207C22.8845 29.1933 22.86 29.177 22.8382 29.1633C22.7945 29.1361 22.7509 29.1088 22.7099 29.0788C22.6663 29.0515 22.6254 29.0215 22.5872 28.9915C22.5135 28.9369 22.4453 28.8824 22.3799 28.8223C22.3499 28.7978 22.3199 28.7732 22.2926 28.746C22.208 28.6696 22.1316 28.5932 22.0634 28.5141C22.0252 28.4732 21.9871 28.4295 21.9543 28.3886C21.9298 28.3641 21.9107 28.3368 21.8916 28.3122C21.5751 27.914 21.376 27.5184 21.2642 27.2511V27.2429L21.2614 27.2402C21.256 27.2293 21.2505 27.2184 21.2478 27.2102C21.2478 27.2102 21.2505 27.2102 21.2505 27.2074C22.0389 26.7273 22.8491 26.1027 23.6101 25.287H23.6129C23.6129 25.287 23.6156 25.2816 23.6183 25.2788C24.674 24.1495 25.6424 22.6601 26.3571 20.6933C26.4853 20.3386 26.5972 19.9867 26.6899 19.643C27.271 17.5044 27.1864 15.5894 26.7772 13.9445V13.939C26.7772 13.939 26.7745 13.9309 26.7745 13.9254L26.7718 13.9281Z" fill="white"/>
<path d="M46.1178 35.6584C46.1178 35.6584 46.115 35.683 46.115 35.6966C46.1123 35.7075 46.1123 35.7212 46.1096 35.7348V35.743C46.1041 35.7812 46.0987 35.8221 46.0905 35.863C46.0905 35.8685 46.0905 35.8767 46.0878 35.8821V35.8903C46.0741 35.9585 46.0605 36.0294 46.0414 36.1003C46.0223 36.1713 46.0005 36.2449 45.9759 36.3186C45.9514 36.3922 45.9241 36.4659 45.8914 36.5423C45.8614 36.6159 45.8286 36.6923 45.7904 36.7687C45.7604 36.8314 45.725 36.8969 45.6895 36.9624C45.6404 37.0524 45.5886 37.1424 45.5313 37.2297C45.4822 37.3061 45.4303 37.3852 45.3758 37.4616C45.3212 37.5379 45.2639 37.6143 45.2039 37.6907L45.1957 37.6989C45.1957 37.6989 45.1848 37.7125 45.1794 37.7207C45.1303 37.7807 45.0812 37.8407 45.0294 37.898C45.0266 37.9035 45.0239 37.9062 45.0184 37.9117C45.013 37.9198 45.0048 37.9308 44.9966 37.9389C44.953 37.9908 44.9093 38.0399 44.8602 38.089C44.7702 38.1872 44.672 38.2854 44.5711 38.3836C44.4128 38.5336 44.2437 38.6836 44.0637 38.8282C43.8836 38.9728 43.69 39.1147 43.4881 39.251C43.3844 39.3192 43.2808 39.3874 43.1717 39.4529C42.7434 39.7148 42.2687 39.9576 41.7477 40.1703C41.4886 40.2767 41.2185 40.3749 40.9375 40.4622C40.6566 40.5522 40.3619 40.6341 40.0592 40.705C39.9146 40.7377 39.7673 40.7705 39.6172 40.8005C39.6009 40.8032 39.5845 40.8059 39.5654 40.8087H39.56C39.4317 40.8332 39.3008 40.855 39.1671 40.8769C39.1535 40.8769 39.1426 40.8769 39.1289 40.8823C39.1235 40.885 39.118 40.8878 39.1126 40.885C39.0744 40.8905 39.0362 40.896 38.998 40.9014C38.7116 40.9423 38.417 40.9751 38.1142 40.9996C37.5877 41.0378 37.0394 41.0487 36.4665 41.0269C29.8023 40.7759 27.2381 37.4779 27.2381 37.4779C26.357 38.1081 21.7442 41.0651 18.4162 41.6188C17.7478 41.7307 16.8831 41.8016 15.8983 41.8016C15.631 41.8016 15.3582 41.7962 15.0745 41.7852C14.9327 41.7798 14.7908 41.7716 14.6462 41.7634C14.3543 41.7471 14.0597 41.7252 13.7569 41.6925C13.6069 41.6789 13.4541 41.6625 13.3014 41.6434C13.225 41.6352 13.1486 41.6243 13.0722 41.6134C12.9304 41.597 12.7885 41.5752 12.6467 41.5534C12.6331 41.5507 12.6194 41.5506 12.6058 41.5479C12.4748 41.5288 12.3466 41.507 12.2157 41.4824C12.1011 41.4634 11.9838 41.4443 11.8692 41.4197C11.7356 41.3952 11.5992 41.3679 11.4628 41.3379C11.3455 41.3133 11.2255 41.286 11.1054 41.2588C10.9936 41.2342 10.8845 41.2069 10.7726 41.1797C10.7454 41.1742 10.7181 41.166 10.6908 41.1606C10.5708 41.1278 10.448 41.0978 10.3253 41.0624C10.2653 41.046 10.208 41.0296 10.148 41.0105C10.0443 40.9832 9.94336 40.9532 9.84243 40.9205C9.74696 40.8932 9.65148 40.8632 9.55328 40.8305C9.36233 40.7705 9.17137 40.705 8.98315 40.6341C8.88767 40.6013 8.79493 40.5659 8.69945 40.5277C8.65035 40.5086 8.60125 40.4895 8.55215 40.4704C8.47576 40.4404 8.39938 40.4104 8.32573 40.3777C8.24662 40.3449 8.17024 40.3122 8.09113 40.2795C8.01475 40.2467 7.93564 40.2113 7.85926 40.1758C7.70377 40.1076 7.55101 40.034 7.39825 39.9603C7.24822 39.8839 7.09546 39.8048 6.94542 39.7257C6.86904 39.6848 6.79539 39.6439 6.72174 39.6002C6.64809 39.5593 6.57443 39.5184 6.50078 39.472C6.42713 39.4311 6.35347 39.3874 6.28255 39.3411C6.2089 39.2974 6.13797 39.251 6.06705 39.2047C5.99612 39.1583 5.92247 39.1119 5.85154 39.0628C5.70969 38.9673 5.57057 38.8664 5.43418 38.7655C5.36598 38.7164 5.29506 38.6646 5.22686 38.61C5.15866 38.5582 5.09047 38.5063 5.025 38.4491C4.9568 38.3972 4.89133 38.3427 4.82586 38.2854C4.76039 38.2308 4.69492 38.1735 4.63218 38.1162C4.50124 38.0017 4.37576 37.8844 4.25028 37.7616C4.18208 37.6962 4.11661 37.6307 4.05387 37.5625C3.99659 37.5052 3.94203 37.4479 3.88747 37.3879C3.81109 37.3061 3.73744 37.2242 3.66379 37.1397C3.6256 37.096 3.5874 37.0524 3.54921 37.006C3.46738 36.9078 3.38554 36.8041 3.30371 36.7005C3.30098 36.6978 3.29825 36.695 3.29825 36.6923C3.2546 36.6405 3.21369 36.5859 3.1755 36.5313C3.13185 36.4741 3.09093 36.4195 3.05001 36.3595C2.94635 36.2149 2.84542 36.0649 2.74722 35.9121C2.68175 35.8112 2.61901 35.7075 2.55627 35.6011C2.47989 35.4702 2.40623 35.3338 2.33258 35.1974C-1.8138 27.3384 -0.0133962 21.3316 4.44941 14.9838C4.54762 14.842 4.64855 14.7056 4.74948 14.5692C4.83405 14.4573 4.91861 14.3455 5.0059 14.2364C5.07683 14.1409 5.15321 14.0482 5.22959 13.9554C5.39599 13.7508 5.56512 13.549 5.7397 13.3553C5.7888 13.3007 5.83791 13.2434 5.88973 13.1889C5.90065 13.1752 5.91156 13.1643 5.92247 13.1507C6.00976 13.0552 6.09978 12.9597 6.1898 12.867C6.3071 12.747 6.4244 12.6269 6.5417 12.5151C6.58262 12.4742 6.62353 12.4333 6.66445 12.3923C6.73811 12.3214 6.81176 12.2505 6.88541 12.185C6.96452 12.1114 7.04363 12.0404 7.12274 11.9695C7.20185 11.8986 7.28095 11.8277 7.36006 11.7595C7.4719 11.664 7.58648 11.5713 7.69832 11.4785C7.82926 11.3748 7.95747 11.2712 8.08841 11.173C8.34755 10.9738 8.61216 10.7884 8.87949 10.6083H8.88222C9.01589 10.5183 9.14955 10.4337 9.28322 10.3492C9.45507 10.2428 9.62966 10.1391 9.80151 10.0409C9.92154 9.97271 10.0388 9.90725 10.1589 9.84178C10.1616 9.84178 10.1616 9.83905 10.1643 9.83905C10.2707 9.78176 10.3798 9.72448 10.4889 9.67265C10.5135 9.65901 10.538 9.6481 10.5626 9.63446C10.6663 9.58263 10.7726 9.5308 10.8763 9.48443C10.8954 9.47351 10.9145 9.46533 10.9336 9.45715C11.0454 9.40532 11.1573 9.35349 11.2718 9.30439C11.3864 9.25256 11.5037 9.20618 11.621 9.15981C11.6974 9.12707 11.7765 9.09707 11.8556 9.06706C11.9511 9.02887 12.0466 8.99341 12.142 8.95794C12.3084 8.89793 12.4776 8.84064 12.644 8.78609C12.764 8.7479 12.884 8.71243 13.0013 8.67697C13.1404 8.63605 13.2796 8.59786 13.4187 8.55967C13.6642 8.4942 13.9124 8.43692 14.1579 8.38509C14.2125 8.37418 14.2671 8.36327 14.3216 8.35236C14.4362 8.33053 14.5508 8.30871 14.6626 8.28961C14.769 8.27052 14.8726 8.25415 14.9763 8.24051C15.0009 8.23506 15.0227 8.23233 15.0472 8.2296C15.0718 8.22414 15.0936 8.22142 15.1154 8.21869C15.2382 8.20232 15.3609 8.18595 15.4837 8.17231C15.6201 8.15595 15.7565 8.14231 15.8901 8.1314C15.9802 8.12321 16.0702 8.11776 16.1575 8.1123C16.2284 8.10685 16.302 8.10139 16.373 8.09866C16.493 8.09321 16.613 8.08775 16.7331 8.08502C16.8531 8.08229 16.9731 8.07957 17.0904 8.07957C18.2361 8.07957 19.33 8.22142 20.3257 8.48329C21.0677 8.6797 21.7087 8.96613 22.2652 9.33439C23.1108 9.88542 23.7519 10.6165 24.2238 11.4621C24.8867 12.646 25.2168 14.0536 25.3122 15.5158C25.3968 16.285 25.3913 17.1143 25.2604 17.9954C25.2031 18.5983 25.1131 19.1957 24.9985 19.774C24.9467 20.0331 24.8758 20.295 24.783 20.5569C24.1502 22.4364 22.5762 24.3241 20.7185 25.5298C20.713 25.5325 20.7076 25.538 20.7021 25.538C20.383 25.759 20.0665 25.9445 19.7583 26.1054C19.7528 26.1108 19.7501 26.1136 19.7446 26.1136C19.3327 26.3318 18.9099 26.5118 18.4898 26.6401C18.378 26.6755 18.2607 26.7055 18.1406 26.7355C17.9606 26.7819 17.7724 26.8174 17.576 26.8419C17.5187 26.8501 17.4614 26.8556 17.4041 26.861C17.3768 26.8637 17.3496 26.8665 17.3195 26.8665C17.2895 26.8719 17.2623 26.8747 17.235 26.8747C17.1477 26.8801 17.0604 26.8828 16.9731 26.8828H16.9704C16.7112 26.8828 16.4439 26.861 16.1766 26.8037C15.5628 26.6755 14.9408 26.3809 14.3762 25.8217C11.5119 22.9983 13.8851 18.0145 13.9097 17.9654L13.1732 17.6053L12.734 17.3898L12.4394 17.2452C12.3357 17.4607 10.1861 21.9426 12.1148 25.5107C9.68967 26.0126 8.40484 27.4284 8.34483 27.4966L9.56419 28.5878C9.61602 28.5305 10.8545 27.202 13.2441 27.0029C14.0843 27.824 15.0963 28.3177 16.2202 28.4677C16.2802 28.4759 16.343 28.4841 16.4057 28.4896C16.5176 28.5032 16.6294 28.5087 16.744 28.5114C16.7631 28.5141 16.7822 28.5141 16.8013 28.5141C16.8067 28.5168 16.8094 28.5168 16.8149 28.5168C16.8694 28.5168 16.9213 28.5168 16.9758 28.5168C16.9977 28.5168 17.0195 28.5168 17.0386 28.5168C17.0986 28.5168 17.1586 28.5168 17.2186 28.5114C17.2595 28.5114 17.3032 28.5087 17.3441 28.5032C17.4014 28.5032 17.4587 28.4977 17.516 28.4923C17.5323 28.4923 17.5487 28.4896 17.5651 28.4868C17.606 28.4814 17.6496 28.4786 17.6933 28.4732C17.7369 28.4705 17.7778 28.465 17.8188 28.4568C17.8815 28.4486 17.9415 28.4405 18.0042 28.4295C18.0533 28.4241 18.1024 28.4159 18.1488 28.405C18.1897 28.3968 18.2307 28.3886 18.2743 28.3804C18.337 28.3695 18.3971 28.3559 18.4598 28.3395C18.5444 28.3204 18.6289 28.2986 18.7135 28.2768C18.7981 28.255 18.8826 28.2304 18.9699 28.2031C19.1581 28.1458 19.3436 28.0804 19.5291 28.0067C19.5919 27.9849 19.6546 27.9604 19.7174 27.9331C19.7174 27.9331 19.731 27.9276 19.7583 27.914C19.7637 27.9303 19.7719 27.9494 19.7801 27.9658C20.3802 29.3679 21.9024 31.2747 24.6521 31.3429C24.7039 31.3484 24.7557 31.3484 24.8103 31.3484C24.8976 31.3484 24.9876 31.3484 25.0776 31.3429C25.6778 31.3156 26.2534 31.2229 26.8071 31.0647C28.5748 30.5573 30.086 29.3707 31.2426 27.5757C33.3513 24.2941 33.8723 19.4412 32.4866 16.0341C32.3938 15.8049 32.2956 15.5812 32.1947 15.3685C30.9971 12.8479 29.2758 11.3394 28.1929 10.581C28.3429 9.77631 28.5584 9.00977 28.8257 8.28416C28.8939 8.10412 28.9621 7.92408 29.0358 7.74949C29.1094 7.57218 29.1831 7.3976 29.2622 7.22847C29.3413 7.05661 29.4231 6.88748 29.5077 6.72381C29.5923 6.55741 29.6768 6.39374 29.7669 6.23552C29.8487 6.09094 29.9305 5.94909 30.0151 5.80724C30.0969 5.66812 30.1842 5.529 30.2715 5.39261C30.2906 5.36533 30.3097 5.33532 30.3261 5.30804C30.397 5.20165 30.4679 5.09527 30.5389 4.99434C30.618 4.87976 30.6971 4.76792 30.7762 4.65881C30.7925 4.63698 30.8062 4.61789 30.8198 4.59879C30.828 4.59061 30.8335 4.5797 30.8389 4.57151C30.9208 4.4624 31.0026 4.35874 31.0844 4.25508C31.0872 4.25235 31.0899 4.24962 31.0899 4.2469C31.1854 4.12414 31.2836 4.00411 31.3818 3.88682C31.48 3.76952 31.5836 3.65222 31.6846 3.53765L31.8319 3.37397C31.881 3.32214 31.9273 3.27032 31.9764 3.21849L31.9819 3.21303H31.9846C32.0692 3.12028 32.1538 3.03299 32.2383 2.94843C32.3229 2.86659 32.4074 2.78202 32.492 2.70292C32.5493 2.64563 32.6093 2.59107 32.6693 2.53924C32.8112 2.40558 32.953 2.28282 33.0921 2.1628C33.2067 2.06459 33.3213 1.97184 33.4359 1.88182C33.5504 1.7918 33.6623 1.70724 33.7768 1.62268H33.7796C33.8914 1.53811 34.0033 1.459 34.1178 1.38262C34.1178 1.38262 34.1206 1.38262 34.1206 1.37989C34.2079 1.31988 34.2951 1.2626 34.3824 1.20804C34.4779 1.14802 34.5707 1.09074 34.6634 1.03345C34.7616 0.976168 34.8571 0.921611 34.9526 0.869781C35.1735 0.749754 35.3863 0.646095 35.5909 0.556075C35.6427 0.531524 35.6945 0.509701 35.7464 0.490606C35.8309 0.455143 35.9155 0.425137 35.9946 0.39513C36.0355 0.381491 36.0764 0.367851 36.1174 0.354212C36.1556 0.340572 36.1965 0.329661 36.2347 0.318749C36.2892 0.299654 36.3438 0.283287 36.3983 0.269648C36.4584 0.25328 36.5184 0.236913 36.5784 0.226001C36.592 0.223274 36.6029 0.220546 36.6138 0.217818C36.6629 0.206906 36.7093 0.198723 36.7557 0.190539C36.7966 0.182355 36.8375 0.1769 36.8757 0.171444C36.9085 0.165988 36.9385 0.16326 36.9685 0.160532C37.0094 0.155077 37.0476 0.152349 37.0885 0.149621C37.1403 0.149621 37.1922 0.144165 37.244 0.144165C37.4377 0.144165 37.615 0.168716 37.7705 0.217818C42.7734 1.82181 40.2201 10.461 39.5299 13.2898C38.8371 16.1186 35.4572 29.9326 35.4572 29.9326C38.2806 32.7969 45.1221 31.2365 46.0769 35.0556C46.1232 35.2411 46.1369 35.4429 46.1178 35.6584Z" fill="white"/>
</svg>
