<svg width="46" height="50" viewBox="0 0 46 50" fill="none" xmlns="http://www.w3.org/2000/svg">
<path d="M28.8661 31.852C28.8627 31.8692 28.8588 31.8888 28.8549 31.9084C28.8452 31.9575 28.8359 32.0041 28.8262 32.0531C28.8252 32.058 28.8247 32.0605 28.8213 32.0649C28.8379 31.9942 28.8544 31.9236 28.8661 31.852Z" fill="white"/>
<path d="M28.8213 32.0649C28.8213 32.0649 28.8252 32.058 28.8262 32.0531C28.8359 32.0041 28.8452 31.9575 28.8549 31.9084C28.8588 31.8888 28.8627 31.8692 28.8661 31.852C28.852 31.9231 28.8379 31.9942 28.8213 32.0649Z" fill="white"/>
<path d="M17.4872 20.4985C16.5502 20.5445 15.6855 20.7144 14.9106 20.9455C14.9106 20.9201 14.9212 20.8406 14.9373 20.7597C14.9524 20.6709 14.9709 20.5777 14.9841 20.5497C15.009 20.4884 15.0359 20.43 15.0628 20.3716C15.7872 18.8279 17.5341 18.053 18.9045 17.6087C19.5284 17.4063 20.1657 17.2651 20.8133 17.1872C20.856 17.1778 20.9001 17.1738 20.9418 17.1693C20.9526 17.1664 20.9653 17.1664 20.9756 17.1658C20.9859 17.1653 20.9967 17.1624 21.007 17.1619C21.8277 17.0724 22.6574 17.079 23.4749 17.1852C23.5892 17.2003 23.703 17.2177 23.8168 17.2352C23.9306 17.2527 24.0434 17.2751 24.1562 17.2975C24.3033 17.3267 24.4525 17.3588 24.5982 17.3954C24.7051 17.4217 24.8096 17.4476 24.9155 17.4788L24.9302 17.4817C24.9302 17.4817 24.9425 17.4841 24.9494 17.4881C25.0342 17.51 25.1211 17.5349 25.205 17.5617C25.2123 17.5632 25.2172 17.5642 25.2246 17.5656C25.3811 17.612 25.5341 17.6627 25.6892 17.7165C25.9251 17.799 26.1572 17.8884 26.3878 17.9851C26.9555 18.2202 27.5085 18.5033 28.0263 18.8354C28.1304 18.902 28.234 18.971 28.3351 19.0395C28.4475 19.1153 28.5589 19.196 28.6698 19.2792C28.7076 19.3071 28.7454 19.335 28.7808 19.3624C28.8186 19.3903 28.8534 19.4202 28.8908 19.4505C28.9374 19.4853 28.9811 19.522 29.0248 19.5587C29.069 19.593 29.1122 19.6321 29.1559 19.6688C29.202 19.706 29.2477 19.7457 29.2904 19.7873C29.3665 19.8534 29.4397 19.9215 29.5123 19.992C29.6518 20.1241 29.7805 20.2593 29.9037 20.3959C29.9705 20.4704 30.0368 20.5472 30.0982 20.6232C30.1646 20.7 30.2274 20.7814 30.2879 20.8622C30.3478 20.9454 30.4097 21.0317 30.4692 21.1174C30.9758 21.8654 31.3734 22.7906 31.4186 23.8855C31.4212 23.9497 31.4208 24.0159 31.4209 24.0797C31.4205 24.1459 31.4201 24.2121 31.4168 24.2802C31.4173 24.316 31.4149 24.3538 31.4106 24.3886C31.4106 24.4396 31.4078 24.4926 31.4 24.5445C31.3971 24.5593 31.3991 24.5749 31.3961 24.5897C31.3957 24.6176 31.3923 24.6475 31.3889 24.6774C31.3845 24.6995 31.3797 24.724 31.3753 24.7461C31.3763 24.754 31.3743 24.7638 31.3729 24.7711L31.3724 24.7736C31.367 24.8133 31.3617 24.853 31.3559 24.8952C31.336 25.0213 31.3116 25.1439 31.2809 25.2601C31.2692 25.3062 31.2575 25.3524 31.2434 25.398L31.2424 25.4029C31.2424 25.4029 31.237 25.4171 31.2356 25.4245C31.2356 25.4372 31.2307 25.449 31.2258 25.4608C31.2077 25.5133 31.1921 25.5662 31.1745 25.6163C31.1316 25.7301 31.0876 25.8361 31.0392 25.9386C31.0162 25.9902 30.9908 26.0412 30.9634 26.0893C30.9385 26.1379 30.9116 26.1835 30.8847 26.2292C30.8548 26.2768 30.825 26.3244 30.7932 26.369C30.7643 26.4117 30.7359 26.452 30.7051 26.4918C30.6743 26.5315 30.6434 26.5713 30.6101 26.6106C30.5862 26.6415 30.5602 26.6695 30.5343 26.6975C30.5176 26.7171 30.4985 26.7363 30.4824 26.7534C30.4501 26.7878 30.4177 26.8222 30.3835 26.8536C30.3511 26.888 30.3169 26.9194 30.2831 26.9484C30.2209 27.0049 30.1597 27.0565 30.094 27.1046C30.0666 27.1272 30.0392 27.1498 30.0098 27.1695C29.926 27.2319 29.8437 27.2869 29.7604 27.3341C29.7168 27.3611 29.6708 27.3877 29.6282 27.4098C29.6017 27.4275 29.5738 27.4398 29.5483 27.4526C29.1338 27.666 28.7426 27.7745 28.4823 27.8273L28.475 27.8258L28.472 27.8278C28.4613 27.8308 28.4505 27.8337 28.4426 27.8347C28.4426 27.8347 28.4431 27.8323 28.4407 27.8318C28.1497 27.0373 27.7326 26.1975 27.1352 25.3677L27.1356 25.3653C27.1356 25.3653 27.1312 25.3618 27.1293 25.3589C26.3023 24.2083 25.1361 23.0719 23.4954 22.0784C23.1994 21.8999 22.903 21.7365 22.6105 21.5918C20.7915 20.6878 19.0548 20.4221 17.5029 20.4965L17.498 20.4955C17.498 20.4955 17.4902 20.4965 17.4853 20.4955L17.4872 20.4985Z" fill="white"/>
<path d="M40.4756 6.98306C40.4756 6.98306 40.4972 6.98989 40.5094 6.99232C40.5187 6.99672 40.531 6.99916 40.5428 7.00404L40.5501 7.0055C40.5835 7.01722 40.6193 7.02942 40.6546 7.04408C40.6595 7.04506 40.6669 7.04652 40.6713 7.04995L40.6787 7.05141C40.7376 7.07584 40.7989 7.10075 40.8592 7.13058C40.9196 7.1604 40.9819 7.19316 41.0438 7.22838C41.1056 7.26359 41.1669 7.30126 41.2298 7.34432C41.2906 7.38444 41.3535 7.42749 41.4153 7.47546C41.4664 7.51363 41.5189 7.55719 41.5714 7.60076C41.6436 7.66096 41.7153 7.72362 41.7835 7.7907C41.8434 7.84848 41.9053 7.90919 41.9643 7.97187C42.0232 8.03455 42.0816 8.09968 42.1396 8.16726L42.1455 8.17608C42.1455 8.17608 42.1558 8.18832 42.1622 8.19469C42.2074 8.24954 42.2526 8.30439 42.2948 8.36121C42.2993 8.36463 42.3012 8.36758 42.3051 8.37345C42.3115 8.37982 42.3199 8.38912 42.3258 8.39794C42.3646 8.44643 42.4009 8.49443 42.4363 8.54733C42.5086 8.64579 42.5793 8.7516 42.6496 8.85987C42.7563 9.02888 42.861 9.20771 42.9588 9.39537C43.0567 9.58303 43.1496 9.78246 43.2362 9.98828C43.2791 10.0936 43.3219 10.199 43.3613 10.3088C43.5203 10.7406 43.6539 11.2106 43.7522 11.717C43.8016 11.969 43.8417 12.2293 43.87 12.4975C43.9008 12.7661 43.9218 13.0456 43.9316 13.3305C43.9352 13.4663 43.9383 13.6046 43.9385 13.7448C43.9381 13.76 43.9376 13.7752 43.9367 13.7929L43.9357 13.7978C43.9349 13.9174 43.9311 14.039 43.9269 14.1631C43.9245 14.1754 43.9225 14.1852 43.925 14.1984C43.9265 14.2038 43.9279 14.2092 43.9245 14.2136C43.9226 14.2489 43.9207 14.2842 43.9188 14.3195C43.9045 14.5843 43.8813 14.855 43.8494 15.1316C43.7898 15.6118 43.7017 16.1067 43.5799 16.6178C42.1651 22.5644 38.7426 24.2812 38.7426 24.2812C39.1519 25.1858 40.9872 29.8606 40.8913 32.9514C40.8726 33.5722 40.782 34.3623 40.6063 35.2476C40.5586 35.488 40.505 35.7323 40.4446 35.9854C40.4144 36.1119 40.3817 36.238 40.3486 36.3665C40.2818 36.626 40.2096 36.887 40.1261 37.1534C40.0871 37.2858 40.0451 37.4202 40.0007 37.5542C39.9797 37.6214 39.9563 37.6881 39.9328 37.7548C39.8928 37.8794 39.8479 38.003 39.8029 38.1267C39.798 38.1385 39.7956 38.1507 39.7907 38.1625C39.7502 38.2768 39.7077 38.3882 39.6623 38.5015C39.6246 38.6011 39.5865 38.7032 39.544 38.8018C39.4981 38.9176 39.4492 39.0353 39.3979 39.1526C39.3549 39.2537 39.309 39.3567 39.263 39.4598C39.221 39.5559 39.177 39.6492 39.1325 39.7448C39.1228 39.7684 39.1105 39.7915 39.1008 39.815C39.0499 39.9171 39.001 40.0221 38.9473 40.1261C38.9218 40.1771 38.8969 40.2257 38.869 40.2763C38.826 40.3646 38.781 40.45 38.7336 40.5349C38.692 40.6159 38.648 40.6963 38.601 40.7788C38.513 40.9398 38.4201 41.0997 38.3227 41.2563C38.2763 41.3363 38.2278 41.4134 38.1765 41.4924C38.1505 41.5331 38.1246 41.5739 38.0987 41.6146C38.0581 41.6779 38.0175 41.7412 37.9749 41.8016C37.9314 41.8669 37.8883 41.9297 37.8448 41.995C37.8017 42.0578 37.7557 42.1226 37.7102 42.185C37.6211 42.3126 37.5277 42.4368 37.4342 42.561C37.3387 42.6822 37.2404 42.8054 37.1425 42.9262C37.0921 42.9876 37.0421 43.0465 36.9897 43.1049C36.9398 43.1638 36.8899 43.2228 36.835 43.2807C36.7851 43.3396 36.7327 43.398 36.6784 43.4535C36.626 43.512 36.5717 43.5674 36.5173 43.6229C36.463 43.6784 36.4081 43.7364 36.3513 43.7914C36.2402 43.9019 36.1246 44.0089 36.0095 44.1135C35.9532 44.1661 35.894 44.2206 35.8328 44.2722C35.774 44.3242 35.7152 44.3763 35.652 44.425C35.5933 44.477 35.5325 44.5261 35.4694 44.5748C35.4086 44.6239 35.3454 44.6725 35.2827 44.7187C35.1564 44.816 35.0285 44.9079 34.8958 44.9988C34.8248 45.0484 34.7542 45.0956 34.6817 45.1398C34.62 45.1811 34.5587 45.2199 34.4951 45.2583C34.4079 45.3123 34.3211 45.364 34.232 45.4151C34.1859 45.4416 34.1399 45.4682 34.0914 45.4942C33.9885 45.5503 33.8807 45.6054 33.7729 45.6604C33.7699 45.6624 33.767 45.6644 33.7645 45.6639C33.7102 45.6939 33.6538 45.7209 33.5979 45.7455C33.5387 45.7746 33.4823 45.8016 33.421 45.8277C33.2726 45.8951 33.1197 45.9591 32.9648 46.0201C32.8624 46.0609 32.758 46.0988 32.6512 46.1363C32.5198 46.1816 32.384 46.2234 32.2483 46.2653C24.4429 48.5907 19.3638 45.9003 14.4532 40.7554C14.3432 40.6418 14.2386 40.5267 14.134 40.4116C14.0485 40.3157 13.9631 40.2197 13.8805 40.1217C13.8074 40.0409 13.7376 39.9557 13.6679 39.8705C13.5136 39.6844 13.3623 39.4963 13.2193 39.3048C13.179 39.2509 13.1363 39.1965 13.0965 39.1402C13.0862 39.128 13.0783 39.1162 13.068 39.104C12.9977 39.0085 12.928 38.9105 12.8607 38.813C12.7737 38.6861 12.6867 38.5593 12.6071 38.4338C12.5776 38.3898 12.5481 38.3457 12.5186 38.3016C12.468 38.2227 12.4174 38.1438 12.3717 38.0659C12.3196 37.9817 12.2699 37.8979 12.2203 37.8141C12.1706 37.7303 12.121 37.6466 12.0738 37.5633C12.0079 37.4457 11.9449 37.3261 11.8815 37.209C11.8117 37.0728 11.7414 36.9391 11.6764 36.8038C11.5437 36.5353 11.4241 36.2643 11.3099 35.9918L11.3104 35.9894C11.2534 35.8532 11.2012 35.7179 11.149 35.5826C11.084 35.4091 11.022 35.2337 10.9644 35.0617C10.9245 34.9416 10.8865 34.8245 10.8491 34.7049C10.8496 34.7024 10.8471 34.7019 10.8476 34.6995C10.8151 34.5936 10.7831 34.4853 10.7559 34.3779C10.7481 34.3534 10.7426 34.3294 10.7347 34.3049C10.7066 34.2025 10.679 34.0976 10.6558 33.9961C10.6494 33.977 10.6455 33.9584 10.6415 33.9397C10.6149 33.8299 10.5882 33.7201 10.5645 33.6084C10.5384 33.4961 10.5176 33.3824 10.4969 33.2687C10.4811 33.1941 10.4682 33.1177 10.4553 33.0412C10.438 32.9485 10.4232 32.8564 10.4084 32.7642C10.3841 32.6039 10.3628 32.4416 10.3434 32.2823C10.3305 32.1676 10.32 32.0533 10.3091 31.9415C10.2971 31.8092 10.2876 31.6773 10.2781 31.5454C10.263 31.313 10.2558 31.0796 10.253 30.8496C10.253 30.7986 10.2529 30.7476 10.2528 30.6966C10.2536 30.5897 10.2545 30.4828 10.2573 30.3789C10.2591 30.2798 10.2629 30.1837 10.2691 30.0881C10.2686 30.065 10.27 30.0449 10.2719 30.0224C10.2714 29.9993 10.2729 29.9792 10.2743 29.9591C10.2815 29.8458 10.2887 29.7326 10.2983 29.6198C10.3079 29.4942 10.32 29.3692 10.3341 29.247C10.3428 29.1646 10.3539 29.0827 10.3646 29.0033C10.3723 28.9386 10.3806 28.8714 10.3908 28.8071C10.4073 28.6982 10.4238 28.5893 10.4428 28.481C10.4617 28.3726 10.4807 28.2642 10.5016 28.1587C10.7061 27.1287 11.0288 26.1705 11.4419 25.3221C11.7509 24.6901 12.1227 24.1649 12.5531 23.7303C13.1994 23.0683 13.9711 22.6225 14.8155 22.3491C15.9982 21.9644 17.3226 21.9188 18.6541 22.0939C19.3608 22.1551 20.1054 22.308 20.8742 22.5829C21.4059 22.742 21.927 22.9295 22.4264 23.1357C22.6502 23.2285 22.873 23.339 23.0918 23.4691C24.6687 24.3735 26.0849 26.1254 26.8374 28.0107C26.8389 28.0161 26.8428 28.0219 26.8419 28.0268C26.9836 28.3532 27.0939 28.6708 27.1836 28.9766C27.1875 28.9825 27.1895 28.9855 27.1885 28.9904C27.3112 29.3996 27.3976 29.8119 27.4379 30.2124C27.4498 30.3193 27.4559 30.4301 27.4614 30.5434C27.471 30.7135 27.4693 30.8891 27.4563 31.07C27.4535 31.123 27.4482 31.1755 27.4428 31.2279C27.4404 31.253 27.438 31.278 27.4327 31.3049C27.4322 31.3329 27.4298 31.3579 27.4249 31.3824C27.4142 31.4619 27.4011 31.5408 27.3855 31.6193L27.3851 31.6218C27.3388 31.8548 27.2715 32.0912 27.1723 32.3213C26.9475 32.8503 26.5717 33.3569 25.9682 33.7647C22.9188 35.836 18.8616 32.8131 18.8218 32.7823L18.3667 33.3802L18.0946 33.7366L17.912 33.9756C18.0873 34.1073 21.7331 36.8396 25.2851 35.7423C25.3036 38.0121 26.3472 39.4199 26.3978 39.486L27.5963 38.5844C27.5541 38.5276 26.5807 37.1772 26.8281 34.9933C27.7162 34.3844 28.3407 33.5627 28.6761 32.579C28.6942 32.5265 28.7127 32.4716 28.7288 32.4161C28.761 32.318 28.7859 32.2184 28.8088 32.1159C28.8146 32.0992 28.8181 32.0821 28.8215 32.0649C28.8249 32.0605 28.8254 32.058 28.8263 32.0531C28.8361 32.0041 28.8453 31.9575 28.8551 31.9084C28.859 31.8888 28.8629 31.8692 28.8663 31.852C28.877 31.7981 28.8877 31.7441 28.8935 31.6892C28.9008 31.6524 28.9061 31.6127 28.9085 31.5749C28.9187 31.5234 28.9241 31.4709 28.9294 31.4185C28.9323 31.4038 28.9328 31.3886 28.9332 31.3734C28.9356 31.3356 28.941 31.2959 28.9438 31.2557C28.9492 31.2159 28.9516 31.1782 28.9515 31.1399C28.9554 31.0821 28.9587 31.0266 28.9601 30.9683C28.9639 30.9232 28.9653 30.8776 28.9638 30.8339C28.9638 30.7957 28.9637 30.7574 28.9641 30.7167C28.9655 30.6584 28.964 30.602 28.9604 30.5427C28.9584 30.4632 28.9538 30.3833 28.9493 30.3034C28.9448 30.2235 28.9378 30.1431 28.9288 30.0597C28.9109 29.8803 28.8852 29.7018 28.8521 29.5219C28.8436 29.4616 28.8327 29.4008 28.8194 29.3395C28.8194 29.3395 28.8169 29.3263 28.8096 29.2994C28.8252 29.2974 28.8439 29.2934 28.86 29.289C30.2277 28.9996 32.2136 27.9714 32.7655 25.5115C32.7797 25.4658 32.7889 25.4193 32.7987 25.3702C32.8142 25.2917 32.8303 25.2108 32.8415 25.1289C32.924 24.5845 32.9433 24.0505 32.8999 23.5244C32.7592 21.8446 31.962 20.2742 30.5547 18.9141C27.9806 16.4328 23.7106 15.0984 20.4002 15.7364C20.1777 15.7788 19.9591 15.8272 19.7498 15.88C17.27 16.5069 15.6066 17.7852 14.7316 18.6235C14.0349 18.345 13.3842 18.0145 12.7796 17.6447C12.6299 17.5513 12.4802 17.4578 12.3364 17.3605C12.1901 17.2626 12.0463 17.1652 11.9083 17.0639C11.7679 16.9621 11.6305 16.8584 11.4984 16.7532C11.3639 16.6474 11.2319 16.5422 11.1057 16.433C10.9903 16.3337 10.8774 16.2348 10.7649 16.1335C10.6545 16.0351 10.545 15.9318 10.4379 15.8289C10.4168 15.8069 10.3932 15.7844 10.3716 15.7648C10.2886 15.6821 10.2057 15.5993 10.1276 15.5175C10.0387 15.426 9.95224 15.3349 9.86826 15.2443C9.85156 15.2257 9.83683 15.21 9.82209 15.1943C9.8162 15.1855 9.80736 15.1787 9.80098 15.1723C9.71748 15.0793 9.63889 14.9872 9.5603 14.8951C9.55833 14.8922 9.55637 14.8893 9.55391 14.8888C9.46059 14.781 9.3702 14.6713 9.28227 14.5621C9.19434 14.4529 9.10738 14.3388 9.02238 14.2276L8.90152 14.0659C8.86369 14.0125 8.82536 13.9616 8.78753 13.9082L8.7836 13.9023L8.78408 13.8999C8.71579 13.8073 8.6524 13.7157 8.59146 13.6246C8.53298 13.534 8.47204 13.4428 8.41601 13.3527C8.37473 13.291 8.33639 13.2273 8.3005 13.1641C8.20564 13.0127 8.12059 12.8633 8.0375 12.7168C7.96966 12.5962 7.90672 12.4767 7.84623 12.3576C7.78574 12.2386 7.72967 12.1229 7.67409 12.0048L7.67458 12.0024C7.61851 11.8867 7.56734 11.7721 7.51912 11.6554C7.51912 11.6554 7.5196 11.653 7.51715 11.6525C7.47877 11.5633 7.44285 11.4746 7.40937 11.3864C7.37246 11.2899 7.3375 11.1962 7.30255 11.1026C7.26857 11.0041 7.23656 10.9086 7.207 10.8135C7.13852 10.5934 7.08329 10.3836 7.03887 10.1836C7.02604 10.1326 7.01567 10.0822 7.00775 10.0321C6.99096 9.94979 6.97907 9.86841 6.96621 9.79194C6.96125 9.75272 6.95629 9.7135 6.95133 9.67428C6.94588 9.63751 6.94337 9.59877 6.94037 9.56249C6.93294 9.51003 6.92796 9.45807 6.92543 9.40658C6.92143 9.34971 6.91742 9.29283 6.91832 9.23693C6.9183 9.22418 6.9178 9.21388 6.91729 9.20359C6.91624 9.1575 6.91716 9.11434 6.91808 9.07119C6.91802 9.03294 6.92042 8.99519 6.92233 8.95988C6.92326 8.92948 6.92617 8.90201 6.92907 8.87454C6.93146 8.83679 6.93583 8.80196 6.94067 8.76469C6.94992 8.71809 6.95427 8.67052 6.96351 8.62393C6.99807 8.4498 7.05178 8.29477 7.12367 8.16374C9.45842 3.95213 16.7698 7.78917 19.1898 8.91441C21.6094 10.0421 33.4256 15.5456 33.4256 15.5456C36.5045 13.5184 36.3225 7.08918 39.9263 6.91227C40.1013 6.90367 40.2852 6.92744 40.4756 6.98306Z" fill="white"/>
</svg>
